<?xml version="1.0" encoding="utf-8"?>
<!-- Generator: Adobe Illustrator 25.3.1, SVG Export Plug-In . SVG Version: 6.00 Build 0)  -->
<svg version="1.1" id="Layer_1" xmlns="http://www.w3.org/2000/svg" xmlns:xlink="http://www.w3.org/1999/xlink" x="0px" y="0px"
	 viewBox="0 0 510 569" style="enable-background:new 0 0 510 569;" xml:space="preserve">
<style type="text/css">
	.st0{fill:#BA68C8;}
	.st1{fill:#F2F2F2;}
	.st2{fill:#417DBF;}
	.st3{fill:#263238;stroke:#263238;stroke-linecap:round;stroke-linejoin:round;}
	.st4{fill:#B0B0B0;stroke:#263238;stroke-linecap:round;stroke-linejoin:round;}
	.st5{fill:#FFFFFF;stroke:#263238;stroke-miterlimit:10;}
	.st6{fill:#707070;stroke:#263238;stroke-linecap:round;stroke-linejoin:round;}
	.st7{fill:none;stroke:#263238;stroke-linecap:round;stroke-linejoin:round;}
	.st8{fill:#FFFFFF;stroke:#263238;stroke-linecap:round;stroke-linejoin:round;}
	.st9{fill:#263238;stroke:#263238;stroke-miterlimit:10;}
	.st10{fill:#263238;}
	.st11{fill:none;stroke:#FFFFFF;stroke-linecap:round;stroke-linejoin:round;}
	.st12{fill:#A1A1A1;stroke:#263238;stroke-linecap:round;stroke-linejoin:round;}
	.st13{fill:#919191;}
	.st14{fill:#E0E0E0;}
	.st15{fill:#5197D1;}
	.st16{fill:#FFFFFF;}
	.st17{fill:#FFBDA7;}
	.st18{fill:#37474F;}
	.st19{fill:#F0997A;}
	.st20{fill:#F5F5F5;}
	.st21{fill:#B16668;}
	.st22{fill:#455A64;}
	.st23{opacity:0.25;enable-background:new    ;}
	.st24{opacity:0.1;enable-background:new    ;}
	.st25{opacity:0.1;fill:#FFFFFF;enable-background:new    ;}
	.st26{fill:#305F92;}
	.st27{opacity:0.3;fill:#FFFFFF;enable-background:new    ;}
</style>
<g>
	<g id="freepik--background-simple--inject-351_1_">
		<path class="st0" d="M464.7,310.1c-14.6,38-44.3,79.1-86.2,91.3c-63.3,18.4-70.9,68.1-184.2,63.5c-16.5-0.6-33-2.9-49-7
			c-7.8-2-15.5-4.5-23-7.5C56,424.2,21.5,366.8,18.6,306.6c-3.8-79.1,52.9-116.8,89.7-138.9S189.6,60.1,301,63.8
			c17,0.5,33.9,2.9,50.4,7.2c37.5,9.9,75.6,31.8,97.8,63.7c1.7,2.4,3.2,4.9,4.8,7.4C483.6,191,484.5,258.3,464.7,310.1z"/>
		<path class="st1" d="M464.7,310.1c-14.6,38-44.3,79.1-86.2,91.3c-63.3,18.4-70.9,68.1-184.2,63.5c-16.5-0.6-33-2.9-49-7
			c-7.8-2-15.5-4.5-23-7.5C56,424.2,21.5,366.8,18.6,306.6c-3.8-79.1,52.9-116.8,89.7-138.9S189.6,60.1,301,63.8
			c17,0.5,33.9,2.9,50.4,7.2c37.5,9.9,75.6,31.8,97.8,63.7c1.7,2.4,3.2,4.9,4.8,7.4C483.6,191,484.5,258.3,464.7,310.1z"/>
	</g>
	<g id="freepik--Plant--inject-351_1_">
		<path class="st2" d="M478.4,308.5c0,0,0.9-8.8-2.6-12.8c-3.5-4-8.8,0.9-7.5,6.2S478.4,308.5,478.4,308.5z"/>
		<path class="st2" d="M468.3,347.8c0,0,1.4-13.7-4.1-19.9c-5.5-6.2-13.7,1.4-11.7,9.6C454.6,345.7,468.3,347.8,468.3,347.8z"/>
		<path class="st2" d="M465.3,370c0,0-1.5-13.7-8.2-18.6c-6.6-4.9-13.1,4.2-9.4,11.8S465.3,370,465.3,370z"/>
		<path class="st2" d="M479.3,381.5c-8.1,1.6-15.4,13.3-15.4,13.3s12.1,6.7,18.8,1.4C489.3,390.9,487.4,379.9,479.3,381.5z"/>
		<path class="st2" d="M482,402.1c-11.6,2.2-22,19-22,19s17.4,9.6,26.8,2.1C496.3,415.6,493.6,399.9,482,402.1z"/>
		<path class="st2" d="M459.7,419.4c0.3-0.4,0.5-0.8,0.7-1.2c1.5-3,1.7-6.5,0.5-9.7c0.6-5.1,1.2-9.2,1.6-11.1
			c0.2-0.8,0.3-1.6,0.5-2.5h0.6c0,0-0.1-0.7-0.3-1.7c0.9-5.2,1.9-11.7,3-19.5c0.2-1.1,0.3-2.1,0.5-3.2c3.2,1.5,12.2,5.2,17.6,0.9
			c6.6-5.3,4.7-16.3-3.4-14.7c-5.9,1.1-11.3,7.6-13.8,11c0.7-5,1.5-10.3,2.4-15.9c0.2-0.9,0.3-1.9,0.5-2.9
			c3.1,2.3,10.7,7.1,16.6,4.2c7.6-3.8,8-14.9-0.3-15.1c-5.9-0.1-12.6,5-15.8,7.9c1.2-5.9,2.8-12.7,4.6-19.3
			c1.9,1.4,6.9,4.7,10.8,2.8c4.9-2.4,5.1-9.6-0.2-9.7c-3.9-0.1-8.1,3.3-10.2,5.1c1.4-5.4,2.9-10.6,4.2-15.2
			c2.1,1.5,6.7,4.2,10.3,2.4c4.9-2.4,5.1-9.6-0.2-9.7c-3.4-0.1-7.1,2.5-9.3,4.4c1.9-6.7,3.4-11.6,3.8-12.9c2-1.3,7.9-5.4,8.9-7.8
			c1.3-2.9,0.1-6.3-2.8-7.6c-2.9-1.3-6.3-0.1-7.6,2.8c-0.1,0.2-0.2,0.3-0.2,0.5c-1,2.3,0.3,8.9,0.9,11.5l-0.4-0.1
			c-0.1,0.2-2,6.5-4.6,15.4l-0.2,0.2l0.1,0.1c-1.4,4.8-2.9,10.3-4.4,15.9c0.1-2.7-0.1-8.4-2.7-11.3c-3.5-4-8.8,0.9-7.5,6.2
			c1.2,4.7,8.3,6.3,9.8,6.6c-2,7.5-3.8,15.2-5,21.6l-0.3,0.3l0.2,0.2c-0.2,1.3-0.5,2.5-0.6,3.7c-1.3,7.9-2.3,15.4-3.2,21.9
			c-0.9,6.2-1.6,11.5-2.4,16c-1.1-4.4-3.2-10.3-7.1-13.2c-1.4-1.2-3.3-1.6-5.1-1.2c0.3-5.2-4.1-9.7-8.6-6.4
			c-5.5,4-6.7,15.3-6.7,15.3c3.4,0.2,6.8-0.4,10-1.6c-0.2,2,0.2,3.9,1,5.7c-1,0.1-2.1,0.4-2.9,1.1c-1.4,1.1-2.5,2.5-3.3,4
			c-1.2,0.5-2.4,1.2-3.3,2.1c-0.4-2.6-0.8-5.4-1.2-8.5c-0.8-5.4-1.6-11.5-2.7-18c-0.2-1-0.3-2-0.5-3l0.2-0.1l-0.2-0.2
			c-1-5.3-2.5-11.5-4.1-17.7c1.2-0.2,7.1-1.5,8.1-5.4c1.1-4.3-3.2-8.3-6.2-5.1c-2.1,2.4-2.3,7.1-2.2,9.3c-1.2-4.6-2.5-9.1-3.6-13
			l0.1-0.1l-0.1-0.1c-2.1-7.3-3.7-12.5-3.8-12.6l-0.3,0.1c0.5-2.1,1.5-7.5,0.7-9.5c-1-2.4-3.7-3.6-6.1-2.6c-2.4,1-3.6,3.7-2.6,6.1
			l0,0c0.8,2,5.7,5.4,7.3,6.4c0.3,1.1,1.6,5.1,3.2,10.6c-1.8-1.5-4.9-3.6-7.6-3.6c-4.3,0.1-4.1,6-0.1,8c2.9,1.5,6.7-0.7,8.5-2
			c1.1,3.8,2.3,8.1,3.4,12.5c-1.7-1.5-5.2-4.3-8.4-4.2c-4.3,0.1-4.1,6-0.2,8c3.2,1.6,7.3-1.1,8.9-2.3c1.4,5.5,2.8,11.1,3.8,15.9
			c-2.7-2.4-8.1-6.6-13-6.4c-6.8,0.1-6.4,9.3-0.2,12.4c4.8,2.4,11.1-1.6,13.7-3.4c0.2,0.8,0.3,1.7,0.4,2.4c0.7,4.6,1.4,9,2,13
			c-2.1-2.9-6.6-8.2-11.4-9.1c-6.7-1.3-8.3,7.8-2.8,12.1c4.5,3.5,11.9,0.5,14.5-0.7c0.1,0.9,0.3,1.8,0.4,2.7
			c0.5,3.5,0.9,6.6,1.4,9.5c-1,1.3-1.7,2.7-2.1,4.2c-2.4-2.9-6-6.4-9.9-7.2c-6.7-1.3-8.3,7.8-2.8,12.1c3.5,2.8,8.7,1.5,12.1,0.3
			c0.1,2,0.6,4,1.5,5.8c1,2,2.5,3.7,4.3,4.9c0.8,7.2,1.8,16.5,2.4,22.9h-10.2v43.2H471v-43.3h-13.3
			C458.2,434.2,459,426.7,459.7,419.4z M461.6,394.9c-0.2,0.8-0.3,1.5-0.5,2.2c-0.4,1.6-0.8,5-1.3,9.1c-1.2-2-3.4-3.3-5.7-3.5
			c-0.8-1.7-1.8-3.2-2.9-4.7c0.6-1.6,0.7-3.4,0.3-5.1C454.7,394.3,458.1,394.9,461.6,394.9z M439.9,417.4c0.5,0.3,1,0.6,1.5,0.8
			c-0.4,1.4-0.7,2.7-1,3.9C440.3,420.4,440.1,418.9,439.9,417.4z M440.9,426.2c3.2,0,12.1-0.3,17.1-4.9h0.1
			c-0.7,6.7-1.4,13.3-1.8,18.1h-14C441.9,435.7,441.4,431,440.9,426.2z"/>
		<path class="st2" d="M432.6,328.1c1.1-4.3-3.2-8.3-6.2-5.1c-2.9,3.3-2.1,10.5-2.1,10.5S431.5,332.4,432.6,328.1z"/>
		<path class="st2" d="M432.6,365.7c0,0,11.3-1.7,13-8.5c1.7-6.8-5.1-13-9.6-7.9C431.4,354.4,432.6,365.7,432.6,365.7z"/>
		<path class="st2" d="M421.3,410.4c-9.5-1.8-11.8,11.1-4,17.3c7.8,6.2,22.1-1.7,22.1-1.7S430.9,412.2,421.3,410.4z"/>
	</g>
	<g id="freepik--Device--inject-351_1_">
		<path class="st3" d="M120.4,129h327.1c5.6,0,10.2,4.6,10.2,10.2v257.9c0,5.6-4.6,10.2-10.2,10.2H120.4c-5.6,0-10.2-4.6-10.2-10.2
			V139.2C110.2,133.5,114.7,129,120.4,129z"/>
		<rect x="222.2" y="208.6" class="st4" width="104.1" height="274"/>
		<rect x="222.2" y="205.1" class="st3" width="104.1" height="214.4"/>
		<rect x="193.3" y="472.1" class="st4" width="161.9" height="10.5"/>
		<path class="st4" d="M109.9,129h328.8c5.6,0,10.2,4.6,10.2,10.2v257.9c0,5.6-4.6,10.2-10.2,10.2H109.9c-5.6,0-10.2-4.6-10.2-10.2
			V139.2C99.7,133.5,104.2,129,109.9,129z"/>
		<rect x="111.5" y="138.4" class="st5" width="325.6" height="259.5"/>
		<rect x="111.5" y="385.4" class="st6" width="325.6" height="12.5"/>
		<rect x="111.5" y="138.4" class="st2" width="325.6" height="18.1"/>
	</g>
	<g id="freepik--Floor--inject-351_1_">
		<line class="st7" x1="389.9" y1="482.6" x2="495" y2="482.6"/>
		<line class="st7" x1="14.7" y1="482.6" x2="385.8" y2="482.6"/>
	</g>
	<g id="freepik--profile-3--inject-351_1_">
		<rect x="292.8" y="229.8" class="st3" width="133.5" height="149.2"/>
		<rect x="287.4" y="222.7" class="st8" width="135.6" height="152.5"/>
		<rect x="317.9" y="222.7" class="st8" width="105.1" height="152.5"/>
		<rect x="287.4" y="222.7" class="st9" width="135.6" height="10.3"/>
		<rect x="323.8" y="238.2" class="st2" width="26.7" height="32.5"/>
		<path class="st3" d="M329.1,248c0,0,0.6,8.9-0.6,9.4c-0.7,0.3-1.4,0.5-2.1,0.4c0.8,1.6,2.2,2.9,3.9,3.5c2.8,1,4.9-1.6,4.9-1.6
			l-3-12.2L329.1,248z"/>
		<polygon class="st8" points="323.8,270.7 327.8,262.2 339.4,260.4 347.6,264.6 350.4,270.7 		"/>
		<polygon class="st8" points="330,262.2 331.7,268.3 340.8,262 337.5,259.4 		"/>
		<polygon class="st8" points="340.1,256.5 339.4,260.4 332.4,265.5 331.5,260.7 		"/>
		<path class="st8" d="M329.3,250.3c0,0-0.4,9.2,2.6,10.8c3,1.6,9.1-3.9,9.8-4.6c0.7-0.7,4.4-1.6,4.4-4.6s-2.3-2.3-2.3-2.3
			s1.4-3.9,0.7-5.6c-0.7-1.6-10.2-2.1-13.2-0.3C328.2,245.5,329.3,250.3,329.3,250.3z"/>
		<path class="st3" d="M338.5,248c-0.9,1-0.9,2.5,0,3.5c1.2,1.8,1.7,4,1.4,6.1c-0.2,1.4-2.4,1.8-2.4,1.8s0.6,1.2,3.1,2
			c2.6,0.8,6.6,0.3,8-3.6c1.4-3.9-1.9-12.1-3.1-14.3c-1.2-2.2-8.1-3.9-12.6-3c-4.5,1-6.3,3.7-5.9,5.5c0.4,1.8,1.6,2.7,4.5,2.7
			C334,248.7,336.3,248.4,338.5,248z"/>
		<path class="st7" d="M330.3,250.3c0.7-0.3,1.4-0.1,2,0.3"/>
		<polyline class="st7" points="332.4,252.3 331.7,255.4 333.7,255.2 		"/>
		<path class="st10" d="M335.7,252.7c0,0.5-0.2,0.8-0.5,0.8s-0.5-0.4-0.5-0.8c0-0.5,0.2-0.8,0.5-0.8
			C335.5,251.9,335.7,252.2,335.7,252.7z"/>
		<path class="st10" d="M331.6,252.3c0,0.5-0.2,0.8-0.5,0.8c-0.3,0-0.5-0.4-0.5-0.8s0.2-0.8,0.5-0.8
			C331.4,251.5,331.6,251.9,331.6,252.3z"/>
		<path class="st7" d="M334.3,250.7c0.9-0.2,1.8,0,2.6,0.5"/>
		<path class="st7" d="M331.7,257.9c1.4,0.3,2.8,0,4-0.8"/>
		<rect x="356.9" y="237.9" class="st8" width="60.2" height="11.9"/>
		<polygon class="st2" points="367.2,239.1 368.1,242.1 371.2,242.1 368.7,243.9 369.7,246.9 367.2,245 364.6,246.9 365.6,243.9 
			363.1,242.1 366.2,242.1 		"/>
		<polygon class="st2" points="377.9,239.1 378.9,242.1 382,242.1 379.5,243.9 380.4,246.9 377.9,245 375.4,246.9 376.4,243.9 
			373.9,242.1 377,242.1 		"/>
		<polygon class="st2" points="388.7,239.1 389.7,242.1 392.8,242.1 390.3,243.9 391.2,246.9 388.7,245 386.2,246.9 387.2,243.9 
			384.7,242.1 387.8,242.1 		"/>
		<polygon class="st2" points="399.5,239.1 400.5,242.1 403.6,242.1 401.1,243.9 402,246.9 399.5,245 397,246.9 397.9,243.9 
			395.4,242.1 398.5,242.1 		"/>
		<polygon class="st2" points="410.3,239.1 411.2,242.1 414.3,242.1 411.8,243.9 412.8,246.9 410.3,245 407.8,246.9 408.7,243.9 
			406.2,242.1 409.3,242.1 		"/>
		<rect x="356.9" y="255.8" class="st8" width="60.2" height="66.1"/>
		<rect x="356.9" y="326.9" class="st8" width="60.2" height="44.1"/>
		<line class="st7" x1="324.8" y1="278.9" x2="348.2" y2="278.9"/>
		<line class="st7" x1="324.8" y1="306" x2="348.2" y2="306"/>
		<line class="st7" x1="290" y1="277.8" x2="313.4" y2="277.8"/>
		<line class="st7" x1="290" y1="251" x2="313.4" y2="251"/>
		<line class="st7" x1="290" y1="241.7" x2="313.4" y2="241.7"/>
		<line class="st7" x1="324.8" y1="313.9" x2="348.2" y2="313.9"/>
		<line class="st7" x1="324.8" y1="321.9" x2="348.2" y2="321.9"/>
		<line class="st7" x1="324.8" y1="329.8" x2="348.2" y2="329.8"/>
		<line class="st7" x1="324.8" y1="337.7" x2="348.2" y2="337.7"/>
		<line class="st7" x1="324.8" y1="345.6" x2="348.2" y2="345.6"/>
		<line class="st7" x1="324.8" y1="353.5" x2="348.2" y2="353.5"/>
		<line class="st7" x1="324.8" y1="361.4" x2="348.2" y2="361.4"/>
		<line class="st7" x1="324.8" y1="282.1" x2="340.3" y2="282.1"/>
		<rect x="318.5" y="290.2" class="st2" width="38.4" height="10.2"/>
		<rect x="288" y="258.6" class="st2" width="30.1" height="10.2"/>
		<line class="st7" x1="360.9" y1="261.4" x2="390.3" y2="261.4"/>
		<line class="st7" x1="360.9" y1="336" x2="390.3" y2="336"/>
		<line class="st7" x1="360.9" y1="272.7" x2="377.3" y2="272.7"/>
		<line class="st7" x1="360.9" y1="280.6" x2="377.3" y2="280.6"/>
		<line class="st7" x1="360.9" y1="288.5" x2="377.3" y2="288.5"/>
		<line class="st7" x1="360.9" y1="296.4" x2="377.3" y2="296.4"/>
		<line class="st7" x1="360.9" y1="304.3" x2="377.3" y2="304.3"/>
		<line class="st7" x1="360.9" y1="312.2" x2="377.3" y2="312.2"/>
		<line class="st7" x1="384.6" y1="272.7" x2="401" y2="272.7"/>
		<line class="st7" x1="384.6" y1="280.6" x2="401" y2="280.6"/>
		<line class="st7" x1="384.6" y1="288.5" x2="401" y2="288.5"/>
		<line class="st7" x1="384.6" y1="296.4" x2="401" y2="296.4"/>
		<line class="st7" x1="384.6" y1="304.3" x2="401" y2="304.3"/>
		<line class="st7" x1="384.6" y1="312.2" x2="401" y2="312.2"/>
		<line class="st7" x1="360.9" y1="264.8" x2="402.7" y2="264.8"/>
		<rect x="356.9" y="341.6" class="st3" width="59.9" height="3.4"/>
		<line class="st11" x1="308.9" y1="225.2" x2="308.9" y2="230.3"/>
		<line class="st11" x1="340.7" y1="225.2" x2="340.7" y2="230.3"/>
		<line class="st11" x1="372.6" y1="225.2" x2="372.6" y2="230.3"/>
		<line class="st11" x1="404.4" y1="225.2" x2="404.4" y2="230.3"/>
	</g>
	<g id="freepik--profile-1--inject-351_1_">
		<rect x="130.3" y="183.9" class="st3" width="133.5" height="149.2"/>
		<rect x="124.9" y="176.4" class="st8" width="135.6" height="152.5"/>
		<rect x="155.4" y="176.4" class="st8" width="105.1" height="152.5"/>
		<rect x="124.9" y="176.4" class="st9" width="135.6" height="10.3"/>
		<rect x="161.3" y="191.8" class="st2" width="26.7" height="32.5"/>
		<polygon class="st8" points="161.3,224.3 165.3,215.9 176.9,214.1 185,218.3 187.9,224.3 		"/>
		<polygon class="st8" points="167.4,215.8 169.2,221.9 178.3,215.6 175,213 		"/>
		<polygon class="st12" points="177.6,210.2 176.9,214.1 169.9,219.2 169,214.3 		"/>
		<path class="st10" d="M166.8,203.1c-1-1.4-1.4-3.1-0.9-4.8c0.8-2.7,4.5-4.8,9.6-4.8c4-0.2,7.6,2.6,8.4,6.5c0.8,3.3-2.4,8-3.3,8.2
			s-1.3,0.8-2.1,0.3c-0.8-0.5-1.1-7.7-2.9-8.1s-6.8,0.3-6.8,0.3L166.8,203.1z"/>
		<path class="st12" d="M166.7,203.9c0,0-0.4,9.2,2.6,10.7s9.1-3.9,9.8-4.6c0.7-0.7,2.8-0.6,2.8-3.6s-3.1-1.6-3.1-1.6
			s-2-0.7-2.3-1.6s1.3-2.2,0.9-3.1c-0.7-1.6-5.3-4-8.2-2.1S166.7,203.9,166.7,203.9z"/>
		<path class="st7" d="M167.8,204c0.7-0.3,1.4-0.2,2,0.3"/>
		<polyline class="st7" points="169.9,206 169.2,209.1 171.2,208.8 		"/>
		<path class="st10" d="M173.2,206.3c0,0.5-0.2,0.8-0.5,0.8c-0.3,0-0.5-0.4-0.5-0.8s0.2-0.8,0.5-0.8S173.2,205.9,173.2,206.3z"/>
		<path class="st10" d="M169.1,206c0,0.5-0.2,0.8-0.5,0.8c-0.3,0-0.5-0.4-0.5-0.8c0-0.5,0.2-0.8,0.5-0.8
			C168.9,205.2,169.1,205.5,169.1,206z"/>
		<path class="st7" d="M171.8,204.4c0.9-0.2,1.8,0,2.6,0.5"/>
		<path class="st7" d="M169.2,211.5c0,0,2.5,0.6,4-0.8"/>
		<rect x="194.4" y="191.6" class="st8" width="60.2" height="11.9"/>
		<polygon class="st2" points="201.5,193.4 202.4,196.4 205.5,196.4 203,198.2 204,201.1 201.5,199.3 199,201.1 199.9,198.2 
			197.4,196.4 200.5,196.4 		"/>
		<polygon class="st2" points="212.3,193.4 213.2,196.4 216.3,196.4 213.8,198.2 214.8,201.1 212.3,199.3 209.8,201.1 210.7,198.2 
			208.2,196.4 211.3,196.4 		"/>
		<polygon class="st13" points="223,193.4 224,196.4 227.1,196.4 224.6,198.2 225.5,201.1 223,199.3 220.5,201.1 221.5,198.2 
			219,196.4 222.1,196.4 		"/>
		<polygon class="st13" points="233.8,193.4 234.8,196.4 237.9,196.4 235.4,198.2 236.3,201.1 233.8,199.3 231.3,201.1 232.3,198.2 
			229.8,196.4 232.9,196.4 		"/>
		<polygon class="st13" points="244.6,193.4 245.6,196.4 248.6,196.4 246.1,198.2 247.1,201.1 244.6,199.3 242.1,201.1 243.1,198.2 
			240.5,196.4 243.6,196.4 		"/>
		<rect x="194.4" y="209.4" class="st8" width="60.2" height="66.1"/>
		<rect x="194.4" y="280.6" class="st8" width="60.2" height="44.1"/>
		<line class="st7" x1="162.3" y1="232.6" x2="185.7" y2="232.6"/>
		<line class="st7" x1="162.3" y1="259.7" x2="185.7" y2="259.7"/>
		<line class="st7" x1="127.5" y1="231.4" x2="150.9" y2="231.4"/>
		<line class="st7" x1="127.5" y1="204.7" x2="150.9" y2="204.7"/>
		<line class="st7" x1="127.5" y1="195.4" x2="150.9" y2="195.4"/>
		<line class="st7" x1="162.3" y1="267.6" x2="185.7" y2="267.6"/>
		<line class="st7" x1="162.3" y1="275.5" x2="185.7" y2="275.5"/>
		<line class="st7" x1="162.3" y1="283.4" x2="185.7" y2="283.4"/>
		<line class="st7" x1="162.3" y1="291.3" x2="185.7" y2="291.3"/>
		<line class="st7" x1="162.3" y1="299.2" x2="185.7" y2="299.2"/>
		<line class="st7" x1="162.3" y1="307.2" x2="185.7" y2="307.2"/>
		<line class="st7" x1="162.3" y1="315.1" x2="185.7" y2="315.1"/>
		<line class="st7" x1="162.3" y1="235.8" x2="177.8" y2="235.8"/>
		<rect x="156" y="243.9" class="st2" width="38.4" height="10.2"/>
		<rect x="125.5" y="212.2" class="st2" width="30.1" height="10.2"/>
		<line class="st7" x1="198.4" y1="215.1" x2="227.7" y2="215.1"/>
		<line class="st7" x1="198.4" y1="289.6" x2="227.7" y2="289.6"/>
		<line class="st7" x1="198.4" y1="226.4" x2="214.8" y2="226.4"/>
		<line class="st7" x1="198.4" y1="234.3" x2="214.8" y2="234.3"/>
		<line class="st7" x1="198.4" y1="242.2" x2="214.8" y2="242.2"/>
		<line class="st7" x1="198.4" y1="250.1" x2="214.8" y2="250.1"/>
		<line class="st7" x1="198.4" y1="258" x2="214.8" y2="258"/>
		<line class="st7" x1="198.4" y1="265.9" x2="214.8" y2="265.9"/>
		<line class="st7" x1="222.1" y1="226.4" x2="238.5" y2="226.4"/>
		<line class="st7" x1="222.1" y1="234.3" x2="238.5" y2="234.3"/>
		<line class="st7" x1="222.1" y1="242.2" x2="238.5" y2="242.2"/>
		<line class="st7" x1="222.1" y1="250.1" x2="238.5" y2="250.1"/>
		<line class="st7" x1="222.1" y1="258" x2="238.5" y2="258"/>
		<line class="st7" x1="222.1" y1="265.9" x2="238.5" y2="265.9"/>
		<line class="st7" x1="198.4" y1="218.4" x2="240.2" y2="218.4"/>
		<rect x="194.4" y="295.3" class="st3" width="59.9" height="3.4"/>
		<line class="st11" x1="146.4" y1="178.9" x2="146.4" y2="184"/>
		<line class="st11" x1="178.2" y1="178.9" x2="178.2" y2="184"/>
		<line class="st11" x1="210.1" y1="178.9" x2="210.1" y2="184"/>
		<line class="st11" x1="241.9" y1="178.9" x2="241.9" y2="184"/>
	</g>
	<g id="freepik--profile-2--inject-351_1_">
		<rect x="220.4" y="129.8" class="st3" width="131.6" height="122.1"/>
		<rect x="213.7" y="97.1" class="st8" width="135.6" height="152.5"/>
		<rect x="244.2" y="97.1" class="st8" width="105.1" height="152.5"/>
		<rect x="213.7" y="97.1" class="st9" width="135.6" height="10.3"/>
		<rect x="250" y="112.6" class="st2" width="26.7" height="32.5"/>
		<polygon class="st3" points="250,145.1 254.5,137.6 267.4,135.6 276.5,140.3 276.7,145.1 		"/>
		<polygon class="st8" points="268.2,131.2 267.4,135.6 259.6,141.2 258.6,135.9 		"/>
		<path class="st8" d="M256.9,123.9c0,0-2,11.3,1.2,13c3.2,1.7,11.3-5.6,12-6.4s4.6-1.7,4.6-4.9s-2.4-2.4-2.4-2.4s1.5-4.2,0.7-5.9
			s-14-2.9-17.1-1C252.8,118.2,256.9,123.9,256.9,123.9z"/>
		<path class="st3" d="M273.1,117.3c-0.7-1.7-14-2.9-17.1-1c-3.2,2,1,7.6,1,7.6s1.5,1,5.4,0s6.6-2,6.6-2s-3.2,3.7-1.7,3.9l1.5,0.2
			l0.5,2.7l3.2-5.6C272.3,123.1,273.8,119,273.1,117.3z"/>
		<polyline class="st7" points="259.6,126.6 258.5,131.7 260.7,131.5 		"/>
		<path class="st10" d="M263.3,127c0,0.5-0.2,0.9-0.5,0.9s-0.5-0.4-0.5-0.9c0-0.5,0.2-0.9,0.5-0.9S263.3,126.5,263.3,127z"/>
		<path class="st10" d="M258.8,126.5c0,0.5-0.2,0.9-0.5,0.9s-0.5-0.4-0.5-0.9c0-0.5,0.2-0.9,0.5-0.9S258.8,126,258.8,126.5z"/>
		<path class="st7" d="M261.7,124.8c1-0.2,2,0,2.9,0.5"/>
		<path class="st7" d="M258.9,132.8c0,0,2.8,0.6,4.5-0.8"/>
		<rect x="283.2" y="112.4" class="st8" width="60.2" height="11.9"/>
		<polygon class="st2" points="291.7,114.1 292.7,117 295.8,117 293.3,118.8 294.3,121.8 291.7,120 289.2,121.8 290.2,118.8 
			287.7,117 290.8,117 		"/>
		<polygon class="st2" points="302.5,114.1 303.5,117 306.6,117 304.1,118.8 305,121.8 302.5,120 300,121.8 301,118.8 298.5,117 
			301.6,117 		"/>
		<polygon class="st2" points="313.3,114.1 314.3,117 317.4,117 314.9,118.8 315.8,121.8 313.3,120 310.8,121.8 311.8,118.8 
			309.3,117 312.4,117 		"/>
		<polygon class="st2" points="324.1,114.1 325,117 328.1,117 325.6,118.8 326.6,121.8 324.1,120 321.6,121.8 322.5,118.8 320,117 
			323.1,117 		"/>
		<polygon class="st2" points="334.9,114.1 335.8,117 338.9,117 336.4,118.8 337.4,121.8 334.9,120 332.4,121.8 333.3,118.8 
			330.8,117 333.9,117 		"/>
		<rect x="283.2" y="130.2" class="st8" width="60.2" height="66.1"/>
		<rect x="283.2" y="201.4" class="st8" width="60.2" height="44.1"/>
		<line class="st7" x1="251.1" y1="153.3" x2="274.5" y2="153.3"/>
		<line class="st7" x1="251.1" y1="180.4" x2="274.5" y2="180.4"/>
		<line class="st7" x1="216.2" y1="152.2" x2="239.6" y2="152.2"/>
		<line class="st7" x1="216.2" y1="125.4" x2="239.6" y2="125.4"/>
		<line class="st7" x1="216.2" y1="116.1" x2="239.6" y2="116.1"/>
		<line class="st7" x1="251.1" y1="188.3" x2="274.5" y2="188.3"/>
		<line class="st7" x1="251.1" y1="196.3" x2="274.5" y2="196.3"/>
		<line class="st7" x1="251.1" y1="204.2" x2="274.5" y2="204.2"/>
		<line class="st7" x1="251.1" y1="212.1" x2="274.5" y2="212.1"/>
		<line class="st7" x1="251.1" y1="220" x2="274.5" y2="220"/>
		<line class="st7" x1="251.1" y1="227.9" x2="274.5" y2="227.9"/>
		<line class="st7" x1="251.1" y1="235.8" x2="274.5" y2="235.8"/>
		<line class="st7" x1="251.1" y1="156.5" x2="266.6" y2="156.5"/>
		<rect x="244.7" y="164.6" class="st2" width="38.4" height="10.2"/>
		<rect x="214.2" y="133" class="st2" width="30.1" height="10.2"/>
		<line class="st7" x1="287.1" y1="135.8" x2="316.5" y2="135.8"/>
		<line class="st7" x1="287.1" y1="210.4" x2="316.5" y2="210.4"/>
		<line class="st7" x1="287.1" y1="147.1" x2="303.5" y2="147.1"/>
		<line class="st7" x1="287.1" y1="155" x2="303.5" y2="155"/>
		<line class="st7" x1="287.1" y1="162.9" x2="303.5" y2="162.9"/>
		<line class="st7" x1="287.1" y1="170.8" x2="303.5" y2="170.8"/>
		<line class="st7" x1="287.1" y1="178.7" x2="303.5" y2="178.7"/>
		<line class="st7" x1="287.1" y1="186.7" x2="303.5" y2="186.7"/>
		<line class="st7" x1="310.9" y1="147.1" x2="327.2" y2="147.1"/>
		<line class="st7" x1="310.9" y1="155" x2="327.2" y2="155"/>
		<line class="st7" x1="310.9" y1="162.9" x2="327.2" y2="162.9"/>
		<line class="st7" x1="310.9" y1="170.8" x2="327.2" y2="170.8"/>
		<line class="st7" x1="310.9" y1="178.7" x2="327.2" y2="178.7"/>
		<line class="st7" x1="310.9" y1="186.7" x2="327.2" y2="186.7"/>
		<line class="st7" x1="287.1" y1="139.2" x2="328.9" y2="139.2"/>
		<rect x="283.2" y="216" class="st3" width="59.9" height="3.4"/>
		<line class="st11" x1="235.1" y1="99.6" x2="235.1" y2="104.7"/>
		<line class="st11" x1="267" y1="99.6" x2="267" y2="104.7"/>
		<line class="st11" x1="298.8" y1="99.6" x2="298.8" y2="104.7"/>
		<line class="st11" x1="330.6" y1="99.6" x2="330.6" y2="104.7"/>
	</g>
	<g>
		<ellipse id="freepik--shadow--inject-26_3_" class="st14" cx="80" cy="515" rx="63.2" ry="36.5"/>
		<g id="freepik--plant-2--inject-26_1_">
			<g id="freepik--Plants--inject-26_1_">
				<path class="st0" d="M39,493.9c0,0,7.3-25.8,0.1-53.6c-4-15.5-13.1-23.5-19.1-24.7c-6.7-1.4-14.2,4.3-9.1,14.8
					c4.8,10,15.4,14.9,19.5,40c1.3,7.7,1.8,15.6,1.3,23.5c-0.1,1.2,0.8,2.2,2,2.3c0.4,0,0.8,0,1.1-0.2L39,493.9z"/>
				<path class="st15" d="M39,493.9c0,0,7.3-25.8,0.1-53.6c-4-15.5-13.1-23.5-19.1-24.7c-6.7-1.4-14.2,4.3-9.1,14.8
					c4.8,10,15.4,14.9,19.5,40c1.3,7.7,1.8,15.6,1.3,23.5c-0.1,1.2,0.8,2.2,2,2.3c0.4,0,0.8,0,1.1-0.2L39,493.9z"/>
				<path class="st16" d="M35.4,487.7c-0.2-0.1-0.4-0.3-0.3-0.5c5.8-29.7-6.2-56.2-16.6-65.6c-0.2-0.2-0.2-0.4,0-0.6
					c0.2-0.2,0.4-0.2,0.6,0c10.6,9.5,22.7,36.3,16.8,66.4C35.9,487.6,35.7,487.8,35.4,487.7z"/>
				<path class="st0" d="M34.2,496.3c-1.1,0.5-2.3,0.1-2.9-0.9c-0.1-0.2-0.2-0.4-0.2-0.6c-1-6.1-4.2-12.6-10.6-19.8
					c-7.5-8.3-18.1-16.3-15.7-22.8s11.1-4.3,16.9-0.1s18.6,19.5,13.6,43.7L34.2,496.3z"/>
				<path class="st15" d="M34.2,496.3c-1.1,0.5-2.3,0.1-2.9-0.9c-0.1-0.2-0.2-0.4-0.2-0.6c-1-6.1-4.2-12.6-10.6-19.8
					c-7.5-8.3-18.1-16.3-15.7-22.8s11.1-4.3,16.9-0.1s18.6,19.5,13.6,43.7L34.2,496.3z"/>
				<path class="st16" d="M33.6,496.7c-0.2,0-0.3-0.2-0.3-0.4c2.1-18.3-11.5-40-22.1-44.7c-0.2-0.1-0.3-0.3-0.2-0.6c0,0,0,0,0,0
					c0.1-0.2,0.3-0.3,0.6-0.2c10.6,3.7,25.6,27.1,22.6,45.5C34.1,496.5,33.9,496.7,33.6,496.7L33.6,496.7z"/>
			</g>
		</g>
		<g id="freepik--character-2--inject-26_1_">
			<g id="freepik--character--inject-26_4_">
				<g id="freepik--Bottom--inject-26_1_">
					<g id="freepik--bottom--inject-26_3_">
						<polygon class="st10" points="93.4,510.3 96.9,508.8 93.6,507.7 						"/>
						<path class="st10" d="M126.7,518.5c0,0-39.1-20.5-39.8-17.8c-0.1,0.5-0.2,1.1-0.1,1.6c0,0-0.1-0.1-0.1-0.1l0.4,5.1
							c1.7,1.6,3.8,2.6,6.1,3c0-0.2,0.1-1.8,0.2-2.6c1.2,0.6,2.4,1.3,3.4,2.1c2.4,1.9,4,4.9,6.5,8.6c1.9,2.7,5.3,4,10.5,5.1
							c5.6,1.1,10.7,0.3,12.1-1.1C126.9,521.2,127.2,519.8,126.7,518.5z"/>
						<path class="st17" d="M125.7,517.3c-0.4-0.4-1.7-2.1-3.5-3.9c-1.6-1.6-3.5-3.6-5.5-5.3c-1.6-1.6-3.2-3.2-4.6-5
							c-1.9-2.6-3.6-5.3-4.9-8.3c-0.6-1.4-1-3.1-0.6-8.3c0.5-7.3,0.8-8.9,1.1-14.5l-20.3-1.3c0.4,3.1,1.2,7.5,1.7,11.7
							c0.5,5.3,2.3,5.9-0.1,11.1c-0.9,1.4-1.5,3-1.9,4.6c-0.3,2.7,1.7,5.2,4,6.6c1.9,1.2,4.2,1.8,6,3.1c1.9,1.4,3.5,3.2,4.7,5.2
							c1.2,1.8,2.2,3.9,4.1,5.3c1.9,1.3,4.1,2.2,6.4,2.6c2.9,0.7,5.8,1,8.8,0.9C125.1,521.7,128.3,520.4,125.7,517.3z"/>
						<path class="st18" d="M103.1,515.5c0.9,2.1,2.5,3.7,4.6,4.6c6.7,3.4,19.1,3.2,19.4,0c0.2-2-1.6-3.8-3.6-5.7
							c-1.6-1.6-4-3.8-6.8-6.3c-2-0.8-4.3-0.8-6.3,0.2C104.3,511.1,103.1,515.5,103.1,515.5z M87.4,501.7c1.2,2.2,3.3,3.9,5.8,4.5
							c2.3-5.9-1.6-12.2-3.9-13.6c0,0-0.4,1-1.6,3C86.4,497.3,86.3,499.7,87.4,501.7z"/>
						<path class="st10" d="M54.9,497.4c1,1.8-0.9,10.8-1.1,15.5c-0.1,4.2-0.1,11.8-1.8,15.8c-2,4.8-5.8,10.2-11.7,5
							c-3.6-3.2-5.5-7.1-5.6-13.2c0-4.2,2.2-9.9,4.2-14.9c2.3-5.9,3.2-9,3.2-9L54.9,497.4z"/>
						<path class="st17" d="M44,467.9c-1.2,9.8-1.2,15.4-1.7,21.7c-0.3,3.3-0.8,6.5-1.5,9.8c-0.9,4-2.6,9.4-3.4,11.9
							c-1.2,3.5-2,5.8-1,10c0.1,0.3,0.2,0.7,0.4,1c1.6,3.5,6.2,6.5,7.8,6.3c0.6,0.8,1.6,1.3,2.6,1.1l0.5-0.1c0.2,0,0.4-0.1,0.5-0.1
							c1.3-0.5,2.3-1.5,2.8-2.8c0.1-0.3,0.2-0.6,0.3-0.9c1-3.3,1.5-6.7,1.5-10.2c0.1-2.3,0.4-6.3,0.9-9.9s3.3-13.7,4.8-19.2
							c1.2-4.5,3.7-13.9,3.7-13.9L44,467.9z"/>
						<path class="st18" d="M36.1,515.9c3.9-1.2,15.1-0.2,16.5,5c-0.3,4.7-0.8,7.7-4.3,11.4c-4.6,5-9.7-1.2-11.5-5.1
							C35.3,523.6,35.1,519.6,36.1,515.9z"/>
						<path class="st2" d="M57.9,338.8c-3.9,9.6-7.7,20.2-8.3,40.5c-0.8,26.8-2.1,36.5-2.3,39.8c-0.4,5.5-2.8,10.5-5.4,26.3
							s-1.2,44.9-1.2,44.9c2.8,2.4,6.2,4,9.8,4.6c5.6,0.8,8-1.4,8-1.4s10.6-42.8,13.3-52.3s10.7-40.6,10.7-40.6l3.2,26.2
							c0,0-3.2,8.3-2.2,22.3c0.9,14.1,5.9,40.4,5.9,40.4s3,2.3,9,2c6-0.3,8.5-2.4,8.5-2.4s5.4-52.2,6.3-68s3.1-57.5-2.7-82.3
							L57.9,338.8z"/>
						<path class="st18" d="M89.3,370.4l-6.7,30.1l3.2,26.2l-1-26.4l5.9-24.7c3.9-0.7,12.8-4.8,15.6-11.2
							C99.9,370.2,89.3,370.4,89.3,370.4z M70.1,359.2c0.7-2.5,1.5-5.1,2.3-7.6c0.8-2.5,1.7-5,2.6-7.5c-1.5,2.2-2.8,4.6-3.8,7.1
							c-1.1,2.5-2,5-2.7,7.6c-0.8,2.6-1.4,5.2-1.9,7.8c-0.5,2.6-0.9,5.3-1,8c0.8-2.6,1.5-5.1,2.3-7.7S69.4,361.7,70.1,359.2
							L70.1,359.2z M65.9,354c0.9-1.5,1.9-3,2.8-4.5c0.9-1.5,1.9-3,2.8-4.6c-1.4,1.2-2.7,2.4-3.8,3.8c-1.2,1.4-2.2,2.9-3.2,4.4
							c-1,1.5-1.8,3.2-2.5,4.8c-0.7,1.7-1.2,3.4-1.5,5.2l2.7-4.6C64.1,357,65,355.5,65.9,354L65.9,354z M65.8,426.5
							c-2.1,8.1-4.1,16.3-6.1,24.4c-1.9,8.2-3.8,16.3-5.5,24.5c2.4-8,4.6-16.1,6.8-24.2c2.2-8.1,4.4-16.2,6.4-24.3
							c2-8.2,3.5-16.4,4.8-24.7c1.3-8.3,2.4-16.6,3.4-24.9c-1.6,8.3-3.1,16.5-4.6,24.7C69.3,410.1,67.8,418.3,65.8,426.5L65.8,426.5
							z M107.4,412.1c0,3.6,0.1,7.3-0.2,10.9c-0.2,3.6-0.6,7.3-1,10.9l-1,10.9c-0.7,7.3-1.3,14.5-1.9,21.8
							c1.2-7.2,2.2-14.4,3.2-21.7c1-7.3,1.8-14.5,2.4-21.8c0.3-7.4,0-14.6-0.3-22c-0.4-7.3-0.9-14.6-1.7-21.9l0.4,21.9
							C107.4,404.8,107.4,408.5,107.4,412.1z"/>
					</g>
				</g>
				<g id="freepik--Top--inject-26_1_">
					<path class="st19" d="M176.5,254.8c1-0.5,1.5,0.5,1,1.5c-1.2,2.2-4.2,2.7-5.4,3.8c-0.3,0.3-3.4,4.8-3.3,5.9c1-0.7,4-3.3,5-4
						c1.3-0.7,2.6-1.2,4-1.8c0.5-0.3,1-0.4,1.5-0.5c0.4,0,0.9,0.7,0.4,1.5c-0.8,1.5-2.9,2-4.4,3c-0.7,0.5-2.9,2.1-3.3,3.8
						c2.2-1.2,3.8-1.5,7.5-1.9c0.4,0,0.6,0.1,0.6,0.4c0,0.5-0.2,1-0.6,1.3c-0.9,0.8-2.4,0.9-4,1.4c-1.6,0.7-3,1.7-4.1,3.1
						c-0.4,0.5-0.7,1-0.9,1.6c-0.2,0.8-0.3,1.6-0.4,2.3c-0.7,3.2-3.3,5.5-6.5,6.1c-0.2,0.1-0.4,0.1-0.6,0c-0.3-0.2-0.5-0.5-0.5-0.9
						c-0.7-3.5,0.3-7.1,0.9-10.7c0.2-1.2,1.6-9.9,1.7-10.2s7.9-4.2,8.2-4.3C174,255.9,175.5,255.2,176.5,254.8z"/>
					<path class="st17" d="M111.2,286.9c2.9,0.8,25.3,6.9,25.3,6.9s14.5-11.8,17.4-14.5c4-3.8,4.7-7.4,5.3-10.6
						c0.9-4.6,1.5-5,3.2-6.7c1.1-1.1,3.3-4,3.4-4.1c0.4-0.4,0.8-0.7,1.3-0.8l1.5-0.8c1.5-0.7,2.4-1.1,3.8-1.8
						c0.4-0.2,0.9-0.4,1.4-0.6c0.1,0,0.2,0,0.3,0c0.2,0.1,0.3,0.3,0.3,0.5c0,1-0.5,1.9-1.2,2.6c-0.7,0.6-1.6,1.2-2.4,1.6
						c-0.5,0.3-0.8,0.4-1.9,1c-0.4,0.3-0.8,0.6-1,1.1c-1.3,2-2.4,4.1-3.3,6.3c1.9-0.9,3.5-2.4,4.6-4.1c1-1.7,2.7-0.2,1.9,2.3
						c-0.9,2.8-3,3.6-4.1,7.5c-1.1,3.8,2.4,6.5-1.4,10.2c-2.3,1.8-4.3,3.8-6.1,6.1c-3.1,4.1-12.6,16.8-14.8,19.1
						c-4.8,4.8-5.5,4.6-18.9,1.6c-18.9-4.3-22.3-5.5-22.3-5.5l-9.1-19.8C99.6,284,101.5,284.3,111.2,286.9z"/>
					<path class="st15" d="M94.5,283.1c2.4,0.1,3.1,0.2,12.6,2.6c9.5,2.4,29.3,7.7,29.3,7.7l4.9-4c0.5,2.4,1.7,4.5,3.4,6.2
						c1.9,1.9,4.1,3.5,6.6,4.6l-4.2,5.3c-3.9,4.9-5.9,5.8-7.4,6.4c-1.5,0.6-3.6-0.1-7.8-0.9c-4.2-0.8-28.9-6.6-28.9-6.6L94.5,283.1z
						"/>
					<path class="st19" d="M164.7,266.9c-1,0.7-1.9,1.5-2.7,2.5c-0.3,0.4-0.4-0.7,0.8-2.2s2.6-1.7,2.8-2.3L164.7,266.9z"/>
					<path class="st10" d="M47.1,240.3c-1.5-1.4-2-3.6-1.3-5.5c1.3-4.1,5.8-5.5,9.7-4.6c0.9-1.5,2.2-2.7,3.7-3.5
						c1.6-0.8,3.4-0.9,5-0.3c1.7,0.6,2.8,2.1,3,3.9c0.8-0.6,1.3-1.5,1.3-2.4c1,0.9,1.6,2,1.7,3.3c6.3-2.6,13.5-2.2,19.5,1.1
						c4.3,2.3,8.8,5.5,10.5,10.3c1.8,5,0,11.3-3.6,15.1c-1.6,1.6-3.3,3.1-5.2,4.4l-7.6,5.6c-1.5,1.1-3,2.3-4.4,3.5
						c-1.6,1.6-3,3.4-4.1,5.4c-0.2,0.4-0.5,0.9-1,0.9c-0.3,0-0.6-0.1-0.8-0.2c-4.3-2.1-8.3-4.9-11.6-8.4c-3.1-3.2-5.2-7.1-6.3-11.4
						c-0.3-1.1-0.5-2.3-0.6-3.5h-1.2c-0.8,0.1-1.5-0.2-2.1-0.7c-0.2-0.2-1.4-1.8-1-2.1c-2,1.1-4.4,1.2-5.6,0.2
						c0.6-0.2,3.2-0.6,3.5-2.4c-2.5,0.2-4.7-1.6-4.9-4C43.6,242.8,45,240.8,47.1,240.3L47.1,240.3z"/>
					<path class="st20" d="M52.4,352.5c2.2-9.2,5-15,4.8-17c-0.7-8.7-3.8-20-4.9-25.1c-2.4-10.9,2.6-21.2,5-23.5l5.8-1.8
						c1.9-0.6,5-1.2,7.9-1.8c6.4-1.4,9.1-1.5,11.6-1.4c1.2,0,6.9,0.6,6.9,0.6c1.8,0.3,4.9,0.6,4.9,0.6c3.3,2.6,6.1,5.7,8.3,9.2
						c3.1,4.8,5,8.9,6.3,19.6c1.6,13.6,3.5,28.8,4.2,38.3C102.4,357.9,67.6,360,52.4,352.5z"/>
					<g id="freepik--head--inject-26_7_">
						<path class="st17" d="M68,279.9c-0.1-2.2-0.4-10.4-0.4-10.4c0,0.7-3.5,3.4-6.9,0.3c-3.4-3.1-4-6.8-2.5-9.4
							c1.6-2.8,6-3.2,8.2,0.8c1.4,1.4,3.4-0.7,1.9-4.7c-0.1-2.9,3.7-6.6,0.9-11.3c7.6-6.5,17.1-7.3,22.7-3.5
							c2.2,5,3.5,10.3,3.9,15.7c0.8,9.7-1.2,14.5-4.1,16.5c-1.9,1.3-3.8,1.8-7.4,1.9c0,0,0.1,2.4,0.1,3.9c0,1.4,0.7,1.8,2.2,2.1
							c1,0.2,3.6,0.7,3.6,0.7s3.9,5.2-5.4,6.9c-14.9,2.7-21.8-4.4-21.8-4.4s0.6-0.3,2.9-1C68.2,283.3,68.1,282.1,68,279.9z"/>
						<path class="st19" d="M84.5,276c-6.5,0.1-12.9-1.2-14.7-4c0.3,1.9,1.4,3.6,3.2,4.4c3.9,1.7,11.7,1.9,11.7,1.9L84.5,276z"/>
						<path class="st21" d="M80.1,265l5.9,1.1c-0.3,1.6-1.8,2.7-3.4,2.4c0,0-0.1,0-0.1,0C80.9,268.2,79.9,266.6,80.1,265z"/>
						<path class="st19" d="M80.6,266.2c1.6-0.2,3.1,0.7,3.6,2.2c-0.5,0.2-1.1,0.3-1.7,0.2c-1.1-0.2-2.1-1.1-2.4-2.2
							C80.3,266.3,80.5,266.2,80.6,266.2z"/>
						<path class="st10" d="M91.1,248.5l-4.1-0.5c0.1-1.1,1-1.9,2.1-1.8c0,0,0.1,0,0.1,0C90.4,246.4,91.2,247.4,91.1,248.5z"/>
						<path class="st10" d="M74.6,249.8l4-1.2c-0.3-1.1-1.4-1.7-2.4-1.4c0,0-0.1,0-0.1,0C74.9,247.5,74.3,248.7,74.6,249.8z"/>
						<path class="st10" d="M80,255.7c0,0.9-0.7,1.6-1.5,1.6c-0.9,0-1.6-0.7-1.6-1.5c0-0.9,0.7-1.6,1.5-1.6c0,0,0,0,0,0
							C79.3,254.2,80,254.9,80,255.7C80,255.7,80,255.7,80,255.7z"/>
						<path class="st10" d="M92.8,254.5c0,0.9-0.7,1.6-1.5,1.6c-0.9,0-1.6-0.7-1.6-1.5c0-0.9,0.7-1.6,1.5-1.6c0,0,0,0,0,0
							C92.1,253,92.8,253.7,92.8,254.5C92.8,254.5,92.8,254.5,92.8,254.5z"/>
						<path class="st22" d="M70.3,251.6l-9.5,6.8c1.1-0.3,2.3-0.2,3.3,0.3l6.9-4.8L70.3,251.6z"/>
						<path class="st22" d="M96.9,247.9c-2.7-0.1-5.5,0.3-8.1,1.2c-2.3,1-2.9,1.9-4.3,2.1c-1.4,0.2-2.3-0.5-4.9-0.9
							c-2.7-0.1-5.5,0.2-8.1,0.9c-0.9,0.1-1.7,0.6-1.5,1.6c0.2,1.1,0.9,1.2,1.2,2c0.7,3,1.9,6.7,6,6.4c8.3-0.5,4.8-8.1,7.8-8.1
							c1.1,0.1,1.2,2.2,2,3.6c0.3,0.6,0.7,1.1,1.2,1.5c3,2.5,7.9,0.4,8.4-2.6c0.5-1.5,0.2-3.7,0.8-5C97.8,250.2,98.1,248,96.9,247.9
							z M81.5,252.5c0.8,1.9,0.6,4.1-0.5,5.8c-0.8,1-2,1.6-3.3,1.7c-1.7,0.4-3.5-0.5-4.3-2.1c-0.1-0.2-0.2-0.3-0.2-0.4
							c-0.5-1.2-1.3-3.9-0.7-4.8C73.7,251.3,79.6,250.8,81.5,252.5L81.5,252.5z M92.2,249.4c3.8-0.4,4.1,0.5,3.7,4.3
							c0,1.5-0.7,3-1.9,3.9c-2.1,1.4-5.3,0.6-6.1-1.5C86,251.6,87.7,250.4,92.2,249.4L92.2,249.4z"/>
						<path class="st19" d="M90.3,259.7l-5.1,3.2l-1.9-8.2c0.1-0.4,0.2-0.8,0.5-1.1L90.3,259.7z"/>
					</g>
					<g id="freepik--Glass--inject-26_1_">
						<path class="st2" d="M118.5,369.9c0,0,0.1-0.1,0.1-0.1l63.1-41.3l0,0c1.4-1,2.1-2.6,1.9-4.3c-0.3-4.7-2.9-8.9-6.9-11.4
							c-1.4-1-3.2-1.1-4.7-0.4l0,0l-66.9,35l-0.1,0.1l-0.2,0.1c-6.2,3.6-8.2,11.5-4.6,17.7c0,0.1,0.1,0.1,0.1,0.2
							c3.8,6.2,11.9,8.3,18.2,4.6L118.5,369.9z"/>
						<path class="st23" d="M176.7,312.8c-3.7-2.1-6.7-0.3-6.6,3.9c0.4,4.7,2.9,8.9,6.9,11.4c3.7,2.1,6.7,0.3,6.6-3.9
							C183.3,319.5,180.7,315.3,176.7,312.8z"/>
						<path class="st24" d="M112.3,352.8l58.7-32c-0.5-1.3-0.8-2.6-0.9-4c-0.2-1.7,0.5-3.3,1.9-4.3l-66.9,35l-0.1,0.1l-0.2,0.1
							c-6.2,3.6-8.2,11.5-4.6,17.7c0,0.1,0.1,0.1,0.1,0.2C99,361.5,104.5,357,112.3,352.8z"/>
						<path class="st14" d="M203.3,309.6c-0.2-2.8-1.8-5.4-4.2-6.9c-0.8-0.6-1.9-0.7-2.9-0.2l0,0l-22.3,13.1l0,0
							c-0.8,0.6-1.3,1.6-1.1,2.6c0.2,2.8,1.8,5.4,4.2,6.9c0.8,0.6,1.9,0.7,2.9,0.2l22.3-13.1l0,0C203,311.6,203.4,310.6,203.3,309.6
							z"/>
						<path class="st23" d="M184,309.7l8.3-4.8c1.2,3.7,2.5,7.3,4,10.8l-8.2,4.8C186.6,316.9,185.2,313.4,184,309.7z"/>
						<path class="st2" d="M165.2,258.1c0,37.9,26.5,84,59.3,102.9c9.6,5.5,18.5,8.1,26.5,8.1c5.4,0.1,10.7-1.3,15.5-3.9l14.1-8.1
							c10.7-6.2,17.4-19.5,17.4-38.4c0-37.9-26.6-83.9-59.4-102.9c-16.4-9.5-31.3-10.3-42-4.2l-14.2,8.1
							C171.7,225.9,165.1,239.3,165.2,258.1z M274.4,326.7c0,9-1.7,16.4-4.8,21.9c-0.7,1.2-1.4,2.3-2.2,3.4
							c-0.9,0.1-1.9,0.2-2.8,0.2c-6.5,0-14-2.4-21.8-6.9c-14.4-8.3-28.1-22.8-38.5-40.9c-10.4-18-16.1-37.1-16.1-53.8
							c0-11,2.5-19.6,7-25.2c1.1-0.1,2.2-0.2,3.3-0.1c6.4,0.1,13.8,2.5,21.3,6.8c14.5,8.3,28.1,22.9,38.5,40.9
							C268.7,290.9,274.4,310,274.4,326.7z"/>
						<path class="st25" d="M269.9,244.2L247.6,257c3.9,5,7.5,10.4,10.7,15.9c0.7,1.1,1.3,2.2,1.9,3.3l22.3-12.8
							C278.8,256.7,274.6,250.3,269.9,244.2z M232.7,241.4c2.9,2.5,5.6,5.2,8.2,8l22.5-12.9c-2.6-2.9-5.2-5.6-8-8.1L232.7,241.4z"/>
						<path class="st26" d="M266.5,365.1l14.1-8c10.7-6.2,17.4-19.5,17.4-38.4c0-0.7,0-1.5,0-2.2l-14.1,8.1c0,0.7,0,1.5,0,2.2
							C283.9,345.6,277.2,358.9,266.5,365.1z"/>
						<path class="st2" d="M180.8,233.9c3.3-4.8,8.6-7.9,14.4-8.5c-4.5,5.7-7,14.3-7,25.2c0,16.7,5.7,35.8,16.1,53.8
							c10.4,18,24.1,32.5,38.5,40.9c7.8,4.5,15.3,6.9,21.8,6.9c0.9,0,1.9,0,2.8-0.2c-3.7,4.7-9.2,7.5-15.2,7.6c-0.4,0-0.8,0-1.2,0
							c-6.5,0-14-2.4-21.8-6.8c-14.4-8.3-28.1-22.9-38.5-40.9c-10.4-18-16.1-37.1-16.1-53.8C174.5,247.8,176.7,239.5,180.8,233.9z"
							/>
						<path class="st15" d="M165.2,258.2c0,37.9,26.6,84,59.3,102.9c32.7,18.9,59.4,3.6,59.4-34.3s-26.6-84-59.4-102.9
							S165.2,220.2,165.2,258.2z M190.7,312c-10.4-18-16.1-37.1-16.1-53.8c0-20.6,8.8-33,23.4-33h0.5c6.4,0.1,13.8,2.5,21.3,6.8
							c14.5,8.3,28.1,22.9,38.5,40.9c10.4,18,16.1,37.1,16.1,53.8c0,9-1.7,16.4-4.8,21.9c-3.6,7-10.8,11.3-18.7,11.1
							c-6.5,0-14-2.4-21.8-6.8C214.7,344.5,201.1,330,190.7,312z"/>
						<path class="st22" d="M269.4,273.7c5.5,10.7,9.6,22,12.1,33.7c1.2,5.9,1.9,11.8,2,17.8c0.2,6-0.5,11.9-1.9,17.7
							c-1.4,5.8-4.1,11.2-7.9,15.8c-3.9,4.6-9.1,7.8-14.9,9.2c-5.8,1.3-11.9,1.2-17.7-0.3c-5.8-1.4-11.4-3.7-16.6-6.7
							c5.1,3.1,10.7,5.5,16.5,7c5.8,1.6,12,1.7,17.9,0.4c5.9-1.4,11.3-4.7,15.3-9.3c3.9-4.7,6.6-10.1,8-16c1.4-5.9,2-11.9,1.9-17.9
							c-0.2-6-0.9-12-2.2-17.9c-1.3-5.9-3-11.6-5.1-17.3C274.8,284.4,272.3,278.9,269.4,273.7z"/>
						<path class="st22" d="M198,225.2c-3,0-5.9,0.5-8.7,1.6c-2.8,1.2-5.3,2.9-7.3,5.2c-2,2.3-3.5,4.8-4.7,7.6
							c-1.1,2.8-1.9,5.7-2.4,8.6c-0.9,5.9-1.1,11.9-0.5,17.9c0.6,5.9,1.7,11.8,3.3,17.6c1.6,5.7,3.7,11.4,6.1,16.8
							c2.5,5.4,5.3,10.7,8.4,15.7c6.2,10.2,13.9,19.5,22.8,27.5c4.5,4,9.4,7.4,14.6,10.4c5.2,3,11,5.1,16.9,6.1
							c3,0.5,6.1,0.4,9.1-0.1c3-0.6,5.9-1.9,8.4-3.7c1.2-0.9,2.4-2,3.4-3.1c1-1.2,1.9-2.4,2.7-3.7c1.5-2.6,2.6-5.5,3.4-8.4
							c1.4-5.8,1.9-11.9,1.5-17.9c-0.4-6-1.3-11.9-2.8-17.6c-1.5-5.8-3.4-11.4-5.8-16.8c-2.3-5.5-5.1-10.7-8.1-15.8
							c5.8,10.3,10.2,21.4,13,32.9c1.4,5.7,2.2,11.6,2.4,17.5c0.3,5.9-0.3,11.7-1.7,17.4c-0.7,2.8-1.9,5.5-3.3,8
							c-1.4,2.5-3.4,4.6-5.6,6.4c-2.3,1.7-4.9,2.8-7.7,3.4c-2.8,0.5-5.7,0.5-8.6,0c-5.7-1-11.2-3-16.3-5.9
							c-5.1-2.9-9.9-6.4-14.2-10.3c-8.8-7.9-16.4-17-22.5-27c-6.3-10-11.2-20.8-14.6-32.1c-1.7-5.6-2.9-11.4-3.5-17.3
							c-0.7-5.8-0.6-11.8,0.2-17.6c0.4-2.9,1.2-5.7,2.2-8.5c1-2.7,2.5-5.3,4.4-7.6c1.9-2.2,4.3-4,7-5.2
							C192.1,225.9,195,225.3,198,225.2z"/>
						<path class="st27" d="M191.1,226.2c2.2-0.7,4.5-1,6.8-1h0.5c6.4,0.1,13.8,2.4,21.3,6.8c14.5,8.4,28.1,22.9,38.5,40.8
							c10.4,18,16.1,37.1,16.1,53.8c0,9-1.7,16.4-4.8,21.9c-1.3,2.4-3.1,4.6-5.2,6.4c-2.2,0.7-4.5,1-6.8,1c-6.5,0-14-2.4-21.8-6.9
							c-14.4-8.3-28.1-22.9-38.5-40.9c-10.4-18-16.1-37.1-16.1-53.8C181.2,241.4,184.8,231.6,191.1,226.2z"/>
					</g>
					<g id="freepik--arm--inject-26_8_">
						<path class="st17" d="M56.9,287.6c-7.8,3.1-9.5,10.7-5.2,19.2c3.8,7.5,18.7,25.8,21.1,28.8c2.4,3,4.3,4,10.2,6.3
							c5.9,2.3,21.7,6.6,26.3,8c4.6,1.4,7.5,3.9,11.9,5.8c4.4,1.9,10.3,1.6,13.3,1.1c1.5-0.5,2.9-1.5,3.8-2.8
							c2.1-0.6,2.3-1.5,2.2-2.2c1.9-0.3,2.6-0.8,1.9-2.1c-1.5-2.7-6.5-2.1-11.1-3.1c-4.4-0.9-7.8-2.7-6.8-3.3
							c2.2-1.2,5.9,0.1,9.2-1.8c2-1.2,1.6-2.9,0.6-2.9c-1.7,0.1-5.2-1-9.5-1.1c-3.9-0.1-8.8,1.5-11.6,0.4
							c-6.7-2.6-26.9-12.5-26.9-12.5l-16.9-25C69.4,300.7,64.7,290.3,56.9,287.6z"/>
						<path class="st15" d="M93.4,329.1l-6.8-3.7l-16.2-24.8c0,0-6.2-12.1-13-13.7c-6.1,2.5-7.4,5.2-8.2,8.1
							c-0.5,1.8-0.9,7.8,4.5,16.6s16.4,21.3,18.8,24.3c2.4,3,2.7,3.3,7,4.9s7.5,2.5,7.5,2.5C91.2,339.5,93.7,334.9,93.4,329.1z"/>
					</g>
				</g>
			</g>
		</g>
	</g>
</g>
</svg>
