<?xml version="1.0" encoding="utf-8"?>
<!-- Generator: Adobe Illustrator 19.0.0, SVG Export Plug-In . SVG Version: 6.00 Build 0)  -->
<svg version="1.1" id="Layer_1" xmlns="http://www.w3.org/2000/svg" xmlns:xlink="http://www.w3.org/1999/xlink" x="0px" y="0px"
	 viewBox="0 0 28 28.3" style="enable-background:new 0 0 28 28.3;" xml:space="preserve">
<style type="text/css">
	.st0{opacity:0.11;}
	.st1{display:none;}
	.st2{display:inline;}
	.st3{fill:#39B54A;}
	.st4{fill:#0C1823;}
	.st5{fill:#4491CE;}
	.st6{fill:#010101;}
	.st7{fill:#FFFFFF;}
	.st8{display:inline;fill:none;}
	.st9{display:inline;fill:#FFFFFF;}
	.st10{fill:#F1592D;}
	.st11{fill:#FDFDFE;}
	.st12{fill:#F9F9FA;}
</style>
<rect x="667.4" y="306.5" width="16.4" height="375"/>
<rect x="555.1" y="514.7" width="375" height="16.4"/>
<rect x="778.5" y="229.8" width="47" height="177.9"/>
<polygon points="778.5,653.4 670.2,581 670.2,600.8 769.4,667 "/>
<text id="XMLID_1_" transform="matrix(1 0 0 1 538.5378 -277.9574)" style="font-family:'MyriadPro-Regular'; font-size:50px;">Li Data</text>
<text id="XMLID_83_" transform="matrix(1 -2.460000e-003 2.460000e-003 1 538.5676 -416.2367)" style="font-family:'Bauhaus'; font-size:48px;">Li Data</text>
<text id="XMLID_2_" transform="matrix(1 -2.460000e-003 2.460000e-003 1 555.1343 -139.4313)" style="font-family:'TimesNewRomanPS-BoldMT'; font-size:48px;">LI DATA</text>
<text id="XMLID_54_" transform="matrix(1 0 0 1 538.5381 -207.7989)" class="st6" style="font-family:'NulshockRg-Bold'; font-size:37px;">Li Data</text>
<text id="XMLID_171_" transform="matrix(1 0 0 1 538.5385 -351.9138)" style="font-family:'Chalet-LondonNineteenEighty'; font-size:57.8697px;">Li Data</text>
<g>
	<polygon points="-520.5,5802.6 -520.5,5802.6 -504.3,5802.6 -504.3,5802.6 -504.3,5786.4 -520.5,5786.4 	"/>
	<g>
		<path d="M-1107.8,6236.7h-12.6v12.6l0,0h12.6l0,0h11.5l0,0v4.4v60.6l-11.5,7.7v-68.4h-12.6v76.9v11.6c0,1.5,1.7,2.5,3,1.6l9.6-6.5
			l19.8-13.3c2.7-1.8,4.3-4.9,4.3-8.1v-62.2v-4.4v-5.9c0-3.7-3-6.7-6.7-6.7H-1107.8z"/>
		<path d="M-1137.4,6322.1l-11.5-7.7v-8.4v-56.7h7.1v-12.6h-7.1h-5.8c-3.8,0-6.8,3-6.8,6.8v72.4c0,3.3,1.6,6.3,4.3,8.1l19.8,13.3
			l8.9,6c1.6,1.1,3.8-0.1,3.8-2v-10.7v-0.2l-12.6-8.4V6322.1z"/>
		<polygon points="-1137.4,6316.7 -1124.8,6325.2 -1124.8,6253.7 -1137.4,6253.7 		"/>
		<polygon points="-1137.4,6249.3 -1137.4,6249.3 -1124.8,6249.3 -1124.8,6249.3 -1124.8,6236.7 -1137.4,6236.7 		"/>
	</g>
	<g class="st0">
		<path d="M135.4,5544.5l-39-37.9l-37.9,39l0,0l39,37.9h0l35.6,34.5h0l-13.2,13.6l-181.8,187.2l-58.8-10.6l205-211.2l-39-37.9
			l-230.5,237.4l-34.8,35.8c-4.6,4.8-2.1,12.7,4.5,13.9l49.1,8.9l101.2,18.3c13.8,2.5,27.9-2,37.7-12.1l186.4-191.9l13.2-13.6
			l17.8-18.3c11.1-11.4,10.8-29.7-0.6-40.8L135.4,5544.5z"/>
		<path d="M-212.3,5719.3l-12.4-58.5l25.1-25.8l170-175l22,21.3l37.9-39l-22-21.3l-18-17.5c-11.6-11.3-30.1-11-41.4,0.6l-217,223.5
			c-9.8,10.1-13.9,24.3-11,38l21.3,100.6l9.5,44.9c1.7,8.2,11.9,11.1,17.7,5.1l32-33l0.5-0.5l-13.7-63.9L-212.3,5719.3z"/>
		<polygon points="-196.1,5702.6 -182.4,5766.5 31.7,5546 -7.3,5508.1 		"/>
		<polygon points="5.9,5494.5 5.9,5494.5 44.9,5532.4 44.9,5532.4 82.8,5493.4 43.8,5455.5 		"/>
	</g>
	<rect x="-617.6" y="5949.4" width="14.1" height="13.9"/>
	<path d="M-530.8,5963.3h-2C-532.1,5963.3-531.4,5963.3-530.8,5963.3L-530.8,5963.3z"/>
	<path d="M-453.9,6000c0.1,0.3,0.2,0.5,0.3,0.8c0.1,0.3,0.2,0.6,0.3,1h0.2l-3.6-8.1L-453.9,6000z"/>
	<g>
		<path d="M-482.4,5786.4h-16.2v16.2l0,0h16.2l0,0h14.8l0,0v5.7v78l-14.8,10v-88h-16.2v98.9v14.9c0,2,2.2,3.2,3.9,2.1l12.4-8.3
			l25.5-17.1c3.5-2.3,5.6-6.3,5.6-10.4v-80v-5.7v-7.6c0-4.8-3.9-8.6-8.6-8.6H-482.4z"/>
		<path d="M-520.5,5896.2l-14.8-10v-10.7v-72.9h9.2v-16.2h-9.2h-7.5c-4.8,0-8.7,3.9-8.7,8.7v93.1c0,4.2,2.1,8.1,5.6,10.4l25.5,17.1
			l11.4,7.7c2.1,1.4,4.8-0.1,4.8-2.6v-13.7v-0.2l-16.2-10.8V5896.2z"/>
		<polygon points="-520.5,5889.3 -504.3,5900.1 -504.3,5808.3 -520.5,5808.3 		"/>
		<path d="M-663.1,5987.3c-0.6-0.7-1-2-1-3.9v-34h-14.1v35.3c0,2.8,0.3,5.3,0.9,7.5c0.6,2.1,1.5,3.9,2.8,5.3
			c1.3,1.4,3.1,2.5,5.3,3.2c2.2,0.7,4.9,1,8.1,1h38v-13.4h-36.3C-661.2,5988.4-662.4,5988-663.1,5987.3z"/>
		<rect x="-617.6" y="5970.5" width="14.1" height="31.2"/>
		<path d="M-507.2,5964.9c-1.5-3.3-3.6-6.2-6.2-8.6c-2.3-2.2-5.1-3.9-8.2-5.1c-3.2-1.2-6.9-1.8-11.1-1.8H-561
			c-2.3,0-3.4,1.1-3.4,3.3v10.6h15h16.6h2v0.1c1.5,0.1,2.8,0.4,3.9,0.8c1.5,0.6,2.9,1.4,4,2.5c1.2,1.1,2.1,2.5,2.8,4
			c0.7,1.5,1,3.2,1,5c0,1.6-0.3,3.1-0.9,4.5c-0.6,1.4-1.4,2.7-2.4,3.8c-1.1,1.2-2.6,2.2-4.3,2.9c-1.7,0.7-3.8,1.1-6.3,1.1h-16.6
			c-0.7,0-1-0.4-1-1.1v-16.4h-14v27.9c0,2.2,1.1,3.3,3.4,3.3h28.3c4.7,0,8.8-0.8,12.2-2.3c3.5-1.5,6.4-3.6,8.8-6.2
			c2.1-2.3,3.8-5,5-8c1.2-3,1.8-6.2,1.8-9.7C-505,5971.8-505.7,5968.2-507.2,5964.9z"/>
		<path d="M-438.3,5999.4l-18.9-41.5c-1.5-3.3-3.5-5.7-5.9-7.3c-2.5-1.6-5.5-2.4-9.2-2.4c-3.8,0-6.9,0.8-9.3,2.4
			c-2.4,1.6-4.4,4-5.9,7.3l-18.7,41.5c-0.2,0.4-0.4,0.8-0.5,1.2c-0.1,0.4-0.2,0.8-0.3,1.2h16.2c0.1-0.3,0.1-0.6,0.2-0.9
			c0.1-0.3,0.2-0.6,0.3-0.9l2.7-6.3l-2.2,4.9l2.2-4.9l0,0l0,0l5.1-11.5h0l8-18.7c0.3-0.6,0.6-1,1-1.3c0.4-0.2,0.9-0.3,1.3-0.3
			c0.5,0,1,0.1,1.4,0.4c0.4,0.3,0.7,0.7,1,1.2l8.1,18.7h0l5.1,11.5l0,0l0,0l3.6,8.1h15.6c-0.1-0.4-0.2-0.8-0.3-1.2
			C-437.9,6000.2-438.1,5999.8-438.3,5999.4z"/>
		<polygon points="-385.9,5949.4 -445.9,5949.4 -445.9,5963.3 -422.9,5963.3 -422.9,6001.7 -408.8,6001.7 -408.8,5963.3 
			-385.9,5963.3 		"/>
		<path d="M-325.1,6000.6c-0.1-0.4-0.3-0.7-0.5-1.2l-18.9-41.5c-1.5-3.3-3.5-5.7-5.9-7.3c-2.5-1.6-5.5-2.4-9.2-2.4
			c-3.8,0-6.9,0.8-9.3,2.4c-2.4,1.6-4.4,4-5.9,7.3l-18.7,41.5c-0.2,0.4-0.4,0.8-0.5,1.2c-0.1,0.4-0.2,0.8-0.3,1.2h16.2
			c0.1-0.3,0.1-0.6,0.2-0.9c0.1-0.3,0.2-0.6,0.3-0.9l2.7-6.3l-2.6,5.9l2.6-5.9l0,0l0,0l5.1-11.5l8-18.7c0.3-0.6,0.6-1,1-1.3
			c0.4-0.2,0.9-0.3,1.3-0.3c0.5,0,1,0.1,1.4,0.4c0.4,0.3,0.7,0.7,1,1.2l8.1,18.7l5.1,11.5l0,0l0,0l3.1,7l-3.1-7l2.8,6.3
			c0.1,0.3,0.2,0.5,0.3,0.8c0.1,0.3,0.2,0.6,0.3,1h15.8C-324.9,6001.3-325,6000.9-325.1,6000.6z"/>
	</g>
</g>
<g class="st1">
	
		<text id="XMLID_3_" transform="matrix(1.0051 0 0 1 2010.6265 2365.4961)" style="display:inline;fill:#010101; font-family:'NulshockRg-Bold'; font-size:44.5714px;">Li Data</text>
	<g class="st2">
		<path d="M2216.8,2240c-2.3-14.5-9-27.6-18.6-37.8c-13.2-14-31.9-22.8-52.6-22.8h-2.6h-13.2c-5.3,0-9.6,4.3-9.6,9.6v75.6l19.5-62.4
			h6c5.6,0,10.9,0.9,15.9,2.6c15.9,5.4,28.1,18.7,32,35.2c0.9,3.7,1.4,7.5,1.4,11.4c0,3.9-0.5,7.8-1.4,11.4
			c-5.2,21.7-24.7,37.8-47.9,37.8h-2.6v-2.3v-41.6v-21.7v-3.4v-3.8l-22.8,73.1v3.6v9.2c0,5.3,4.3,9.6,9.6,9.6h13.2h2.6
			c35.9,0,65.7-26.3,71.2-60.7c0.6-3.7,0.9-7.5,0.9-11.4C2217.8,2247.5,2217.4,2243.7,2216.8,2240z"/>
		<polygon points="2086.4,2202.1 2105.8,2202.1 2109.2,2202.1 2109.2,2191 2109.2,2179.3 2086.4,2179.3 		"/>
		<polygon points="2086.4,2213.1 2086.4,2220.5 2086.4,2240 2086.4,2271.4 2109.2,2213.1 		"/>
		<path d="M2086.4,2300.6L2086.4,2300.6l-2.6,0.1c-1.4,0-2.9-0.1-4.3-0.2c-1.4-0.1-2.9-0.3-4.3-0.6c-0.7-0.1-1.3-0.2-2-0.4
			c-18.4-4-33-18.4-37.3-36.7c-0.9-3.7-1.4-7.5-1.4-11.4c0-3.9,0.5-7.8,1.4-11.4c4.1-17.3,17.4-31.1,34.3-35.9l0.1,0
			c3.1-0.9,5.2-3.7,5.2-6.9v-17.4c-32.1,3.7-57.8,28.5-62.9,60.2c-0.6,3.7-0.9,7.5-0.9,11.4c0,3.9,0.3,7.7,0.9,11.4
			c4.7,29.3,27.1,52.7,55.8,59c3.6,0.8,7.2,1.3,10.9,1.5c1.5,0.1,3,0.2,4.5,0.2h2.6h13.2c5.3,0,9.6-4.3,9.6-9.6v-13.2v-10.9v-1.8
			v-7.4v-0.1V2240v-7.1L2086.4,2300.6L2086.4,2300.6z"/>
	</g>
</g>
<g class="st1">
	<rect x="2275.8" y="1909.9" class="st2" width="11.5" height="24"/>
	<rect x="2249.7" y="1947.6" class="st2" width="24" height="36.8"/>
	<path class="st2" d="M1981.9,2005.4c0-4.1,0.5-8.1,1.4-12h-24.5c-0.6,3.9-1,7.9-1,12s0.3,8.1,1,12h24.5
		C1982.4,2013.5,1981.9,2009.5,1981.9,2005.4z"/>
	<path class="st2" d="M2173.4,1993.4H2149c0.9,3.9,1.4,7.9,1.4,12c0,4.1-0.5,8.1-1.4,12h24.5c0.6-3.9,1-7.9,1-12
		S2174.1,1997.3,2173.4,1993.4z"/>
	<path class="st2" d="M2019.4,1955.7v-2h5.5v-23.5c-33.7,3.9-60.7,30-66,63.2h24.5C1987.6,1975.2,2001.6,1960.8,2019.4,1955.7z"/>
	<path class="st2" d="M2024.9,1953.6h-5.5v2c1.8-0.5,3.6-0.9,5.5-1.3V1953.6z"/>
	<polygon class="st2" points="2060.4,1929.6 2036.4,1929.6 2036.4,1953.6 2056.7,1953.6 2060.4,1941.9 	"/>
	<path class="st2" d="M2022.5,2055.9c-19.3-4.2-34.7-19.3-39.2-38.5h-24.5c4.9,30.8,28.4,55.4,58.6,62l7.2-23.1
		C2023.9,2056.2,2023.2,2056.1,2022.5,2055.9z"/>
	<polygon class="st2" points="2036.4,1965.1 2036.4,1972.9 2036.4,1993.4 2036.4,2018.8 2053.1,1965.1 	"/>
	<path class="st2" d="M2036.4,2057.1L2036.4,2057.1L2036.4,2057.1l-7.4,23.8c1.6,0.1,3.1,0.2,4.7,0.2h2.8h24v-24v-11.5v-1.9v-7.8
		v-0.1v-42.5v-13.1L2036.4,2057.1z"/>
	<polygon class="st2" points="2060.4,1941.9 2056.7,1953.6 2060.4,1953.6 	"/>
	<polygon class="st2" points="2036.3,2057.1 2036.4,2057.1 2036.4,2057.1 2036.4,2057.1 	"/>
	<path class="st2" d="M2036.3,2057.1h-2.6c-1.5,0-3-0.1-4.5-0.2c-1.5-0.1-3-0.4-4.5-0.6l-7.2,23.1c3.7,0.8,7.6,1.4,11.5,1.6
		l7.4-23.8H2036.3z"/>
	<g class="st2">
		<rect x="2238.9" y="2026.3" transform="matrix(0.6616 0.7498 -0.7498 0.6616 2314.136 -980.8494)" width="10" height="94.7"/>
	</g>
	<path class="st2" d="M2098.6,2057.1h40.6H2098.6h-2.8v24h2.8c37.7,0,69-27.7,74.8-63.8H2149
		C2143.5,2040.2,2123,2057.1,2098.6,2057.1z"/>
	<path class="st2" d="M2115.3,1956.4c16.7,5.7,29.5,19.7,33.7,37h24.5c-2.4-15.2-9.4-29-19.6-39.8h-38.6V1956.4z"/>
	<path class="st2" d="M2098.6,1953.6h16.7h38.6c-13.8-14.8-33.5-24-55.2-24h-2.8l-6.1,24H2098.6z"/>
	<path class="st2" d="M2098.6,1953.6c5.8,0,11.4,1,16.7,2.8v-2.8H2098.6z"/>
	<polygon class="st2" points="2095.9,1929.6 2071.9,1929.6 2071.9,2019.2 2095.9,1942.3 	"/>
	<polygon class="st2" points="2071.9,2057.5 2071.9,2061.3 2071.9,2081.1 2095.9,2081.1 2095.9,2057.1 2095.9,2054.8 2095.9,2011.1 
		2095.9,1988.3 2095.9,1984.7 2095.9,1980.7 	"/>
</g>
<g>
	<rect x="-2201.7" y="5851.1" class="st3" width="720" height="510"/>
	<rect x="-2921.7" y="5851.1" width="728.2" height="510"/>
	<g>
		<path class="st4" d="M-2099.6,5571.5c-2.3-14.5-9-27.6-18.6-37.8c-13.2-14-31.9-22.8-52.6-22.8h-2.6h-13.2c-5.3,0-9.6,4.3-9.6,9.6
			v75.6l19.5-62.4h6c5.6,0,10.9,0.9,15.9,2.6c15.9,5.4,28.1,18.7,32,35.2c0.9,3.7,1.4,7.5,1.4,11.4s-0.5,7.8-1.4,11.4
			c-5.2,21.7-24.7,37.8-47.9,37.8h-2.6v-2.3v-41.6v-21.7v-3.4v-3.8l-22.8,73.1v3.6v9.2c0,5.3,4.3,9.6,9.6,9.6h13.2h2.6
			c35.9,0,65.7-26.3,71.2-60.7c0.6-3.7,0.9-7.5,0.9-11.4S-2099,5575.2-2099.6,5571.5z"/>
		<polygon class="st5" points="-2230,5533.7 -2210.7,5533.7 -2207.2,5533.7 -2207.2,5522.6 -2207.2,5510.8 -2230,5510.8 		"/>
		<polygon class="st4" points="-2230,5544.6 -2230,5552.1 -2230,5571.5 -2230,5602.9 -2207.2,5544.6 		"/>
		<path class="st4" d="M-2230,5632.1L-2230,5632.1l-2.6,0.1c-1.4,0-2.9-0.1-4.3-0.2c-1.4-0.1-2.9-0.3-4.3-0.6
			c-0.7-0.1-1.3-0.2-2-0.4c-18.4-4-33-18.4-37.3-36.7c-0.9-3.7-1.4-7.5-1.4-11.4s0.5-7.8,1.4-11.4c4.1-17.3,17.4-31.1,34.3-35.9
			l0.1,0c3.1-0.9,5.2-3.7,5.2-6.9v-17.4c-32.1,3.7-57.8,28.5-62.9,60.2c-0.6,3.7-0.9,7.5-0.9,11.4s0.3,7.7,0.9,11.4
			c4.7,29.3,27.1,52.7,55.8,59c3.6,0.8,7.2,1.3,10.9,1.5c1.5,0.1,3,0.2,4.5,0.2h2.6h13.2c5.3,0,9.6-4.3,9.6-9.6v-13.2v-10.9v-1.8
			v-7.4v-0.1v-40.4v-7.1L-2230,5632.1L-2230,5632.1z"/>
	</g>
	<path class="st4" d="M-2295,5688.7c-0.4-0.4-0.6-1.2-0.6-2.3v-19.6h-8.2v20.3c0,1.6,0.2,3.1,0.5,4.3c0.3,1.2,0.9,2.3,1.6,3.1
		c0.8,0.8,1.8,1.4,3,1.8c1.3,0.4,2.8,0.6,4.7,0.6h22v-7.7h-21C-2294,5689.3-2294.7,5689.1-2295,5688.7z"/>
	<path class="st4" d="M-2203.6,5682c0-2.2-0.4-4.2-1.3-6.2c-0.9-1.9-2.1-3.6-3.6-4.9c-1.3-1.2-2.9-2.2-4.8-2.9c-1.8-0.7-4-1-6.4-1
		h-16.4c-1.3,0-2,0.6-2,1.9v26.3c0,1.3,0.7,1.9,2,1.9h16.4c2.7,0,5.1-0.4,7.1-1.3c2-0.9,3.7-2.1,5.1-3.6c1.2-1.3,2.2-2.9,2.9-4.6
		C-2203.9,5685.8-2203.6,5684-2203.6,5682z M-2212.2,5684.6c-0.3,0.8-0.8,1.5-1.4,2.2c-0.7,0.7-1.5,1.3-2.5,1.7
		c-1,0.4-2.2,0.6-3.6,0.6h-9.6c-0.4,0-0.6-0.2-0.6-0.6v-13c0-0.4,0.2-0.6,0.6-0.6h9.6c1.4,0,2.5,0.2,3.4,0.5
		c0.9,0.4,1.7,0.8,2.3,1.4c0.7,0.7,1.2,1.4,1.6,2.3s0.6,1.8,0.6,2.9C-2211.7,5683-2211.8,5683.8-2212.2,5684.6z"/>
	<path class="st4" d="M-2164.7,5696.4c-0.1-0.2-0.2-0.4-0.3-0.7l-10.9-23.9c-0.9-1.9-2-3.3-3.4-4.2c-1.4-0.9-3.2-1.4-5.3-1.4
		c-2.2,0-4,0.5-5.4,1.4c-1.4,0.9-2.5,2.3-3.4,4.2l-10.8,23.9c-0.1,0.2-0.2,0.5-0.3,0.7c-0.1,0.2-0.1,0.4-0.2,0.7h9.2l2.1-4.7l0,0
		l0,0l3-6.6l4.6-10.8c0.1-0.3,0.3-0.5,0.5-0.6l0.2-0.4l-0.2,0.4c0,0,0.1-0.1,0.1-0.1c0.2-0.1,0.5-0.2,0.8-0.2c0.3,0,0.6,0.1,0.8,0.2
		c0.1,0,0.1,0.1,0.2,0.2l-0.8-1.7l0.8,1.7c0.1,0.1,0.3,0.3,0.4,0.5l4.7,10.8l0,0l5,11.3h9
		C-2164.6,5696.8-2164.6,5696.6-2164.7,5696.4z"/>
	<path class="st4" d="M-2195.4,5697.1c0-0.2,0.1-0.4,0.1-0.5c0.1-0.2,0.1-0.4,0.2-0.5l1.6-3.6l-2.1,4.7H-2195.4z"/>
	<polygon class="st4" points="-2134.7,5666.9 -2169.4,5666.9 -2169.4,5674.9 -2156.1,5674.9 -2156.1,5697.1 -2147.9,5697.1 
		-2147.9,5674.9 -2134.7,5674.9 	"/>
	<path class="st4" d="M-2120.8,5674.9c0.1-0.3,0.3-0.5,0.5-0.6l0.9-2.1l-2.6-5.7c-1.1,0.2-2.1,0.6-2.9,1.1c-1.4,0.9-2.5,2.3-3.4,4.2
		l-10.8,23.9c-0.1,0.2-0.2,0.5-0.3,0.7c-0.1,0.2-0.1,0.4-0.2,0.7h9.2l2.1-4.7h0l0,0l3-6.6L-2120.8,5674.9z"/>
	<path class="st6" d="M-2120.2,5674.2c0.2-0.1,0.5-0.2,0.8-0.2c0.3,0,0.6,0.1,0.8,0.2c0.1,0,0.1,0.1,0.2,0.2l-1-2.2l-0.9,2.1
		C-2120.3,5674.3-2120.2,5674.2-2120.2,5674.2z"/>
	<path class="st4" d="M-2099.5,5696.4c-0.1-0.2-0.2-0.4-0.3-0.7l-10.9-23.9c-0.9-1.9-2-3.3-3.4-4.2c-0.8-0.5-1.7-0.9-2.7-1.1
		l-2.5,5.7l1,2.2c0.1,0.1,0.3,0.3,0.4,0.5l4.7,10.8l3,6.6l0,0l0,0l2.1,4.7h9C-2099.4,5696.8-2099.5,5696.6-2099.5,5696.4z"/>
	<path class="st4" d="M-2108.8,5696c0.1,0.1,0.1,0.3,0.2,0.5c0.1,0.2,0.1,0.3,0.2,0.6h0.1l-2.1-4.7L-2108.8,5696z"/>
	<path class="st4" d="M-2130.2,5697.1c0-0.2,0.1-0.4,0.1-0.5c0.1-0.2,0.1-0.4,0.2-0.5l1.6-3.6l-2.1,4.7H-2130.2z"/>
	<path class="st6" d="M-2116.9,5666.5c-0.8-0.2-1.7-0.3-2.6-0.3c-0.9,0-1.7,0.1-2.5,0.3l2.6,5.7L-2116.9,5666.5z"/>
	<polygon class="st4" points="-2268.7,5681.2 -2268.7,5697.1 -2260.6,5697.1 -2260.6,5672.7 	"/>
	<polygon class="st5" points="-2260.6,5666.9 -2268.7,5666.9 -2268.7,5675.4 -2260.6,5667 	"/>
	<g>
		<g>
			<path class="st7" d="M-2500.7,6086.2c-1.3-8.1-5-15.4-10.4-21.1c-7.3-7.8-17.8-12.7-29.3-12.7h-1.5h-7.4c-3,0-5.4,2.4-5.4,5.4
				v42.1l10.9-34.8h3.3c3.1,0,6.1,0.5,8.9,1.5c8.8,3,15.7,10.4,17.9,19.6c0.5,2,0.8,4.2,0.8,6.4s-0.3,4.3-0.8,6.4
				c-2.9,12.1-13.8,21.1-26.7,21.1h-1.5v-1.3v-23.2v-12.1v-1.9v-2.1l-12.7,40.8v2v5.2c0,3,2.4,5.4,5.4,5.4h7.4h1.5
				c20,0,36.6-14.7,39.7-33.8c0.3-2.1,0.5-4.2,0.5-6.4S-2500.4,6088.3-2500.7,6086.2z"/>
			<polygon class="st7" points="-2573.4,6065.1 -2562.6,6065.1 -2560.7,6065.1 -2560.7,6058.9 -2560.7,6052.4 -2573.4,6052.4 			"/>
			<polygon class="st7" points="-2573.4,6071.2 -2573.4,6075.3 -2573.4,6086.2 -2573.4,6103.7 -2560.7,6071.2 			"/>
			<path class="st7" d="M-2573.4,6120L-2573.4,6120l-1.5,0c-0.8,0-1.6,0-2.4-0.1c-0.8-0.1-1.6-0.2-2.4-0.3c-0.4-0.1-0.8-0.1-1.1-0.2
				c-10.3-2.3-18.4-10.3-20.8-20.5c-0.5-2-0.8-4.2-0.8-6.4s0.3-4.3,0.8-6.4c2.3-9.6,9.7-17.3,19.2-20l0,0c1.7-0.5,2.9-2.1,2.9-3.8
				v-9.7c-17.9,2.1-32.2,15.9-35.1,33.6c-0.3,2.1-0.5,4.2-0.5,6.4s0.2,4.3,0.5,6.4c2.6,16.3,15.1,29.4,31.1,32.9
				c2,0.4,4,0.7,6.1,0.8c0.8,0.1,1.7,0.1,2.5,0.1h1.5h7.4c3,0,5.4-2.4,5.4-5.4v-7.4v-6.1v-1v-4.1v0v-22.5v-4L-2573.4,6120
				L-2573.4,6120z"/>
		</g>
		<g>
			<path class="st7" d="M-2495.9,6163.6h-123.4v-114.9h123.4V6163.6z M-2618.2,6162.4h121.1v-112.7h-121.1V6162.4z"/>
		</g>
		<g>
			<path class="st7" d="M-2490,6169.2h-135.2V6043h135.2V6169.2z M-2620.8,6164.7h126.2v-117.2h-126.2V6164.7z"/>
		</g>
		<path class="st7" d="M-2609.7,6151.6c-0.2-0.2-0.3-0.6-0.3-1.3v-10.9h-4.5v11.3c0,0.9,0.1,1.7,0.3,2.4c0.2,0.7,0.5,1.3,0.9,1.7
			c0.4,0.5,1,0.8,1.7,1c0.7,0.2,1.6,0.3,2.6,0.3h12.3v-4.3h-11.7C-2609.1,6151.9-2609.5,6151.8-2609.7,6151.6z"/>
		<path class="st7" d="M-2558.7,6147.8c0-1.2-0.2-2.4-0.7-3.4c-0.5-1.1-1.1-2-2-2.8c-0.7-0.7-1.6-1.2-2.7-1.6
			c-1-0.4-2.2-0.6-3.6-0.6h-9.1c-0.7,0-1.1,0.3-1.1,1v14.7c0,0.7,0.4,1.1,1.1,1.1h9.1c1.5,0,2.8-0.2,3.9-0.7c1.1-0.5,2.1-1.2,2.8-2
			c0.7-0.7,1.2-1.6,1.6-2.6C-2558.9,6149.9-2558.7,6148.9-2558.7,6147.8z M-2563.5,6149.3c-0.2,0.5-0.4,0.9-0.8,1.2
			c-0.4,0.4-0.8,0.7-1.4,0.9c-0.5,0.2-1.2,0.3-2,0.3h-5.4c-0.2,0-0.3-0.1-0.3-0.3v-7.2c0-0.2,0.1-0.3,0.3-0.3h5.4
			c0.8,0,1.4,0.1,1.9,0.3c0.5,0.2,0.9,0.5,1.3,0.8c0.4,0.4,0.7,0.8,0.9,1.3c0.2,0.5,0.3,1,0.3,1.6
			C-2563.2,6148.3-2563.3,6148.8-2563.5,6149.3z"/>
		<path class="st7" d="M-2537,6155.8c0-0.1-0.1-0.2-0.2-0.4l-6.1-13.3c-0.5-1-1.1-1.8-1.9-2.3s-1.8-0.8-3-0.8c-1.2,0-2.2,0.3-3,0.8
			c-0.8,0.5-1.4,1.3-1.9,2.3l-6,13.3c-0.1,0.1-0.1,0.3-0.2,0.4c0,0.1-0.1,0.2-0.1,0.4h5.1l1.2-2.6l0,0l0,0l1.6-3.7l2.6-6
			c0.1-0.2,0.2-0.3,0.3-0.4l0.1-0.2l-0.1,0.2c0,0,0,0,0.1-0.1c0.1-0.1,0.3-0.1,0.4-0.1c0.2,0,0.3,0,0.4,0.1c0,0,0.1,0.1,0.1,0.1
			l-0.4-1l0.4,1c0.1,0.1,0.2,0.2,0.2,0.3l2.6,6l0,0l2.8,6.3h5C-2536.9,6156.1-2537,6155.9-2537,6155.8z"/>
		<path class="st7" d="M-2554.1,6156.2c0-0.1,0-0.2,0.1-0.3c0-0.1,0.1-0.2,0.1-0.3l0.9-2l-1.2,2.6H-2554.1z"/>
		<polygon class="st7" points="-2520.2,6139.4 -2539.6,6139.4 -2539.6,6143.8 -2532.2,6143.8 -2532.2,6156.2 -2527.6,6156.2 
			-2527.6,6143.8 -2520.2,6143.8 		"/>
		<path class="st7" d="M-2512.5,6143.9c0.1-0.2,0.2-0.3,0.3-0.4l0.5-1.1l-1.4-3.2c-0.6,0.1-1.2,0.3-1.6,0.6
			c-0.8,0.5-1.4,1.3-1.9,2.3l-6,13.3c-0.1,0.1-0.1,0.3-0.2,0.4c0,0.1-0.1,0.2-0.1,0.4h5.1l1.2-2.6v0l0,0l1.6-3.7L-2512.5,6143.9z"/>
		<path class="st7" d="M-2512.2,6143.5c0.1-0.1,0.3-0.1,0.4-0.1c0.2,0,0.3,0,0.4,0.1c0,0,0.1,0.1,0.1,0.1l-0.5-1.2L-2512.2,6143.5
			C-2512.2,6143.5-2512.2,6143.5-2512.2,6143.5z"/>
		<path class="st7" d="M-2500.6,6155.8c0-0.1-0.1-0.2-0.2-0.4l-6.1-13.3c-0.5-1-1.1-1.8-1.9-2.3c-0.4-0.3-0.9-0.5-1.5-0.6l-1.4,3.2
			l0.5,1.2c0.1,0.1,0.2,0.2,0.2,0.3l2.6,6l1.6,3.7l0,0l0,0l1.2,2.6h5C-2500.6,6156.1-2500.6,6155.9-2500.6,6155.8z"/>
		<path class="st7" d="M-2505.8,6155.6c0,0.1,0.1,0.2,0.1,0.3c0,0.1,0.1,0.2,0.1,0.3h0.1l-1.2-2.6L-2505.8,6155.6z"/>
		<path class="st7" d="M-2517.8,6156.2c0-0.1,0-0.2,0.1-0.3c0-0.1,0.1-0.2,0.1-0.3l0.9-2l-1.2,2.6H-2517.8z"/>
		<path class="st7" d="M-2510.3,6139.2c-0.5-0.1-0.9-0.2-1.5-0.2c-0.5,0-1,0.1-1.4,0.1l1.4,3.2L-2510.3,6139.2z"/>
		<polygon class="st7" points="-2595,6147.3 -2595,6156.2 -2590.4,6156.2 -2590.4,6142.6 		"/>
		<polygon class="st7" points="-2590.4,6139.4 -2595,6139.4 -2595,6144.1 -2590.4,6139.4 		"/>
		<polygon class="st7" points="-2590.4,6139.4 -2595,6144.1 -2595,6147.3 -2590.4,6142.6 		"/>
	</g>
	<g>
		<g>
			<path class="st7" d="M-1948.1,6116.9c-0.6-0.6-0.9-1.7-0.9-3.4v-29.7h-12.4v30.9c0,2.5,0.2,4.7,0.7,6.5c0.5,1.9,1.3,3.4,2.5,4.7
				c1.2,1.2,2.7,2.2,4.6,2.8c1.9,0.6,4.3,0.9,7.1,0.9h33.4v-11.7h-31.9C-1946.4,6117.8-1947.5,6117.5-1948.1,6116.9z"/>
			<path class="st7" d="M-1809.2,6106.6c0-3.3-0.7-6.5-2-9.3c-1.3-2.9-3.1-5.4-5.4-7.5c-2-1.9-4.5-3.4-7.2-4.4
				c-2.8-1.1-6-1.6-9.8-1.6h-24.8c-2,0-3,0.9-3,2.8v40c0,1.9,1,2.9,3,2.9h24.8c4.1,0,7.7-0.7,10.8-2c3-1.3,5.6-3.1,7.8-5.4
				c1.9-2,3.3-4.4,4.4-7C-1809.7,6112.5-1809.2,6109.6-1809.2,6106.6z M-1822.2,6110.6c-0.5,1.2-1.2,2.3-2.1,3.3
				c-1,1.1-2.2,1.9-3.7,2.6c-1.5,0.6-3.3,0.9-5.5,0.9h-14.6c-0.6,0-0.9-0.3-0.9-0.9v-19.7c0-0.6,0.3-0.9,0.9-0.9h14.6
				c2.1,0,3.8,0.3,5.2,0.8c1.4,0.5,2.5,1.3,3.5,2.2c1,1,1.9,2.2,2.5,3.5c0.6,1.4,0.9,2.8,0.9,4.3
				C-1821.5,6108.1-1821.7,6109.4-1822.2,6110.6z"/>
			<path class="st7" d="M-1750.2,6128.5c-0.1-0.3-0.3-0.7-0.4-1l-16.6-36.3c-1.3-2.8-3.1-5-5.2-6.4c-2.2-1.4-4.8-2.1-8.1-2.1
				c-3.3,0-6,0.7-8.2,2.1c-2.1,1.4-3.9,3.5-5.2,6.4l-16.5,36.3c-0.2,0.4-0.3,0.7-0.4,1c-0.1,0.3-0.2,0.7-0.3,1h13.9l3.2-7.1l0,0l0,0
				l4.5-10.1l7-16.4c0.2-0.5,0.4-0.8,0.7-1l0.3-0.6l-0.3,0.6c0.1,0,0.1-0.1,0.2-0.1c0.4-0.2,0.7-0.3,1.2-0.3c0.5,0,0.9,0.1,1.2,0.3
				c0.1,0.1,0.2,0.2,0.3,0.3l-1.2-2.6l1.2,2.6c0.2,0.2,0.4,0.5,0.6,0.8l7.1,16.4l0,0l7.7,17.2h13.7
				C-1749.9,6129.1-1750,6128.8-1750.2,6128.5z"/>
			<path class="st7" d="M-1796.8,6129.5c0-0.3,0.1-0.5,0.2-0.8c0.1-0.3,0.2-0.5,0.3-0.8l2.4-5.5l-3.2,7.1H-1796.8z"/>
			<polygon class="st7" points="-1704.5,6083.7 -1757.3,6083.7 -1757.3,6095.9 -1737.1,6095.9 -1737.1,6129.5 -1724.7,6129.5 
				-1724.7,6095.9 -1704.5,6095.9 			"/>
			<path class="st7" d="M-1683.4,6095.9c0.2-0.5,0.4-0.8,0.7-1l1.4-3.1l-3.9-8.7c-1.7,0.3-3.2,0.9-4.4,1.7c-2.1,1.4-3.9,3.5-5.2,6.4
				l-16.5,36.3c-0.2,0.4-0.3,0.7-0.4,1c-0.1,0.3-0.2,0.7-0.3,1h13.9l3.2-7.1l0,0l0,0l4.5-10.1L-1683.4,6095.9z"/>
			<path class="st7" d="M-1682.6,6094.8c0.4-0.2,0.7-0.3,1.2-0.3c0.5,0,0.9,0.1,1.2,0.3c0.1,0.1,0.2,0.2,0.3,0.3l-1.5-3.3l-1.4,3.1
				C-1682.7,6094.9-1682.6,6094.8-1682.6,6094.8z"/>
			<path class="st7" d="M-1651.1,6128.5c-0.1-0.3-0.3-0.7-0.4-1l-16.6-36.3c-1.3-2.8-3.1-5-5.2-6.4c-1.2-0.8-2.6-1.3-4.1-1.7
				l-3.9,8.7l1.5,3.3c0.2,0.2,0.4,0.5,0.6,0.8l7.1,16.4l4.5,10.1l0,0l0,0l3.2,7.1h13.7C-1650.9,6129.1-1651,6128.8-1651.1,6128.5z"
				/>
			<path class="st7" d="M-1665.3,6127.9c0.1,0.2,0.2,0.5,0.3,0.7c0.1,0.2,0.2,0.5,0.3,0.8h0.2l-3.2-7.1L-1665.3,6127.9z"/>
			<path class="st7" d="M-1697.8,6129.5c0-0.3,0.1-0.5,0.2-0.8c0.1-0.3,0.2-0.5,0.3-0.8l2.4-5.5l-3.2,7.1H-1697.8z"/>
			<path class="st7" d="M-1677.5,6083.2c-1.2-0.3-2.5-0.4-4-0.4c-1.4,0-2.6,0.1-3.7,0.4l3.9,8.7L-1677.5,6083.2z"/>
			<polygon class="st7" points="-1908.1,6105.4 -1908.1,6129.5 -1895.7,6129.5 -1895.7,6092.6 			"/>
			<polygon class="st7" points="-1895.7,6083.7 -1908.1,6083.7 -1908.1,6096.7 -1895.7,6083.8 			"/>
			<polygon class="st7" points="-1895.7,6083.8 -1908.1,6096.7 -1908.1,6105.4 -1895.7,6092.6 			"/>
		</g>
		<g>
			<g>
				<path class="st7" d="M-1974.4,6103.5c-0.6-4-2.5-7.6-5.1-10.4c-3.6-3.9-8.8-6.3-14.5-6.3h-0.7h-3.6c-1.5,0-2.7,1.2-2.7,2.7v20.8
					l5.4-17.2h1.6c1.5,0,3,0.3,4.4,0.7c4.4,1.5,7.7,5.2,8.8,9.7c0.2,1,0.4,2.1,0.4,3.1s-0.1,2.1-0.4,3.1c-1.4,6-6.8,10.4-13.2,10.4
					h-0.7v-0.6v-11.5v-6v-0.9v-1l-6.3,20.1v1v2.5c0,1.5,1.2,2.7,2.7,2.7h3.6h0.7c9.9,0,18.1-7.3,19.6-16.7c0.2-1,0.3-2.1,0.3-3.1
					S-1974.3,6104.5-1974.4,6103.5z"/>
				<polygon class="st7" points="-2010.4,6093 -2005,6093 -2004.1,6093 -2004.1,6090 -2004.1,6086.8 -2010.4,6086.8 				"/>
				<polygon class="st7" points="-2010.4,6096.1 -2010.4,6098.1 -2010.4,6103.5 -2010.4,6112.1 -2004.1,6096.1 				"/>
				<path class="st7" d="M-2010.4,6120.2L-2010.4,6120.2l-0.7,0c-0.4,0-0.8,0-1.2-0.1c-0.4,0-0.8-0.1-1.2-0.2
					c-0.2,0-0.4-0.1-0.6-0.1c-5.1-1.1-9.1-5.1-10.3-10.1c-0.2-1-0.4-2.1-0.4-3.1s0.1-2.1,0.4-3.1c1.1-4.8,4.8-8.6,9.5-9.9l0,0
					c0.8-0.2,1.4-1,1.4-1.9v-4.8c-8.8,1-15.9,7.9-17.3,16.6c-0.2,1-0.3,2.1-0.3,3.1s0.1,2.1,0.3,3.1c1.3,8.1,7.5,14.5,15.4,16.2
					c1,0.2,2,0.4,3,0.4c0.4,0,0.8,0,1.2,0h0.7h3.6c1.5,0,2.7-1.2,2.7-2.7v-3.6v-3v-0.5v-2v0v-11.1v-2L-2010.4,6120.2L-2010.4,6120.2
					z"/>
			</g>
			<g>
				<path class="st7" d="M-1970.1,6129.5h-64.8v-45.8h64.8V6129.5z M-2033.7,6128.2h62.2V6085h-62.2V6128.2z"/>
			</g>
		</g>
	</g>
</g>
<g>
	<rect x="-4532.3" y="5339.7" class="st4" width="1440" height="1020"/>
	<g>
		<g>
			<path class="st7" d="M-3955.5,5923.2c-0.6-0.6-0.9-1.8-0.9-3.4v-30h-12.5v31.1c0,2.5,0.3,4.7,0.8,6.6c0.5,1.9,1.3,3.5,2.5,4.7
				c1.2,1.3,2.7,2.2,4.7,2.8c1.9,0.6,4.3,0.9,7.2,0.9h33.7v-11.8h-32.2C-3953.8,5924.2-3954.9,5923.9-3955.5,5923.2z"/>
			<path class="st7" d="M-3815.5,5912.9c0-3.4-0.7-6.5-2-9.4c-1.3-2.9-3.2-5.4-5.5-7.6c-2.1-1.9-4.5-3.4-7.3-4.5
				c-2.8-1.1-6.1-1.6-9.8-1.6h-25c-2,0-3,1-3,2.9v40.3c0,2,1,2.9,3,2.9h25c4.2,0,7.8-0.7,10.8-2c3.1-1.3,5.7-3.2,7.8-5.5
				c1.9-2,3.3-4.4,4.4-7C-3816,5918.8-3815.5,5916-3815.5,5912.9z M-3828.6,5917c-0.5,1.3-1.2,2.4-2.1,3.3c-1,1.1-2.3,2-3.8,2.6
				c-1.5,0.6-3.4,1-5.6,1h-14.7c-0.6,0-0.9-0.3-0.9-1V5903c0-0.6,0.3-1,0.9-1h14.7c2.1,0,3.8,0.3,5.2,0.8c1.4,0.5,2.6,1.3,3.6,2.2
				c1.1,1,1.9,2.2,2.5,3.5c0.6,1.4,0.9,2.8,0.9,4.4C-3827.9,5914.4-3828.1,5915.7-3828.6,5917z"/>
			<path class="st7" d="M-3755.9,5935c-0.1-0.3-0.3-0.7-0.4-1l-16.7-36.6c-1.3-2.9-3.1-5-5.2-6.4c-2.2-1.4-4.9-2.1-8.1-2.1
				c-3.3,0-6.1,0.7-8.2,2.1c-2.2,1.4-3.9,3.5-5.2,6.4l-16.6,36.6c-0.2,0.4-0.3,0.7-0.4,1c-0.1,0.3-0.2,0.7-0.3,1h14l3.2-7.2l0,0l0,0
				l4.5-10.2l7.1-16.5c0.2-0.5,0.4-0.8,0.7-1l0.3-0.6l-0.3,0.6c0.1,0,0.1-0.1,0.2-0.1c0.4-0.2,0.8-0.3,1.2-0.3
				c0.5,0,0.9,0.1,1.2,0.3c0.1,0.1,0.2,0.2,0.3,0.3l-1.2-2.7l1.2,2.7c0.2,0.2,0.4,0.5,0.6,0.8l7.1,16.5l0,0l7.7,17.3h13.8
				C-3755.7,5935.6-3755.8,5935.3-3755.9,5935z"/>
			<path class="st7" d="M-3803,5936c0-0.3,0.1-0.5,0.2-0.8c0.1-0.3,0.2-0.5,0.3-0.8l2.4-5.5l-3.2,7.2H-3803z"/>
			<polygon class="st7" points="-3710,5889.8 -3763.1,5889.8 -3763.1,5902.1 -3742.7,5902.1 -3742.7,5936 -3730.3,5936 
				-3730.3,5902.1 -3710,5902.1 			"/>
			<path class="st7" d="M-3688.7,5902.1c0.2-0.5,0.4-0.8,0.7-1l1.4-3.1l-3.9-8.8c-1.7,0.3-3.2,0.9-4.5,1.7c-2.2,1.4-3.9,3.5-5.2,6.4
				l-16.6,36.6c-0.2,0.4-0.3,0.7-0.4,1c-0.1,0.3-0.2,0.7-0.3,1h14l3.2-7.2l0,0l0,0l4.5-10.2L-3688.7,5902.1z"/>
			<path class="st7" d="M-3687.8,5901c0.4-0.2,0.8-0.3,1.2-0.3c0.5,0,0.9,0.1,1.2,0.3c0.1,0.1,0.2,0.2,0.3,0.3l-1.5-3.3l-1.4,3.1
				C-3687.9,5901.1-3687.9,5901-3687.8,5901z"/>
			<path class="st7" d="M-3656.1,5935c-0.1-0.3-0.3-0.7-0.4-1l-16.7-36.6c-1.3-2.9-3.1-5-5.2-6.4c-1.2-0.8-2.6-1.3-4.1-1.7l-3.9,8.7
				l1.5,3.3c0.2,0.2,0.4,0.5,0.6,0.8l7.1,16.5l4.5,10.2l0,0l0,0l3.2,7.2h13.8C-3655.9,5935.6-3656,5935.3-3656.1,5935z"/>
			<path class="st7" d="M-3670.4,5934.4c0.1,0.2,0.2,0.5,0.3,0.7c0.1,0.3,0.2,0.5,0.3,0.9h0.2l-3.2-7.2L-3670.4,5934.4z"/>
			<path class="st7" d="M-3703.2,5936c0-0.3,0.1-0.5,0.2-0.8c0.1-0.3,0.2-0.5,0.3-0.8l2.4-5.5l-3.2,7.2H-3703.2z"/>
			<path class="st7" d="M-3682.7,5889.3c-1.2-0.3-2.6-0.4-4-0.4c-1.4,0-2.6,0.1-3.8,0.4l3.9,8.8L-3682.7,5889.3z"/>
			<polygon class="st7" points="-3915.2,5911.7 -3915.2,5936 -3902.7,5936 -3902.7,5898.7 			"/>
			<polygon class="st7" points="-3902.7,5889.8 -3915.2,5889.8 -3915.2,5902.9 -3902.7,5889.9 			"/>
		</g>
		<g>
			<path class="st7" d="M-3777.8,5763.4h-12.9v16.2h12.9c1.4,0,2.5,1.1,2.5,2.5v69c0,1.4-1.1,2.5-2.5,2.5h-12.8v16.2h12.8
				c10.3,0,18.6-8.4,18.6-18.6v-69C-3759.2,5771.8-3767.5,5763.4-3777.8,5763.4z"/>
			<path class="st7" d="M-3865.5,5782v69c0,9.2,6.6,16.8,15.4,18.3l-0.1,0.3h3.4h12.8v-16.2v-17.4l-8.4,17.4h-4.4
				c-1.4,0-2.5-1.1-2.5-2.5v-69c0-1.4,1.1-2.5,2.5-2.5h12.8v-16.2h-12.8C-3857.1,5763.4-3865.5,5771.8-3865.5,5782z"/>
			<path class="st7" d="M-3801.6,5782.7c-0.9,0.5-1.6,1.4-2.1,2.6c-0.4,0.9-0.6,3.2-0.5,6.9l0.1,48.5c0,3.8,0.2,6.1,0.6,7.1
				c0.4,0.9,1.2,1.8,2.3,2.5c1.1,0.7,2.7,1.1,4.6,1l2.3,0v-69.7l-2.4,0C-3798.7,5781.5-3800.3,5781.9-3801.6,5782.7z"/>
			<path class="st7" d="M-3823.1,5850.1c0.9-0.5,1.6-1.4,2-2.6c0.4-0.9,0.6-3.2,0.5-6.9l-0.1-48.5c0-3.8-0.2-6.1-0.6-7.1
				c-0.4-0.9-1.1-1.8-2.3-2.5c-1.1-0.7-2.7-1.1-4.6-1l-2.3,0v69.7l2.4,0C-3825.9,5851.3-3824.3,5850.9-3823.1,5850.1z"/>
			<polygon class="st7" points="-3830.4,5853.5 -3830.4,5869.7 -3814.2,5869.7 -3794.3,5869.7 -3794.3,5853.5 -3814.2,5853.5 			"/>
			<polygon class="st7" points="-3830.4,5763.4 -3830.4,5779.6 -3814.2,5779.6 -3811.2,5779.6 -3794.3,5779.5 -3794.3,5763.4 
				-3814.2,5763.4 			"/>
		</g>
	</g>
</g>
<g class="st1">
	<rect x="3766.1" y="3527.2" class="st8" width="8.3" height="164.7"/>
	<path class="st8" d="M3693.4,3527.2c-3,0-5.5,2.5-5.5,5.5v153.7c0,3,2.5,5.5,5.5,5.5h36.7v-164.7H3693.4z"/>
	<path class="st8" d="M3847,3691.9c3,0,5.5-2.5,5.5-5.5v-153.7c0-3-2.5-5.5-5.5-5.5h-36.7v164.7H3847z"/>
	<path class="st2" d="M3847,3491.2h-36.7v36h36.7c3,0,5.5,2.5,5.5,5.5v153.7c0,3-2.5,5.5-5.5,5.5h-36.7v36h36.7
		c22.9,0,41.5-18.6,41.5-41.5v-153.7C3888.5,3509.8,3869.9,3491.2,3847,3491.2z"/>
	<rect x="3858.1" y="3383.2" class="st2" width="8.3" height="36"/>
	<rect x="3985.6" y="3383.2" class="st2" width="8.3" height="36"/>
	<path class="st2" d="M3693.4,3691.9c-3,0-5.5-2.5-5.5-5.5v-153.7c0-3,2.5-5.5,5.5-5.5h36.7v-36h-36.7c-22.9,0-41.5,18.6-41.5,41.5
		v153.7c0,22.9,18.6,41.5,41.5,41.5h36.7v-36H3693.4z"/>
	<rect x="3730.1" y="3691.9" class="st2" width="36" height="36"/>
	<rect x="3730.1" y="3491.2" class="st2" width="36" height="36"/>
	<rect x="3730.1" y="3527.2" class="st2" width="80.3" height="164.7"/>
	<polygon class="st2" points="4014.1,3653.2 3978.1,3727.9 4014.1,3727.9 	"/>
	<rect x="3905.1" y="3372.2" class="st2" width="36" height="74.7"/>
	<rect x="3418.9" y="3654.6" class="st2" width="36" height="74.7"/>
	<rect x="3730.1" y="3691.9" class="st2" width="80.3" height="36"/>
	<rect x="3730.1" y="3491.2" class="st2" width="80.3" height="36"/>
	<path class="st9" d="M3810.3,3686.7l0,4.5l-79.9,0.2l0-4.5l5.1,0c4.4,0,8-0.9,10.7-2.6c2-1.1,3.5-3.1,4.5-5.8
		c0.8-1.9,1.2-7,1.2-15.3l-0.2-107.9c0-8.4-0.4-13.6-1.3-15.7c-0.8-2.1-2.5-3.9-5-5.5c-2.5-1.6-5.9-2.3-10.2-2.3l-5.1,0l0-4.5
		l79.9-0.2l0,4.5l-5.1,0c-4.4,0-8,0.9-10.7,2.6c-2,1.1-3.5,3.1-4.6,5.8c-0.8,1.9-1.2,7-1.2,15.3l0.2,107.9c0,8.4,0.5,13.6,1.3,15.7
		c0.9,2.1,2.6,3.9,5.1,5.5c2.5,1.6,5.9,2.3,10.2,2.3L3810.3,3686.7z"/>
	<rect x="4058.4" y="3527.2" class="st8" width="8.3" height="164.7"/>
	<path class="st8" d="M3985.7,3527.2c-3,0-5.5,2.5-5.5,5.5v153.7c0,3,2.5,5.5,5.5,5.5h36.7v-164.7H3985.7z"/>
	<path class="st8" d="M4139.4,3691.9c3,0,5.5-2.5,5.5-5.5v-153.7c0-3-2.5-5.5-5.5-5.5h-36.7v164.7H4139.4z"/>
	<path class="st8" d="M3980.2,3532.7v153.7c0,3,2.5,5.5,5.5,5.5h28.4v-164.7h-28.4C3982.7,3527.2,3980.2,3529.7,3980.2,3532.7z"/>
	<rect x="3946.9" y="3314.2" class="st2" width="164.7" height="8.3"/>
	<path class="st2" d="M4139.4,3491.2h-28.7v36h28.7c3,0,5.5,2.5,5.5,5.5v153.7c0,3-2.5,5.5-5.5,5.5H4111v36h28.4
		c22.9,0,41.5-18.6,41.5-41.5v-153.7C4180.9,3509.8,4162.2,3491.2,4139.4,3491.2z"/>
	<path class="st2" d="M3985.7,3691.9c-3,0-5.5-2.5-5.5-5.5v-153.7c0-3,2.5-5.5,5.5-5.5h28.4v-36h-28.4c-22.9,0-41.5,18.6-41.5,41.5
		v153.7c0,22.9,18.6,41.5,41.5,41.5h28.4v-36H3985.7z"/>
	<rect x="4022.4" y="3691.9" class="st2" width="36" height="36"/>
	<rect x="4022.4" y="3491.2" class="st2" width="36" height="36"/>
	<rect x="4022.4" y="3527.2" class="st2" width="80.3" height="164.7"/>
	<rect x="4022.4" y="3691.9" class="st2" width="80.3" height="36"/>
	<rect x="4022.4" y="3491.2" class="st2" width="80.3" height="36"/>
	<path class="st9" d="M4102.7,3686.7l0,4.5l-79.9,0.2l0-4.5l5.1,0c4.4,0,8-0.9,10.7-2.6c2-1.1,3.5-3.1,4.5-5.8
		c0.8-1.9,1.2-7,1.2-15.3l-0.2-107.9c0-8.4-0.4-13.6-1.3-15.7c-0.8-2.1-2.5-3.9-5-5.5c-2.5-1.6-5.9-2.3-10.2-2.3l-5.1,0l0-4.5
		l79.9-0.2l0,4.5l-5.1,0c-4.4,0-8,0.9-10.7,2.6c-2,1.1-3.5,3.1-4.6,5.8c-0.8,1.9-1.2,7-1.2,15.3l0.2,107.9c0,8.4,0.5,13.6,1.3,15.7
		c0.9,2.1,2.6,3.9,5.1,5.5c2.5,1.6,5.9,2.3,10.2,2.3L4102.7,3686.7z"/>
	<polygon class="st2" points="4318.9,3929.4 4282.9,4004.1 4318.9,4004.1 	"/>
	<rect x="4363.2" y="3803.4" class="st8" width="8.3" height="164.7"/>
	<path class="st8" d="M4290.5,3803.4c-3,0-5.5,2.5-5.5,5.5v153.7c0,3,2.5,5.5,5.5,5.5h36.7v-164.7H4290.5z"/>
	<path class="st8" d="M4444.2,3968.1c3,0,5.5-2.5,5.5-5.5v-153.7c0-3-2.5-5.5-5.5-5.5h-36.7v164.7H4444.2z"/>
	<path class="st8" d="M4285,3808.9v153.7c0,3,2.5,5.5,5.5,5.5h28.4v-164.7h-28.4C4287.5,3803.4,4285,3805.9,4285,3808.9z"/>
	<path class="st2" d="M4444.2,3767.4h-28.7v7.6c0,15.7,12.7,28.4,28.4,28.4h0.3c3,0,5.5,2.5,5.5,5.5v153.7c0,3-2.5,5.5-5.5,5.5l0,0
		c-15.7,0-28.4,12.7-28.4,28.4v7.6h28.4c22.9,0,41.5-18.6,41.5-41.5v-153.7C4485.7,3786,4467.1,3767.4,4444.2,3767.4z"/>
	<path class="st2" d="M4290.5,3968.1c-3,0-5.5-2.5-5.5-5.5v-153.7c0-3,2.5-5.5,5.5-5.5l0,0c15.7,0,28.4-12.7,28.4-28.4v-7.6h-28.4
		c-22.9,0-41.5,18.6-41.5,41.5v153.7c0,22.9,18.6,41.5,41.5,41.5h28.4v-36H4290.5z"/>
	<rect x="4327.2" y="3803.4" class="st2" width="80.3" height="164.7"/>
	<path class="st2" d="M4327.2,3968.1L4327.2,3968.1c0,19.9,16.1,36,36,36h8.3c19.9,0,36-16.1,36-36l0,0H4327.2z"/>
	<path class="st2" d="M4407.5,3803.4L4407.5,3803.4c0-19.9-16.1-36-36-36h-8.3c-19.9,0-36,16.1-36,36l0,0H4407.5z"/>
	<path class="st9" d="M4407.5,3962.9l0,4.5l-79.9,0.2l0-4.5l5.1,0c4.4,0,8-0.9,10.7-2.6c2-1.1,3.5-3.1,4.5-5.8
		c0.8-1.9,1.2-7,1.2-15.3l-0.2-107.9c0-8.4-0.4-13.6-1.3-15.7c-0.8-2.1-2.5-3.9-5-5.5c-2.5-1.6-5.9-2.3-10.2-2.3l-5.1,0l0-4.5
		l79.9-0.2l0,4.5l-5.1,0c-4.4,0-8,0.9-10.7,2.6c-2,1.1-3.5,3.1-4.6,5.8c-0.8,1.9-1.2,7-1.2,15.3l0.2,107.9c0,8.4,0.5,13.6,1.3,15.7
		c0.9,2.1,2.6,3.9,5.1,5.5c2.5,1.6,5.9,2.3,10.2,2.3L4407.5,3962.9z"/>
	<polygon class="st2" points="4305.1,3653.2 4269.1,3727.9 4305.1,3727.9 	"/>
	<polygon class="st2" points="4401,3653.2 4437,3727.9 4401,3727.9 	"/>
	<rect x="4349.4" y="3527.2" class="st8" width="8.3" height="164.7"/>
	<path class="st8" d="M4276.7,3527.2c-3,0-5.5,2.5-5.5,5.5v153.7c0,3,2.5,5.5,5.5,5.5h36.7v-164.7H4276.7z"/>
	<path class="st8" d="M4430.4,3691.9c3,0,5.5-2.5,5.5-5.5v-153.7c0-3-2.5-5.5-5.5-5.5h-36.7v164.7H4430.4z"/>
	<path class="st8" d="M4271.2,3532.7v153.7c0,3,2.5,5.5,5.5,5.5h28.4v-164.7h-28.4C4273.7,3527.2,4271.2,3529.7,4271.2,3532.7z"/>
	<path class="st2" d="M4430.4,3491.2h-28.7v36h28.7c3,0,5.5,2.5,5.5,5.5v153.7c0,3-2.5,5.5-5.5,5.5H4402v36h28.4
		c22.9,0,41.5-18.6,41.5-41.5v-153.7C4471.9,3509.8,4453.2,3491.2,4430.4,3491.2z"/>
	<path class="st2" d="M4276.7,3691.9c-3,0-5.5-2.5-5.5-5.5v-153.7c0-3,2.5-5.5,5.5-5.5h28.4v-36h-28.4c-22.9,0-41.5,18.6-41.5,41.5
		v153.7c0,22.9,18.6,41.5,41.5,41.5h28.4v-36H4276.7z"/>
	<rect x="4313.4" y="3691.9" class="st2" width="36" height="36"/>
	<rect x="4313.4" y="3491.2" class="st2" width="36" height="36"/>
	<rect x="4313.4" y="3527.2" class="st2" width="80.3" height="164.7"/>
	<rect x="4313.4" y="3691.9" class="st2" width="80.3" height="36"/>
	<rect x="4313.4" y="3491.2" class="st2" width="80.3" height="36"/>
	<path class="st9" d="M4393.7,3720.7l0,6.4l-79.9,0.3l0-6.4l5.1,0c4.4,0,8-1.3,10.7-3.7c2-1.6,3.5-4.4,4.5-8.4
		c0.8-2.8,1.2-10.1,1.2-21.9l-0.2-155.2c0-12.1-0.4-19.6-1.3-22.6c-0.8-3-2.5-5.6-5-7.9c-2.5-2.2-5.9-3.4-10.2-3.3l-5.1,0l0-6.4
		l79.9-0.3l0,6.4l-5.1,0c-4.4,0-8,1.2-10.7,3.7c-2,1.6-3.5,4.4-4.6,8.4c-0.8,2.8-1.2,10.1-1.2,21.9l0.2,155.2
		c0,12.1,0.5,19.6,1.3,22.6c0.9,3,2.6,5.6,5.1,7.9c2.5,2.3,5.9,3.4,10.2,3.4L4393.7,3720.7z"/>
	<polygon class="st2" points="3421.4,3923.3 3385.4,3997.9 3421.4,3997.9 	"/>
	<polygon class="st2" points="3517.3,3923.3 3553.3,3997.9 3517.3,3997.9 	"/>
	<polygon class="st2" points="3518,3835.9 3554,3761.3 3518,3761.3 	"/>
	<rect x="3465.7" y="3797.3" class="st8" width="8.3" height="164.7"/>
	<path class="st8" d="M3393,3797.3c-3,0-5.5,2.5-5.5,5.5v153.7c0,3,2.5,5.5,5.5,5.5h36.7v-164.7H3393z"/>
	<path class="st8" d="M3546.7,3961.9c3,0,5.5-2.5,5.5-5.5v-153.7c0-3-2.5-5.5-5.5-5.5H3510v164.7H3546.7z"/>
	<path class="st8" d="M3387.5,3802.8v153.7c0,3,2.5,5.5,5.5,5.5h28.4v-164.7H3393C3390,3797.3,3387.5,3799.7,3387.5,3802.8z"/>
	<path class="st2" d="M3546.7,3761.3H3518v36h28.7c3,0,5.5,2.5,5.5,5.5v153.7c0,3-2.5,5.5-5.5,5.5h-28.4v36h28.4
		c22.9,0,41.5-18.6,41.5-41.5v-153.7C3588.2,3779.9,3569.6,3761.3,3546.7,3761.3z"/>
	<path class="st2" d="M3393,3961.9c-3,0-5.5-2.5-5.5-5.5v-153.7c0-3,2.5-5.5,5.5-5.5h28.4v-36H3393c-22.9,0-41.5,18.6-41.5,41.5
		v153.7c0,22.9,18.6,41.5,41.5,41.5h28.4v-36H3393z"/>
	<rect x="3429.7" y="3961.9" class="st2" width="36" height="36"/>
	<rect x="3429.7" y="3761.3" class="st2" width="36" height="36"/>
	<rect x="3429.7" y="3797.3" class="st2" width="80.3" height="164.7"/>
	<rect x="3429.7" y="3961.9" class="st2" width="80.3" height="36"/>
	<rect x="3429.7" y="3761.3" class="st2" width="80.3" height="36"/>
	<path class="st9" d="M3510,3990.7l0,6.4l-79.9,0.3l0-6.4l5.1,0c4.4,0,8-1.3,10.7-3.7c2-1.6,3.5-4.4,4.5-8.4
		c0.8-2.8,1.2-10.1,1.2-21.9l-0.2-155.2c0-12.1-0.4-19.6-1.3-22.6c-0.8-3-2.5-5.6-5-7.9c-2.5-2.2-5.9-3.4-10.2-3.3l-5.1,0l0-6.4
		l79.9-0.3l0,6.4l-5.1,0c-4.4,0-8,1.2-10.7,3.7c-2,1.6-3.5,4.4-4.6,8.4c-0.8,2.8-1.2,10.1-1.2,21.9l0.2,155.2
		c0,12.1,0.5,19.6,1.3,22.6c0.9,3,2.6,5.6,5.1,7.9c2.5,2.3,5.9,3.4,10.2,3.4L3510,3990.7z"/>
	<polygon class="st2" points="3729.5,3923.3 3693.5,3997.9 3729.5,3997.9 	"/>
	<polygon class="st2" points="3825.4,3879.6 3861.4,3997.9 3825.4,3997.9 	"/>
	<polygon class="st2" points="3826,3879.6 3862,3761.3 3826,3761.3 	"/>
	<rect x="3773.8" y="3797.3" class="st8" width="8.3" height="164.7"/>
	<path class="st8" d="M3701.1,3797.3c-3,0-5.5,2.5-5.5,5.5v153.7c0,3,2.5,5.5,5.5,5.5h36.7v-164.7H3701.1z"/>
	<path class="st8" d="M3854.7,3961.9c3,0,5.5-2.5,5.5-5.5v-153.7c0-3-2.5-5.5-5.5-5.5h-36.7v164.7H3854.7z"/>
	<path class="st8" d="M3695.6,3802.8v153.7c0,3,2.5,5.5,5.5,5.5h28.4v-164.7h-28.4C3698,3797.3,3695.6,3799.7,3695.6,3802.8z"/>
	<path class="st2" d="M3854.7,3761.3H3826v36h28.7c3,0,5.5,2.5,5.5,5.5v153.7c0,3-2.5,5.5-5.5,5.5h-28.4v36h28.4
		c22.9,0,41.5-18.6,41.5-41.5v-153.7C3896.2,3779.9,3877.6,3761.3,3854.7,3761.3z"/>
	<path class="st2" d="M3701.1,3961.9c-3,0-5.5-2.5-5.5-5.5v-153.7c0-3,2.5-5.5,5.5-5.5h28.4v-36h-28.4c-22.9,0-41.5,18.6-41.5,41.5
		v153.7c0,22.9,18.6,41.5,41.5,41.5h28.4v-36H3701.1z"/>
	<rect x="3737.8" y="3961.9" class="st2" width="36" height="36"/>
	<rect x="3737.8" y="3761.3" class="st2" width="36" height="36"/>
	<rect x="3737.8" y="3797.3" class="st2" width="80.3" height="164.7"/>
	<rect x="3737.8" y="3961.9" class="st2" width="80.3" height="36"/>
	<rect x="3737.8" y="3761.3" class="st2" width="80.3" height="36"/>
	<path class="st9" d="M3818,3990.7l0,6.4l-79.9,0.3l0-6.4l5.1,0c4.4,0,8-1.3,10.7-3.7c2-1.6,3.5-4.4,4.5-8.4
		c0.8-2.8,1.2-10.1,1.2-21.9l-0.2-155.2c0-12.1-0.4-19.6-1.3-22.6c-0.8-3-2.5-5.6-5-7.9c-2.5-2.2-5.9-3.4-10.2-3.3l-5.1,0l0-6.4
		l79.9-0.3l0,6.4l-5.1,0c-4.4,0-8,1.2-10.7,3.7c-2,1.6-3.5,4.4-4.6,8.4c-0.8,2.8-1.2,10.1-1.2,21.9l0.2,155.2
		c0,12.1,0.5,19.6,1.3,22.6c0.9,3,2.6,5.6,5.1,7.9c2.5,2.3,5.9,3.4,10.2,3.4L3818,3990.7z"/>
	<polygon class="st2" points="4014.1,3923.3 3978.1,3997.9 4014.1,3997.9 	"/>
	<polygon class="st2" points="4110,3879.6 4146,3997.9 4110,3997.9 	"/>
	<polygon class="st2" points="4110.6,3879.6 4146.6,3761.3 4110.6,3761.3 	"/>
	<rect x="4058.4" y="3797.3" class="st8" width="8.3" height="164.7"/>
	<path class="st8" d="M3985.7,3797.3c-3,0-5.5,2.5-5.5,5.5v153.7c0,3,2.5,5.5,5.5,5.5h36.7v-164.7H3985.7z"/>
	<path class="st8" d="M4139.4,3961.9c3,0,5.5-2.5,5.5-5.5v-153.7c0-3-2.5-5.5-5.5-5.5h-36.7v164.7H4139.4z"/>
	<path class="st8" d="M3980.2,3802.8v153.7c0,3,2.5,5.5,5.5,5.5h28.4v-164.7h-28.4C3982.7,3797.3,3980.2,3799.7,3980.2,3802.8z"/>
	<path class="st2" d="M4139.4,3761.3h-28.7v36h28.7c3,0,5.5,2.5,5.5,5.5v153.7c0,3-2.5,5.5-5.5,5.5H4111v36h28.4
		c22.9,0,41.5-18.6,41.5-41.5v-153.7C4180.9,3779.9,4162.2,3761.3,4139.4,3761.3z"/>
	<path class="st2" d="M3985.7,3961.9c-3,0-5.5-2.5-5.5-5.5v-153.7c0-3,2.5-5.5,5.5-5.5h28.4v-36h-28.4c-22.9,0-41.5,18.6-41.5,41.5
		v153.7c0,22.9,18.6,41.5,41.5,41.5h28.4v-36H3985.7z"/>
	<rect x="4022.4" y="3961.9" class="st2" width="36" height="36"/>
	<rect x="4022.4" y="3761.3" class="st2" width="36" height="36"/>
	<rect x="4022.4" y="3805.5" class="st2" width="80.3" height="156.4"/>
	<rect x="4022.4" y="3961.9" class="st2" width="80.3" height="36"/>
	<rect x="4022.4" y="3761.3" class="st2" width="80.3" height="36"/>
	<rect x="3466.5" y="3527.2" class="st8" width="8.3" height="164.7"/>
	<path class="st8" d="M3393.8,3527.2c-3,0-5.5,2.5-5.5,5.5v153.7c0,3,2.5,5.5,5.5,5.5h36.7v-164.7H3393.8z"/>
	<path class="st8" d="M3547.5,3691.9c3,0,5.5-2.5,5.5-5.5v-153.7c0-3-2.5-5.5-5.5-5.5h-36.7v164.7H3547.5z"/>
	<path class="st2" d="M3589,3491.2h-78.2v36h36.7c3,0,5.5,2.5,5.5,5.5v153.7c0,3-2.5,5.5-5.5,5.5h-36.7v36h78.2V3491.2z"/>
	<path class="st2" d="M3393.8,3691.9c-3,0-5.5-2.5-5.5-5.5v-153.7c0-3,2.5-5.5,5.5-5.5h36.7v-36h-78.2v236.7h78.2v-36H3393.8z"/>
	<rect x="3430.5" y="3691.9" class="st2" width="36" height="36"/>
	<rect x="3430.5" y="3491.2" class="st2" width="36" height="36"/>
	<rect x="3452.2" y="3527.2" class="st2" width="58.6" height="164.7"/>
	<rect x="3430.5" y="3691.9" class="st2" width="80.3" height="36"/>
	<rect x="3430.5" y="3491.2" class="st2" width="80.3" height="36"/>
	<path class="st9" d="M3510.8,3720.7l0,6.4l-79.9,0.3l0-6.4l5.1,0c4.4,0,8-1.3,10.7-3.7c2-1.6,3.5-4.4,4.5-8.4
		c0.8-2.8,1.2-10.1,1.2-21.9l-0.2-155.2c0-12.1-0.4-19.6-1.3-22.6c-0.8-3-2.5-5.6-5-7.9c-2.5-2.2-5.9-3.4-10.2-3.4l-5.1,0l0-6.4
		l79.9-0.3l0,6.4l-5.1,0c-4.4,0-8,1.2-10.7,3.7c-2,1.6-3.5,4.4-4.6,8.4c-0.8,2.8-1.2,10.1-1.2,21.9l0.2,155.2
		c0,12.1,0.5,19.6,1.3,22.6c0.9,3,2.6,5.6,5.1,7.9c2.5,2.3,5.9,3.4,10.2,3.4L3510.8,3720.7z"/>
</g>
<g class="st1">
	<polygon class="st2" points="2480,1197.2 2480,1169.5 2473.3,1165.6 2473.3,1193.3 	"/>
	<polygon class="st2" points="2434.8,1278.9 2393.1,1303 2393.1,1330.7 2482.8,1278.9 2393.1,1227.2 2393.1,1254.9 	"/>
	<polygon class="st2" points="2511.5,1164.8 2487.5,1164.8 2487.5,1213.3 2511.5,1227.2 	"/>
	<polygon class="st2" points="2369.1,1241 2369.1,1316.9 2393.1,1303 2393.1,1254.9 	"/>
	<polygon class="st2" points="2393.1,1303 2369.1,1316.9 2369.1,1344.6 2393.1,1330.7 	"/>
	<polygon class="st2" points="2393.1,1254.9 2393.1,1227.2 2369.1,1213.3 2369.1,1241 	"/>
	<polygon class="st2" points="2330.2,1339.3 2330.2,1367.1 2338.4,1362.3 2338.4,1334.6 	"/>
	<polygon class="st2" points="2330.2,1218.5 2330.2,1190.8 2306.2,1177 2306.2,1380.9 2330.2,1367.1 2330.2,1339.3 	"/>
	<polygon class="st2" points="2338.4,1362.3 2362.4,1348.5 2362.4,1320.7 2338.4,1334.6 	"/>
	<polygon class="st2" points="2338.4,1195.6 2338.4,1223.3 2362.4,1237.1 2362.4,1209.4 	"/>
	<polygon class="st2" points="2362.4,1237.1 2338.4,1223.3 2338.4,1223.5 2362.4,1237.2 	"/>
	<polygon class="st2" points="2362.4,1320.5 2346.1,1330.2 2362.4,1320.7 	"/>
	<polygon class="st2" points="2362.4,1244.9 2338.4,1231.3 2338.4,1326.9 2362.4,1312.8 	"/>
	<rect x="2414.1" y="1151.1" class="st2" width="106.2" height="6.7"/>
	<polygon class="st2" points="2473.3,1198.7 2443.6,1215.5 2443.6,1223.3 2450,1219.5 2473.3,1206.4 	"/>
</g>
<g>
	<rect x="-6069" y="5849.7" width="720" height="510"/>
	<rect x="-5349.1" y="5849.7" class="st10" width="720" height="510"/>
	<g>
		<rect x="-5465.2" y="5681.3" width="14.1" height="13.9"/>
		<path d="M-5378.4,5695.2h-2C-5379.7,5695.2-5379,5695.2-5378.4,5695.2L-5378.4,5695.2z"/>
		<path d="M-5301.5,5731.9c0.1,0.3,0.2,0.5,0.3,0.8c0.1,0.3,0.2,0.6,0.3,1h0.2l-3.6-8.1L-5301.5,5731.9z"/>
		<path d="M-5510.6,5719.2c-0.6-0.7-1-2-1-3.9v-34h-14.1v35.3c0,2.8,0.3,5.3,0.9,7.5c0.6,2.1,1.5,3.9,2.8,5.3
			c1.3,1.4,3.1,2.5,5.3,3.2c2.2,0.7,4.9,1,8.1,1h38v-13.4h-36.3C-5508.8,5720.3-5510,5719.9-5510.6,5719.2z"/>
		<rect x="-5465.2" y="5702.4" width="14.1" height="31.2"/>
		<path d="M-5354.8,5696.8c-1.5-3.3-3.6-6.2-6.2-8.6c-2.3-2.2-5.1-3.9-8.2-5.1c-3.2-1.2-6.9-1.8-11.1-1.8h-28.3
			c-2.3,0-3.4,1.1-3.4,3.3v10.6h15h16.6h2v0.1c1.5,0.1,2.8,0.4,3.9,0.8c1.5,0.6,2.9,1.4,4,2.5c1.2,1.1,2.1,2.5,2.8,4
			c0.7,1.5,1,3.2,1,5c0,1.6-0.3,3.1-0.9,4.5c-0.6,1.4-1.4,2.7-2.4,3.8c-1.1,1.2-2.6,2.2-4.3,2.9c-1.7,0.7-3.8,1.1-6.3,1.1h-16.6
			c-0.7,0-1-0.4-1-1.1v-16.4h-14v27.9c0,2.2,1.1,3.3,3.4,3.3h28.3c4.7,0,8.8-0.8,12.2-2.3c3.5-1.5,6.4-3.6,8.8-6.2
			c2.1-2.3,3.8-5,5-8c1.2-3,1.8-6.2,1.8-9.7C-5352.6,5703.7-5353.3,5700.1-5354.8,5696.8z"/>
		<path d="M-5285.9,5731.4l-18.9-41.5c-1.5-3.3-3.5-5.7-5.9-7.3c-2.5-1.6-5.5-2.4-9.2-2.4c-3.8,0-6.9,0.8-9.3,2.4
			c-2.4,1.6-4.4,4-5.9,7.3l-18.7,41.5c-0.2,0.4-0.4,0.8-0.5,1.2c-0.1,0.4-0.2,0.8-0.3,1.2h16.2c0-0.3,0.1-0.6,0.2-0.9
			c0.1-0.3,0.2-0.6,0.3-0.9l2.7-6.3l-2.2,4.9l2.2-4.9l0,0l0,0l5.1-11.5l0,0l8-18.7c0.3-0.6,0.6-1,1-1.3c0.4-0.2,0.9-0.3,1.3-0.3
			c0.5,0,1,0.1,1.4,0.4c0.4,0.3,0.7,0.7,1,1.2l8.1,18.7h0l5.1,11.5l0,0l0,0l3.6,8.1h15.6c-0.1-0.4-0.2-0.8-0.3-1.2
			C-5285.5,5732.2-5285.7,5731.8-5285.9,5731.4z"/>
		<polygon points="-5233.5,5681.3 -5293.5,5681.3 -5293.5,5695.2 -5270.5,5695.2 -5270.5,5733.7 -5256.4,5733.7 -5256.4,5695.2 
			-5233.5,5695.2 		"/>
		<path d="M-5172.7,5732.5c-0.1-0.4-0.3-0.7-0.5-1.2l-18.9-41.5c-1.5-3.3-3.5-5.7-5.9-7.3s-5.5-2.4-9.2-2.4c-3.8,0-6.9,0.8-9.3,2.4
			c-2.4,1.6-4.4,4-5.9,7.3l-18.7,41.5c-0.2,0.4-0.4,0.8-0.5,1.2c-0.1,0.4-0.2,0.8-0.3,1.2h16.2c0.1-0.3,0.1-0.6,0.2-0.9
			c0.1-0.3,0.2-0.6,0.3-0.9l2.7-6.3l-2.6,5.9l2.6-5.9l0,0l0,0l5.1-11.5l8-18.7c0.3-0.6,0.6-1,1-1.3c0.4-0.2,0.9-0.3,1.3-0.3
			c0.5,0,1,0.1,1.4,0.4c0.4,0.3,0.7,0.7,1,1.2l8.1,18.7l5.1,11.5l0,0l0,0l3.1,7l-3.1-7l2.8,6.3c0.1,0.3,0.2,0.5,0.3,0.8
			c0.1,0.3,0.2,0.6,0.3,1h15.8C-5172.5,5733.3-5172.6,5732.9-5172.7,5732.5z"/>
	</g>
	<g>
		<path d="M-5288.2,5564l-55.5-32.1l-20.1-11.6v23.2v63.4v23.2l20.1-11.6l55.5-32.1C-5279.5,5581.5-5279.5,5569-5288.2,5564z
			 M-5343.7,5595.4v-40.3l34.9,20.1L-5343.7,5595.4z"/>
		<path d="M-5396.3,5625.7v-101v-23.2l-0.6-0.3c-8.6-5-19.5,1.2-19.5,11.2V5638c0,10,10.8,16.2,19.5,11.2l0.6-0.3l6.9-4l20.1-11.6
			v-23.2l-20.1,11.6L-5396.3,5625.7z"/>
		<polygon points="-5389.4,5528.7 -5389.4,5528.9 -5369.4,5540.4 -5369.4,5540.3 -5369.4,5517.1 -5389.4,5505.6 		"/>
		<polygon points="-5369.4,5610.2 -5369.4,5610 -5383,5618.1 		"/>
		<polygon points="-5389.4,5615.3 -5369.4,5603.5 -5369.4,5546.8 -5389.4,5535.4 		"/>
	</g>
	<g>
		<g>
			<rect x="-5778.3" y="6079.1" class="st7" width="14.1" height="13.9"/>
			<path class="st7" d="M-5691.6,6093h-2C-5692.8,6093-5692.2,6093-5691.6,6093L-5691.6,6093z"/>
			<path class="st7" d="M-5614.6,6129.7c0.1,0.3,0.2,0.5,0.3,0.8c0.1,0.3,0.2,0.6,0.3,1h0.2l-3.6-8.1L-5614.6,6129.7z"/>
			<path class="st7" d="M-5823.8,6117c-0.6-0.7-1-2-1-3.9v-34h-14.1v35.3c0,2.8,0.3,5.3,0.9,7.5c0.6,2.1,1.5,3.9,2.8,5.3
				c1.3,1.4,3.1,2.5,5.3,3.2c2.2,0.7,4.9,1,8.1,1h38V6118h-36.3C-5822,6118-5823.2,6117.7-5823.8,6117z"/>
			<rect x="-5778.3" y="6100.2" class="st7" width="14.1" height="31.2"/>
			<path class="st7" d="M-5668,6094.6c-1.5-3.3-3.6-6.2-6.2-8.6c-2.3-2.2-5.1-3.9-8.2-5.1c-3.2-1.2-6.9-1.8-11.1-1.8h-28.3
				c-2.3,0-3.4,1.1-3.4,3.3v10.6h15h16.6h2v0.1c1.5,0.1,2.8,0.4,3.9,0.8c1.5,0.6,2.9,1.4,4,2.5c1.2,1.1,2.1,2.5,2.8,4
				c0.7,1.5,1,3.2,1,5c0,1.6-0.3,3.1-0.9,4.5c-0.6,1.4-1.4,2.7-2.4,3.8c-1.1,1.2-2.6,2.2-4.3,2.9c-1.7,0.7-3.8,1.1-6.3,1.1h-16.6
				c-0.7,0-1-0.4-1-1.1v-16.4h-14v27.9c0,2.2,1.1,3.3,3.4,3.3h28.3c4.7,0,8.8-0.8,12.2-2.3c3.5-1.5,6.4-3.6,8.8-6.2
				c2.1-2.3,3.8-5,5-8c1.2-3,1.8-6.2,1.8-9.7C-5665.7,6101.4-5666.5,6097.9-5668,6094.6z"/>
			<path class="st7" d="M-5599.1,6129.1l-18.9-41.5c-1.5-3.3-3.5-5.7-5.9-7.3c-2.5-1.6-5.5-2.4-9.2-2.4c-3.8,0-6.9,0.8-9.3,2.4
				c-2.4,1.6-4.4,4-5.9,7.3l-18.7,41.5c-0.2,0.4-0.4,0.8-0.5,1.2c-0.1,0.4-0.2,0.8-0.3,1.2h16.2c0-0.3,0.1-0.6,0.2-0.9
				c0.1-0.3,0.2-0.6,0.3-0.9l2.7-6.3l-2.2,4.9l2.2-4.9l0,0l0,0l5.1-11.5l0,0l8-18.7c0.3-0.6,0.6-1,1-1.3c0.4-0.2,0.9-0.3,1.3-0.3
				c0.5,0,1,0.1,1.4,0.4c0.4,0.3,0.7,0.7,1,1.2l8.1,18.7h0l5.1,11.5l0,0l0,0l3.6,8.1h15.6c-0.1-0.4-0.2-0.8-0.3-1.2
				C-5598.7,6129.9-5598.9,6129.5-5599.1,6129.1z"/>
			<polygon class="st7" points="-5546.7,6079.1 -5606.7,6079.1 -5606.7,6093 -5583.7,6093 -5583.7,6131.4 -5569.6,6131.4 
				-5569.6,6093 -5546.7,6093 			"/>
			<path class="st7" d="M-5485.9,6130.3c-0.1-0.4-0.3-0.7-0.5-1.2l-18.9-41.5c-1.5-3.3-3.5-5.7-5.9-7.3c-2.5-1.6-5.5-2.4-9.2-2.4
				c-3.8,0-6.9,0.8-9.3,2.4c-2.4,1.6-4.4,4-5.9,7.3l-18.7,41.5c-0.2,0.4-0.4,0.8-0.5,1.2c-0.1,0.4-0.2,0.8-0.3,1.2h16.2
				c0.1-0.3,0.1-0.6,0.2-0.9c0.1-0.3,0.2-0.6,0.3-0.9l2.7-6.3l-2.6,5.9l2.6-5.9l0,0l0,0l5.1-11.5l8-18.7c0.3-0.6,0.6-1,1-1.3
				c0.4-0.2,0.9-0.3,1.3-0.3c0.5,0,1,0.1,1.4,0.4c0.4,0.3,0.7,0.7,1,1.2l8.1,18.7l5.1,11.5l0,0l0,0l3.1,7l-3.1-7l2.8,6.3
				c0.1,0.3,0.2,0.5,0.3,0.8c0.1,0.3,0.2,0.6,0.3,1h15.8C-5485.7,6131-5485.8,6130.6-5485.9,6130.3z"/>
		</g>
		<g>
			<path class="st7" d="M-5855.4,6097.9l-33.4-19.3l-12.1-7v13.9v38.1v13.9l12.1-7l33.4-19.3
				C-5850.3,6108.4-5850.3,6100.9-5855.4,6097.9z M-5888.8,6116.8v-24.2l21,12.1L-5888.8,6116.8z"/>
			<path class="st7" d="M-5920.5,6135v-60.7v-13.9l-0.4-0.2c-5.2-3-11.7,0.8-11.7,6.8v75.5c0,6,6.5,9.8,11.7,6.8l0.4-0.2l4.1-2.4
				l12.1-7v-13.9l-12.1,7L-5920.5,6135z"/>
			<polygon class="st7" points="-5916.3,6076.7 -5916.3,6076.8 -5904.3,6083.7 -5904.3,6083.7 -5904.3,6069.7 -5916.3,6062.8 			"/>
			<polygon class="st7" points="-5904.3,6125.7 -5904.3,6125.6 -5912.5,6130.4 			"/>
			<polygon class="st7" points="-5916.3,6128.8 -5904.3,6121.7 -5904.3,6087.6 -5916.3,6080.7 			"/>
		</g>
	</g>
	<g>
		<g>
			<rect x="-5058.4" y="6079.1" class="st7" width="14.1" height="13.9"/>
			<path class="st7" d="M-4971.6,6093h-2C-4972.9,6093-4972.2,6093-4971.6,6093L-4971.6,6093z"/>
			<path class="st7" d="M-4894.7,6129.7c0.1,0.3,0.2,0.5,0.3,0.8c0.1,0.3,0.2,0.6,0.3,1h0.2l-3.6-8.1L-4894.7,6129.7z"/>
			<path class="st7" d="M-5103.9,6117c-0.6-0.7-1-2-1-3.9v-34h-14.1v35.3c0,2.8,0.3,5.3,0.9,7.5c0.6,2.1,1.5,3.9,2.8,5.3
				c1.3,1.4,3.1,2.5,5.3,3.2c2.2,0.7,4.9,1,8.1,1h38V6118h-36.3C-5102,6118-5103.2,6117.7-5103.9,6117z"/>
			<rect x="-5058.4" y="6100.2" class="st7" width="14.1" height="31.2"/>
			<path class="st7" d="M-4948,6094.6c-1.5-3.3-3.6-6.2-6.2-8.6c-2.3-2.2-5.1-3.9-8.2-5.1c-3.2-1.2-6.9-1.8-11.1-1.8h-28.3
				c-2.3,0-3.4,1.1-3.4,3.3v10.6h15h16.6h2v0.1c1.5,0.1,2.8,0.4,3.9,0.8c1.5,0.6,2.9,1.4,4,2.5c1.2,1.1,2.1,2.5,2.8,4
				c0.7,1.5,1,3.2,1,5c0,1.6-0.3,3.1-0.9,4.5c-0.6,1.4-1.4,2.7-2.4,3.8c-1.1,1.2-2.6,2.2-4.3,2.9c-1.7,0.7-3.8,1.1-6.3,1.1h-16.6
				c-0.7,0-1-0.4-1-1.1v-16.4h-14v27.9c0,2.2,1.1,3.3,3.4,3.3h28.3c4.7,0,8.8-0.8,12.2-2.3c3.5-1.5,6.4-3.6,8.8-6.2
				c2.1-2.3,3.8-5,5-8c1.2-3,1.8-6.2,1.8-9.7C-4945.8,6101.4-4946.5,6097.9-4948,6094.6z"/>
			<path class="st7" d="M-4879.1,6129.1l-18.9-41.5c-1.5-3.3-3.5-5.7-5.9-7.3c-2.5-1.6-5.5-2.4-9.2-2.4c-3.8,0-6.9,0.8-9.3,2.4
				c-2.4,1.6-4.4,4-5.9,7.3l-18.7,41.5c-0.2,0.4-0.4,0.8-0.5,1.2c-0.1,0.4-0.2,0.8-0.3,1.2h16.2c0-0.3,0.1-0.6,0.2-0.9
				c0.1-0.3,0.2-0.6,0.3-0.9l2.7-6.3l-2.2,4.9l2.2-4.9l0,0l0,0l5.1-11.5h0l8-18.7c0.3-0.6,0.6-1,1-1.3c0.4-0.2,0.9-0.3,1.3-0.3
				c0.5,0,1,0.1,1.4,0.4c0.4,0.3,0.7,0.7,1,1.2l8.1,18.7l0,0l5.1,11.5l0,0l0,0l3.6,8.1h15.6c-0.1-0.4-0.2-0.8-0.3-1.2
				C-4878.7,6129.9-4878.9,6129.5-4879.1,6129.1z"/>
			<polygon class="st7" points="-4826.7,6079.1 -4886.7,6079.1 -4886.7,6093 -4863.7,6093 -4863.7,6131.4 -4849.6,6131.4 
				-4849.6,6093 -4826.7,6093 			"/>
			<path class="st7" d="M-4765.9,6130.3c-0.1-0.4-0.3-0.7-0.5-1.2l-18.9-41.5c-1.5-3.3-3.5-5.7-5.9-7.3c-2.5-1.6-5.5-2.4-9.2-2.4
				c-3.8,0-6.9,0.8-9.3,2.4c-2.4,1.6-4.4,4-5.9,7.3l-18.7,41.5c-0.2,0.4-0.4,0.8-0.5,1.2c-0.1,0.4-0.2,0.8-0.3,1.2h16.2
				c0.1-0.3,0.1-0.6,0.2-0.9c0.1-0.3,0.2-0.6,0.3-0.9l2.7-6.3l-2.6,5.9l2.6-5.9l0,0l0,0l5.1-11.5l8-18.7c0.3-0.6,0.6-1,1-1.3
				c0.4-0.2,0.9-0.3,1.3-0.3c0.5,0,1,0.1,1.4,0.4c0.4,0.3,0.7,0.7,1,1.2l8.1,18.7l5.1,11.5l0,0l0,0l3.1,7l-3.1-7l2.8,6.3
				c0.1,0.3,0.2,0.5,0.3,0.8c0.1,0.3,0.2,0.6,0.3,1h15.8C-4765.7,6131-4765.8,6130.6-4765.9,6130.3z"/>
		</g>
		<g>
			<path class="st7" d="M-5135.5,6097.9l-33.4-19.3l-12.1-7v13.9v38.1v13.9l12.1-7l33.4-19.3
				C-5130.3,6108.4-5130.3,6100.9-5135.5,6097.9z M-5168.9,6116.8v-24.2l21,12.1L-5168.9,6116.8z"/>
			<path class="st7" d="M-5200.5,6135v-60.7v-13.9l-0.4-0.2c-5.2-3-11.7,0.8-11.7,6.8v75.5c0,6,6.5,9.8,11.7,6.8l0.4-0.2l4.1-2.4
				l12.1-7v-13.9l-12.1,7L-5200.5,6135z"/>
			<polygon class="st7" points="-5196.4,6076.7 -5196.4,6076.8 -5184.3,6083.7 -5184.3,6083.7 -5184.3,6069.7 -5196.4,6062.8 			"/>
			<polygon class="st7" points="-5184.3,6125.7 -5184.3,6125.6 -5192.5,6130.4 			"/>
			<polygon class="st7" points="-5196.4,6128.8 -5184.3,6121.7 -5184.3,6087.6 -5196.4,6080.7 			"/>
		</g>
	</g>
</g>
<g>
	<polygon class="st4" points="464.1,696.1 464.1,696.1 510.3,696.1 510.3,696.1 510.3,650 464.1,650 	"/>
	<path class="st5" d="M572.6,650h-46.2v46.2v0h46.2v0h42.1v0v16.1V934l-42.1,28.3V712.3h-46.2v281.2v42.4c0,5.6,6.3,9,11,5.8
		l35.2-23.7l72.5-48.7c9.9-6.6,15.8-17.8,15.8-29.7V712.3v-16.1v-21.7c0-13.5-11-24.5-24.5-24.5H572.6z"/>
	<path class="st5" d="M464.1,962.4L422,934v-30.6V696.1h26V650h-26h-21.3c-13.7,0-24.9,11.1-24.9,24.9v264.8
		c0,11.9,5.9,23,15.8,29.7l72.5,48.7l35.3,23.7c4.7,3.1,10.9-0.2,10.9-5.8v-42.5v-0.6L464.1,962V962.4z"/>
	<polygon class="st5" points="464.1,942.6 510.3,973.4 510.3,712.3 464.1,712.3 	"/>
</g>
<g>
	<polygon class="st4" points="9.5,3.4 9.5,3.4 12.8,3.4 12.8,3.4 12.8,0.2 9.5,0.2 	"/>
	<path class="st5" d="M17.3,0.2H14v3.3v0h3.3v0h3v0v1.1v15.8l-3,2V4.6H14v20v3c0,0.4,0.4,0.6,0.8,0.4l2.5-1.7l5.2-3.5
		c0.7-0.5,1.1-1.3,1.1-2.1V4.6V3.4V1.9c0-1-0.8-1.7-1.7-1.7H17.3z"/>
	<path class="st5" d="M9.5,22.4l-3-2v-2.2V3.4h1.9V0.2H6.5H5c-1,0-1.8,0.8-1.8,1.8v18.9c0,0.8,0.4,1.6,1.1,2.1l5.2,3.5L12,28
		c0.3,0.2,0.8,0,0.8-0.4v-3v0L9.5,22.4L9.5,22.4z"/>
	<polygon class="st5" points="9.5,21 12.8,23.2 12.8,4.6 9.5,4.6 	"/>
</g>
<g>
	<polygon class="st4" points="62.7,7.8 62.7,7.8 64.6,7.8 64.6,7.8 64.6,5.9 62.7,5.9 	"/>
	<path class="st5" d="M67.1,5.9h-1.9v1.9v0h1.9v0h1.7v0v0.7v9l-1.7,1.1V8.4h-1.9v11.4v1.7c0,0.2,0.3,0.4,0.4,0.2l1.4-1l2.9-2
		c0.4-0.3,0.6-0.7,0.6-1.2V8.4V7.8V6.9c0-0.5-0.4-1-1-1H67.1z"/>
	<path class="st5" d="M62.7,18.5L61,17.4v-1.2V7.8H62V5.9H61h-0.9c-0.6,0-1,0.4-1,1v10.7c0,0.5,0.2,0.9,0.6,1.2l2.9,2l1.4,1
		c0.2,0.1,0.4,0,0.4-0.2v-1.7v0L62.7,18.5L62.7,18.5z"/>
	<polygon class="st5" points="62.7,17.7 64.6,19 64.6,8.4 62.7,8.4 	"/>
</g>
<g>
	<path class="st4" d="M-146.8,15.7c0.1,0.2,0.1,0.3,0.2,0.5c0.1,0.2,0.1,0.4,0.2,0.6h0.1l-2.3-5.2L-146.8,15.7z"/>
	<g>
		<polygon class="st4" points="-330.1,-1 -330.1,-1 -325.5,-1 -325.5,-1 -325.5,-5.6 -330.1,-5.6 		"/>
		<path class="st5" d="M-319.2-5.6h-4.6V-1v0h4.6v0h4.2v0v1.6V23l-4.2,2.9V0.6h-4.6v28.3v4.3c0,0.6,0.6,0.9,1.1,0.6l3.5-2.4l7.3-4.9
			c1-0.7,1.6-1.8,1.6-3V0.6V-1v-2.2c0-1.4-1.1-2.5-2.5-2.5H-319.2z"/>
		<path class="st5" d="M-330.1,25.8l-4.2-2.9v-3.1V-1h2.6v-4.6h-2.6h-2.1c-1.4,0-2.5,1.1-2.5,2.5v26.7c0,1.2,0.6,2.3,1.6,3l7.3,4.9
			l3.5,2.4c0.5,0.3,1.1,0,1.1-0.6v-4.3v-0.1L-330.1,25.8L-330.1,25.8z"/>
		<polygon class="st5" points="-330.1,23.8 -325.5,26.9 -325.5,0.6 -330.1,0.6 		"/>
	</g>
	<rect x="-252.3" y="-2.3" class="st5" width="9.1" height="8.9"/>
	<g>
		<path class="st4" d="M-281.6,22.2c-0.4-0.4-0.6-1.3-0.6-2.5V-2.3h-9.1v22.8c0,1.8,0.2,3.4,0.5,4.8c0.4,1.4,1,2.5,1.8,3.4
			c0.8,0.9,2,1.6,3.4,2c1.4,0.4,3.2,0.7,5.2,0.7h24.5v-8.6h-23.4C-280.4,22.8-281.2,22.6-281.6,22.2z"/>
		<rect x="-252.3" y="11.3" class="st4" width="9.1" height="20.1"/>
		<path class="st4" d="M-181.2,7.7c-1-2.1-2.3-4-4-5.5c-1.5-1.4-3.3-2.5-5.3-3.3c-2-0.8-4.4-1.2-7.2-1.2h-18.2
			c-1.5,0-2.2,0.7-2.2,2.1v6.8h9.7h10.7h1.3v0.1c1,0.1,1.8,0.3,2.5,0.5c1,0.4,1.9,0.9,2.6,1.6c0.8,0.7,1.4,1.6,1.8,2.6
			c0.4,1,0.7,2.1,0.7,3.2c0,1-0.2,2-0.5,2.9c-0.4,0.9-0.9,1.7-1.5,2.4c-0.7,0.8-1.6,1.4-2.7,1.9c-1.1,0.5-2.4,0.7-4,0.7h-10.7
			c-0.4,0-0.6-0.2-0.6-0.7V11.3h-9v18c0,1.4,0.7,2.1,2.2,2.1h18.2c3,0,5.7-0.5,7.9-1.5c2.2-1,4.1-2.3,5.7-4c1.4-1.5,2.4-3.2,3.2-5.1
			c0.8-1.9,1.1-4,1.1-6.2C-179.7,12.2-180.2,9.9-181.2,7.7z"/>
		<path class="st4" d="M-136.8,30l-12.2-26.7c-1-2.1-2.2-3.7-3.8-4.7s-3.6-1.5-5.9-1.5c-2.4,0-4.4,0.5-6,1.5c-1.6,1-2.8,2.6-3.8,4.7
			L-180.5,30c-0.1,0.3-0.2,0.5-0.3,0.7c-0.1,0.2-0.2,0.5-0.2,0.7h10.4c0-0.2,0.1-0.4,0.1-0.6c0.1-0.2,0.1-0.4,0.2-0.6l1.7-4
			l-1.4,3.2l1.4-3.2l0,0l0,0l3.3-7.4h0l5.1-12.1c0.2-0.4,0.4-0.7,0.6-0.8c0.3-0.1,0.5-0.2,0.8-0.2c0.3,0,0.6,0.1,0.9,0.2
			c0.3,0.2,0.5,0.4,0.6,0.8l5.2,12.1h0l3.3,7.4l0,0l0,0l2.3,5.2h10.1c-0.1-0.3-0.1-0.5-0.2-0.7C-136.5,30.5-136.6,30.2-136.8,30z"/>
		<polygon class="st4" points="-103,-2.3 -141.7,-2.3 -141.7,6.7 -126.8,6.7 -126.8,31.5 -117.8,31.5 -117.8,6.7 -103,6.7 		"/>
		<path class="st4" d="M-63.8,30.7c-0.1-0.2-0.2-0.5-0.3-0.7L-76.3,3.2c-1-2.1-2.2-3.7-3.8-4.7c-1.6-1-3.6-1.5-5.9-1.5
			c-2.4,0-4.4,0.5-6,1.5c-1.6,1-2.8,2.6-3.8,4.7L-107.9,30c-0.1,0.3-0.2,0.5-0.3,0.7c-0.1,0.2-0.2,0.5-0.2,0.7H-98
			c0-0.2,0.1-0.4,0.1-0.6c0.1-0.2,0.1-0.4,0.2-0.6l1.7-4l-1.7,3.8l1.7-3.8l0,0l0,0l3.3-7.4l5.1-12.1c0.2-0.4,0.4-0.7,0.6-0.8
			c0.3-0.1,0.5-0.2,0.8-0.2c0.3,0,0.6,0.1,0.9,0.2c0.3,0.2,0.5,0.4,0.6,0.8l5.2,12.1l3.3,7.4l0,0l0,0l2,4.5l-2-4.5l1.8,4.1
			c0.1,0.2,0.1,0.3,0.2,0.5c0.1,0.2,0.1,0.4,0.2,0.6h10.2C-63.7,31.2-63.8,31-63.8,30.7z"/>
	</g>
</g>
<polygon class="st4" points="124.2,4.9 124.2,4.9 127.5,4.9 127.5,4.9 127.5,1.6 124.2,1.6 "/>
<g>
	<path class="st5" d="M131.9,1.6h-3.3v3.3v0h3.3v0h3v0V6v15.7l-3,2V6h-3.3v20v3c0,0.4,0.4,0.6,0.8,0.4l2.5-1.7l5.1-3.5
		c0.7-0.5,1.1-1.3,1.1-2.1V6V4.9V3.4c0-1-0.8-1.7-1.7-1.7H131.9z"/>
	<path class="st5" d="M124.2,23.8l-3-2v-2.2V4.9h1.8V1.6h-1.8h-1.5c-1,0-1.8,0.8-1.8,1.8v18.8c0,0.8,0.4,1.6,1.1,2.1l5.1,3.5
		l2.5,1.7c0.3,0.2,0.8,0,0.8-0.4v-3v0L124.2,23.8L124.2,23.8z"/>
	<polygon class="st5" points="124.2,22.4 127.5,24.6 127.5,6 124.2,6 	"/>
</g>
<rect x="179.1" y="4" class="st4" width="6.4" height="6.3"/>
<g>
	<path class="st5" d="M158.5,21.2c-0.3-0.3-0.4-0.9-0.4-1.8V4h-6.4v16.1c0,1.3,0.1,2.4,0.4,3.4c0.3,1,0.7,1.8,1.3,2.4
		c0.6,0.6,1.4,1.1,2.4,1.4c1,0.3,2.2,0.5,3.7,0.5h17.3v-6.1h-16.5C159.3,21.7,158.7,21.5,158.5,21.2z"/>
	<rect x="179.1" y="13.6" class="st5" width="6.4" height="14.2"/>
	<path class="st5" d="M229.3,11c-0.7-1.5-1.6-2.8-2.8-3.9c-1.1-1-2.3-1.8-3.7-2.3c-1.4-0.6-3.1-0.8-5.1-0.8h-12.8
		c-1,0-1.5,0.5-1.5,1.5v4.8h6.8h7.6h0.9v0c0.7,0.1,1.3,0.2,1.8,0.4c0.7,0.3,1.3,0.7,1.8,1.1c0.5,0.5,1,1.1,1.3,1.8
		c0.3,0.7,0.5,1.5,0.5,2.3c0,0.7-0.1,1.4-0.4,2.1c-0.3,0.6-0.6,1.2-1.1,1.7c-0.5,0.6-1.2,1-1.9,1.3c-0.8,0.3-1.7,0.5-2.9,0.5h-7.6
		c-0.3,0-0.5-0.2-0.5-0.5v-7.4h-6.4v12.7c0,1,0.5,1.5,1.5,1.5h12.8c2.1,0,4-0.3,5.6-1c1.6-0.7,2.9-1.6,4-2.8c1-1.1,1.7-2.3,2.3-3.6
		c0.5-1.4,0.8-2.8,0.8-4.4C230.3,14.2,230,12.5,229.3,11z"/>
	<path class="st5" d="M260.6,26.7L252,7.9c-0.7-1.5-1.6-2.6-2.7-3.3c-1.1-0.7-2.5-1.1-4.2-1.1c-1.7,0-3.1,0.4-4.2,1.1
		c-1.1,0.7-2,1.8-2.7,3.3l-8.5,18.9c-0.1,0.2-0.2,0.4-0.2,0.5c-0.1,0.2-0.1,0.3-0.2,0.5h7.4c0-0.1,0.1-0.3,0.1-0.4
		c0-0.1,0.1-0.3,0.1-0.4l1.2-2.8l-1,2.2l1-2.2l0,0l0,0l2.3-5.2h0l3.6-8.5c0.1-0.3,0.3-0.5,0.5-0.6c0.2-0.1,0.4-0.2,0.6-0.2
		c0.2,0,0.4,0.1,0.6,0.2c0.2,0.1,0.3,0.3,0.5,0.6l3.7,8.5h0l2.3,5.2l0,0l0,0l1.6,3.7h7.1c0-0.2-0.1-0.4-0.2-0.5
		C260.8,27.1,260.7,26.9,260.6,26.7z"/>
	<polygon class="st5" points="284.4,4 257.2,4 257.2,10.3 267.6,10.3 267.6,27.8 274,27.8 274,10.3 284.4,10.3 	"/>
	<path class="st5" d="M312.1,27.3c-0.1-0.2-0.1-0.3-0.2-0.5l-8.6-18.9c-0.7-1.5-1.6-2.6-2.7-3.3c-1.1-0.7-2.5-1.1-4.2-1.1
		c-1.7,0-3.1,0.4-4.2,1.1c-1.1,0.7-2,1.8-2.7,3.3L281,26.7c-0.1,0.2-0.2,0.4-0.2,0.5c-0.1,0.2-0.1,0.3-0.2,0.5h7.4
		c0-0.1,0.1-0.3,0.1-0.4c0-0.1,0.1-0.3,0.1-0.4l1.2-2.9l-1.2,2.7l1.2-2.7l0,0l0,0l2.3-5.2l3.6-8.5c0.1-0.3,0.3-0.5,0.5-0.6
		c0.2-0.1,0.4-0.2,0.6-0.2c0.2,0,0.4,0.1,0.6,0.2c0.2,0.1,0.3,0.3,0.5,0.6l3.7,8.5l2.3,5.2l0,0l0,0l1.4,3.2l-1.4-3.2l1.3,2.9
		c0,0.1,0.1,0.2,0.1,0.4c0,0.1,0.1,0.3,0.1,0.4h7.2C312.2,27.6,312.1,27.4,312.1,27.3z"/>
</g>
<polygon class="st7" points="-772.3,-102 -772.3,-102 -769,-102 -769,-102 -769,-105.2 -772.3,-105.2 "/>
<g>
	<path class="st5" d="M-764.6-105.2h-3.3v3.3l0,0h3.3l0,0h3l0,0v1.1v15.7l-3,2v-17.8h-3.3v20v3c0,0.4,0.4,0.6,0.8,0.4l2.5-1.7
		l5.1-3.5c0.7-0.5,1.1-1.3,1.1-2.1v-16.1v-1.1v-1.5c0-1-0.8-1.7-1.7-1.7H-764.6z"/>
	<path class="st5" d="M-772.3-83l-3-2v-2.2V-102h1.8v-3.3h-1.8h-1.5c-1,0-1.8,0.8-1.8,1.8v18.8c0,0.8,0.4,1.6,1.1,2.1l5.1,3.5
		l2.5,1.7c0.3,0.2,0.8,0,0.8-0.4v-3v0L-772.3-83L-772.3-83z"/>
	<polygon class="st5" points="-772.3,-84.5 -769,-82.3 -769,-100.8 -772.3,-100.8 	"/>
</g>
<rect x="-717.4" y="-102.8" class="st11" width="6.4" height="6.3"/>
<g>
	<path class="st12" d="M-738.1-85.6c-0.3-0.3-0.4-0.9-0.4-1.8v-15.5h-6.4v16.1c0,1.3,0.1,2.4,0.4,3.4c0.3,1,0.7,1.8,1.3,2.4
		c0.6,0.6,1.4,1.1,2.4,1.4c1,0.3,2.2,0.5,3.7,0.5h17.3v-6.1h-16.5C-737.2-85.1-737.8-85.3-738.1-85.6z"/>
	<rect x="-717.4" y="-93.3" class="st12" width="6.4" height="14.2"/>
	<path class="st12" d="M-667.2-95.8c-0.7-1.5-1.6-2.8-2.8-3.9c-1.1-1-2.3-1.8-3.7-2.3c-1.4-0.6-3.1-0.8-5.1-0.8h-12.8
		c-1,0-1.5,0.5-1.5,1.5v4.8h6.8h7.6h0.9v0c0.7,0.1,1.3,0.2,1.8,0.4c0.7,0.3,1.3,0.7,1.8,1.1c0.5,0.5,1,1.1,1.3,1.8
		c0.3,0.7,0.5,1.5,0.5,2.3c0,0.7-0.1,1.4-0.4,2.1c-0.3,0.6-0.6,1.2-1.1,1.7c-0.5,0.6-1.2,1-1.9,1.3c-0.8,0.3-1.7,0.5-2.9,0.5h-7.6
		c-0.3,0-0.5-0.2-0.5-0.5v-7.4h-6.4v12.7c0,1,0.5,1.5,1.5,1.5h12.8c2.1,0,4-0.3,5.6-1c1.6-0.7,2.9-1.6,4-2.8c1-1.1,1.7-2.3,2.3-3.6
		c0.5-1.4,0.8-2.8,0.8-4.4C-666.2-92.7-666.6-94.3-667.2-95.8z"/>
	<path class="st12" d="M-635.9-80.1l-8.6-18.9c-0.7-1.5-1.6-2.6-2.7-3.3s-2.5-1.1-4.2-1.1c-1.7,0-3.1,0.4-4.2,1.1
		c-1.1,0.7-2,1.8-2.7,3.3l-8.5,18.9c-0.1,0.2-0.2,0.4-0.2,0.5c-0.1,0.2-0.1,0.3-0.2,0.5h7.4c0-0.1,0.1-0.3,0.1-0.4
		c0-0.1,0.1-0.3,0.1-0.4l1.2-2.8l-1,2.2l1-2.2l0,0l0,0l2.3-5.2l0,0l3.6-8.5c0.1-0.3,0.3-0.5,0.5-0.6c0.2-0.1,0.4-0.2,0.6-0.2
		c0.2,0,0.4,0.1,0.6,0.2c0.2,0.1,0.3,0.3,0.5,0.6l3.7,8.5h0l2.3,5.2l0,0l0,0l1.6,3.7h7.1c0-0.2-0.1-0.4-0.2-0.5
		C-635.7-79.7-635.8-79.9-635.9-80.1z"/>
	<polygon class="st12" points="-612.1,-102.8 -639.4,-102.8 -639.4,-96.5 -628.9,-96.5 -628.9,-79 -622.5,-79 -622.5,-96.5 
		-612.1,-96.5 	"/>
	<path class="st12" d="M-584.5-79.6c-0.1-0.2-0.1-0.3-0.2-0.5l-8.6-18.9c-0.7-1.5-1.6-2.6-2.7-3.3s-2.5-1.1-4.2-1.1
		c-1.7,0-3.1,0.4-4.2,1.1c-1.1,0.7-2,1.8-2.7,3.3l-8.5,18.9c-0.1,0.2-0.2,0.4-0.2,0.5c-0.1,0.2-0.1,0.3-0.2,0.5h7.4
		c0-0.1,0.1-0.3,0.1-0.4c0-0.1,0.1-0.3,0.1-0.4l1.2-2.9l-1.2,2.7l1.2-2.7l0,0l0,0l2.3-5.2l3.6-8.5c0.1-0.3,0.3-0.5,0.5-0.6
		c0.2-0.1,0.4-0.2,0.6-0.2c0.2,0,0.4,0.1,0.6,0.2c0.2,0.1,0.3,0.3,0.5,0.6l3.7,8.5l2.3,5.2l0,0l0,0l1.4,3.2l-1.4-3.2l1.3,2.9
		c0,0.1,0.1,0.2,0.1,0.4c0,0.1,0.1,0.3,0.1,0.4h7.2C-584.4-79.2-584.4-79.4-584.5-79.6z"/>
</g>
<g>
	<path class="st4" d="M-98.5,150.3c0,0.1,0.1,0.2,0.1,0.2c0,0.1,0.1,0.2,0.1,0.3h0.1l-1.1-2.4L-98.5,150.3z"/>
	<g>
		<polygon class="st4" points="-181.6,142.7 -181.6,142.7 -179.5,142.7 -179.5,142.7 -179.5,140.6 -181.6,140.6 		"/>
		<path class="st5" d="M-176.6,140.6h-2.1v2.1l0,0h2.1l0,0h1.9l0,0v0.7v10.1l-1.9,1.3v-11.4h-2.1v12.8v1.9c0,0.3,0.3,0.4,0.5,0.3
			l1.6-1.1l3.3-2.2c0.5-0.3,0.7-0.8,0.7-1.4v-10.4v-0.7v-1c0-0.6-0.5-1.1-1.1-1.1H-176.6z"/>
		<path class="st5" d="M-181.6,154.8l-1.9-1.3v-1.4v-9.5h1.2v-2.1h-1.2h-1c-0.6,0-1.1,0.5-1.1,1.1v12.1c0,0.5,0.3,1.1,0.7,1.4
			l3.3,2.2l1.6,1.1c0.2,0.1,0.5,0,0.5-0.3v-1.9v0L-181.6,154.8L-181.6,154.8z"/>
		<polygon class="st5" points="-181.6,153.9 -179.5,155.4 -179.5,143.4 -181.6,143.4 		"/>
	</g>
	<g>
		<rect x="-146.3" y="142.1" class="st5" width="4.1" height="4.1"/>
		<g>
			<path class="st4" d="M-159.6,153.2c-0.2-0.2-0.3-0.6-0.3-1.1v-9.9h-4.1v10.3c0,0.8,0.1,1.6,0.2,2.2c0.2,0.6,0.4,1.1,0.8,1.6
				c0.4,0.4,0.9,0.7,1.5,0.9c0.6,0.2,1.4,0.3,2.4,0.3h11.1v-3.9h-10.6C-159,153.5-159.4,153.4-159.6,153.2z"/>
			<rect x="-146.3" y="148.3" class="st4" width="4.1" height="9.1"/>
			<path class="st4" d="M-114.1,146.6c-0.4-1-1-1.8-1.8-2.5c-0.7-0.6-1.5-1.1-2.4-1.5c-0.9-0.4-2-0.5-3.2-0.5h-8.3c-0.7,0-1,0.3-1,1
				v3.1h4.4h4.9h0.6v0c0.4,0,0.8,0.1,1.1,0.2c0.5,0.2,0.8,0.4,1.2,0.7c0.3,0.3,0.6,0.7,0.8,1.2c0.2,0.5,0.3,0.9,0.3,1.4
				c0,0.5-0.1,0.9-0.2,1.3c-0.2,0.4-0.4,0.8-0.7,1.1c-0.3,0.4-0.7,0.6-1.2,0.9c-0.5,0.2-1.1,0.3-1.8,0.3h-4.9
				c-0.2,0-0.3-0.1-0.3-0.3v-4.8h-4.1v8.2c0,0.6,0.3,1,1,1h8.3c1.4,0,2.6-0.2,3.6-0.7c1-0.4,1.9-1.1,2.6-1.8
				c0.6-0.7,1.1-1.5,1.4-2.3c0.3-0.9,0.5-1.8,0.5-2.8C-113.4,148.6-113.6,147.6-114.1,146.6z"/>
			<path class="st4" d="M-94,156.7l-5.5-12.1c-0.4-1-1-1.7-1.7-2.1c-0.7-0.5-1.6-0.7-2.7-0.7c-1.1,0-2,0.2-2.7,0.7
				c-0.7,0.5-1.3,1.2-1.7,2.1l-5.5,12.1c-0.1,0.1-0.1,0.2-0.1,0.3c0,0.1-0.1,0.2-0.1,0.3h4.7c0-0.1,0-0.2,0.1-0.3
				c0-0.1,0.1-0.2,0.1-0.3l0.8-1.8l-0.6,1.4l0.6-1.4l0,0l0,0l1.5-3.4h0l2.3-5.5c0.1-0.2,0.2-0.3,0.3-0.4c0.1-0.1,0.2-0.1,0.4-0.1
				c0.2,0,0.3,0,0.4,0.1c0.1,0.1,0.2,0.2,0.3,0.4l2.4,5.5h0l1.5,3.4l0,0l0,0l1.1,2.4h4.6c0-0.1-0.1-0.2-0.1-0.3
				C-93.8,157-93.9,156.9-94,156.7z"/>
			<polygon class="st4" points="-78.6,142.1 -96.2,142.1 -96.2,146.2 -89.5,146.2 -89.5,157.4 -85.3,157.4 -85.3,146.2 -78.6,146.2 
							"/>
			<path class="st4" d="M-60.9,157.1c0-0.1-0.1-0.2-0.1-0.3l-5.5-12.1c-0.4-1-1-1.7-1.7-2.1c-0.7-0.5-1.6-0.7-2.7-0.7
				c-1.1,0-2,0.2-2.7,0.7c-0.7,0.5-1.3,1.2-1.7,2.1l-5.5,12.1c-0.1,0.1-0.1,0.2-0.1,0.3c0,0.1-0.1,0.2-0.1,0.3h4.7
				c0-0.1,0-0.2,0.1-0.3c0-0.1,0.1-0.2,0.1-0.3l0.8-1.8l-0.8,1.7l0.8-1.7l0,0l0,0l1.5-3.4l2.3-5.5c0.1-0.2,0.2-0.3,0.3-0.4
				c0.1-0.1,0.2-0.1,0.4-0.1c0.2,0,0.3,0,0.4,0.1c0.1,0.1,0.2,0.2,0.3,0.4l2.4,5.5l1.5,3.4l0,0l0,0l0.9,2l-0.9-2l0.8,1.9
				c0,0.1,0.1,0.2,0.1,0.2c0,0.1,0.1,0.2,0.1,0.3h4.6C-60.8,157.3-60.9,157.2-60.9,157.1z"/>
		</g>
	</g>
</g>
<g>
	<polygon class="st5" points="-239.4,1705.7 -239.4,1705.7 -223.2,1705.7 -223.2,1705.7 -223.2,1689.5 -239.4,1689.5 	"/>
	<g>
		<path class="st4" d="M-826.6,2139.8h-12.6v12.6l0,0h12.6l0,0h11.5l0,0v4.4v60.6l-11.5,7.7v-68.4h-12.6v76.9v11.6
			c0,1.5,1.7,2.5,3,1.6l9.6-6.5l19.8-13.3c2.7-1.8,4.3-4.9,4.3-8.1v-62.2v-4.4v-5.9c0-3.7-3-6.7-6.7-6.7H-826.6z"/>
		<path class="st4" d="M-856.3,2225.2l-11.5-7.7v-8.4v-56.7h7.1v-12.6h-7.1h-5.8c-3.8,0-6.8,3-6.8,6.8v72.4c0,3.3,1.6,6.3,4.3,8.1
			l19.8,13.3l8.9,6c1.6,1.1,3.8-0.1,3.8-2v-10.7v-0.2l-12.6-8.4V2225.2z"/>
		<polygon class="st4" points="-856.3,2219.8 -843.7,2228.2 -843.7,2156.8 -856.3,2156.8 		"/>
		<polygon class="st5" points="-856.3,2152.4 -856.3,2152.4 -843.7,2152.4 -843.7,2152.4 -843.7,2139.8 -856.3,2139.8 		"/>
	</g>
	<g class="st0">
		<path d="M416.5,1447.6l-39-37.9l-37.9,39h0l39,37.9h0l35.6,34.5h0l-13.2,13.6l-181.8,187.2l-58.8-10.6l205-211.2l-39-37.9
			L96,1699.7l-34.8,35.8c-4.6,4.8-2.1,12.7,4.5,13.9l49.1,8.9l101.2,18.3c13.8,2.5,27.9-2,37.7-12.1L440,1572.6l13.2-13.6l17.8-18.3
			c11.1-11.4,10.8-29.7-0.6-40.8L416.5,1447.6z"/>
		<path d="M68.8,1622.4l-12.4-58.5l25.1-25.8l170-175l22,21.3l37.9-39l-22-21.3l-18-17.5c-11.6-11.3-30.1-11-41.4,0.6l-217,223.5
			c-9.8,10.1-13.9,24.3-11,38l21.3,100.6l9.5,44.9c1.7,8.2,11.9,11.1,17.7,5.1l32-33l0.5-0.5L69.2,1622L68.8,1622.4z"/>
		<polygon points="85,1605.7 98.8,1669.6 312.8,1449.1 273.8,1411.2 		"/>
		<polygon points="287,1397.6 287,1397.6 326,1435.5 326,1435.5 363.9,1396.5 324.9,1358.6 		"/>
	</g>
	<rect x="-336.4" y="1852.5" class="st4" width="14.1" height="13.9"/>
	<path class="st4" d="M-249.7,1866.4h-2C-251,1866.4-250.3,1866.4-249.7,1866.4L-249.7,1866.4z"/>
	<path class="st4" d="M-172.7,1903.1c0.1,0.3,0.2,0.5,0.3,0.8c0.1,0.3,0.2,0.6,0.3,1h0.2l-3.6-8.1L-172.7,1903.1z"/>
	<path class="st4" d="M-201.3,1689.5h-16.2v16.2l0,0h16.2l0,0h14.8l0,0v5.7v78l-14.8,10v-88h-16.2v98.9v14.9c0,2,2.2,3.2,3.9,2.1
		l12.4-8.3l25.5-17.1c3.5-2.3,5.6-6.3,5.6-10.4v-80v-5.7v-7.6c0-4.8-3.9-8.6-8.6-8.6H-201.3z"/>
	<path class="st4" d="M-239.4,1799.3l-14.8-10v-10.7v-72.9h9.2v-16.2h-9.2h-7.5c-4.8,0-8.7,3.9-8.7,8.7v93.1c0,4.2,2.1,8.1,5.6,10.4
		l25.5,17.1l11.4,7.7c2.1,1.4,4.8-0.1,4.8-2.6v-13.7v-0.2l-16.2-10.8V1799.3z"/>
	<polygon class="st4" points="-239.4,1792.4 -223.2,1803.2 -223.2,1711.4 -239.4,1711.4 	"/>
	<path class="st4" d="M-381.9,1890.4c-0.6-0.7-1-2-1-3.9v-34H-397v35.3c0,2.8,0.3,5.3,0.9,7.5c0.6,2.1,1.5,3.9,2.8,5.3
		c1.3,1.4,3.1,2.5,5.3,3.2c2.2,0.7,4.9,1,8.1,1h38v-13.4h-36.3C-380.1,1891.4-381.3,1891.1-381.9,1890.4z"/>
	<rect x="-336.4" y="1873.6" class="st4" width="14.1" height="31.2"/>
	<path class="st4" d="M-226.1,1868c-1.5-3.3-3.6-6.2-6.2-8.6c-2.3-2.2-5.1-3.9-8.2-5.1c-3.2-1.2-6.9-1.8-11.1-1.8h-28.3
		c-2.3,0-3.4,1.1-3.4,3.3v10.6h15h16.6h2v0.1c1.5,0.1,2.8,0.4,3.9,0.8c1.5,0.6,2.9,1.4,4,2.5c1.2,1.1,2.1,2.5,2.8,4
		c0.7,1.5,1,3.2,1,5c0,1.6-0.3,3.1-0.9,4.5c-0.6,1.4-1.4,2.7-2.4,3.8c-1.1,1.2-2.6,2.2-4.3,2.9c-1.7,0.7-3.8,1.1-6.3,1.1h-16.6
		c-0.7,0-1-0.4-1-1.1v-16.4h-14v27.9c0,2.2,1.1,3.3,3.4,3.3h28.3c4.7,0,8.8-0.8,12.2-2.3c3.5-1.5,6.4-3.6,8.8-6.2c2.1-2.3,3.8-5,5-8
		c1.2-3,1.8-6.2,1.8-9.7C-223.9,1874.9-224.6,1871.3-226.1,1868z"/>
	<path class="st4" d="M-157.2,1902.5l-18.9-41.5c-1.5-3.3-3.5-5.7-5.9-7.3s-5.5-2.4-9.2-2.4c-3.8,0-6.9,0.8-9.3,2.4
		c-2.4,1.6-4.4,4-5.9,7.3l-18.7,41.5c-0.2,0.4-0.4,0.8-0.5,1.2c-0.1,0.4-0.2,0.8-0.3,1.2h16.2c0.1-0.3,0.1-0.6,0.2-0.9
		c0.1-0.3,0.2-0.6,0.3-0.9l2.7-6.3l-2.2,4.9l2.2-4.9l0,0l0,0l5.1-11.5h0l8-18.7c0.3-0.6,0.6-1,1-1.3c0.4-0.2,0.9-0.3,1.3-0.3
		c0.5,0,1,0.1,1.4,0.4c0.4,0.3,0.7,0.7,1,1.2l8.1,18.7h0l5.1,11.5l0,0l0,0l3.6,8.1h15.6c-0.1-0.4-0.2-0.8-0.3-1.2
		C-156.8,1903.3-157,1902.9-157.2,1902.5z"/>
	<polygon class="st4" points="-104.8,1852.5 -164.8,1852.5 -164.8,1866.4 -141.8,1866.4 -141.8,1904.8 -127.7,1904.8 -127.7,1866.4 
		-104.8,1866.4 	"/>
	<path class="st4" d="M-44,1903.7c-0.1-0.4-0.3-0.7-0.5-1.2l-18.9-41.5c-1.5-3.3-3.5-5.7-5.9-7.3c-2.5-1.6-5.5-2.4-9.2-2.4
		c-3.8,0-6.9,0.8-9.3,2.4c-2.4,1.6-4.4,4-5.9,7.3l-18.7,41.5c-0.2,0.4-0.4,0.8-0.5,1.2c-0.1,0.4-0.2,0.8-0.3,1.2h16.2
		c0.1-0.3,0.1-0.6,0.2-0.9c0.1-0.3,0.2-0.6,0.3-0.9l2.7-6.3l-2.6,5.9l2.6-5.9l0,0l0,0l5.1-11.5l8-18.7c0.3-0.6,0.6-1,1-1.3
		c0.4-0.2,0.9-0.3,1.3-0.3c0.5,0,1,0.1,1.4,0.4c0.4,0.3,0.7,0.7,1,1.2l8.1,18.7l5.1,11.5l0,0l0,0l3.1,7l-3.1-7l2.8,6.3
		c0.1,0.3,0.2,0.5,0.3,0.8c0.1,0.3,0.2,0.6,0.3,1h15.8C-43.8,1904.4-43.9,1904-44,1903.7z"/>
	<polygon class="st4" points="287.2,1929.2 287.2,1929.2 303.4,1929.2 303.4,1929.2 303.4,1912.9 287.2,1912.9 	"/>
	<rect x="190.1" y="2076" class="st5" width="14.1" height="13.9"/>
	<path class="st4" d="M276.9,2089.8h-2C275.6,2089.8,276.3,2089.9,276.9,2089.8L276.9,2089.8z"/>
	<path class="st4" d="M353.8,2126.6c0.1,0.3,0.2,0.5,0.3,0.8c0.1,0.3,0.2,0.6,0.3,1h0.2l-3.6-8.1L353.8,2126.6z"/>
	<path class="st5" d="M325.3,1912.9h-16.2v16.2l0,0h16.2l0,0h14.8l0,0v5.7v78l-14.8,10v-88h-16.2v98.9v14.9c0,2,2.2,3.2,3.9,2.1
		l12.4-8.3l25.5-17.1c3.5-2.3,5.6-6.3,5.6-10.4v-80v-5.7v-7.6c0-4.8-3.9-8.6-8.6-8.6H325.3z"/>
	<path class="st5" d="M287.2,2022.8l-14.8-10v-10.7v-72.9h9.2v-16.2h-9.2h-7.5c-4.8,0-8.7,3.9-8.7,8.7v93.1c0,4.2,2.1,8.1,5.6,10.4
		l25.5,17.1l11.4,7.7c2.1,1.4,4.8-0.1,4.8-2.6v-13.7v-0.2l-16.2-10.8V2022.8z"/>
	<polygon class="st5" points="287.2,2015.9 303.4,2026.7 303.4,1934.9 287.2,1934.9 	"/>
	<path class="st4" d="M144.6,2113.9c-0.6-0.7-1-2-1-3.9v-34h-14.1v35.3c0,2.8,0.3,5.3,0.9,7.5c0.6,2.1,1.5,3.9,2.8,5.3
		c1.3,1.4,3.1,2.5,5.3,3.2c2.2,0.7,4.9,1,8.1,1h38v-13.4h-36.3C146.5,2114.9,145.3,2114.6,144.6,2113.9z"/>
	<rect x="190.1" y="2097.1" class="st4" width="14.1" height="31.2"/>
	<path class="st4" d="M300.5,2091.5c-1.5-3.3-3.6-6.2-6.2-8.6c-2.3-2.2-5.1-3.9-8.2-5.1c-3.2-1.2-6.9-1.8-11.1-1.8h-28.3
		c-2.3,0-3.4,1.1-3.4,3.3v10.6h15h16.6h2v0.1c1.5,0.1,2.8,0.4,3.9,0.8c1.5,0.6,2.9,1.4,4,2.5c1.2,1.1,2.1,2.5,2.8,4
		c0.7,1.5,1,3.2,1,5c0,1.6-0.3,3.1-0.9,4.5c-0.6,1.4-1.4,2.7-2.4,3.8c-1.1,1.2-2.6,2.2-4.3,2.9c-1.7,0.7-3.8,1.1-6.3,1.1h-16.6
		c-0.7,0-1-0.4-1-1.1v-16.4h-14v27.9c0,2.2,1.1,3.3,3.4,3.3h28.3c4.7,0,8.8-0.8,12.2-2.3c3.5-1.5,6.4-3.6,8.8-6.2c2.1-2.3,3.8-5,5-8
		c1.2-3,1.8-6.2,1.8-9.7C302.7,2098.3,302,2094.8,300.5,2091.5z"/>
	<path class="st4" d="M369.4,2126l-18.9-41.5c-1.5-3.3-3.5-5.7-5.9-7.3c-2.5-1.6-5.5-2.4-9.2-2.4c-3.8,0-6.9,0.8-9.3,2.4
		c-2.4,1.6-4.4,4-5.9,7.3l-18.7,41.5c-0.2,0.4-0.4,0.8-0.5,1.2c-0.1,0.4-0.2,0.8-0.3,1.2h16.2c0.1-0.3,0.1-0.6,0.2-0.9
		c0.1-0.3,0.2-0.6,0.3-0.9l2.7-6.3l-2.2,4.9l2.2-4.9l0,0l0,0l5.1-11.5h0l8-18.7c0.3-0.6,0.6-1,1-1.3c0.4-0.2,0.9-0.3,1.3-0.3
		c0.5,0,1,0.1,1.4,0.4c0.4,0.3,0.7,0.7,1,1.2l8.1,18.7h0l5.1,11.5l0,0l0,0l3.6,8.1h15.6c-0.1-0.4-0.2-0.8-0.3-1.2
		C369.8,2126.8,369.6,2126.4,369.4,2126z"/>
	<polygon class="st4" points="421.8,2076 361.8,2076 361.8,2089.8 384.8,2089.8 384.8,2128.3 398.9,2128.3 398.9,2089.8 
		421.8,2089.8 	"/>
	<path class="st4" d="M482.6,2127.2c-0.1-0.4-0.3-0.7-0.5-1.2l-18.9-41.5c-1.5-3.3-3.5-5.7-5.9-7.3c-2.5-1.6-5.5-2.4-9.2-2.4
		c-3.8,0-6.9,0.8-9.3,2.4c-2.4,1.6-4.4,4-5.9,7.3l-18.7,41.5c-0.2,0.4-0.4,0.8-0.5,1.2c-0.1,0.4-0.2,0.8-0.3,1.2h16.2
		c0.1-0.3,0.1-0.6,0.2-0.9c0.1-0.3,0.2-0.6,0.3-0.9l2.7-6.3l-2.6,5.9l2.6-5.9l0,0l0,0l5.1-11.5l8-18.7c0.3-0.6,0.6-1,1-1.3
		c0.4-0.2,0.9-0.3,1.3-0.3c0.5,0,1,0.1,1.4,0.4c0.4,0.3,0.7,0.7,1,1.2l8.1,18.7l5.1,11.5l0,0l0,0l3.1,7l-3.1-7l2.8,6.3
		c0.1,0.3,0.2,0.5,0.3,0.8c0.1,0.3,0.2,0.6,0.3,1h15.8C482.8,2127.9,482.7,2127.5,482.6,2127.2z"/>
	<polygon class="st5" points="-685.5,1367.8 -685.5,1367.8 -669.2,1367.8 -669.2,1367.8 -669.2,1351.6 -685.5,1351.6 	"/>
	<rect x="-782.5" y="1514.6" class="st4" width="14.1" height="13.9"/>
	<path class="st4" d="M-695.7,1528.5h-2C-697,1528.5-696.4,1528.5-695.7,1528.5L-695.7,1528.5z"/>
	<path class="st4" d="M-618.8,1565.2c0.1,0.3,0.2,0.5,0.3,0.8c0.1,0.3,0.2,0.6,0.3,1h0.2l-3.6-8.1L-618.8,1565.2z"/>
	<path class="st5" d="M-647.3,1351.6h-16.2v16.2v0h16.2v0h14.8v0v5.7v78l-14.8,10v-88h-16.2v98.9v14.9c0,2,2.2,3.2,3.9,2.1l12.4-8.3
		l25.5-17.1c3.5-2.3,5.6-6.3,5.6-10.4v-80v-5.7v-7.6c0-4.8-3.9-8.6-8.6-8.6H-647.3z"/>
	<path class="st5" d="M-685.5,1461.4l-14.8-10v-10.7v-72.9h9.2v-16.2h-9.2h-7.5c-4.8,0-8.7,3.9-8.7,8.7v93.1c0,4.2,2.1,8.1,5.6,10.4
		l25.5,17.1l11.4,7.7c2.1,1.4,4.8-0.1,4.8-2.6v-13.7v-0.2l-16.2-10.8V1461.4z"/>
	<polygon class="st5" points="-685.5,1454.5 -669.2,1465.3 -669.2,1373.5 -685.5,1373.5 	"/>
	<path class="st4" d="M-828,1552.5c-0.6-0.7-1-2-1-3.9v-34h-14.1v35.3c0,2.8,0.3,5.3,0.9,7.5c0.6,2.1,1.5,3.9,2.8,5.3
		c1.3,1.4,3.1,2.5,5.3,3.2c2.2,0.7,4.9,1,8.1,1h38v-13.4h-36.3C-826.1,1553.6-827.4,1553.2-828,1552.5z"/>
	<rect x="-782.5" y="1535.7" class="st4" width="14.1" height="31.2"/>
	<path class="st4" d="M-672.2,1530.1c-1.5-3.3-3.6-6.2-6.2-8.6c-2.3-2.2-5.1-3.9-8.2-5.1c-3.2-1.2-6.9-1.8-11.1-1.8H-726
		c-2.3,0-3.4,1.1-3.4,3.3v10.6h15h16.6h2v0.1c1.5,0.1,2.8,0.4,3.9,0.8c1.5,0.6,2.9,1.4,4,2.5c1.2,1.1,2.1,2.5,2.8,4
		c0.7,1.5,1,3.2,1,5c0,1.6-0.3,3.1-0.9,4.5c-0.6,1.4-1.4,2.7-2.4,3.8c-1.1,1.2-2.6,2.2-4.3,2.9c-1.7,0.7-3.8,1.1-6.3,1.1h-16.6
		c-0.7,0-1-0.4-1-1.1v-16.4h-14v27.9c0,2.2,1.1,3.3,3.4,3.3h28.3c4.7,0,8.8-0.8,12.2-2.3c3.5-1.5,6.4-3.6,8.8-6.2c2.1-2.3,3.8-5,5-8
		c1.2-3,1.8-6.2,1.8-9.7C-669.9,1537-670.7,1533.4-672.2,1530.1z"/>
	<path class="st4" d="M-603.3,1564.6l-18.9-41.5c-1.5-3.3-3.5-5.7-5.9-7.3c-2.5-1.6-5.5-2.4-9.2-2.4c-3.8,0-6.9,0.8-9.3,2.4
		c-2.4,1.6-4.4,4-5.9,7.3l-18.7,41.5c-0.2,0.4-0.4,0.8-0.5,1.2c-0.1,0.4-0.2,0.8-0.3,1.2h16.2c0-0.3,0.1-0.6,0.2-0.9
		c0.1-0.3,0.2-0.6,0.3-0.9l2.7-6.3l-2.2,4.9l2.2-4.9l0,0l0,0l5.1-11.5h0l8-18.7c0.3-0.6,0.6-1,1-1.3c0.4-0.2,0.9-0.3,1.3-0.3
		c0.5,0,1,0.1,1.4,0.4c0.4,0.3,0.7,0.7,1,1.2l8.1,18.7h0l5.1,11.5l0,0l0,0l3.6,8.1h15.6c-0.1-0.4-0.2-0.8-0.3-1.2
		C-602.9,1565.4-603.1,1565-603.3,1564.6z"/>
	<polygon class="st4" points="-550.8,1514.6 -610.9,1514.6 -610.9,1528.5 -587.9,1528.5 -587.9,1567 -573.8,1567 -573.8,1528.5 
		-550.8,1528.5 	"/>
	<path class="st4" d="M-490.1,1565.8c-0.1-0.4-0.3-0.7-0.5-1.2l-18.9-41.5c-1.5-3.3-3.5-5.7-5.9-7.3c-2.5-1.6-5.5-2.4-9.2-2.4
		c-3.8,0-6.9,0.8-9.3,2.4c-2.4,1.6-4.4,4-5.9,7.3l-18.7,41.5c-0.2,0.4-0.4,0.8-0.5,1.2c-0.1,0.4-0.2,0.8-0.3,1.2h16.2
		c0.1-0.3,0.1-0.6,0.2-0.9c0.1-0.3,0.2-0.6,0.3-0.9l2.7-6.3l-2.6,5.9l2.6-5.9l0,0l0,0l5.1-11.5l8-18.7c0.3-0.6,0.6-1,1-1.3
		c0.4-0.2,0.9-0.3,1.3-0.3c0.5,0,1,0.1,1.4,0.4c0.4,0.3,0.7,0.7,1,1.2l8.1,18.7l5.1,11.5l0,0l0,0l3.1,7l-3.1-7l2.8,6.3
		c0.1,0.3,0.2,0.5,0.3,0.8c0.1,0.3,0.2,0.6,0.3,1h15.8C-489.9,1566.5-490,1566.2-490.1,1565.8z"/>
	<g>
		<text transform="matrix(1 0 0 1 -619.8588 2254.3701)" style="font-family:'MyriadPro-Regular'; font-size:29.304px;">This One Bit Diffrent from our selection. </text>
		<text transform="matrix(1 0 0 1 -86.202 2254.3701)" style="font-family:'MyriadPro-Regular'; font-size:29.304px;">Primery  </text>
		<text transform="matrix(1 0 0 1 72.4647 2254.3699)" style="font-family:'MyriadPro-Regular'; font-size:29.304px;">Secoundery</text>
		<rect x="36" y="2228.2" class="st4" width="33.3" height="35.2"/>
	</g>
</g>
</svg>
