<?xml version="1.0" encoding="utf-8"?>
<!-- Generator: Adobe Illustrator 19.0.0, SVG Export Plug-In . SVG Version: 6.00 Build 0)  -->
<svg version="1.1" id="Layer_1" xmlns="http://www.w3.org/2000/svg" xmlns:xlink="http://www.w3.org/1999/xlink" x="0px" y="0px"
	 viewBox="0 0 195 28" style="enable-background:new 0 0 195 28;" xml:space="preserve">
<style type="text/css">
	.st0{opacity:0.11;}
	.st1{display:none;}
	.st2{display:inline;}
	.st3{fill:#39B54A;}
	.st4{fill:#0C1823;}
	.st5{fill:#4491CE;}
	.st6{fill:#010101;}
	.st7{fill:#FFFFFF;}
	.st8{display:inline;fill:none;}
	.st9{display:inline;fill:#FFFFFF;}
	.st10{fill:#F1592D;}
	.st11{fill:#FDFDFE;}
	.st12{fill:#F9F9FA;}
</style>
<rect x="550.2" y="305.1" width="16.4" height="375"/>
<rect x="437.9" y="513.2" width="375" height="16.4"/>
<rect x="661.3" y="228.4" width="47" height="177.9"/>
<polygon points="661.3,651.9 552.9,579.6 552.9,599.3 652.2,665.6 "/>
<text id="XMLID_1_" transform="matrix(1 0 0 1 421.3183 -279.415)" style="font-family:'MyriadPro-Regular'; font-size:50px;">Li Data</text>
<text id="XMLID_83_" transform="matrix(1 -2.460000e-003 2.460000e-003 1 421.348 -417.6942)" style="font-family:'Bauhaus'; font-size:48px;">Li Data</text>
<text id="XMLID_2_" transform="matrix(1 -2.460000e-003 2.460000e-003 1 437.9147 -140.8888)" style="font-family:'TimesNewRomanPS-BoldMT'; font-size:48px;">LI DATA</text>
<text id="XMLID_54_" transform="matrix(1 0 0 1 421.3185 -209.2564)" class="st6" style="font-family:'NulshockRg-Bold'; font-size:37px;">Li Data</text>
<text id="XMLID_171_" transform="matrix(1 0 0 1 421.3189 -353.3714)" style="font-family:'Chalet-LondonNineteenEighty'; font-size:57.8697px;">Li Data</text>
<g>
	<polygon points="-637.8,5801.2 -637.8,5801.2 -621.5,5801.2 -621.5,5801.2 -621.5,5784.9 -637.8,5784.9 	"/>
	<g>
		<path d="M-1225,6235.2h-12.6v12.6l0,0h12.6l0,0h11.5l0,0v4.4v60.6l-11.5,7.7v-68.4h-12.6v76.9v11.6c0,1.5,1.7,2.5,3,1.6l9.6-6.5
			l19.8-13.3c2.7-1.8,4.3-4.9,4.3-8.1v-62.2v-4.4v-5.9c0-3.7-3-6.7-6.7-6.7H-1225z"/>
		<path d="M-1254.7,6320.7l-11.5-7.7v-8.4v-56.7h7.1v-12.6h-7.1h-5.8c-3.8,0-6.8,3-6.8,6.8v72.4c0,3.3,1.6,6.3,4.3,8.1l19.8,13.3
			l8.9,6c1.6,1.1,3.8-0.1,3.8-2v-10.7v-0.2l-12.6-8.4V6320.7z"/>
		<polygon points="-1254.7,6315.3 -1242,6323.7 -1242,6252.3 -1254.7,6252.3 		"/>
		<polygon points="-1254.7,6247.9 -1254.7,6247.9 -1242,6247.9 -1242,6247.9 -1242,6235.2 -1254.7,6235.2 		"/>
	</g>
	<g class="st0">
		<path d="M18.2,5543l-39-37.9l-37.9,39h0l39,37.9h0l35.6,34.5h0l-13.2,13.6l-181.8,187.2l-58.8-10.6l205-211.2l-39-37.9
			l-230.5,237.4l-34.8,35.8c-4.6,4.8-2.1,12.7,4.5,13.9l49.1,8.9l101.2,18.3c13.8,2.5,27.9-2,37.7-12.1L41.7,5668l13.2-13.6
			l17.8-18.3c11.1-11.4,10.8-29.7-0.6-40.8L18.2,5543z"/>
		<path d="M-329.5,5717.8l-12.4-58.5l25.1-25.8l170-175l22,21.3l37.9-39l-22-21.3l-18-17.5c-11.6-11.3-30.1-11-41.4,0.6l-217,223.5
			c-9.8,10.1-13.9,24.3-11,38l21.3,100.6l9.5,44.9c1.7,8.2,11.9,11.1,17.7,5.1l32-33l0.5-0.5l-13.7-63.9L-329.5,5717.8z"/>
		<polygon points="-313.3,5701.1 -299.6,5765 -85.5,5544.5 -124.5,5506.7 		"/>
		<polygon points="-111.3,5493.1 -111.3,5493.1 -72.3,5530.9 -72.3,5530.9 -34.4,5491.9 -73.4,5454.1 		"/>
	</g>
	<rect x="-734.8" y="5947.9" width="14.1" height="13.9"/>
	<path d="M-648,5961.8h-2C-649.3,5961.8-648.6,5961.8-648,5961.8L-648,5961.8z"/>
	<path d="M-571.1,5998.5c0.1,0.3,0.2,0.5,0.3,0.8c0.1,0.3,0.2,0.6,0.3,1h0.2l-3.6-8.1L-571.1,5998.5z"/>
	<g>
		<path d="M-599.6,5784.9h-16.2v16.2l0,0h16.2l0,0h14.8l0,0v5.7v78l-14.8,10v-88h-16.2v98.9v14.9c0,2,2.2,3.2,3.9,2.1l12.4-8.3
			l25.5-17.1c3.5-2.3,5.6-6.3,5.6-10.4v-80v-5.7v-7.6c0-4.8-3.9-8.6-8.6-8.6H-599.6z"/>
		<path d="M-637.8,5894.8l-14.8-10v-10.7v-72.9h9.2v-16.2h-9.2h-7.5c-4.8,0-8.7,3.9-8.7,8.7v93.1c0,4.2,2.1,8.1,5.6,10.4l25.5,17.1
			l11.4,7.7c2.1,1.4,4.8-0.1,4.8-2.6v-13.7v-0.2l-16.2-10.8V5894.8z"/>
		<polygon points="-637.8,5887.8 -621.5,5898.7 -621.5,5806.8 -637.8,5806.8 		"/>
		<path d="M-780.3,5985.9c-0.6-0.7-1-2-1-3.9v-34h-14.1v35.3c0,2.8,0.3,5.3,0.9,7.5c0.6,2.1,1.5,3.9,2.8,5.3
			c1.3,1.4,3.1,2.5,5.3,3.2c2.2,0.7,4.9,1,8.1,1h38v-13.4h-36.3C-778.4,5986.9-779.6,5986.5-780.3,5985.9z"/>
		<rect x="-734.8" y="5969.1" width="14.1" height="31.2"/>
		<path d="M-624.4,5963.4c-1.5-3.3-3.6-6.2-6.2-8.6c-2.3-2.2-5.1-3.9-8.2-5.1c-3.2-1.2-6.9-1.8-11.1-1.8h-28.3
			c-2.3,0-3.4,1.1-3.4,3.3v10.6h15h16.6h2v0.1c1.5,0.1,2.8,0.4,3.9,0.8c1.5,0.6,2.9,1.4,4,2.5c1.2,1.1,2.1,2.5,2.8,4
			c0.7,1.5,1,3.2,1,5c0,1.6-0.3,3.1-0.9,4.5c-0.6,1.4-1.4,2.7-2.4,3.8c-1.1,1.2-2.6,2.2-4.3,2.9c-1.7,0.7-3.8,1.1-6.3,1.1h-16.6
			c-0.7,0-1-0.4-1-1.1v-16.4h-14v27.9c0,2.2,1.1,3.3,3.4,3.3h28.3c4.7,0,8.8-0.8,12.2-2.3c3.5-1.5,6.4-3.6,8.8-6.2
			c2.1-2.3,3.8-5,5-8c1.2-3,1.8-6.2,1.8-9.7C-622.2,5970.3-622.9,5966.7-624.4,5963.4z"/>
		<path d="M-555.5,5998l-18.9-41.5c-1.5-3.3-3.5-5.7-5.9-7.3c-2.5-1.6-5.5-2.4-9.2-2.4c-3.8,0-6.9,0.8-9.3,2.4
			c-2.4,1.6-4.4,4-5.9,7.3l-18.7,41.5c-0.2,0.4-0.4,0.8-0.5,1.2c-0.1,0.4-0.2,0.8-0.3,1.2h16.2c0.1-0.3,0.1-0.6,0.2-0.9
			c0.1-0.3,0.2-0.6,0.3-0.9l2.7-6.3l-2.2,4.9l2.2-4.9l0,0l0,0l5.1-11.5h0l8-18.7c0.3-0.6,0.6-1,1-1.3c0.4-0.2,0.9-0.3,1.3-0.3
			c0.5,0,1,0.1,1.4,0.4c0.4,0.3,0.7,0.7,1,1.2l8.1,18.7h0l5.1,11.5l0,0l0,0l3.6,8.1h15.6c-0.1-0.4-0.2-0.8-0.3-1.2
			C-555.2,5998.8-555.3,5998.4-555.5,5998z"/>
		<polygon points="-503.1,5947.9 -563.1,5947.9 -563.1,5961.8 -540.1,5961.8 -540.1,6000.3 -526,6000.3 -526,5961.8 -503.1,5961.8 
					"/>
		<path d="M-442.4,5999.1c-0.1-0.4-0.3-0.7-0.5-1.2l-18.9-41.5c-1.5-3.3-3.5-5.7-5.9-7.3c-2.5-1.6-5.5-2.4-9.2-2.4
			c-3.8,0-6.9,0.8-9.3,2.4c-2.4,1.6-4.4,4-5.9,7.3l-18.7,41.5c-0.2,0.4-0.4,0.8-0.5,1.2c-0.1,0.4-0.2,0.8-0.3,1.2h16.2
			c0.1-0.3,0.1-0.6,0.2-0.9c0.1-0.3,0.2-0.6,0.3-0.9l2.7-6.3l-2.6,5.9l2.6-5.9l0,0l0,0l5.1-11.5l8-18.7c0.3-0.6,0.6-1,1-1.3
			c0.4-0.2,0.9-0.3,1.3-0.3c0.5,0,1,0.1,1.4,0.4c0.4,0.3,0.7,0.7,1,1.2l8.1,18.7l5.1,11.5l0,0l0,0l3.1,7l-3.1-7l2.8,6.3
			c0.1,0.3,0.2,0.5,0.3,0.8c0.1,0.3,0.2,0.6,0.3,1h15.8C-442.1,5999.9-442.2,5999.5-442.4,5999.1z"/>
	</g>
</g>
<g class="st1">
	
		<text id="XMLID_3_" transform="matrix(1.0051 0 0 1 1893.4069 2364.0386)" style="display:inline;fill:#010101; font-family:'NulshockRg-Bold'; font-size:44.5714px;">Li Data</text>
	<g class="st2">
		<path d="M2099.6,2238.5c-2.3-14.5-9-27.6-18.6-37.8c-13.2-14-31.9-22.8-52.6-22.8h-2.6h-13.2c-5.3,0-9.6,4.3-9.6,9.6v75.6
			l19.5-62.4h6c5.6,0,10.9,0.9,15.9,2.6c15.9,5.4,28.1,18.7,32,35.2c0.9,3.7,1.4,7.5,1.4,11.4c0,3.9-0.5,7.8-1.4,11.4
			c-5.2,21.7-24.7,37.8-47.9,37.8h-2.6v-2.3v-41.6v-21.7v-3.4v-3.8l-22.8,73.1v3.6v9.2c0,5.3,4.3,9.6,9.6,9.6h13.2h2.6
			c35.9,0,65.7-26.3,71.2-60.7c0.6-3.7,0.9-7.5,0.9-11.4C2100.5,2246,2100.2,2242.2,2099.6,2238.5z"/>
		<polygon points="1969.2,2200.7 1988.5,2200.7 1992,2200.7 1992,2189.5 1992,2177.8 1969.2,2177.8 		"/>
		<polygon points="1969.2,2211.6 1969.2,2219 1969.2,2238.5 1969.2,2269.9 1992,2211.6 		"/>
		<path d="M1969.2,2299.1L1969.2,2299.1l-2.6,0.1c-1.4,0-2.9-0.1-4.3-0.2c-1.4-0.1-2.9-0.3-4.3-0.6c-0.7-0.1-1.3-0.2-2-0.4
			c-18.4-4-33-18.4-37.3-36.7c-0.9-3.7-1.4-7.5-1.4-11.4c0-3.9,0.5-7.8,1.4-11.4c4.1-17.3,17.4-31.1,34.3-35.9l0.1,0
			c3.1-0.9,5.2-3.7,5.2-6.9v-17.4c-32.1,3.7-57.8,28.5-62.9,60.2c-0.6,3.7-0.9,7.5-0.9,11.4c0,3.9,0.3,7.7,0.9,11.4
			c4.7,29.3,27.1,52.7,55.8,59c3.6,0.8,7.2,1.3,10.9,1.5c1.5,0.1,3,0.2,4.5,0.2h2.6h13.2c5.3,0,9.6-4.3,9.6-9.6v-13.2v-10.9v-1.8
			v-7.4v-0.1v-40.4v-7.1L1969.2,2299.1L1969.2,2299.1z"/>
	</g>
</g>
<g class="st1">
	<rect x="2158.6" y="1908.4" class="st2" width="11.5" height="24"/>
	<rect x="2132.5" y="1946.1" class="st2" width="24" height="36.8"/>
	<path class="st2" d="M1864.7,2003.9c0-4.1,0.5-8.1,1.4-12h-24.5c-0.6,3.9-1,7.9-1,12s0.3,8.1,1,12h24.5
		C1865.2,2012.1,1864.7,2008.1,1864.7,2003.9z"/>
	<path class="st2" d="M2056.2,1991.9h-24.5c0.9,3.9,1.4,7.9,1.4,12c0,4.1-0.5,8.1-1.4,12h24.5c0.6-3.9,1-7.9,1-12
		S2056.8,1995.8,2056.2,1991.9z"/>
	<path class="st2" d="M1902.2,1954.2v-2h5.5v-23.5c-33.7,3.9-60.7,30-66,63.2h24.5C1870.4,1973.8,1884.3,1959.3,1902.2,1954.2z"/>
	<path class="st2" d="M1907.7,1952.2h-5.5v2c1.8-0.5,3.6-0.9,5.5-1.3V1952.2z"/>
	<polygon class="st2" points="1943.2,1928.2 1919.2,1928.2 1919.2,1952.2 1939.5,1952.2 1943.2,1940.5 	"/>
	<path class="st2" d="M1905.3,2054.5c-19.3-4.2-34.7-19.3-39.2-38.5h-24.5c4.9,30.8,28.4,55.4,58.6,62l7.2-23.1
		C1906.7,2054.7,1906,2054.6,1905.3,2054.5z"/>
	<polygon class="st2" points="1919.2,1963.7 1919.2,1971.5 1919.2,1991.9 1919.2,2017.3 1935.9,1963.7 	"/>
	<path class="st2" d="M1919.2,2055.7L1919.2,2055.7L1919.2,2055.7l-7.4,23.8c1.6,0.1,3.1,0.2,4.7,0.2h2.8h24v-24v-11.5v-1.9v-7.8
		v-0.1v-42.5v-13.1L1919.2,2055.7z"/>
	<polygon class="st2" points="1943.2,1940.5 1939.5,1952.2 1943.2,1952.2 	"/>
	<polygon class="st2" points="1919.1,2055.7 1919.2,2055.7 1919.2,2055.7 1919.2,2055.6 	"/>
	<path class="st2" d="M1919.1,2055.7h-2.6c-1.5,0-3-0.1-4.5-0.2c-1.5-0.1-3-0.4-4.5-0.6l-7.2,23.1c3.7,0.8,7.6,1.4,11.5,1.6
		l7.4-23.8H1919.1z"/>
	<g class="st2">
		<rect x="2121.6" y="2024.9" transform="matrix(0.6616 0.7498 -0.7498 0.6616 2273.3804 -893.4486)" width="10" height="94.7"/>
	</g>
	<path class="st2" d="M1981.4,2055.7h40.6H1981.4h-2.8v24h2.8c37.7,0,69-27.7,74.8-63.8h-24.5
		C2026.3,2038.7,2005.8,2055.7,1981.4,2055.7z"/>
	<path class="st2" d="M1998.1,1955c16.7,5.7,29.5,19.7,33.7,37h24.5c-2.4-15.2-9.4-29-19.6-39.8h-38.6V1955z"/>
	<path class="st2" d="M1981.4,1952.2h16.7h38.6c-13.8-14.8-33.5-24-55.2-24h-2.8l-6.1,24H1981.4z"/>
	<path class="st2" d="M1981.4,1952.2c5.8,0,11.4,1,16.7,2.8v-2.8H1981.4z"/>
	<polygon class="st2" points="1978.7,1928.2 1954.7,1928.2 1954.7,2017.7 1978.7,1940.9 	"/>
	<polygon class="st2" points="1954.7,2056.1 1954.7,2059.9 1954.7,2079.7 1978.7,2079.7 1978.7,2055.7 1978.7,2053.3 1978.7,2009.6 
		1978.7,1986.8 1978.7,1983.2 1978.7,1979.2 	"/>
</g>
<g>
	<rect x="-2318.9" y="5849.6" class="st3" width="720" height="510"/>
	<rect x="-3038.9" y="5849.6" width="728.2" height="510"/>
	<g>
		<path class="st4" d="M-2216.8,5570.1c-2.3-14.5-9-27.6-18.6-37.8c-13.2-14-31.9-22.8-52.6-22.8h-2.6h-13.2c-5.3,0-9.6,4.3-9.6,9.6
			v75.6l19.5-62.4h6c5.6,0,10.9,0.9,15.9,2.6c15.9,5.4,28.1,18.7,32,35.2c0.9,3.7,1.4,7.5,1.4,11.4s-0.5,7.8-1.4,11.4
			c-5.2,21.7-24.7,37.8-47.9,37.8h-2.6v-2.3v-41.6v-21.7v-3.4v-3.8l-22.8,73.1v3.6v9.2c0,5.3,4.3,9.6,9.6,9.6h13.2h2.6
			c35.9,0,65.7-26.3,71.2-60.7c0.6-3.7,0.9-7.5,0.9-11.4S-2216.2,5573.8-2216.8,5570.1z"/>
		<polygon class="st5" points="-2347.3,5532.2 -2327.9,5532.2 -2324.4,5532.2 -2324.4,5521.1 -2324.4,5509.4 -2347.3,5509.4 		"/>
		<polygon class="st4" points="-2347.3,5543.2 -2347.3,5550.6 -2347.3,5570.1 -2347.3,5601.5 -2324.4,5543.2 		"/>
		<path class="st4" d="M-2347.3,5630.7L-2347.3,5630.7l-2.6,0.1c-1.4,0-2.9-0.1-4.3-0.2c-1.4-0.1-2.9-0.3-4.3-0.6
			c-0.7-0.1-1.3-0.2-2-0.4c-18.4-4-33-18.4-37.3-36.7c-0.9-3.7-1.4-7.5-1.4-11.4s0.5-7.8,1.4-11.4c4.1-17.3,17.4-31.1,34.3-35.9
			l0.1,0c3.1-0.9,5.2-3.7,5.2-6.9v-17.4c-32.1,3.7-57.8,28.5-62.9,60.2c-0.6,3.7-0.9,7.5-0.9,11.4s0.3,7.7,0.9,11.4
			c4.7,29.3,27.1,52.7,55.8,59c3.6,0.8,7.2,1.3,10.9,1.5c1.5,0.1,3,0.2,4.5,0.2h2.6h13.2c5.3,0,9.6-4.3,9.6-9.6v-13.2v-10.9v-1.8
			v-7.4v-0.1v-40.4v-7.1L-2347.3,5630.7L-2347.3,5630.7z"/>
	</g>
	<path class="st4" d="M-2412.3,5687.3c-0.4-0.4-0.6-1.2-0.6-2.3v-19.6h-8.2v20.3c0,1.6,0.2,3.1,0.5,4.3c0.3,1.2,0.9,2.3,1.6,3.1
		c0.8,0.8,1.8,1.4,3,1.8c1.3,0.4,2.8,0.6,4.7,0.6h22v-7.7h-21C-2411.2,5687.9-2411.9,5687.7-2412.3,5687.3z"/>
	<path class="st4" d="M-2320.8,5680.5c0-2.2-0.4-4.2-1.3-6.2c-0.9-1.9-2.1-3.6-3.6-4.9c-1.3-1.2-2.9-2.2-4.8-2.9c-1.8-0.7-4-1-6.4-1
		h-16.4c-1.3,0-2,0.6-2,1.9v26.3c0,1.3,0.7,1.9,2,1.9h16.4c2.7,0,5.1-0.4,7.1-1.3c2-0.9,3.7-2.1,5.1-3.6c1.2-1.3,2.2-2.9,2.9-4.6
		C-2321.1,5684.4-2320.8,5682.5-2320.8,5680.5z M-2329.4,5683.2c-0.3,0.8-0.8,1.5-1.4,2.2c-0.7,0.7-1.5,1.3-2.5,1.7
		c-1,0.4-2.2,0.6-3.6,0.6h-9.6c-0.4,0-0.6-0.2-0.6-0.6v-13c0-0.4,0.2-0.6,0.6-0.6h9.6c1.4,0,2.5,0.2,3.4,0.5
		c0.9,0.4,1.7,0.8,2.3,1.4c0.7,0.7,1.2,1.4,1.6,2.3s0.6,1.8,0.6,2.9C-2328.9,5681.5-2329.1,5682.4-2329.4,5683.2z"/>
	<path class="st4" d="M-2281.9,5694.9c-0.1-0.2-0.2-0.4-0.3-0.7l-10.9-23.9c-0.9-1.9-2-3.3-3.4-4.2c-1.4-0.9-3.2-1.4-5.3-1.4
		c-2.2,0-4,0.5-5.4,1.4c-1.4,0.9-2.5,2.3-3.4,4.2l-10.8,23.9c-0.1,0.2-0.2,0.5-0.3,0.7c-0.1,0.2-0.1,0.4-0.2,0.7h9.2l2.1-4.7l0,0
		l0,0l3-6.6l4.6-10.8c0.1-0.3,0.3-0.5,0.5-0.6l0.2-0.4l-0.2,0.4c0,0,0.1-0.1,0.1-0.1c0.2-0.1,0.5-0.2,0.8-0.2c0.3,0,0.6,0.1,0.8,0.2
		c0.1,0,0.1,0.1,0.2,0.2l-0.8-1.7l0.8,1.7c0.1,0.1,0.3,0.3,0.4,0.5l4.7,10.8l0,0l5,11.3h9
		C-2281.8,5695.4-2281.9,5695.1-2281.9,5694.9z"/>
	<path class="st4" d="M-2312.6,5695.6c0-0.2,0.1-0.4,0.1-0.5c0.1-0.2,0.1-0.4,0.2-0.5l1.6-3.6l-2.1,4.7H-2312.6z"/>
	<polygon class="st4" points="-2251.9,5665.5 -2286.6,5665.5 -2286.6,5673.4 -2273.3,5673.4 -2273.3,5695.6 -2265.2,5695.6 
		-2265.2,5673.4 -2251.9,5673.4 	"/>
	<path class="st4" d="M-2238,5673.5c0.1-0.3,0.3-0.5,0.5-0.6l0.9-2.1l-2.6-5.7c-1.1,0.2-2.1,0.6-2.9,1.1c-1.4,0.9-2.5,2.3-3.4,4.2
		l-10.8,23.9c-0.1,0.2-0.2,0.5-0.3,0.7c-0.1,0.2-0.1,0.4-0.2,0.7h9.2l2.1-4.7v0l0,0l3-6.6L-2238,5673.5z"/>
	<path class="st6" d="M-2237.4,5672.8c0.2-0.1,0.5-0.2,0.8-0.2c0.3,0,0.6,0.1,0.8,0.2c0.1,0,0.1,0.1,0.2,0.2l-1-2.2l-0.9,2.1
		C-2237.5,5672.8-2237.5,5672.8-2237.4,5672.8z"/>
	<path class="st4" d="M-2216.7,5694.9c-0.1-0.2-0.2-0.4-0.3-0.7l-10.9-23.9c-0.9-1.9-2-3.3-3.4-4.2c-0.8-0.5-1.7-0.9-2.7-1.1
		l-2.5,5.7l1,2.2c0.1,0.1,0.3,0.3,0.4,0.5l4.7,10.8l3,6.6l0,0l0,0l2.1,4.7h9C-2216.6,5695.4-2216.7,5695.1-2216.7,5694.9z"/>
	<path class="st4" d="M-2226,5694.6c0.1,0.1,0.1,0.3,0.2,0.5c0.1,0.2,0.1,0.3,0.2,0.6h0.1l-2.1-4.7L-2226,5694.6z"/>
	<path class="st4" d="M-2247.5,5695.6c0-0.2,0.1-0.4,0.1-0.5c0.1-0.2,0.1-0.4,0.2-0.5l1.6-3.6l-2.1,4.7H-2247.5z"/>
	<path class="st6" d="M-2234.1,5665.1c-0.8-0.2-1.7-0.3-2.6-0.3c-0.9,0-1.7,0.1-2.5,0.3l2.6,5.7L-2234.1,5665.1z"/>
	<polygon class="st4" points="-2385.9,5679.7 -2385.9,5695.6 -2377.8,5695.6 -2377.8,5671.3 	"/>
	<polygon class="st5" points="-2377.8,5665.5 -2385.9,5665.5 -2385.9,5674 -2377.8,5665.5 	"/>
	<g>
		<g>
			<path class="st7" d="M-2617.9,6084.7c-1.3-8.1-5-15.4-10.4-21.1c-7.3-7.8-17.8-12.7-29.3-12.7h-1.5h-7.4c-3,0-5.4,2.4-5.4,5.4
				v42.1l10.9-34.8h3.3c3.1,0,6.1,0.5,8.9,1.5c8.8,3,15.7,10.4,17.9,19.6c0.5,2,0.8,4.2,0.8,6.4s-0.3,4.3-0.8,6.4
				c-2.9,12.1-13.8,21.1-26.7,21.1h-1.5v-1.3v-23.2V6082v-1.9v-2.1l-12.7,40.8v2v5.2c0,3,2.4,5.4,5.4,5.4h7.4h1.5
				c20,0,36.6-14.7,39.7-33.8c0.3-2.1,0.5-4.2,0.5-6.4S-2617.6,6086.8-2617.9,6084.7z"/>
			<polygon class="st7" points="-2690.6,6063.6 -2679.8,6063.6 -2677.9,6063.6 -2677.9,6057.4 -2677.9,6050.9 -2690.6,6050.9 			"/>
			<polygon class="st7" points="-2690.6,6069.7 -2690.6,6073.9 -2690.6,6084.7 -2690.6,6102.2 -2677.9,6069.7 			"/>
			<path class="st7" d="M-2690.6,6118.5L-2690.6,6118.5l-1.5,0c-0.8,0-1.6,0-2.4-0.1c-0.8-0.1-1.6-0.2-2.4-0.3
				c-0.4-0.1-0.8-0.1-1.1-0.2c-10.3-2.3-18.4-10.3-20.8-20.5c-0.5-2-0.8-4.2-0.8-6.4s0.3-4.3,0.8-6.4c2.3-9.6,9.7-17.3,19.2-20l0,0
				c1.7-0.5,2.9-2.1,2.9-3.8v-9.7c-17.9,2.1-32.2,15.9-35.1,33.6c-0.3,2.1-0.5,4.2-0.5,6.4s0.2,4.3,0.5,6.4
				c2.6,16.3,15.1,29.4,31.1,32.9c2,0.4,4,0.7,6.1,0.8c0.8,0.1,1.7,0.1,2.5,0.1h1.5h7.4c3,0,5.4-2.4,5.4-5.4v-7.4v-6.1v-1v-4.1v0
				v-22.5v-4L-2690.6,6118.5L-2690.6,6118.5z"/>
		</g>
		<g>
			<path class="st7" d="M-2613.2,6162.1h-123.4v-114.9h123.4V6162.1z M-2735.4,6161h121.1v-112.7h-121.1V6161z"/>
		</g>
		<g>
			<path class="st7" d="M-2607.3,6167.7h-135.2v-126.1h135.2V6167.7z M-2738,6163.2h126.2v-117.2H-2738V6163.2z"/>
		</g>
		<path class="st7" d="M-2726.9,6150.1c-0.2-0.2-0.3-0.6-0.3-1.3v-10.9h-4.5v11.3c0,0.9,0.1,1.7,0.3,2.4c0.2,0.7,0.5,1.3,0.9,1.7
			c0.4,0.5,1,0.8,1.7,1c0.7,0.2,1.6,0.3,2.6,0.3h12.3v-4.3h-11.7C-2726.3,6150.4-2726.7,6150.3-2726.9,6150.1z"/>
		<path class="st7" d="M-2675.9,6146.3c0-1.2-0.2-2.4-0.7-3.4c-0.5-1.1-1.1-2-2-2.8c-0.7-0.7-1.6-1.2-2.7-1.6
			c-1-0.4-2.2-0.6-3.6-0.6h-9.1c-0.7,0-1.1,0.3-1.1,1v14.7c0,0.7,0.4,1.1,1.1,1.1h9.1c1.5,0,2.8-0.2,3.9-0.7c1.1-0.5,2.1-1.2,2.8-2
			c0.7-0.7,1.2-1.6,1.6-2.6C-2676.1,6148.5-2675.9,6147.4-2675.9,6146.3z M-2680.7,6147.8c-0.2,0.5-0.4,0.9-0.8,1.2
			c-0.4,0.4-0.8,0.7-1.4,0.9c-0.5,0.2-1.2,0.3-2,0.3h-5.4c-0.2,0-0.3-0.1-0.3-0.3v-7.2c0-0.2,0.1-0.3,0.3-0.3h5.4
			c0.8,0,1.4,0.1,1.9,0.3c0.5,0.2,0.9,0.5,1.3,0.8c0.4,0.4,0.7,0.8,0.9,1.3c0.2,0.5,0.3,1,0.3,1.6
			C-2680.4,6146.9-2680.5,6147.4-2680.7,6147.8z"/>
		<path class="st7" d="M-2654.2,6154.4c0-0.1-0.1-0.2-0.2-0.4l-6.1-13.3c-0.5-1-1.1-1.8-1.9-2.3s-1.8-0.8-3-0.8
			c-1.2,0-2.2,0.3-3,0.8c-0.8,0.5-1.4,1.3-1.9,2.3l-6,13.3c-0.1,0.1-0.1,0.3-0.2,0.4c0,0.1-0.1,0.2-0.1,0.4h5.1l1.2-2.6l0,0l0,0
			l1.6-3.7l2.6-6c0.1-0.2,0.2-0.3,0.3-0.4l0.1-0.2l-0.1,0.2c0,0,0,0,0.1-0.1c0.1-0.1,0.3-0.1,0.4-0.1c0.2,0,0.3,0,0.4,0.1
			c0,0,0.1,0.1,0.1,0.1l-0.4-1l0.4,1c0.1,0.1,0.2,0.2,0.2,0.3l2.6,6l0,0l2.8,6.3h5C-2654.1,6154.6-2654.2,6154.5-2654.2,6154.4z"/>
		<path class="st7" d="M-2671.3,6154.7c0-0.1,0-0.2,0.1-0.3c0-0.1,0.1-0.2,0.1-0.3l0.9-2l-1.2,2.6H-2671.3z"/>
		<polygon class="st7" points="-2637.5,6137.9 -2656.8,6137.9 -2656.8,6142.4 -2649.4,6142.4 -2649.4,6154.7 -2644.9,6154.7 
			-2644.9,6142.4 -2637.5,6142.4 		"/>
		<path class="st7" d="M-2629.7,6142.4c0.1-0.2,0.2-0.3,0.3-0.4l0.5-1.1l-1.4-3.2c-0.6,0.1-1.2,0.3-1.6,0.6
			c-0.8,0.5-1.4,1.3-1.9,2.3l-6,13.3c-0.1,0.1-0.1,0.3-0.2,0.4c0,0.1-0.1,0.2-0.1,0.4h5.1l1.2-2.6l0,0l0,0l1.6-3.7L-2629.7,6142.4z"
			/>
		<path class="st7" d="M-2629.4,6142c0.1-0.1,0.3-0.1,0.4-0.1c0.2,0,0.3,0,0.4,0.1c0,0,0.1,0.1,0.1,0.1l-0.5-1.2L-2629.4,6142
			C-2629.4,6142-2629.4,6142-2629.4,6142z"/>
		<path class="st7" d="M-2617.9,6154.4c0-0.1-0.1-0.2-0.2-0.4l-6.1-13.3c-0.5-1-1.1-1.8-1.9-2.3c-0.4-0.3-0.9-0.5-1.5-0.6l-1.4,3.2
			l0.5,1.2c0.1,0.1,0.2,0.2,0.2,0.3l2.6,6l1.6,3.7l0,0v0l1.2,2.6h5C-2617.8,6154.6-2617.8,6154.5-2617.9,6154.4z"/>
		<path class="st7" d="M-2623.1,6154.2c0,0.1,0.1,0.2,0.1,0.3c0,0.1,0.1,0.2,0.1,0.3h0.1l-1.2-2.6L-2623.1,6154.2z"/>
		<path class="st7" d="M-2635,6154.7c0-0.1,0-0.2,0.1-0.3c0-0.1,0.1-0.2,0.1-0.3l0.9-2l-1.2,2.6H-2635z"/>
		<path class="st7" d="M-2627.5,6137.7c-0.5-0.1-0.9-0.2-1.5-0.2c-0.5,0-1,0.1-1.4,0.1l1.4,3.2L-2627.5,6137.7z"/>
		<polygon class="st7" points="-2712.2,6145.9 -2712.2,6154.7 -2707.7,6154.7 -2707.7,6141.2 		"/>
		<polygon class="st7" points="-2707.7,6137.9 -2712.2,6137.9 -2712.2,6142.7 -2707.7,6138 		"/>
		<polygon class="st7" points="-2707.7,6138 -2712.2,6142.7 -2712.2,6145.9 -2707.7,6141.2 		"/>
	</g>
	<g>
		<g>
			<path class="st7" d="M-2065.3,6115.4c-0.6-0.6-0.9-1.7-0.9-3.4v-29.7h-12.4v30.9c0,2.5,0.2,4.7,0.7,6.5c0.5,1.9,1.3,3.4,2.5,4.7
				c1.2,1.2,2.7,2.2,4.6,2.8c1.9,0.6,4.3,0.9,7.1,0.9h33.4v-11.7h-31.9C-2063.7,6116.3-2064.7,6116-2065.3,6115.4z"/>
			<path class="st7" d="M-1926.4,6105.2c0-3.3-0.7-6.5-2-9.3c-1.3-2.9-3.1-5.4-5.4-7.5c-2-1.9-4.5-3.4-7.2-4.4
				c-2.8-1.1-6-1.6-9.8-1.6h-24.8c-2,0-3,0.9-3,2.8v40c0,1.9,1,2.9,3,2.9h24.8c4.1,0,7.7-0.7,10.8-2c3-1.3,5.6-3.1,7.8-5.4
				c1.9-2,3.3-4.4,4.4-7C-1926.9,6111-1926.4,6108.2-1926.4,6105.2z M-1939.5,6109.2c-0.5,1.2-1.2,2.3-2.1,3.3
				c-1,1.1-2.2,1.9-3.7,2.6c-1.5,0.6-3.3,0.9-5.5,0.9h-14.6c-0.6,0-0.9-0.3-0.9-0.9v-19.7c0-0.6,0.3-0.9,0.9-0.9h14.6
				c2.1,0,3.8,0.3,5.2,0.8c1.4,0.5,2.5,1.3,3.5,2.2c1,1,1.9,2.2,2.5,3.5c0.6,1.4,0.9,2.8,0.9,4.3
				C-1938.7,6106.6-1939,6107.9-1939.5,6109.2z"/>
			<path class="st7" d="M-1867.4,6127c-0.1-0.3-0.3-0.7-0.4-1l-16.6-36.3c-1.3-2.8-3.1-5-5.2-6.4c-2.2-1.4-4.8-2.1-8.1-2.1
				c-3.3,0-6,0.7-8.2,2.1c-2.1,1.4-3.9,3.5-5.2,6.4l-16.5,36.3c-0.2,0.4-0.3,0.7-0.4,1c-0.1,0.3-0.2,0.7-0.3,1h13.9l3.2-7.1l0,0l0,0
				l4.5-10.1l7-16.4c0.2-0.5,0.4-0.8,0.7-1l0.3-0.6l-0.3,0.6c0.1,0,0.1-0.1,0.2-0.1c0.4-0.2,0.7-0.3,1.2-0.3c0.5,0,0.9,0.1,1.2,0.3
				c0.1,0.1,0.2,0.2,0.3,0.3l-1.2-2.6l1.2,2.6c0.2,0.2,0.4,0.5,0.6,0.8l7.1,16.4l0,0l7.7,17.2h13.7
				C-1867.2,6127.7-1867.3,6127.3-1867.4,6127z"/>
			<path class="st7" d="M-1914,6128c0-0.3,0.1-0.5,0.2-0.8c0.1-0.3,0.2-0.5,0.3-0.8l2.4-5.5l-3.2,7.1H-1914z"/>
			<polygon class="st7" points="-1821.7,6082.3 -1874.5,6082.3 -1874.5,6094.4 -1854.3,6094.4 -1854.3,6128 -1841.9,6128 
				-1841.9,6094.4 -1821.7,6094.4 			"/>
			<path class="st7" d="M-1800.7,6094.5c0.2-0.5,0.4-0.8,0.7-1l1.4-3.1l-3.9-8.7c-1.7,0.3-3.2,0.9-4.4,1.7c-2.1,1.4-3.9,3.5-5.2,6.4
				l-16.5,36.3c-0.2,0.4-0.3,0.7-0.4,1c-0.1,0.3-0.2,0.7-0.3,1h13.9l3.2-7.1l0,0l0,0l4.5-10.1L-1800.7,6094.5z"/>
			<path class="st7" d="M-1799.8,6093.3c0.4-0.2,0.7-0.3,1.2-0.3c0.5,0,0.9,0.1,1.2,0.3c0.1,0.1,0.2,0.2,0.3,0.3l-1.5-3.3l-1.4,3.1
				C-1799.9,6093.4-1799.8,6093.4-1799.8,6093.3z"/>
			<path class="st7" d="M-1768.4,6127c-0.1-0.3-0.3-0.7-0.4-1l-16.6-36.3c-1.3-2.8-3.1-5-5.2-6.4c-1.2-0.8-2.6-1.3-4.1-1.7l-3.9,8.7
				l1.5,3.3c0.2,0.2,0.4,0.5,0.6,0.8l7.1,16.4l4.5,10.1l0,0l0,0l3.2,7.1h13.7C-1768.2,6127.7-1768.3,6127.3-1768.4,6127z"/>
			<path class="st7" d="M-1782.5,6126.5c0.1,0.2,0.2,0.5,0.3,0.7c0.1,0.2,0.2,0.5,0.3,0.8h0.2l-3.2-7.1L-1782.5,6126.5z"/>
			<path class="st7" d="M-1815,6128c0-0.3,0.1-0.5,0.2-0.8c0.1-0.3,0.2-0.5,0.3-0.8l2.4-5.5l-3.2,7.1H-1815z"/>
			<path class="st7" d="M-1794.7,6081.7c-1.2-0.3-2.6-0.4-4-0.4c-1.4,0-2.6,0.1-3.7,0.4l3.9,8.7L-1794.7,6081.7z"/>
			<polygon class="st7" points="-2025.3,6103.9 -2025.3,6128 -2012.9,6128 -2012.9,6091.1 			"/>
			<polygon class="st7" points="-2012.9,6082.3 -2025.3,6082.3 -2025.3,6095.2 -2012.9,6082.4 			"/>
			<polygon class="st7" points="-2012.9,6082.4 -2025.3,6095.2 -2025.3,6103.9 -2012.9,6091.1 			"/>
		</g>
		<g>
			<g>
				<path class="st7" d="M-2091.7,6102c-0.6-4-2.5-7.6-5.1-10.4c-3.6-3.9-8.8-6.3-14.5-6.3h-0.7h-3.6c-1.5,0-2.7,1.2-2.7,2.7v20.8
					l5.4-17.2h1.6c1.5,0,3,0.3,4.4,0.7c4.4,1.5,7.7,5.2,8.8,9.7c0.2,1,0.4,2.1,0.4,3.1s-0.1,2.1-0.4,3.1c-1.4,6-6.8,10.4-13.2,10.4
					h-0.7v-0.6v-11.5v-6v-0.9v-1l-6.3,20.1v1v2.5c0,1.5,1.2,2.7,2.7,2.7h3.6h0.7c9.9,0,18.1-7.3,19.6-16.7c0.2-1,0.3-2.1,0.3-3.1
					S-2091.5,6103-2091.7,6102z"/>
				<polygon class="st7" points="-2127.6,6091.6 -2122.2,6091.6 -2121.3,6091.6 -2121.3,6088.5 -2121.3,6085.3 -2127.6,6085.3 				
					"/>
				<polygon class="st7" points="-2127.6,6094.6 -2127.6,6096.7 -2127.6,6102 -2127.6,6110.7 -2121.3,6094.6 				"/>
				<path class="st7" d="M-2127.6,6118.7L-2127.6,6118.7l-0.7,0c-0.4,0-0.8,0-1.2-0.1c-0.4,0-0.8-0.1-1.2-0.2
					c-0.2,0-0.4-0.1-0.6-0.1c-5.1-1.1-9.1-5.1-10.3-10.1c-0.2-1-0.4-2.1-0.4-3.1s0.1-2.1,0.4-3.1c1.1-4.8,4.8-8.6,9.5-9.9l0,0
					c0.8-0.2,1.4-1,1.4-1.9v-4.8c-8.8,1-15.9,7.9-17.3,16.6c-0.2,1-0.3,2.1-0.3,3.1s0.1,2.1,0.3,3.1c1.3,8.1,7.5,14.5,15.4,16.2
					c1,0.2,2,0.4,3,0.4c0.4,0,0.8,0,1.2,0h0.7h3.6c1.5,0,2.7-1.2,2.7-2.7v-3.6v-3v-0.5v-2v0V6102v-2L-2127.6,6118.7L-2127.6,6118.7z
					"/>
			</g>
			<g>
				<path class="st7" d="M-2087.4,6128h-64.8v-45.8h64.8V6128z M-2150.9,6126.7h62.2v-43.2h-62.2V6126.7z"/>
			</g>
		</g>
	</g>
</g>
<g>
	<rect x="-4649.6" y="5338.2" class="st4" width="1440" height="1020"/>
	<g>
		<g>
			<path class="st7" d="M-4072.7,5921.8c-0.6-0.6-0.9-1.8-0.9-3.4v-30h-12.5v31.1c0,2.5,0.3,4.7,0.8,6.6c0.5,1.9,1.3,3.5,2.5,4.7
				c1.2,1.3,2.7,2.2,4.7,2.8c1.9,0.6,4.3,0.9,7.2,0.9h33.7v-11.8h-32.2C-4071.1,5922.7-4072.1,5922.4-4072.7,5921.8z"/>
			<path class="st7" d="M-3932.7,5911.4c0-3.4-0.7-6.5-2-9.4c-1.3-2.9-3.2-5.4-5.5-7.6c-2.1-1.9-4.5-3.4-7.3-4.5
				c-2.8-1.1-6.1-1.6-9.8-1.6h-25c-2,0-3,1-3,2.9v40.3c0,2,1,2.9,3,2.9h25c4.2,0,7.8-0.7,10.8-2c3.1-1.3,5.7-3.2,7.8-5.5
				c1.9-2,3.3-4.4,4.4-7C-3933.2,5917.3-3932.7,5914.5-3932.7,5911.4z M-3945.8,5915.5c-0.5,1.3-1.2,2.4-2.1,3.3
				c-1,1.1-2.3,2-3.8,2.6c-1.5,0.6-3.4,1-5.6,1h-14.7c-0.6,0-0.9-0.3-0.9-1v-19.9c0-0.6,0.3-1,0.9-1h14.7c2.1,0,3.8,0.3,5.2,0.8
				c1.4,0.5,2.6,1.3,3.6,2.2c1.1,1,1.9,2.2,2.5,3.5c0.6,1.4,0.9,2.8,0.9,4.4C-3945.1,5912.9-3945.3,5914.3-3945.8,5915.5z"/>
			<path class="st7" d="M-3873.2,5933.5c-0.1-0.3-0.3-0.7-0.4-1l-16.7-36.6c-1.3-2.9-3.1-5-5.2-6.4c-2.2-1.4-4.9-2.1-8.1-2.1
				c-3.3,0-6.1,0.7-8.2,2.1c-2.2,1.4-3.9,3.5-5.2,6.4l-16.6,36.6c-0.2,0.4-0.3,0.7-0.4,1c-0.1,0.3-0.2,0.7-0.3,1h14l3.2-7.2l0,0l0,0
				l4.5-10.2l7.1-16.5c0.2-0.5,0.4-0.8,0.7-1l0.3-0.6l-0.3,0.6c0.1,0,0.1-0.1,0.2-0.1c0.4-0.2,0.8-0.3,1.2-0.3
				c0.5,0,0.9,0.1,1.2,0.3c0.1,0.1,0.2,0.2,0.3,0.3l-1.2-2.7l1.2,2.7c0.2,0.2,0.4,0.5,0.6,0.8l7.1,16.5l0,0l7.7,17.3h13.8
				C-3873,5934.2-3873.1,5933.8-3873.2,5933.5z"/>
			<path class="st7" d="M-3920.2,5934.5c0-0.3,0.1-0.5,0.2-0.8c0.1-0.3,0.2-0.5,0.3-0.8l2.4-5.5l-3.2,7.2H-3920.2z"/>
			<polygon class="st7" points="-3827.2,5888.4 -3880.3,5888.4 -3880.3,5900.6 -3860,5900.6 -3860,5934.5 -3847.5,5934.5 
				-3847.5,5900.6 -3827.2,5900.6 			"/>
			<path class="st7" d="M-3805.9,5900.7c0.2-0.5,0.4-0.8,0.7-1l1.4-3.1l-3.9-8.8c-1.7,0.3-3.2,0.9-4.5,1.7c-2.2,1.4-3.9,3.5-5.2,6.4
				l-16.6,36.6c-0.2,0.4-0.3,0.7-0.4,1c-0.1,0.3-0.2,0.7-0.3,1h14l3.2-7.2l0,0l0,0l4.5-10.2L-3805.9,5900.7z"/>
			<path class="st7" d="M-3805,5899.5c0.4-0.2,0.8-0.3,1.2-0.3c0.5,0,0.9,0.1,1.2,0.3c0.1,0.1,0.2,0.2,0.3,0.3l-1.5-3.3l-1.4,3.1
				C-3805.1,5899.6-3805.1,5899.6-3805,5899.5z"/>
			<path class="st7" d="M-3773.4,5933.5c-0.1-0.3-0.3-0.7-0.4-1l-16.7-36.6c-1.3-2.9-3.1-5-5.2-6.4c-1.2-0.8-2.6-1.3-4.1-1.7
				l-3.9,8.7l1.5,3.3c0.2,0.2,0.4,0.5,0.6,0.8l7.1,16.5l4.5,10.2l0,0l0,0l3.2,7.2h13.8C-3773.1,5934.2-3773.2,5933.8-3773.4,5933.5z
				"/>
			<path class="st7" d="M-3787.6,5932.9c0.1,0.2,0.2,0.5,0.3,0.7c0.1,0.3,0.2,0.5,0.3,0.9h0.2l-3.2-7.2L-3787.6,5932.9z"/>
			<path class="st7" d="M-3820.4,5934.5c0-0.3,0.1-0.5,0.2-0.8c0.1-0.3,0.2-0.5,0.3-0.8l2.4-5.5l-3.2,7.2H-3820.4z"/>
			<path class="st7" d="M-3799.9,5887.8c-1.2-0.3-2.6-0.4-4-0.4c-1.4,0-2.6,0.1-3.8,0.4l3.9,8.8L-3799.9,5887.8z"/>
			<polygon class="st7" points="-4032.4,5910.2 -4032.4,5934.5 -4019.9,5934.5 -4019.9,5897.3 			"/>
			<polygon class="st7" points="-4019.9,5888.4 -4032.4,5888.4 -4032.4,5901.4 -4019.9,5888.5 			"/>
		</g>
		<g>
			<path class="st7" d="M-3895,5761.9h-12.9v16.2h12.9c1.4,0,2.5,1.1,2.5,2.5v69c0,1.4-1.1,2.5-2.5,2.5h-12.8v16.2h12.8
				c10.3,0,18.6-8.4,18.6-18.6v-69C-3876.4,5770.3-3884.8,5761.9-3895,5761.9z"/>
			<path class="st7" d="M-3982.7,5780.6v69c0,9.2,6.6,16.8,15.4,18.3l-0.1,0.3h3.4h12.8v-16.2v-17.4l-8.4,17.4h-4.4
				c-1.4,0-2.5-1.1-2.5-2.5v-69c0-1.4,1.1-2.5,2.5-2.5h12.8v-16.2h-12.8C-3974.3,5761.9-3982.7,5770.3-3982.7,5780.6z"/>
			<path class="st7" d="M-3918.8,5781.2c-0.9,0.5-1.6,1.4-2.1,2.6c-0.4,0.9-0.6,3.2-0.5,6.9l0.1,48.5c0,3.8,0.2,6.1,0.6,7.1
				c0.4,0.9,1.2,1.8,2.3,2.5c1.1,0.7,2.7,1.1,4.6,1l2.3,0v-69.7l-2.4,0C-3916,5780.1-3917.6,5780.5-3918.8,5781.2z"/>
			<path class="st7" d="M-3940.3,5848.7c0.9-0.5,1.6-1.4,2-2.6c0.4-0.9,0.6-3.2,0.5-6.9l-0.1-48.5c0-3.8-0.2-6.1-0.6-7.1
				c-0.4-0.9-1.1-1.8-2.3-2.5c-1.1-0.7-2.7-1.1-4.6-1l-2.3,0v69.7l2.4,0C-3943.2,5849.8-3941.5,5849.4-3940.3,5848.7z"/>
			<polygon class="st7" points="-3947.6,5852.1 -3947.6,5868.2 -3931.4,5868.2 -3911.5,5868.2 -3911.5,5852.1 -3931.4,5852.1 			"/>
			<polygon class="st7" points="-3947.6,5761.9 -3947.6,5778.1 -3931.4,5778.1 -3928.4,5778.1 -3911.5,5778.1 -3911.5,5761.9 
				-3931.4,5761.9 			"/>
		</g>
	</g>
</g>
<g class="st1">
	<rect x="3648.8" y="3525.8" class="st8" width="8.3" height="164.7"/>
	<path class="st8" d="M3576.2,3525.8c-3,0-5.5,2.5-5.5,5.5v153.7c0,3,2.5,5.5,5.5,5.5h36.7v-164.7H3576.2z"/>
	<path class="st8" d="M3729.8,3690.4c3,0,5.5-2.5,5.5-5.5v-153.7c0-3-2.5-5.5-5.5-5.5h-36.7v164.7H3729.8z"/>
	<path class="st2" d="M3729.8,3489.8h-36.7v36h36.7c3,0,5.5,2.5,5.5,5.5v153.7c0,3-2.5,5.5-5.5,5.5h-36.7v36h36.7
		c22.9,0,41.5-18.6,41.5-41.5v-153.7C3771.3,3508.4,3752.7,3489.8,3729.8,3489.8z"/>
	<rect x="3740.8" y="3381.8" class="st2" width="8.3" height="36"/>
	<rect x="3868.4" y="3381.8" class="st2" width="8.3" height="36"/>
	<path class="st2" d="M3576.2,3690.4c-3,0-5.5-2.5-5.5-5.5v-153.7c0-3,2.5-5.5,5.5-5.5h36.7v-36h-36.7c-22.9,0-41.5,18.6-41.5,41.5
		v153.7c0,22.9,18.6,41.5,41.5,41.5h36.7v-36H3576.2z"/>
	<rect x="3612.8" y="3690.4" class="st2" width="36" height="36"/>
	<rect x="3612.8" y="3489.8" class="st2" width="36" height="36"/>
	<rect x="3612.8" y="3525.8" class="st2" width="80.3" height="164.7"/>
	<polygon class="st2" points="3896.9,3651.8 3860.9,3726.4 3896.9,3726.4 	"/>
	<rect x="3787.9" y="3370.8" class="st2" width="36" height="74.7"/>
	<rect x="3301.7" y="3653.1" class="st2" width="36" height="74.7"/>
	<rect x="3612.8" y="3690.4" class="st2" width="80.3" height="36"/>
	<rect x="3612.8" y="3489.8" class="st2" width="80.3" height="36"/>
	<path class="st9" d="M3693.1,3685.3l0,4.5l-79.9,0.2l0-4.5l5.1,0c4.4,0,8-0.9,10.7-2.6c2-1.1,3.5-3.1,4.5-5.8
		c0.8-1.9,1.2-7,1.2-15.3l-0.2-107.9c0-8.4-0.4-13.6-1.3-15.7c-0.8-2.1-2.5-3.9-5-5.5c-2.5-1.6-5.9-2.3-10.2-2.3l-5.1,0l0-4.5
		l79.9-0.2l0,4.5l-5.1,0c-4.4,0-8,0.9-10.7,2.6c-2,1.1-3.5,3.1-4.6,5.8c-0.8,1.9-1.2,7-1.2,15.3l0.2,107.9c0,8.4,0.5,13.6,1.3,15.7
		c0.9,2.1,2.6,3.9,5.1,5.5c2.5,1.6,5.9,2.3,10.2,2.3L3693.1,3685.3z"/>
	<rect x="3941.2" y="3525.8" class="st8" width="8.3" height="164.7"/>
	<path class="st8" d="M3868.5,3525.8c-3,0-5.5,2.5-5.5,5.5v153.7c0,3,2.5,5.5,5.5,5.5h36.7v-164.7H3868.5z"/>
	<path class="st8" d="M4022.1,3690.4c3,0,5.5-2.5,5.5-5.5v-153.7c0-3-2.5-5.5-5.5-5.5h-36.7v164.7H4022.1z"/>
	<path class="st8" d="M3863,3531.3v153.7c0,3,2.5,5.5,5.5,5.5h28.4v-164.7h-28.4C3865.4,3525.8,3863,3528.2,3863,3531.3z"/>
	<rect x="3829.7" y="3312.7" class="st2" width="164.7" height="8.3"/>
	<path class="st2" d="M4022.1,3489.8h-28.7v36h28.7c3,0,5.5,2.5,5.5,5.5v153.7c0,3-2.5,5.5-5.5,5.5h-28.4v36h28.4
		c22.9,0,41.5-18.6,41.5-41.5v-153.7C4063.6,3508.4,4045,3489.8,4022.1,3489.8z"/>
	<path class="st2" d="M3868.5,3690.4c-3,0-5.5-2.5-5.5-5.5v-153.7c0-3,2.5-5.5,5.5-5.5h28.4v-36h-28.4c-22.9,0-41.5,18.6-41.5,41.5
		v153.7c0,22.9,18.6,41.5,41.5,41.5h28.4v-36H3868.5z"/>
	<rect x="3905.2" y="3690.4" class="st2" width="36" height="36"/>
	<rect x="3905.2" y="3489.8" class="st2" width="36" height="36"/>
	<rect x="3905.2" y="3525.8" class="st2" width="80.3" height="164.7"/>
	<rect x="3905.2" y="3690.4" class="st2" width="80.3" height="36"/>
	<rect x="3905.2" y="3489.8" class="st2" width="80.3" height="36"/>
	<path class="st9" d="M3985.4,3685.3l0,4.5l-79.9,0.2l0-4.5l5.1,0c4.4,0,8-0.9,10.7-2.6c2-1.1,3.5-3.1,4.5-5.8
		c0.8-1.9,1.2-7,1.2-15.3l-0.2-107.9c0-8.4-0.4-13.6-1.3-15.7c-0.8-2.1-2.5-3.9-5-5.5c-2.5-1.6-5.9-2.3-10.2-2.3l-5.1,0l0-4.5
		l79.9-0.2l0,4.5l-5.1,0c-4.4,0-8,0.9-10.7,2.6c-2,1.1-3.5,3.1-4.6,5.8c-0.8,1.9-1.2,7-1.2,15.3l0.2,107.9c0,8.4,0.5,13.6,1.3,15.7
		c0.9,2.1,2.6,3.9,5.1,5.5c2.5,1.6,5.9,2.3,10.2,2.3L3985.4,3685.3z"/>
	<polygon class="st2" points="4201.7,3928 4165.7,4002.6 4201.7,4002.6 	"/>
	<rect x="4246" y="3802" class="st8" width="8.3" height="164.7"/>
	<path class="st8" d="M4173.3,3802c-3,0-5.5,2.5-5.5,5.5v153.7c0,3,2.5,5.5,5.5,5.5h36.7V3802H4173.3z"/>
	<path class="st8" d="M4326.9,3966.6c3,0,5.5-2.5,5.5-5.5v-153.7c0-3-2.5-5.5-5.5-5.5h-36.7v164.7H4326.9z"/>
	<path class="st8" d="M4167.8,3807.5v153.7c0,3,2.5,5.5,5.5,5.5h28.4V3802h-28.4C4170.3,3802,4167.8,3804.4,4167.8,3807.5z"/>
	<path class="st2" d="M4326.9,3766h-28.7v7.6c0,15.7,12.7,28.4,28.4,28.4h0.3c3,0,5.5,2.5,5.5,5.5v153.7c0,3-2.5,5.5-5.5,5.5l0,0
		c-15.7,0-28.4,12.7-28.4,28.4v7.6h28.4c22.9,0,41.5-18.6,41.5-41.5v-153.7C4368.4,3784.6,4349.9,3766,4326.9,3766z"/>
	<path class="st2" d="M4173.3,3966.6c-3,0-5.5-2.5-5.5-5.5v-153.7c0-3,2.5-5.5,5.5-5.5l0,0c15.7,0,28.4-12.7,28.4-28.4v-7.6h-28.4
		c-22.9,0-41.5,18.6-41.5,41.5v153.7c0,22.9,18.6,41.5,41.5,41.5h28.4v-36H4173.3z"/>
	<rect x="4210" y="3802" class="st2" width="80.3" height="164.7"/>
	<path class="st2" d="M4210,3966.6L4210,3966.6c0,19.9,16.1,36,36,36h8.3c19.9,0,36-16.1,36-36l0,0H4210z"/>
	<path class="st2" d="M4290.3,3802L4290.3,3802c0-19.9-16.1-36-36-36h-8.3c-19.9,0-36,16.1-36,36l0,0H4290.3z"/>
	<path class="st9" d="M4290.3,3961.5l0,4.5l-79.9,0.2l0-4.5l5.1,0c4.4,0,8-0.9,10.7-2.6c2-1.1,3.5-3.1,4.5-5.8
		c0.8-1.9,1.2-7,1.2-15.3l-0.2-107.9c0-8.4-0.4-13.6-1.3-15.7c-0.8-2.1-2.5-3.9-5-5.5c-2.5-1.6-5.9-2.3-10.2-2.3l-5.1,0l0-4.5
		l79.9-0.2l0,4.5l-5.1,0c-4.4,0-8,0.9-10.7,2.6c-2,1.1-3.5,3.1-4.6,5.8c-0.8,1.9-1.2,7-1.2,15.3l0.2,107.9c0,8.4,0.5,13.6,1.3,15.7
		c0.9,2.1,2.6,3.9,5.1,5.5c2.5,1.6,5.9,2.3,10.2,2.3L4290.3,3961.5z"/>
	<polygon class="st2" points="4187.9,3651.8 4151.9,3726.4 4187.9,3726.4 	"/>
	<polygon class="st2" points="4283.7,3651.8 4319.7,3726.4 4283.7,3726.4 	"/>
	<rect x="4232.2" y="3525.8" class="st8" width="8.3" height="164.7"/>
	<path class="st8" d="M4159.5,3525.8c-3,0-5.5,2.5-5.5,5.5v153.7c0,3,2.5,5.5,5.5,5.5h36.7v-164.7H4159.5z"/>
	<path class="st8" d="M4313.1,3690.4c3,0,5.5-2.5,5.5-5.5v-153.7c0-3-2.5-5.5-5.5-5.5h-36.7v164.7H4313.1z"/>
	<path class="st8" d="M4154,3531.3v153.7c0,3,2.5,5.5,5.5,5.5h28.4v-164.7h-28.4C4156.4,3525.8,4154,3528.2,4154,3531.3z"/>
	<path class="st2" d="M4313.1,3489.8h-28.7v36h28.7c3,0,5.5,2.5,5.5,5.5v153.7c0,3-2.5,5.5-5.5,5.5h-28.4v36h28.4
		c22.9,0,41.5-18.6,41.5-41.5v-153.7C4354.6,3508.4,4336,3489.8,4313.1,3489.8z"/>
	<path class="st2" d="M4159.5,3690.4c-3,0-5.5-2.5-5.5-5.5v-153.7c0-3,2.5-5.5,5.5-5.5h28.4v-36h-28.4c-22.9,0-41.5,18.6-41.5,41.5
		v153.7c0,22.9,18.6,41.5,41.5,41.5h28.4v-36H4159.5z"/>
	<rect x="4196.2" y="3690.4" class="st2" width="36" height="36"/>
	<rect x="4196.2" y="3489.8" class="st2" width="36" height="36"/>
	<rect x="4196.2" y="3525.8" class="st2" width="80.3" height="164.7"/>
	<rect x="4196.2" y="3690.4" class="st2" width="80.3" height="36"/>
	<rect x="4196.2" y="3489.8" class="st2" width="80.3" height="36"/>
	<path class="st9" d="M4276.4,3719.2l0,6.4l-79.9,0.3l0-6.4l5.1,0c4.4,0,8-1.3,10.7-3.7c2-1.6,3.5-4.4,4.5-8.4
		c0.8-2.8,1.2-10.1,1.2-21.9l-0.2-155.2c0-12.1-0.4-19.6-1.3-22.6c-0.8-3-2.5-5.6-5-7.9c-2.5-2.2-5.9-3.4-10.2-3.3l-5.1,0l0-6.4
		l79.9-0.3l0,6.4l-5.1,0c-4.4,0-8,1.2-10.7,3.7c-2,1.6-3.5,4.4-4.6,8.4c-0.8,2.8-1.2,10.1-1.2,21.9l0.2,155.2
		c0,12.1,0.5,19.6,1.3,22.6c0.9,3,2.6,5.6,5.1,7.9c2.5,2.3,5.9,3.4,10.2,3.4L4276.4,3719.2z"/>
	<polygon class="st2" points="3304.2,3921.8 3268.2,3996.5 3304.2,3996.5 	"/>
	<polygon class="st2" points="3400.1,3921.8 3436.1,3996.5 3400.1,3996.5 	"/>
	<polygon class="st2" points="3400.8,3834.5 3436.8,3759.8 3400.8,3759.8 	"/>
	<rect x="3348.5" y="3795.8" class="st8" width="8.3" height="164.7"/>
	<path class="st8" d="M3275.8,3795.8c-3,0-5.5,2.5-5.5,5.5V3955c0,3,2.5,5.5,5.5,5.5h36.7v-164.7H3275.8z"/>
	<path class="st8" d="M3429.5,3960.5c3,0,5.5-2.5,5.5-5.5v-153.7c0-3-2.5-5.5-5.5-5.5h-36.7v164.7H3429.5z"/>
	<path class="st8" d="M3270.3,3801.3V3955c0,3,2.5,5.5,5.5,5.5h28.4v-164.7h-28.4C3272.8,3795.8,3270.3,3798.3,3270.3,3801.3z"/>
	<path class="st2" d="M3429.5,3759.8h-28.7v36h28.7c3,0,5.5,2.5,5.5,5.5V3955c0,3-2.5,5.5-5.5,5.5h-28.4v36h28.4
		c22.9,0,41.5-18.6,41.5-41.5v-153.7C3471,3778.4,3452.4,3759.8,3429.5,3759.8z"/>
	<path class="st2" d="M3275.8,3960.5c-3,0-5.5-2.5-5.5-5.5v-153.7c0-3,2.5-5.5,5.5-5.5h28.4v-36h-28.4c-22.9,0-41.5,18.6-41.5,41.5
		V3955c0,22.9,18.6,41.5,41.5,41.5h28.4v-36H3275.8z"/>
	<rect x="3312.5" y="3960.5" class="st2" width="36" height="36"/>
	<rect x="3312.5" y="3759.8" class="st2" width="36" height="36"/>
	<rect x="3312.5" y="3795.8" class="st2" width="80.3" height="164.7"/>
	<rect x="3312.5" y="3960.5" class="st2" width="80.3" height="36"/>
	<rect x="3312.5" y="3759.8" class="st2" width="80.3" height="36"/>
	<path class="st9" d="M3392.8,3989.2l0,6.4l-79.9,0.3l0-6.4l5.1,0c4.4,0,8-1.3,10.7-3.7c2-1.6,3.5-4.4,4.5-8.4
		c0.8-2.8,1.2-10.1,1.2-21.9l-0.2-155.2c0-12.1-0.4-19.6-1.3-22.6c-0.8-3-2.5-5.6-5-7.9c-2.5-2.2-5.9-3.4-10.2-3.3l-5.1,0l0-6.4
		l79.9-0.3l0,6.4l-5.1,0c-4.4,0-8,1.2-10.7,3.7c-2,1.6-3.5,4.4-4.6,8.4c-0.8,2.8-1.2,10.1-1.2,21.9l0.2,155.2
		c0,12.1,0.5,19.6,1.3,22.6c0.9,3,2.6,5.6,5.1,7.9c2.5,2.3,5.9,3.4,10.2,3.4L3392.8,3989.2z"/>
	<polygon class="st2" points="3612.3,3921.8 3576.3,3996.5 3612.3,3996.5 	"/>
	<polygon class="st2" points="3708.1,3878.1 3744.1,3996.5 3708.1,3996.5 	"/>
	<polygon class="st2" points="3708.8,3878.1 3744.8,3759.8 3708.8,3759.8 	"/>
	<rect x="3656.5" y="3795.8" class="st8" width="8.3" height="164.7"/>
	<path class="st8" d="M3583.9,3795.8c-3,0-5.5,2.5-5.5,5.5V3955c0,3,2.5,5.5,5.5,5.5h36.7v-164.7H3583.9z"/>
	<path class="st8" d="M3737.5,3960.5c3,0,5.5-2.5,5.5-5.5v-153.7c0-3-2.5-5.5-5.5-5.5h-36.7v164.7H3737.5z"/>
	<path class="st8" d="M3578.4,3801.3V3955c0,3,2.5,5.5,5.5,5.5h28.4v-164.7h-28.4C3580.8,3795.8,3578.4,3798.3,3578.4,3801.3z"/>
	<path class="st2" d="M3737.5,3759.8h-28.7v36h28.7c3,0,5.5,2.5,5.5,5.5V3955c0,3-2.5,5.5-5.5,5.5h-28.4v36h28.4
		c22.9,0,41.5-18.6,41.5-41.5v-153.7C3779,3778.4,3760.4,3759.8,3737.5,3759.8z"/>
	<path class="st2" d="M3583.9,3960.5c-3,0-5.5-2.5-5.5-5.5v-153.7c0-3,2.5-5.5,5.5-5.5h28.4v-36h-28.4c-22.9,0-41.5,18.6-41.5,41.5
		V3955c0,22.9,18.6,41.5,41.5,41.5h28.4v-36H3583.9z"/>
	<rect x="3620.5" y="3960.5" class="st2" width="36" height="36"/>
	<rect x="3620.5" y="3759.8" class="st2" width="36" height="36"/>
	<rect x="3620.5" y="3795.8" class="st2" width="80.3" height="164.7"/>
	<rect x="3620.5" y="3960.5" class="st2" width="80.3" height="36"/>
	<rect x="3620.5" y="3759.8" class="st2" width="80.3" height="36"/>
	<path class="st9" d="M3700.8,3989.2l0,6.4l-79.9,0.3l0-6.4l5.1,0c4.4,0,8-1.3,10.7-3.7c2-1.6,3.5-4.4,4.5-8.4
		c0.8-2.8,1.2-10.1,1.2-21.9l-0.2-155.2c0-12.1-0.4-19.6-1.3-22.6c-0.8-3-2.5-5.6-5-7.9c-2.5-2.2-5.9-3.4-10.2-3.3l-5.1,0l0-6.4
		l79.9-0.3l0,6.4l-5.1,0c-4.4,0-8,1.2-10.7,3.7c-2,1.6-3.5,4.4-4.6,8.4c-0.8,2.8-1.2,10.1-1.2,21.9l0.2,155.2
		c0,12.1,0.5,19.6,1.3,22.6c0.9,3,2.6,5.6,5.1,7.9c2.5,2.3,5.9,3.4,10.2,3.4L3700.8,3989.2z"/>
	<polygon class="st2" points="3896.9,3921.8 3860.9,3996.5 3896.9,3996.5 	"/>
	<polygon class="st2" points="3992.7,3878.1 4028.7,3996.5 3992.7,3996.5 	"/>
	<polygon class="st2" points="3993.4,3878.1 4029.4,3759.8 3993.4,3759.8 	"/>
	<rect x="3941.2" y="3795.8" class="st8" width="8.3" height="164.7"/>
	<path class="st8" d="M3868.5,3795.8c-3,0-5.5,2.5-5.5,5.5V3955c0,3,2.5,5.5,5.5,5.5h36.7v-164.7H3868.5z"/>
	<path class="st8" d="M4022.1,3960.5c3,0,5.5-2.5,5.5-5.5v-153.7c0-3-2.5-5.5-5.5-5.5h-36.7v164.7H4022.1z"/>
	<path class="st8" d="M3863,3801.3V3955c0,3,2.5,5.5,5.5,5.5h28.4v-164.7h-28.4C3865.4,3795.8,3863,3798.3,3863,3801.3z"/>
	<path class="st2" d="M4022.1,3759.8h-28.7v36h28.7c3,0,5.5,2.5,5.5,5.5V3955c0,3-2.5,5.5-5.5,5.5h-28.4v36h28.4
		c22.9,0,41.5-18.6,41.5-41.5v-153.7C4063.6,3778.4,4045,3759.8,4022.1,3759.8z"/>
	<path class="st2" d="M3868.5,3960.5c-3,0-5.5-2.5-5.5-5.5v-153.7c0-3,2.5-5.5,5.5-5.5h28.4v-36h-28.4c-22.9,0-41.5,18.6-41.5,41.5
		V3955c0,22.9,18.6,41.5,41.5,41.5h28.4v-36H3868.5z"/>
	<rect x="3905.2" y="3960.5" class="st2" width="36" height="36"/>
	<rect x="3905.2" y="3759.8" class="st2" width="36" height="36"/>
	<rect x="3905.2" y="3804.1" class="st2" width="80.3" height="156.4"/>
	<rect x="3905.2" y="3960.5" class="st2" width="80.3" height="36"/>
	<rect x="3905.2" y="3759.8" class="st2" width="80.3" height="36"/>
	<rect x="3349.3" y="3525.8" class="st8" width="8.3" height="164.7"/>
	<path class="st8" d="M3276.6,3525.8c-3,0-5.5,2.5-5.5,5.5v153.7c0,3,2.5,5.5,5.5,5.5h36.7v-164.7H3276.6z"/>
	<path class="st8" d="M3430.3,3690.4c3,0,5.5-2.5,5.5-5.5v-153.7c0-3-2.5-5.5-5.5-5.5h-36.7v164.7H3430.3z"/>
	<path class="st2" d="M3471.8,3489.8h-78.2v36h36.7c3,0,5.5,2.5,5.5,5.5v153.7c0,3-2.5,5.5-5.5,5.5h-36.7v36h78.2V3489.8z"/>
	<path class="st2" d="M3276.6,3690.4c-3,0-5.5-2.5-5.5-5.5v-153.7c0-3,2.5-5.5,5.5-5.5h36.7v-36h-78.2v236.7h78.2v-36H3276.6z"/>
	<rect x="3313.3" y="3690.4" class="st2" width="36" height="36"/>
	<rect x="3313.3" y="3489.8" class="st2" width="36" height="36"/>
	<rect x="3335" y="3525.8" class="st2" width="58.6" height="164.7"/>
	<rect x="3313.3" y="3690.4" class="st2" width="80.3" height="36"/>
	<rect x="3313.3" y="3489.8" class="st2" width="80.3" height="36"/>
	<path class="st9" d="M3393.6,3719.2l0,6.4l-79.9,0.3l0-6.4l5.1,0c4.4,0,8-1.3,10.7-3.7c2-1.6,3.5-4.4,4.5-8.4
		c0.8-2.8,1.2-10.1,1.2-21.9l-0.2-155.2c0-12.1-0.4-19.6-1.3-22.6c-0.8-3-2.5-5.6-5-7.9c-2.5-2.2-5.9-3.4-10.2-3.4l-5.1,0l0-6.4
		l79.9-0.3l0,6.4l-5.1,0c-4.4,0-8,1.2-10.7,3.7c-2,1.6-3.5,4.4-4.6,8.4c-0.8,2.8-1.2,10.1-1.2,21.9l0.2,155.2
		c0,12.1,0.5,19.6,1.3,22.6c0.9,3,2.6,5.6,5.1,7.9c2.5,2.3,5.9,3.4,10.2,3.4L3393.6,3719.2z"/>
</g>
<g class="st1">
	<polygon class="st2" points="2362.7,1195.7 2362.7,1168 2356,1164.2 2356,1191.9 	"/>
	<polygon class="st2" points="2317.6,1277.5 2275.9,1301.6 2275.9,1329.3 2365.6,1277.5 2275.9,1225.7 2275.9,1253.4 	"/>
	<polygon class="st2" points="2394.3,1163.4 2370.3,1163.4 2370.3,1211.8 2394.3,1225.7 	"/>
	<polygon class="st2" points="2251.9,1239.5 2251.9,1315.4 2275.9,1301.6 2275.9,1253.4 	"/>
	<polygon class="st2" points="2275.9,1301.6 2251.9,1315.4 2251.9,1343.1 2275.9,1329.3 	"/>
	<polygon class="st2" points="2275.9,1253.4 2275.9,1225.7 2251.9,1211.8 2251.9,1239.5 	"/>
	<polygon class="st2" points="2213,1337.9 2213,1365.6 2221.2,1360.9 2221.2,1333.1 	"/>
	<polygon class="st2" points="2213,1217.1 2213,1189.4 2189,1175.5 2189,1379.5 2213,1365.6 2213,1337.9 	"/>
	<polygon class="st2" points="2221.2,1360.9 2245.2,1347 2245.2,1319.3 2221.2,1333.1 	"/>
	<polygon class="st2" points="2221.2,1194.1 2221.2,1221.8 2245.2,1235.7 2245.2,1208 	"/>
	<polygon class="st2" points="2245.2,1235.7 2221.2,1221.8 2221.2,1222.1 2245.2,1235.8 	"/>
	<polygon class="st2" points="2245.2,1319.1 2228.8,1328.7 2245.2,1319.3 	"/>
	<polygon class="st2" points="2245.2,1243.5 2221.2,1229.8 2221.2,1325.5 2245.2,1311.3 	"/>
	<rect x="2296.9" y="1149.6" class="st2" width="106.2" height="6.7"/>
	<polygon class="st2" points="2356,1197.2 2326.4,1214 2326.4,1221.8 2332.8,1218 2356,1204.9 	"/>
</g>
<g>
	<rect x="-6186.3" y="5848.2" width="720" height="510"/>
	<rect x="-5466.3" y="5848.2" class="st10" width="720" height="510"/>
	<g>
		<rect x="-5582.4" y="5679.9" width="14.1" height="13.9"/>
		<path d="M-5495.6,5693.7h-2C-5496.9,5693.7-5496.2,5693.8-5495.6,5693.7L-5495.6,5693.7z"/>
		<path d="M-5418.7,5730.4c0.1,0.3,0.2,0.5,0.3,0.8c0.1,0.3,0.2,0.6,0.3,1h0.2l-3.6-8.1L-5418.7,5730.4z"/>
		<path d="M-5627.9,5717.8c-0.6-0.7-1-2-1-3.9v-34h-14.1v35.3c0,2.8,0.3,5.3,0.9,7.5c0.6,2.1,1.5,3.9,2.8,5.3
			c1.3,1.4,3.1,2.5,5.3,3.2c2.2,0.7,4.9,1,8.1,1h38v-13.4h-36.3C-5626,5718.8-5627.2,5718.5-5627.9,5717.8z"/>
		<rect x="-5582.4" y="5701" width="14.1" height="31.2"/>
		<path d="M-5472,5695.4c-1.5-3.3-3.6-6.2-6.2-8.6c-2.3-2.2-5.1-3.9-8.2-5.1c-3.2-1.2-6.9-1.8-11.1-1.8h-28.3
			c-2.3,0-3.4,1.1-3.4,3.3v10.6h15h16.6h2v0.1c1.5,0.1,2.8,0.4,3.9,0.8c1.5,0.6,2.9,1.4,4,2.5c1.2,1.1,2.1,2.5,2.8,4
			c0.7,1.5,1,3.2,1,5c0,1.6-0.3,3.1-0.9,4.5c-0.6,1.4-1.4,2.7-2.4,3.8c-1.1,1.2-2.6,2.2-4.3,2.9c-1.7,0.7-3.8,1.1-6.3,1.1h-16.6
			c-0.7,0-1-0.4-1-1.1V5701h-14v27.9c0,2.2,1.1,3.3,3.4,3.3h28.3c4.7,0,8.8-0.8,12.2-2.3c3.5-1.5,6.4-3.6,8.8-6.2c2.1-2.3,3.8-5,5-8
			c1.2-3,1.8-6.2,1.8-9.7C-5469.8,5702.2-5470.5,5698.7-5472,5695.4z"/>
		<path d="M-5403.1,5729.9l-18.9-41.5c-1.5-3.3-3.5-5.7-5.9-7.3c-2.5-1.6-5.5-2.4-9.2-2.4c-3.8,0-6.9,0.8-9.3,2.4
			c-2.4,1.6-4.4,4-5.9,7.3l-18.7,41.5c-0.2,0.4-0.4,0.8-0.5,1.2c-0.1,0.4-0.2,0.7-0.3,1.2h16.2c0.1-0.3,0.1-0.6,0.2-0.9
			c0.1-0.3,0.2-0.6,0.3-0.9l2.7-6.3l-2.2,4.9l2.2-4.9l0,0l0,0l5.1-11.5l0,0l8-18.7c0.3-0.6,0.6-1,1-1.3c0.4-0.2,0.9-0.3,1.3-0.3
			c0.5,0,1,0.1,1.4,0.4c0.4,0.3,0.7,0.7,1,1.2l8.1,18.7l0,0l5.1,11.5l0,0l0,0l3.6,8.1h15.6c-0.1-0.4-0.2-0.8-0.3-1.2
			C-5402.7,5730.7-5402.9,5730.3-5403.1,5729.9z"/>
		<polygon points="-5350.7,5679.9 -5410.7,5679.9 -5410.7,5693.7 -5387.7,5693.7 -5387.7,5732.2 -5373.6,5732.2 -5373.6,5693.7 
			-5350.7,5693.7 		"/>
		<path d="M-5289.9,5731.1c-0.1-0.4-0.3-0.7-0.5-1.2l-18.9-41.5c-1.5-3.3-3.5-5.7-5.9-7.3c-2.5-1.6-5.5-2.4-9.2-2.4
			c-3.8,0-6.9,0.8-9.3,2.4c-2.4,1.6-4.4,4-5.9,7.3l-18.7,41.5c-0.2,0.4-0.4,0.8-0.5,1.2c-0.1,0.4-0.2,0.7-0.3,1.2h16.2
			c0.1-0.3,0.1-0.6,0.2-0.9c0.1-0.3,0.2-0.6,0.3-0.9l2.7-6.3l-2.6,5.9l2.6-5.9l0,0l0,0l5.1-11.5l8-18.7c0.3-0.6,0.6-1,1-1.3
			c0.4-0.2,0.9-0.3,1.3-0.3c0.5,0,1,0.1,1.4,0.4c0.4,0.3,0.7,0.7,1,1.2l8.1,18.7l5.1,11.5l0,0l0,0l3.1,7l-3.1-7l2.8,6.3
			c0.1,0.3,0.2,0.5,0.3,0.8c0.1,0.3,0.2,0.6,0.3,1h15.8C-5289.7,5731.8-5289.8,5731.4-5289.9,5731.1z"/>
	</g>
	<g>
		<path d="M-5405.4,5562.6l-55.5-32.1l-20.1-11.6v23.2v63.4v23.2l20.1-11.6l55.5-32.1C-5396.8,5580-5396.8,5567.5-5405.4,5562.6z
			 M-5460.9,5593.9v-40.3l34.9,20.1L-5460.9,5593.9z"/>
		<path d="M-5513.5,5624.3v-101v-23.2l-0.6-0.3c-8.6-5-19.5,1.2-19.5,11.2v125.5c0,10,10.8,16.2,19.5,11.2l0.6-0.3l6.9-4l20.1-11.6
			v-23.2l-20.1,11.6L-5513.5,5624.3z"/>
		<polygon points="-5506.7,5527.3 -5506.7,5527.5 -5486.6,5538.9 -5486.6,5538.8 -5486.6,5515.7 -5506.7,5504.1 		"/>
		<polygon points="-5486.6,5608.7 -5486.6,5608.6 -5500.3,5616.6 		"/>
		<polygon points="-5506.7,5613.9 -5486.6,5602 -5486.6,5545.4 -5506.7,5533.9 		"/>
	</g>
	<g>
		<g>
			<rect x="-5895.6" y="6077.6" class="st7" width="14.1" height="13.9"/>
			<path class="st7" d="M-5808.8,6091.5h-2C-5810.1,6091.5-5809.4,6091.5-5808.8,6091.5L-5808.8,6091.5z"/>
			<path class="st7" d="M-5731.9,6128.2c0.1,0.3,0.2,0.5,0.3,0.8c0.1,0.3,0.2,0.6,0.3,1h0.2l-3.6-8.1L-5731.9,6128.2z"/>
			<path class="st7" d="M-5941,6115.5c-0.6-0.7-1-2-1-3.9v-34h-14.1v35.3c0,2.8,0.3,5.3,0.9,7.5c0.6,2.1,1.5,3.9,2.8,5.3
				c1.3,1.4,3.1,2.5,5.3,3.2c2.2,0.7,4.9,1,8.1,1h38v-13.4h-36.3C-5939.2,6116.6-5940.4,6116.2-5941,6115.5z"/>
			<rect x="-5895.6" y="6098.7" class="st7" width="14.1" height="31.2"/>
			<path class="st7" d="M-5785.2,6093.1c-1.5-3.3-3.6-6.2-6.2-8.6c-2.3-2.2-5.1-3.9-8.2-5.1c-3.2-1.2-6.9-1.8-11.1-1.8h-28.3
				c-2.3,0-3.4,1.1-3.4,3.3v10.6h15h16.6h2v0.1c1.5,0.1,2.8,0.4,3.9,0.8c1.5,0.6,2.9,1.4,4,2.5c1.2,1.1,2.1,2.5,2.8,4
				c0.7,1.5,1,3.2,1,5c0,1.6-0.3,3.1-0.9,4.5c-0.6,1.4-1.4,2.7-2.4,3.8c-1.1,1.2-2.6,2.2-4.3,2.9c-1.7,0.7-3.8,1.1-6.3,1.1h-16.6
				c-0.7,0-1-0.4-1-1.1v-16.4h-14v27.9c0,2.2,1.1,3.3,3.4,3.3h28.3c4.7,0,8.8-0.8,12.2-2.3c3.5-1.5,6.4-3.6,8.8-6.2
				c2.1-2.3,3.8-5,5-8c1.2-3,1.8-6.2,1.8-9.7C-5783,6100-5783.7,6096.4-5785.2,6093.1z"/>
			<path class="st7" d="M-5716.3,6127.7l-18.9-41.5c-1.5-3.3-3.5-5.7-5.9-7.3c-2.5-1.6-5.5-2.4-9.2-2.4c-3.8,0-6.9,0.8-9.3,2.4
				c-2.4,1.6-4.4,4-5.9,7.3l-18.7,41.5c-0.2,0.4-0.4,0.8-0.5,1.2c-0.1,0.4-0.2,0.8-0.3,1.2h16.2c0-0.3,0.1-0.6,0.2-0.9
				c0.1-0.3,0.2-0.6,0.3-0.9l2.7-6.3l-2.2,4.9l2.2-4.9l0,0l0,0l5.1-11.5l0,0l8-18.7c0.3-0.6,0.6-1,1-1.3c0.4-0.2,0.9-0.3,1.3-0.3
				c0.5,0,1,0.1,1.4,0.4c0.4,0.3,0.7,0.7,1,1.2l8.1,18.7l0,0l5.1,11.5l0,0l0,0l3.6,8.1h15.6c-0.1-0.4-0.2-0.8-0.3-1.2
				C-5715.9,6128.5-5716.1,6128.1-5716.3,6127.7z"/>
			<polygon class="st7" points="-5663.9,6077.6 -5723.9,6077.6 -5723.9,6091.5 -5700.9,6091.5 -5700.9,6130 -5686.8,6130 
				-5686.8,6091.5 -5663.9,6091.5 			"/>
			<path class="st7" d="M-5603.1,6128.8c-0.1-0.4-0.3-0.7-0.5-1.2l-18.9-41.5c-1.5-3.3-3.5-5.7-5.9-7.3c-2.5-1.6-5.5-2.4-9.2-2.4
				c-3.8,0-6.9,0.8-9.3,2.4c-2.4,1.6-4.4,4-5.9,7.3l-18.7,41.5c-0.2,0.4-0.4,0.8-0.5,1.2c-0.1,0.4-0.2,0.8-0.3,1.2h16.2
				c0.1-0.3,0.1-0.6,0.2-0.9c0.1-0.3,0.2-0.6,0.3-0.9l2.7-6.3l-2.6,5.9l2.6-5.9l0,0l0,0l5.1-11.5l8-18.7c0.3-0.6,0.6-1,1-1.3
				c0.4-0.2,0.9-0.3,1.3-0.3c0.5,0,1,0.1,1.4,0.4c0.4,0.3,0.7,0.7,1,1.2l8.1,18.7l5.1,11.5l0,0l0,0l3.1,7l-3.1-7l2.8,6.3
				c0.1,0.3,0.2,0.5,0.3,0.8c0.1,0.3,0.2,0.6,0.3,1h15.8C-5602.9,6129.6-5603,6129.2-5603.1,6128.8z"/>
		</g>
		<g>
			<path class="st7" d="M-5972.7,6096.5l-33.4-19.3l-12.1-7v13.9v38.1v13.9l12.1-7l33.4-19.3
				C-5967.5,6107-5967.5,6099.5-5972.7,6096.5z M-6006.1,6115.3v-24.2l21,12.1L-6006.1,6115.3z"/>
			<path class="st7" d="M-6037.7,6133.6v-60.7v-13.9l-0.4-0.2c-5.2-3-11.7,0.8-11.7,6.8v75.5c0,6,6.5,9.8,11.7,6.8l0.4-0.2l4.1-2.4
				l12.1-7v-13.9l-12.1,7L-6037.7,6133.6z"/>
			<polygon class="st7" points="-6033.6,6075.3 -6033.6,6075.4 -6021.5,6082.3 -6021.5,6082.2 -6021.5,6068.3 -6033.6,6061.3 			"/>
			<polygon class="st7" points="-6021.5,6124.2 -6021.5,6124.1 -6029.7,6129 			"/>
			<polygon class="st7" points="-6033.6,6127.3 -6021.5,6120.2 -6021.5,6086.1 -6033.6,6079.3 			"/>
		</g>
	</g>
	<g>
		<g>
			<rect x="-5175.6" y="6077.6" class="st7" width="14.1" height="13.9"/>
			<path class="st7" d="M-5088.8,6091.5h-2C-5090.1,6091.5-5089.4,6091.5-5088.8,6091.5L-5088.8,6091.5z"/>
			<path class="st7" d="M-5011.9,6128.2c0.1,0.3,0.2,0.5,0.3,0.8c0.1,0.3,0.2,0.6,0.3,1h0.2l-3.6-8.1L-5011.9,6128.2z"/>
			<path class="st7" d="M-5221.1,6115.5c-0.6-0.7-1-2-1-3.9v-34h-14.1v35.3c0,2.8,0.3,5.3,0.9,7.5c0.6,2.1,1.5,3.9,2.8,5.3
				c1.3,1.4,3.1,2.5,5.3,3.2c2.2,0.7,4.9,1,8.1,1h38v-13.4h-36.3C-5219.2,6116.6-5220.4,6116.2-5221.1,6115.5z"/>
			<rect x="-5175.6" y="6098.7" class="st7" width="14.1" height="31.2"/>
			<path class="st7" d="M-5065.2,6093.1c-1.5-3.3-3.6-6.2-6.2-8.6c-2.3-2.2-5.1-3.9-8.2-5.1c-3.2-1.2-6.9-1.8-11.1-1.8h-28.3
				c-2.3,0-3.4,1.1-3.4,3.3v10.6h15h16.6h2v0.1c1.5,0.1,2.8,0.4,3.9,0.8c1.5,0.6,2.9,1.4,4,2.5c1.2,1.1,2.1,2.5,2.8,4
				c0.7,1.5,1,3.2,1,5c0,1.6-0.3,3.1-0.9,4.5c-0.6,1.4-1.4,2.7-2.4,3.8c-1.1,1.2-2.6,2.2-4.3,2.9c-1.7,0.7-3.8,1.1-6.3,1.1h-16.6
				c-0.7,0-1-0.4-1-1.1v-16.4h-14v27.9c0,2.2,1.1,3.3,3.4,3.3h28.3c4.7,0,8.8-0.8,12.2-2.3c3.5-1.5,6.4-3.6,8.8-6.2
				c2.1-2.3,3.8-5,5-8c1.2-3,1.8-6.2,1.8-9.7C-5063,6100-5063.7,6096.4-5065.2,6093.1z"/>
			<path class="st7" d="M-4996.3,6127.7l-18.9-41.5c-1.5-3.3-3.5-5.7-5.9-7.3c-2.5-1.6-5.5-2.4-9.2-2.4c-3.8,0-6.9,0.8-9.3,2.4
				c-2.4,1.6-4.4,4-5.9,7.3l-18.7,41.5c-0.2,0.4-0.4,0.8-0.5,1.2c-0.1,0.4-0.2,0.8-0.3,1.2h16.2c0.1-0.3,0.1-0.6,0.2-0.9
				c0.1-0.3,0.2-0.6,0.3-0.9l2.7-6.3l-2.2,4.9l2.2-4.9l0,0l0,0l5.1-11.5l0,0l8-18.7c0.3-0.6,0.6-1,1-1.3c0.4-0.2,0.9-0.3,1.3-0.3
				c0.5,0,1,0.1,1.4,0.4c0.4,0.3,0.7,0.7,1,1.2l8.1,18.7l0,0l5.1,11.5l0,0l0,0l3.6,8.1h15.6c-0.1-0.4-0.2-0.8-0.3-1.2
				C-4996,6128.5-4996.1,6128.1-4996.3,6127.7z"/>
			<polygon class="st7" points="-4943.9,6077.6 -5003.9,6077.6 -5003.9,6091.5 -4980.9,6091.5 -4980.9,6130 -4966.8,6130 
				-4966.8,6091.5 -4943.9,6091.5 			"/>
			<path class="st7" d="M-4883.2,6128.8c-0.1-0.4-0.3-0.7-0.5-1.2l-18.9-41.5c-1.5-3.3-3.5-5.7-5.9-7.3c-2.5-1.6-5.5-2.4-9.2-2.4
				c-3.8,0-6.9,0.8-9.3,2.4c-2.4,1.6-4.4,4-5.9,7.3l-18.7,41.5c-0.2,0.4-0.4,0.8-0.5,1.2c-0.1,0.4-0.2,0.8-0.3,1.2h16.2
				c0.1-0.3,0.1-0.6,0.2-0.9c0.1-0.3,0.2-0.6,0.3-0.9l2.7-6.3l-2.6,5.9l2.6-5.9l0,0l0,0l5.1-11.5l8-18.7c0.3-0.6,0.6-1,1-1.3
				c0.4-0.2,0.9-0.3,1.3-0.3c0.5,0,1,0.1,1.4,0.4c0.4,0.3,0.7,0.7,1,1.2l8.1,18.7l5.1,11.5l0,0l0,0l3.1,7l-3.1-7l2.8,6.3
				c0.1,0.3,0.2,0.5,0.3,0.8c0.1,0.3,0.2,0.6,0.3,1h15.8C-4882.9,6129.6-4883,6129.2-4883.2,6128.8z"/>
		</g>
		<g>
			<path class="st7" d="M-5252.7,6096.5l-33.4-19.3l-12.1-7v13.9v38.1v13.9l12.1-7l33.4-19.3
				C-5247.5,6107-5247.5,6099.5-5252.7,6096.5z M-5286.1,6115.3v-24.2l21,12.1L-5286.1,6115.3z"/>
			<path class="st7" d="M-5317.7,6133.6v-60.7v-13.9l-0.4-0.2c-5.2-3-11.7,0.8-11.7,6.8v75.5c0,6,6.5,9.8,11.7,6.8l0.4-0.2l4.1-2.4
				l12.1-7v-13.9l-12.1,7L-5317.7,6133.6z"/>
			<polygon class="st7" points="-5313.6,6075.3 -5313.6,6075.4 -5301.5,6082.3 -5301.5,6082.2 -5301.5,6068.3 -5313.6,6061.3 			"/>
			<polygon class="st7" points="-5301.5,6124.2 -5301.5,6124.1 -5309.7,6129 			"/>
			<polygon class="st7" points="-5313.6,6127.3 -5301.5,6120.2 -5301.5,6086.1 -5313.6,6079.3 			"/>
		</g>
	</g>
</g>
<g>
	<polygon class="st4" points="346.9,694.7 346.9,694.7 393.1,694.7 393.1,694.7 393.1,648.5 346.9,648.5 	"/>
	<path class="st5" d="M455.4,648.5h-46.2v46.2v0h46.2v0h42.1v0v16.1v221.8l-42.1,28.3V710.8h-46.2V992v42.4c0,5.6,6.3,9,11,5.8
		l35.2-23.7l72.5-48.7c9.9-6.6,15.8-17.8,15.8-29.7V710.8v-16.1V673c0-13.5-11-24.5-24.5-24.5H455.4z"/>
	<path class="st5" d="M346.9,960.9l-42.1-28.3V902V694.7h26v-46.2h-26h-21.3c-13.7,0-24.9,11.1-24.9,24.9v264.8
		c0,11.9,5.9,23,15.8,29.7l72.5,48.7l35.3,23.7c4.7,3.1,10.9-0.2,10.9-5.8V992v-0.6l-46.2-30.8V960.9z"/>
	<polygon class="st5" points="346.9,941.1 393.1,972 393.1,710.8 346.9,710.8 	"/>
</g>
<g>
	<polygon class="st4" points="-107.7,2 -107.7,2 -104.4,2 -104.4,2 -104.4,-1.3 -107.7,-1.3 	"/>
	<path class="st5" d="M-100-1.3h-3.3V2v0h3.3v0h3v0v1.1v15.8l-3,2V3.1h-3.3v20v3c0,0.4,0.4,0.6,0.8,0.4l2.5-1.7l5.2-3.5
		c0.7-0.5,1.1-1.3,1.1-2.1V3.1V2V0.4c0-1-0.8-1.7-1.7-1.7H-100z"/>
	<path class="st5" d="M-107.7,20.9l-3-2v-2.2V2h1.9v-3.3h-1.9h-1.5c-1,0-1.8,0.8-1.8,1.8v18.9c0,0.8,0.4,1.6,1.1,2.1l5.2,3.5
		l2.5,1.7c0.3,0.2,0.8,0,0.8-0.4v-3v0L-107.7,20.9L-107.7,20.9z"/>
	<polygon class="st5" points="-107.7,19.5 -104.4,21.7 -104.4,3.1 -107.7,3.1 	"/>
</g>
<g>
	<polygon class="st4" points="-54.5,6.3 -54.5,6.3 -52.7,6.3 -52.7,6.3 -52.7,4.4 -54.5,4.4 	"/>
	<path class="st5" d="M-50.1,4.4H-52v1.9v0h1.9v0h1.7v0v0.7v9l-1.7,1.1V6.9H-52v11.4V20c0,0.2,0.3,0.4,0.4,0.2l1.4-1l2.9-2
		c0.4-0.3,0.6-0.7,0.6-1.2V6.9V6.3V5.4c0-0.5-0.4-1-1-1H-50.1z"/>
	<path class="st5" d="M-54.5,17.1l-1.7-1.1v-1.2V6.3h1.1V4.4h-1.1h-0.9c-0.6,0-1,0.4-1,1v10.7c0,0.5,0.2,0.9,0.6,1.2l2.9,2l1.4,1
		c0.2,0.1,0.4,0,0.4-0.2v-1.7v0L-54.5,17.1L-54.5,17.1z"/>
	<polygon class="st5" points="-54.5,16.3 -52.7,17.5 -52.7,6.9 -54.5,6.9 	"/>
</g>
<g>
	<path class="st4" d="M-264,14.2c0.1,0.2,0.1,0.3,0.2,0.5c0.1,0.2,0.1,0.4,0.2,0.6h0.1l-2.3-5.2L-264,14.2z"/>
	<g>
		<polygon class="st4" points="-447.4,-2.4 -447.4,-2.4 -442.7,-2.4 -442.7,-2.4 -442.7,-7.1 -447.4,-7.1 		"/>
		<path class="st5" d="M-436.4-7.1h-4.6v4.6v0h4.6v0h4.2v0v1.6v22.3l-4.2,2.9V-0.8h-4.6v28.3v4.3c0,0.6,0.6,0.9,1.1,0.6l3.5-2.4
			l7.3-4.9c1-0.7,1.6-1.8,1.6-3V-0.8v-1.6v-2.2c0-1.4-1.1-2.5-2.5-2.5H-436.4z"/>
		<path class="st5" d="M-447.4,24.4l-4.2-2.9v-3.1V-2.4h2.6v-4.6h-2.6h-2.1c-1.4,0-2.5,1.1-2.5,2.5v26.7c0,1.2,0.6,2.3,1.6,3
			l7.3,4.9l3.5,2.4c0.5,0.3,1.1,0,1.1-0.6v-4.3v-0.1L-447.4,24.4L-447.4,24.4z"/>
		<polygon class="st5" points="-447.4,22.4 -442.7,25.5 -442.7,-0.8 -447.4,-0.8 		"/>
	</g>
	<rect x="-369.5" y="-3.7" class="st5" width="9.1" height="8.9"/>
	<g>
		<path class="st4" d="M-398.8,20.7c-0.4-0.4-0.6-1.3-0.6-2.5V-3.7h-9.1V19c0,1.8,0.2,3.4,0.5,4.8c0.4,1.4,1,2.5,1.8,3.4
			c0.8,0.9,2,1.6,3.4,2c1.4,0.4,3.2,0.7,5.2,0.7h24.5v-8.6h-23.4C-397.6,21.4-398.4,21.2-398.8,20.7z"/>
		<rect x="-369.5" y="9.9" class="st4" width="9.1" height="20.1"/>
		<path class="st4" d="M-298.4,6.3c-1-2.1-2.3-4-4-5.5c-1.5-1.4-3.3-2.5-5.3-3.3c-2-0.8-4.4-1.2-7.2-1.2h-18.2
			c-1.5,0-2.2,0.7-2.2,2.1v6.8h9.7h10.7h1.3v0.1c1,0.1,1.8,0.3,2.5,0.5c1,0.4,1.9,0.9,2.6,1.6c0.8,0.7,1.4,1.6,1.8,2.6
			c0.4,1,0.7,2.1,0.7,3.2c0,1-0.2,2-0.5,2.9c-0.4,0.9-0.9,1.7-1.5,2.4c-0.7,0.8-1.6,1.4-2.7,1.9c-1.1,0.5-2.4,0.7-4,0.7h-10.7
			c-0.4,0-0.6-0.2-0.6-0.7V9.9h-9v18c0,1.4,0.7,2.1,2.2,2.1h18.2c3,0,5.7-0.5,7.9-1.5c2.2-1,4.1-2.3,5.7-4c1.4-1.5,2.4-3.2,3.2-5.1
			c0.8-1.9,1.1-4,1.1-6.2C-297,10.7-297.4,8.4-298.4,6.3z"/>
		<path class="st4" d="M-254,28.5l-12.2-26.7c-1-2.1-2.2-3.7-3.8-4.7c-1.6-1-3.6-1.5-5.9-1.5c-2.4,0-4.4,0.5-6,1.5
			c-1.6,1-2.8,2.6-3.8,4.7l-12.1,26.7c-0.1,0.3-0.2,0.5-0.3,0.7c-0.1,0.2-0.2,0.5-0.2,0.7h10.4c0-0.2,0.1-0.4,0.1-0.6
			c0.1-0.2,0.1-0.4,0.2-0.6l1.7-4l-1.4,3.2l1.4-3.2l0,0l0,0l3.3-7.4h0l5.1-12.1c0.2-0.4,0.4-0.7,0.6-0.8c0.3-0.1,0.5-0.2,0.8-0.2
			c0.3,0,0.6,0.1,0.9,0.2c0.3,0.2,0.5,0.4,0.6,0.8l5.2,12.1h0l3.3,7.4l0,0l0,0l2.3,5.2h10.1c-0.1-0.3-0.1-0.5-0.2-0.7
			C-253.7,29-253.9,28.8-254,28.5z"/>
		<polygon class="st4" points="-220.2,-3.7 -258.9,-3.7 -258.9,5.2 -244.1,5.2 -244.1,30 -235,30 -235,5.2 -220.2,5.2 		"/>
		<path class="st4" d="M-181.1,29.3c-0.1-0.2-0.2-0.5-0.3-0.7l-12.2-26.7c-1-2.1-2.2-3.7-3.8-4.7c-1.6-1-3.6-1.5-5.9-1.5
			c-2.4,0-4.4,0.5-6,1.5c-1.6,1-2.8,2.6-3.8,4.7l-12.1,26.7c-0.1,0.3-0.2,0.5-0.3,0.7c-0.1,0.2-0.2,0.5-0.2,0.7h10.4
			c0-0.2,0.1-0.4,0.1-0.6c0.1-0.2,0.1-0.4,0.2-0.6l1.7-4l-1.7,3.8l1.7-3.8l0,0l0,0l3.3-7.4l5.1-12.1c0.2-0.4,0.4-0.7,0.6-0.8
			c0.3-0.1,0.5-0.2,0.8-0.2c0.3,0,0.6,0.1,0.9,0.2c0.3,0.2,0.5,0.4,0.6,0.8l5.2,12.1l3.3,7.4l0,0l0,0l2,4.5l-2-4.5l1.8,4.1
			c0.1,0.2,0.1,0.3,0.2,0.5c0.1,0.2,0.1,0.4,0.2,0.6h10.2C-180.9,29.8-181,29.5-181.1,29.3z"/>
	</g>
</g>
<polygon class="st4" points="7,3.4 7,3.4 10.3,3.4 10.3,3.4 10.3,0.2 7,0.2 "/>
<g>
	<path class="st5" d="M14.7,0.2h-3.3v3.3v0h3.3v0h3v0v1.1v15.7l-3,2V4.6h-3.3v20v3c0,0.4,0.4,0.6,0.8,0.4l2.5-1.7l5.1-3.5
		c0.7-0.5,1.1-1.3,1.1-2.1V4.6V3.4V1.9c0-1-0.8-1.7-1.7-1.7H14.7z"/>
	<path class="st5" d="M7,22.3l-3-2v-2.2V3.4h1.8V0.2H4H2.5c-1,0-1.8,0.8-1.8,1.8v18.8c0,0.8,0.4,1.6,1.1,2.1L7,26.3L9.5,28
		c0.3,0.2,0.8,0,0.8-0.4v-3v0L7,22.3L7,22.3z"/>
	<polygon class="st5" points="7,20.9 10.3,23.1 10.3,4.6 7,4.6 	"/>
</g>
<rect x="61.9" y="2.5" class="st5" width="6.4" height="6.3"/>
<g>
	<path class="st4" d="M41.2,19.8c-0.3-0.3-0.4-0.9-0.4-1.8V2.5h-6.4v16.1c0,1.3,0.1,2.4,0.4,3.4c0.3,1,0.7,1.8,1.3,2.4
		c0.6,0.6,1.4,1.1,2.4,1.4c1,0.3,2.2,0.5,3.7,0.5h17.3v-6.1H42.9C42.1,20.2,41.5,20.1,41.2,19.8z"/>
	<rect x="61.9" y="12.1" class="st4" width="6.4" height="14.2"/>
	<path class="st4" d="M112.1,9.6c-0.7-1.5-1.6-2.8-2.8-3.9c-1.1-1-2.3-1.8-3.7-2.3c-1.4-0.6-3.1-0.8-5.1-0.8H87.6
		c-1,0-1.5,0.5-1.5,1.5v4.8h6.8h7.6h0.9v0c0.7,0.1,1.3,0.2,1.8,0.4c0.7,0.3,1.3,0.7,1.8,1.1c0.5,0.5,1,1.1,1.3,1.8
		c0.3,0.7,0.5,1.5,0.5,2.3c0,0.7-0.1,1.4-0.4,2.1c-0.3,0.6-0.6,1.2-1.1,1.7c-0.5,0.6-1.2,1-1.9,1.3c-0.8,0.3-1.7,0.5-2.9,0.5h-7.6
		c-0.3,0-0.5-0.2-0.5-0.5v-7.4h-6.4v12.7c0,1,0.5,1.5,1.5,1.5h12.8c2.1,0,4-0.3,5.6-1c1.6-0.7,2.9-1.6,4-2.8c1-1.1,1.7-2.3,2.3-3.6
		c0.5-1.4,0.8-2.8,0.8-4.4C113.1,12.7,112.8,11.1,112.1,9.6z"/>
	<path class="st4" d="M143.4,25.3l-8.6-18.9c-0.7-1.5-1.6-2.6-2.7-3.3S129.6,2,127.9,2c-1.7,0-3.1,0.4-4.2,1.1
		c-1.1,0.7-2,1.8-2.7,3.3l-8.5,18.9c-0.1,0.2-0.2,0.4-0.2,0.5c-0.1,0.2-0.1,0.3-0.2,0.5h7.4c0-0.1,0.1-0.3,0.1-0.4
		c0-0.1,0.1-0.3,0.1-0.4l1.2-2.8l-1,2.2l1-2.2l0,0l0,0l2.3-5.2h0l3.6-8.5c0.1-0.3,0.3-0.5,0.5-0.6c0.2-0.1,0.4-0.2,0.6-0.2
		c0.2,0,0.4,0.1,0.6,0.2c0.2,0.1,0.3,0.3,0.5,0.6l3.7,8.5h0l2.3,5.2l0,0l0,0l1.6,3.7h7.1c0-0.2-0.1-0.4-0.2-0.5
		C143.6,25.6,143.5,25.5,143.4,25.3z"/>
	<polygon class="st4" points="167.2,2.5 139.9,2.5 139.9,8.8 150.4,8.8 150.4,26.3 156.8,26.3 156.8,8.8 167.2,8.8 	"/>
	<path class="st4" d="M194.8,25.8c-0.1-0.2-0.1-0.3-0.2-0.5L186,6.4c-0.7-1.5-1.6-2.6-2.7-3.3c-1.1-0.7-2.5-1.1-4.2-1.1
		c-1.7,0-3.1,0.4-4.2,1.1c-1.1,0.7-2,1.8-2.7,3.3l-8.5,18.9c-0.1,0.2-0.2,0.4-0.2,0.5c-0.1,0.2-0.1,0.3-0.2,0.5h7.4
		c0-0.1,0.1-0.3,0.1-0.4c0-0.1,0.1-0.3,0.1-0.4l1.2-2.9l-1.2,2.7l1.2-2.7l0,0l0,0l2.3-5.2l3.6-8.5c0.1-0.3,0.3-0.5,0.5-0.6
		c0.2-0.1,0.4-0.2,0.6-0.2c0.2,0,0.4,0.1,0.6,0.2c0.2,0.1,0.3,0.3,0.5,0.6l3.7,8.5l2.3,5.2l0,0l0,0l1.4,3.2l-1.4-3.2l1.3,2.9
		c0,0.1,0.1,0.2,0.1,0.4c0,0.1,0.1,0.3,0.1,0.4h7.2C195,26.2,194.9,26,194.8,25.8z"/>
</g>
<polygon class="st7" points="-889.5,-103.4 -889.5,-103.4 -886.2,-103.4 -886.2,-103.4 -886.2,-106.7 -889.5,-106.7 "/>
<g>
	<path class="st5" d="M-881.8-106.7h-3.3v3.3l0,0h3.3l0,0h3l0,0v1.1v15.7l-3,2v-17.8h-3.3v20v3c0,0.4,0.4,0.6,0.8,0.4l2.5-1.7
		l5.1-3.5c0.7-0.5,1.1-1.3,1.1-2.1v-16.1v-1.1v-1.5c0-1-0.8-1.7-1.7-1.7H-881.8z"/>
	<path class="st5" d="M-889.5-84.5l-3-2v-2.2v-14.7h1.8v-3.3h-1.8h-1.5c-1,0-1.8,0.8-1.8,1.8v18.8c0,0.8,0.4,1.6,1.1,2.1l5.1,3.5
		l2.5,1.7c0.3,0.2,0.8,0,0.8-0.4v-3v0L-889.5-84.5L-889.5-84.5z"/>
	<polygon class="st5" points="-889.5,-85.9 -886.2,-83.7 -886.2,-102.3 -889.5,-102.3 	"/>
</g>
<rect x="-834.6" y="-104.3" class="st11" width="6.4" height="6.3"/>
<g>
	<path class="st12" d="M-855.3-87.1c-0.3-0.3-0.4-0.9-0.4-1.8v-15.5h-6.4v16.1c0,1.3,0.1,2.4,0.4,3.4c0.3,1,0.7,1.8,1.3,2.4
		c0.6,0.6,1.4,1.1,2.4,1.4c1,0.3,2.2,0.5,3.7,0.5h17.3v-6.1h-16.5C-854.4-86.6-855-86.8-855.3-87.1z"/>
	<rect x="-834.6" y="-94.7" class="st12" width="6.4" height="14.2"/>
	<path class="st12" d="M-784.5-97.3c-0.7-1.5-1.6-2.8-2.8-3.9c-1.1-1-2.3-1.8-3.7-2.3c-1.4-0.6-3.1-0.8-5.1-0.8h-12.8
		c-1,0-1.5,0.5-1.5,1.5v4.8h6.8h7.6h0.9v0c0.7,0.1,1.3,0.2,1.8,0.4c0.7,0.3,1.3,0.7,1.8,1.1c0.5,0.5,1,1.1,1.3,1.8
		c0.3,0.7,0.5,1.5,0.5,2.3c0,0.7-0.1,1.4-0.4,2.1c-0.3,0.6-0.6,1.2-1.1,1.7c-0.5,0.6-1.2,1-1.9,1.3c-0.8,0.3-1.7,0.5-2.9,0.5h-7.6
		c-0.3,0-0.5-0.2-0.5-0.5v-7.4h-6.4V-82c0,1,0.5,1.5,1.5,1.5h12.8c2.1,0,4-0.3,5.6-1c1.6-0.7,2.9-1.6,4-2.8c1-1.1,1.7-2.3,2.3-3.6
		c0.5-1.4,0.8-2.8,0.8-4.4C-783.4-94.1-783.8-95.8-784.5-97.3z"/>
	<path class="st12" d="M-753.1-81.6l-8.6-18.9c-0.7-1.5-1.6-2.6-2.7-3.3c-1.1-0.7-2.5-1.1-4.2-1.1c-1.7,0-3.1,0.4-4.2,1.1
		c-1.1,0.7-2,1.8-2.7,3.3l-8.5,18.9c-0.1,0.2-0.2,0.4-0.2,0.5c-0.1,0.2-0.1,0.3-0.2,0.5h7.4c0-0.1,0.1-0.3,0.1-0.4
		c0-0.1,0.1-0.3,0.1-0.4l1.2-2.8l-1,2.2l1-2.2l0,0l0,0l2.3-5.2l0,0l3.6-8.5c0.1-0.3,0.3-0.5,0.5-0.6c0.2-0.1,0.4-0.2,0.6-0.2
		c0.2,0,0.4,0.1,0.6,0.2c0.2,0.1,0.3,0.3,0.5,0.6l3.7,8.5h0l2.3,5.2l0,0l0,0l1.6,3.7h7.1c0-0.2-0.1-0.4-0.2-0.5
		C-753-81.2-753-81.4-753.1-81.6z"/>
	<polygon class="st12" points="-729.3,-104.3 -756.6,-104.3 -756.6,-98 -746.1,-98 -746.1,-80.5 -739.7,-80.5 -739.7,-98 
		-729.3,-98 	"/>
	<path class="st12" d="M-701.7-81c-0.1-0.2-0.1-0.3-0.2-0.5l-8.6-18.9c-0.7-1.5-1.6-2.6-2.7-3.3s-2.5-1.1-4.2-1.1
		c-1.7,0-3.1,0.4-4.2,1.1c-1.1,0.7-2,1.8-2.7,3.3l-8.5,18.9c-0.1,0.2-0.2,0.4-0.2,0.5c-0.1,0.2-0.1,0.3-0.2,0.5h7.4
		c0-0.1,0.1-0.3,0.1-0.4c0-0.1,0.1-0.3,0.1-0.4l1.2-2.9l-1.2,2.7l1.2-2.7l0,0l0,0l2.3-5.2l3.6-8.5c0.1-0.3,0.3-0.5,0.5-0.6
		c0.2-0.1,0.4-0.2,0.6-0.2c0.2,0,0.4,0.1,0.6,0.2c0.2,0.1,0.3,0.3,0.5,0.6l3.7,8.5l2.3,5.2l0,0l0,0l1.4,3.2l-1.4-3.2l1.3,2.9
		c0,0.1,0.1,0.2,0.1,0.4c0,0.1,0.1,0.3,0.1,0.4h7.2C-701.6-80.7-701.6-80.9-701.7-81z"/>
</g>
<g>
	<path class="st4" d="M-215.7,148.8c0,0.1,0.1,0.2,0.1,0.2c0,0.1,0.1,0.2,0.1,0.3h0.1l-1.1-2.4L-215.7,148.8z"/>
	<g>
		<polygon class="st4" points="-298.8,141.2 -298.8,141.2 -296.7,141.2 -296.7,141.2 -296.7,139.1 -298.8,139.1 		"/>
		<path class="st5" d="M-293.8,139.1h-2.1v2.1l0,0h2.1l0,0h1.9l0,0v0.7v10.1l-1.9,1.3V142h-2.1v12.8v1.9c0,0.3,0.3,0.4,0.5,0.3
			l1.6-1.1l3.3-2.2c0.5-0.3,0.7-0.8,0.7-1.4V142v-0.7v-1c0-0.6-0.5-1.1-1.1-1.1H-293.8z"/>
		<path class="st5" d="M-298.8,153.4l-1.9-1.3v-1.4v-9.5h1.2v-2.1h-1.2h-1c-0.6,0-1.1,0.5-1.1,1.1v12.1c0,0.5,0.3,1.1,0.7,1.4
			l3.3,2.2l1.6,1.1c0.2,0.1,0.5,0,0.5-0.3v-1.9v0L-298.8,153.4L-298.8,153.4z"/>
		<polygon class="st5" points="-298.8,152.5 -296.7,153.9 -296.7,142 -298.8,142 		"/>
	</g>
	<g>
		<rect x="-263.5" y="140.7" class="st5" width="4.1" height="4.1"/>
		<g>
			<path class="st4" d="M-276.8,151.7c-0.2-0.2-0.3-0.6-0.3-1.1v-9.9h-4.1V151c0,0.8,0.1,1.6,0.2,2.2c0.2,0.6,0.4,1.1,0.8,1.6
				c0.4,0.4,0.9,0.7,1.5,0.9c0.6,0.2,1.4,0.3,2.4,0.3h11.1V152h-10.6C-276.3,152-276.6,151.9-276.8,151.7z"/>
			<rect x="-263.5" y="146.8" class="st4" width="4.1" height="9.1"/>
			<path class="st4" d="M-231.3,145.2c-0.4-1-1-1.8-1.8-2.5c-0.7-0.6-1.5-1.1-2.4-1.5c-0.9-0.4-2-0.5-3.2-0.5h-8.3c-0.7,0-1,0.3-1,1
				v3.1h4.4h4.9h0.6v0c0.4,0,0.8,0.1,1.1,0.2c0.5,0.2,0.8,0.4,1.2,0.7c0.3,0.3,0.6,0.7,0.8,1.2c0.2,0.5,0.3,0.9,0.3,1.4
				c0,0.5-0.1,0.9-0.2,1.3c-0.2,0.4-0.4,0.8-0.7,1.1c-0.3,0.4-0.7,0.6-1.2,0.9c-0.5,0.2-1.1,0.3-1.8,0.3h-4.9
				c-0.2,0-0.3-0.1-0.3-0.3v-4.8h-4.1v8.2c0,0.6,0.3,1,1,1h8.3c1.4,0,2.6-0.2,3.6-0.7c1-0.4,1.9-1.1,2.6-1.8
				c0.6-0.7,1.1-1.5,1.4-2.3c0.3-0.9,0.5-1.8,0.5-2.8C-230.6,147.2-230.9,146.1-231.3,145.2z"/>
			<path class="st4" d="M-211.2,155.3l-5.5-12.1c-0.4-1-1-1.7-1.7-2.1c-0.7-0.5-1.6-0.7-2.7-0.7c-1.1,0-2,0.2-2.7,0.7
				c-0.7,0.5-1.3,1.2-1.7,2.1l-5.5,12.1c-0.1,0.1-0.1,0.2-0.1,0.3c0,0.1-0.1,0.2-0.1,0.3h4.7c0-0.1,0-0.2,0.1-0.3
				c0-0.1,0.1-0.2,0.1-0.3l0.8-1.8l-0.6,1.4l0.6-1.4l0,0l0,0l1.5-3.4h0l2.3-5.5c0.1-0.2,0.2-0.3,0.3-0.4c0.1-0.1,0.2-0.1,0.4-0.1
				c0.2,0,0.3,0,0.4,0.1c0.1,0.1,0.2,0.2,0.3,0.4l2.4,5.5h0l1.5,3.4l0,0l0,0l1.1,2.4h4.6c0-0.1-0.1-0.2-0.1-0.3
				C-211.1,155.5-211.1,155.4-211.2,155.3z"/>
			<polygon class="st4" points="-195.9,140.7 -213.4,140.7 -213.4,144.7 -206.7,144.7 -206.7,156 -202.6,156 -202.6,144.7 
				-195.9,144.7 			"/>
			<path class="st4" d="M-178.1,155.6c0-0.1-0.1-0.2-0.1-0.3l-5.5-12.1c-0.4-1-1-1.7-1.7-2.1c-0.7-0.5-1.6-0.7-2.7-0.7
				c-1.1,0-2,0.2-2.7,0.7c-0.7,0.5-1.3,1.2-1.7,2.1l-5.5,12.1c-0.1,0.1-0.1,0.2-0.1,0.3c0,0.1-0.1,0.2-0.1,0.3h4.7
				c0-0.1,0-0.2,0.1-0.3c0-0.1,0.1-0.2,0.1-0.3l0.8-1.8l-0.8,1.7l0.8-1.7l0,0l0,0l1.5-3.4l2.3-5.5c0.1-0.2,0.2-0.3,0.3-0.4
				c0.1-0.1,0.2-0.1,0.4-0.1c0.2,0,0.3,0,0.4,0.1c0.1,0.1,0.2,0.2,0.3,0.4l2.4,5.5l1.5,3.4l0,0l0,0l0.9,2l-0.9-2l0.8,1.9
				c0,0.1,0.1,0.2,0.1,0.2c0,0.1,0.1,0.2,0.1,0.3h4.6C-178.1,155.8-178.1,155.7-178.1,155.6z"/>
		</g>
	</g>
</g>
<g>
	<polygon class="st5" points="-356.6,1704.2 -356.6,1704.2 -340.4,1704.2 -340.4,1704.2 -340.4,1688 -356.6,1688 	"/>
	<g>
		<path class="st4" d="M-943.9,2138.3h-12.6v12.6v0h12.6v0h11.5v0v4.4v60.6l-11.5,7.7v-68.4h-12.6v76.9v11.6c0,1.5,1.7,2.5,3,1.6
			l9.6-6.5l19.8-13.3c2.7-1.8,4.3-4.9,4.3-8.1v-62.2v-4.4v-5.9c0-3.7-3-6.7-6.7-6.7H-943.9z"/>
		<path class="st4" d="M-973.5,2223.8l-11.5-7.7v-8.4V2151h7.1v-12.6h-7.1h-5.8c-3.8,0-6.8,3-6.8,6.8v72.4c0,3.3,1.6,6.3,4.3,8.1
			l19.8,13.3l8.9,6c1.6,1.1,3.8-0.1,3.8-2v-10.7v-0.2l-12.6-8.4V2223.8z"/>
		<polygon class="st4" points="-973.5,2218.4 -960.9,2226.8 -960.9,2155.4 -973.5,2155.4 		"/>
		<polygon class="st5" points="-973.5,2151 -973.5,2151 -960.9,2151 -960.9,2151 -960.9,2138.3 -973.5,2138.3 		"/>
	</g>
	<g class="st0">
		<path d="M299.3,1446.1l-39-37.9l-37.9,39l0,0l39,37.9h0l35.6,34.5h0l-13.2,13.6L102,1720.5l-58.8-10.6l205-211.2l-39-37.9
			l-230.5,237.4L-56,1734c-4.6,4.8-2.1,12.7,4.5,13.9l49.1,8.9l101.2,18.3c13.8,2.5,27.9-2,37.7-12.1l186.4-191.9l13.2-13.6
			l17.8-18.3c11.1-11.4,10.8-29.7-0.6-40.8L299.3,1446.1z"/>
		<path d="M-48.4,1620.9l-12.4-58.5l25.1-25.8l170-175l22,21.3l37.9-39l-22-21.3l-18-17.5c-11.6-11.3-30.1-11-41.4,0.6l-217,223.5
			c-9.8,10.1-13.9,24.3-11,38l21.3,100.6l9.5,44.9c1.7,8.2,11.9,11.1,17.7,5.1l32-33l0.5-0.5l-13.7-63.9L-48.4,1620.9z"/>
		<polygon points="-32.2,1604.2 -18.5,1668.1 195.6,1447.6 156.6,1409.8 		"/>
		<polygon points="169.8,1396.2 169.8,1396.2 208.8,1434 208.8,1434 246.7,1395 207.7,1357.2 		"/>
	</g>
	<rect x="-453.7" y="1851" class="st4" width="14.1" height="13.9"/>
	<path class="st4" d="M-366.9,1864.9h-2C-368.2,1864.9-367.5,1864.9-366.9,1864.9L-366.9,1864.9z"/>
	<path class="st4" d="M-290,1901.6c0.1,0.3,0.2,0.5,0.3,0.8c0.1,0.3,0.2,0.6,0.3,1h0.2l-3.6-8.1L-290,1901.6z"/>
	<path class="st4" d="M-318.5,1688h-16.2v16.2l0,0h16.2l0,0h14.8l0,0v5.7v78l-14.8,10v-88h-16.2v98.9v14.9c0,2,2.2,3.2,3.9,2.1
		l12.4-8.3l25.5-17.1c3.5-2.3,5.6-6.3,5.6-10.4v-80v-5.7v-7.6c0-4.8-3.9-8.6-8.6-8.6H-318.5z"/>
	<path class="st4" d="M-356.6,1797.9l-14.8-10v-10.7v-72.9h9.2V1688h-9.2h-7.5c-4.8,0-8.7,3.9-8.7,8.7v93.1c0,4.2,2.1,8.1,5.6,10.4
		l25.5,17.1l11.4,7.7c2.1,1.4,4.8-0.1,4.8-2.6v-13.7v-0.2l-16.2-10.8V1797.9z"/>
	<polygon class="st4" points="-356.6,1790.9 -340.4,1801.8 -340.4,1709.9 -356.6,1709.9 	"/>
	<path class="st4" d="M-499.2,1888.9c-0.6-0.7-1-2-1-3.9v-34h-14.1v35.3c0,2.8,0.3,5.3,0.9,7.5c0.6,2.1,1.5,3.9,2.8,5.3
		c1.3,1.4,3.1,2.5,5.3,3.2c2.2,0.7,4.9,1,8.1,1h38V1890h-36.3C-497.3,1890-498.5,1889.6-499.2,1888.9z"/>
	<rect x="-453.7" y="1872.1" class="st4" width="14.1" height="31.2"/>
	<path class="st4" d="M-343.3,1866.5c-1.5-3.3-3.6-6.2-6.2-8.6c-2.3-2.2-5.1-3.9-8.2-5.1c-3.2-1.2-6.9-1.8-11.1-1.8h-28.3
		c-2.3,0-3.4,1.1-3.4,3.3v10.6h15h16.6h2v0.1c1.5,0.1,2.8,0.4,3.9,0.8c1.5,0.6,2.9,1.4,4,2.5c1.2,1.1,2.1,2.5,2.8,4
		c0.7,1.5,1,3.2,1,5c0,1.6-0.3,3.1-0.9,4.5c-0.6,1.4-1.4,2.7-2.4,3.8c-1.1,1.2-2.6,2.2-4.3,2.9c-1.7,0.7-3.8,1.1-6.3,1.1h-16.6
		c-0.7,0-1-0.4-1-1.1v-16.4h-14v27.9c0,2.2,1.1,3.3,3.4,3.3h28.3c4.7,0,8.8-0.8,12.2-2.3c3.5-1.5,6.4-3.6,8.8-6.2c2.1-2.3,3.8-5,5-8
		c1.2-3,1.8-6.2,1.8-9.7C-341.1,1873.4-341.8,1869.8-343.3,1866.5z"/>
	<path class="st4" d="M-274.4,1901.1l-18.9-41.5c-1.5-3.3-3.5-5.7-5.9-7.3c-2.5-1.6-5.5-2.4-9.2-2.4c-3.8,0-6.9,0.8-9.3,2.4
		c-2.4,1.6-4.4,4-5.9,7.3l-18.7,41.5c-0.2,0.4-0.4,0.8-0.5,1.2c-0.1,0.4-0.2,0.7-0.3,1.2h16.2c0.1-0.3,0.1-0.6,0.2-0.9
		c0.1-0.3,0.2-0.6,0.3-0.9l2.7-6.3l-2.2,4.9l2.2-4.9l0,0l0,0l5.1-11.5h0l8-18.7c0.3-0.6,0.6-1,1-1.3c0.4-0.2,0.9-0.3,1.3-0.3
		c0.5,0,1,0.1,1.4,0.4c0.4,0.3,0.7,0.7,1,1.2l8.1,18.7h0l5.1,11.5l0,0l0,0l3.6,8.1h15.6c-0.1-0.4-0.2-0.8-0.3-1.2
		C-274,1901.9-274.2,1901.5-274.4,1901.1z"/>
	<polygon class="st4" points="-222,1851 -282,1851 -282,1864.9 -259,1864.9 -259,1903.4 -244.9,1903.4 -244.9,1864.9 -222,1864.9 	
		"/>
	<path class="st4" d="M-161.2,1902.2c-0.1-0.4-0.3-0.7-0.5-1.2l-18.9-41.5c-1.5-3.3-3.5-5.7-5.9-7.3c-2.5-1.6-5.5-2.4-9.2-2.4
		c-3.8,0-6.9,0.8-9.3,2.4c-2.4,1.6-4.4,4-5.9,7.3l-18.7,41.5c-0.2,0.4-0.4,0.8-0.5,1.2c-0.1,0.4-0.2,0.7-0.3,1.2h16.2
		c0.1-0.3,0.1-0.6,0.2-0.9c0.1-0.3,0.2-0.6,0.3-0.9l2.7-6.3l-2.6,5.9l2.6-5.9l0,0l0,0l5.1-11.5l8-18.7c0.3-0.6,0.6-1,1-1.3
		c0.4-0.2,0.9-0.3,1.3-0.3c0.5,0,1,0.1,1.4,0.4c0.4,0.3,0.7,0.7,1,1.2l8.1,18.7l5.1,11.5l0,0l0,0l3.1,7l-3.1-7l2.8,6.3
		c0.1,0.3,0.2,0.5,0.3,0.8c0.1,0.3,0.2,0.6,0.3,1h15.8C-161,1903-161.1,1902.6-161.2,1902.2z"/>
	<polygon class="st4" points="169.9,1927.7 169.9,1927.7 186.2,1927.7 186.2,1927.7 186.2,1911.5 169.9,1911.5 	"/>
	<rect x="72.9" y="2074.5" class="st5" width="14.1" height="13.9"/>
	<path class="st4" d="M159.7,2088.4h-2C158.4,2088.4,159.1,2088.4,159.7,2088.4L159.7,2088.4z"/>
	<path class="st4" d="M236.6,2125.1c0.1,0.3,0.2,0.5,0.3,0.8c0.1,0.3,0.2,0.6,0.3,1h0.2l-3.6-8.1L236.6,2125.1z"/>
	<path class="st5" d="M208.1,1911.5h-16.2v16.2l0,0h16.2l0,0h14.8l0,0v5.7v78l-14.8,10v-88h-16.2v98.9v14.9c0,2,2.2,3.2,3.9,2.1
		l12.4-8.3l25.5-17.1c3.5-2.3,5.6-6.3,5.6-10.4v-80v-5.7v-7.6c0-4.8-3.9-8.6-8.6-8.6H208.1z"/>
	<path class="st5" d="M169.9,2021.4l-14.8-10v-10.7v-72.9h9.2v-16.2h-9.2h-7.5c-4.8,0-8.7,3.9-8.7,8.7v93.1c0,4.2,2.1,8.1,5.6,10.4
		l25.5,17.1l11.4,7.7c2.1,1.4,4.8-0.1,4.8-2.6v-13.7v-0.2l-16.2-10.8V2021.4z"/>
	<polygon class="st5" points="169.9,2014.4 186.2,2025.3 186.2,1933.4 169.9,1933.4 	"/>
	<path class="st4" d="M27.4,2112.4c-0.6-0.7-1-2-1-3.9v-34H12.4v35.3c0,2.8,0.3,5.3,0.9,7.5c0.6,2.1,1.5,3.9,2.8,5.3
		c1.3,1.4,3.1,2.5,5.3,3.2c2.2,0.7,4.9,1,8.1,1h38v-13.4H31.1C29.3,2113.5,28.1,2113.1,27.4,2112.4z"/>
	<rect x="72.9" y="2095.6" class="st4" width="14.1" height="31.2"/>
	<path class="st4" d="M183.3,2090c-1.5-3.3-3.6-6.2-6.2-8.6c-2.3-2.2-5.1-3.9-8.2-5.1c-3.2-1.2-6.9-1.8-11.1-1.8h-28.3
		c-2.3,0-3.4,1.1-3.4,3.3v10.6h15h16.6h2v0.1c1.5,0.1,2.8,0.4,3.9,0.8c1.5,0.6,2.9,1.4,4,2.5c1.2,1.1,2.1,2.5,2.8,4
		c0.7,1.5,1,3.2,1,5c0,1.6-0.3,3.1-0.9,4.5c-0.6,1.4-1.4,2.7-2.4,3.8c-1.1,1.2-2.6,2.2-4.3,2.9c-1.7,0.7-3.8,1.1-6.3,1.1h-16.6
		c-0.7,0-1-0.4-1-1.1v-16.4h-14v27.9c0,2.2,1.1,3.3,3.4,3.3h28.3c4.7,0,8.8-0.8,12.2-2.3c3.5-1.5,6.4-3.6,8.8-6.2c2.1-2.3,3.8-5,5-8
		c1.2-3,1.8-6.2,1.8-9.7C185.5,2096.9,184.8,2093.3,183.3,2090z"/>
	<path class="st4" d="M252.2,2124.6l-18.9-41.5c-1.5-3.3-3.5-5.7-5.9-7.3c-2.5-1.6-5.5-2.4-9.2-2.4c-3.8,0-6.9,0.8-9.3,2.4
		c-2.4,1.6-4.4,4-5.9,7.3l-18.7,41.5c-0.2,0.4-0.4,0.8-0.5,1.2c-0.1,0.4-0.2,0.7-0.3,1.2h16.2c0.1-0.3,0.1-0.6,0.2-0.9
		c0.1-0.3,0.2-0.6,0.3-0.9l2.7-6.3l-2.2,4.9l2.2-4.9l0,0l0,0l5.1-11.5h0l8-18.7c0.3-0.6,0.6-1,1-1.3c0.4-0.2,0.9-0.3,1.3-0.3
		c0.5,0,1,0.1,1.4,0.4c0.4,0.3,0.7,0.7,1,1.2l8.1,18.7h0l5.1,11.5l0,0l0,0l3.6,8.1H253c-0.1-0.4-0.2-0.8-0.3-1.2
		C252.5,2125.4,252.4,2125,252.2,2124.6z"/>
	<polygon class="st4" points="304.6,2074.5 244.6,2074.5 244.6,2088.4 267.6,2088.4 267.6,2126.9 281.7,2126.9 281.7,2088.4 
		304.6,2088.4 	"/>
	<path class="st4" d="M365.3,2125.7c-0.1-0.4-0.3-0.7-0.5-1.2l-18.9-41.5c-1.5-3.3-3.5-5.7-5.9-7.3c-2.5-1.6-5.5-2.4-9.2-2.4
		c-3.8,0-6.9,0.8-9.3,2.4c-2.4,1.6-4.4,4-5.9,7.3l-18.7,41.5c-0.2,0.4-0.4,0.8-0.5,1.2c-0.1,0.4-0.2,0.7-0.3,1.2h16.2
		c0.1-0.3,0.1-0.6,0.2-0.9c0.1-0.3,0.2-0.6,0.3-0.9l2.7-6.3l-2.6,5.9l2.6-5.9l0,0l0,0l5.1-11.5l8-18.7c0.3-0.6,0.6-1,1-1.3
		c0.4-0.2,0.9-0.3,1.3-0.3c0.5,0,1,0.1,1.4,0.4c0.4,0.3,0.7,0.7,1,1.2l8.1,18.7l5.1,11.5l0,0l0,0l3.1,7l-3.1-7l2.8,6.3
		c0.1,0.3,0.2,0.5,0.3,0.8c0.1,0.3,0.2,0.6,0.3,1h15.8C365.6,2126.5,365.5,2126.1,365.3,2125.7z"/>
	<polygon class="st5" points="-802.7,1366.4 -802.7,1366.4 -786.5,1366.4 -786.5,1366.4 -786.5,1350.1 -802.7,1350.1 	"/>
	<rect x="-899.7" y="1513.1" class="st4" width="14.1" height="13.9"/>
	<path class="st4" d="M-813,1527h-2C-814.3,1527-813.6,1527-813,1527L-813,1527z"/>
	<path class="st4" d="M-736,1563.7c0.1,0.3,0.2,0.5,0.3,0.8c0.1,0.3,0.2,0.6,0.3,1h0.2l-3.6-8.1L-736,1563.7z"/>
	<path class="st5" d="M-764.6,1350.1h-16.2v16.2l0,0h16.2l0,0h14.8l0,0v5.7v78l-14.8,10v-88h-16.2v98.9v14.9c0,2,2.2,3.2,3.9,2.1
		l12.4-8.3l25.5-17.1c3.5-2.3,5.6-6.3,5.6-10.4v-80v-5.7v-7.6c0-4.8-3.9-8.6-8.6-8.6H-764.6z"/>
	<path class="st5" d="M-802.7,1460l-14.8-10v-10.7v-72.9h9.2v-16.2h-9.2h-7.5c-4.8,0-8.7,3.9-8.7,8.7v93.1c0,4.2,2.1,8.1,5.6,10.4
		l25.5,17.1l11.4,7.7c2.1,1.4,4.8-0.1,4.8-2.6v-13.7v-0.2l-16.2-10.8V1460z"/>
	<polygon class="st5" points="-802.7,1453 -786.5,1463.9 -786.5,1372 -802.7,1372 	"/>
	<path class="st4" d="M-945.2,1551.1c-0.6-0.7-1-2-1-3.9v-34h-14.1v35.3c0,2.8,0.3,5.3,0.9,7.5c0.6,2.1,1.5,3.9,2.8,5.3
		c1.3,1.4,3.1,2.5,5.3,3.2c2.2,0.7,4.9,1,8.1,1h38v-13.4h-36.3C-943.4,1552.1-944.6,1551.7-945.2,1551.1z"/>
	<rect x="-899.7" y="1534.3" class="st4" width="14.1" height="31.2"/>
	<path class="st4" d="M-789.4,1528.6c-1.5-3.3-3.6-6.2-6.2-8.6c-2.3-2.2-5.1-3.9-8.2-5.1c-3.2-1.2-6.9-1.8-11.1-1.8h-28.3
		c-2.3,0-3.4,1.1-3.4,3.3v10.6h15h16.6h2v0.1c1.5,0.1,2.8,0.4,3.9,0.8c1.5,0.6,2.9,1.4,4,2.5c1.2,1.1,2.1,2.5,2.8,4
		c0.7,1.5,1,3.2,1,5c0,1.6-0.3,3.1-0.9,4.5c-0.6,1.4-1.4,2.7-2.4,3.8c-1.1,1.2-2.6,2.2-4.3,2.9c-1.7,0.7-3.8,1.1-6.3,1.1h-16.6
		c-0.7,0-1-0.4-1-1.1v-16.4h-14v27.9c0,2.2,1.1,3.3,3.4,3.3h28.3c4.7,0,8.8-0.8,12.2-2.3c3.5-1.5,6.4-3.6,8.8-6.2c2.1-2.3,3.8-5,5-8
		c1.2-3,1.8-6.2,1.8-9.7C-787.2,1535.5-787.9,1531.9-789.4,1528.6z"/>
	<path class="st4" d="M-720.5,1563.2l-18.9-41.5c-1.5-3.3-3.5-5.7-5.9-7.3s-5.5-2.4-9.2-2.4c-3.8,0-6.9,0.8-9.3,2.4
		c-2.4,1.6-4.4,4-5.9,7.3l-18.7,41.5c-0.2,0.4-0.4,0.8-0.5,1.2c-0.1,0.4-0.2,0.7-0.3,1.2h16.2c0.1-0.3,0.1-0.6,0.2-0.9
		c0.1-0.3,0.2-0.6,0.3-0.9l2.7-6.3l-2.2,4.9l2.2-4.9l0,0l0,0l5.1-11.5h0l8-18.7c0.3-0.6,0.6-1,1-1.3c0.4-0.2,0.9-0.3,1.3-0.3
		c0.5,0,1,0.1,1.4,0.4c0.4,0.3,0.7,0.7,1,1.2l8.1,18.7h0l5.1,11.5l0,0l0,0l3.6,8.1h15.6c-0.1-0.4-0.2-0.8-0.3-1.2
		C-720.1,1564-720.3,1563.6-720.5,1563.2z"/>
	<polygon class="st4" points="-668.1,1513.1 -728.1,1513.1 -728.1,1527 -705.1,1527 -705.1,1565.5 -691,1565.5 -691,1527 
		-668.1,1527 	"/>
	<path class="st4" d="M-607.3,1564.3c-0.1-0.4-0.3-0.7-0.5-1.2l-18.9-41.5c-1.5-3.3-3.5-5.7-5.9-7.3c-2.5-1.6-5.5-2.4-9.2-2.4
		c-3.8,0-6.9,0.8-9.3,2.4c-2.4,1.6-4.4,4-5.9,7.3l-18.7,41.5c-0.2,0.4-0.4,0.8-0.5,1.2c-0.1,0.4-0.2,0.7-0.3,1.2h16.2
		c0.1-0.3,0.1-0.6,0.2-0.9c0.1-0.3,0.2-0.6,0.3-0.9l2.7-6.3l-2.6,5.9l2.6-5.9l0,0l0,0l5.1-11.5l8-18.7c0.3-0.6,0.6-1,1-1.3
		c0.4-0.2,0.9-0.3,1.3-0.3c0.5,0,1,0.1,1.4,0.4c0.4,0.3,0.7,0.7,1,1.2l8.1,18.7l5.1,11.5l0,0l0,0l3.1,7l-3.1-7l2.8,6.3
		c0.1,0.3,0.2,0.5,0.3,0.8c0.1,0.3,0.2,0.6,0.3,1h15.8C-607.1,1565.1-607.2,1564.7-607.3,1564.3z"/>
	<g>
		<text transform="matrix(1 0 0 1 -737.0784 2252.9126)" style="font-family:'MyriadPro-Regular'; font-size:29.304px;">This One Bit Diffrent from our selection. </text>
		<text transform="matrix(1 0 0 1 -203.4216 2252.9126)" style="font-family:'MyriadPro-Regular'; font-size:29.304px;">Primery  </text>
		<text transform="matrix(1 0 0 1 -44.7549 2252.9124)" style="font-family:'MyriadPro-Regular'; font-size:29.304px;">Secoundery</text>
		<rect x="-81.3" y="2226.7" class="st4" width="33.3" height="35.2"/>
	</g>
</g>
</svg>
