<?xml version="1.0" encoding="utf-8"?>
<!-- Generator: Adobe Illustrator 25.3.1, SVG Export Plug-In . SVG Version: 6.00 Build 0)  -->
<svg version="1.1" id="Layer_1" xmlns="http://www.w3.org/2000/svg" xmlns:xlink="http://www.w3.org/1999/xlink" x="0px" y="0px"
	 viewBox="0 0 209.3 48.1" style="enable-background:new 0 0 209.3 48.1;" xml:space="preserve">
<style type="text/css">
	.st0{fill-rule:evenodd;clip-rule:evenodd;fill:#0BA94B;}
	.st1{fill-rule:evenodd;clip-rule:evenodd;fill:#EB2027;}
	.st2{fill-rule:evenodd;clip-rule:evenodd;fill:#4899D3;}
	.st3{fill-rule:evenodd;clip-rule:evenodd;fill:#FFFFFF;}
	.st4{fill:#4899D3;}
	.st5{fill:#0BA94B;stroke:#0BA94B;stroke-miterlimit:10;}
</style>
<g>
	<g>
		<path class="st0" d="M14.8,33.1c1.3,0.9,2.8,1.2,4.4,1.3c3.2,0.2,6.3-0.7,9.2-2c2.8-1.2,5.4-2.8,7.8-4.9c0.1-0.1,0.2-0.2,0.3-0.3
			c0.4-0.5,0.9-0.9,1.3-1.3c0.3-0.3,0.5-0.7,0.9-0.8c2-2.2,3.7-4.6,4.2-7.8c0.2-0.9,0.2-1.9-0.1-2.8c-0.3-0.4-0.5-0.9-0.6-1.4
			c-0.5-0.9-1.2-1.4-2-1.9c-0.1-0.1-0.3-0.2-0.5-0.3c0.8-0.1,1.5-0.1,2.2,0c1.3,0.1,2.6,0.3,3.9,0.9c2.7,1.2,3.8,3.8,3,6.9
			c-0.6,2.3-1.9,4.2-3.4,6c-2.9,3.4-6.3,5.9-10,8c-3.5,2-7.2,3.4-11.1,4.1c-2.5,0.5-5.1,0.6-7.6-0.1c-1-0.3-2-0.8-2.8-1.6
			c-1.2-1.2-1.6-2.6-1.5-4.4c0-0.2,0-0.5,0.1-0.7c0.1-0.1,0.1,0,0.2,0.1c0,0.1,0,0.3,0.1,0.4c0.2,0.3,0.4,0.6,0.5,1c0,0,0,0,0,0.1
			c0.1,0.1,0.2,0.2,0.2,0.3l0,0C14,32.2,14.4,32.7,14.8,33.1z"/>
		<path class="st1" d="M11.1,21c0.7,1.2,1.6,2.2,2.7,3c0.3,0.2,0.2,0.4,0,0.6c-1.1,1.5-2,3.1-2.6,4.9c-0.3,0.9-0.4,1.7-0.4,2.6
			c0.1,2.2,1.1,3.8,2.9,4.7c0.1,0.1,0.2,0.1,0.3,0.2c0,0.2-0.2,0.1-0.3,0.1c-1.9,0.1-3.7,0-5.5-0.8c-1.1-0.4-2-1.1-2.7-2.2
			c-0.8-1.4-0.9-2.9-0.6-4.4c0.5-2.2,1.6-4,2.9-5.7c0.8-1.1,1.7-2.1,2.7-3C10.8,21.1,10.9,20.8,11.1,21z"/>
		<path class="st2" d="M32.2,43.6c-0.7,0-1.1-0.3-1.4-0.8c-0.9-1.6-1.7-3.3-2.6-5c-0.1-0.2-0.1-0.3,0.2-0.4c1.7-0.5,3.3-1.1,4.9-1.9
			c0.2-0.1,0.3-0.1,0.4,0.2c0.7,1.3,1.3,2.6,2,3.9c0.5,0.9,0.3,1.8-0.6,2.3c-0.8,0.5-1.5,1-2.3,1.5C32.7,43.5,32.4,43.7,32.2,43.6z"
			/>
		<path class="st2" d="M26.3,23.9c0.3,0.6,0.6,1.2,0.9,1.7c0.1,0.2,0.2,0.2,0.3,0.2c0.6-0.1,1.1,0.2,1.5,0.8c0.5,0.9,1,1.9,1.5,2.8
			c0.1,0.2,0.1,0.4-0.1,0.5c-1.6,0.8-3.2,1.5-4.8,2.1c-0.2,0.1-0.3,0-0.4-0.2c-0.3-0.7-0.7-1.3-1-2c-0.3-0.6-0.3-1.3,0.1-1.9
			c0.1-0.2,0.1-0.3,0-0.4c-0.5-1-1-1.9-1.5-2.9c-0.1-0.1-0.1-0.3-0.3-0.2c-2.6,0.9-5.2,0.5-7.6-0.9c-1.1-0.8-2.1-1.8-2.9-3.1
			c-0.7-1.3-1.2-2.8-1.5-4.3c-0.7-5.3,2.6-10.4,7.3-11.4c5.1-1.1,9.9,2.5,10.8,8.2c0.4,2.4,0,4.7-1.1,6.9c-0.1,0.2-0.2,0.4-0.3,0.6
			c-0.2,0.6-0.6,1-1,1.4c-0.5,0.6-0.5,0.6-0.2,1.3C26.2,23.4,26.3,23.6,26.3,23.9z"/>
		<path class="st1" d="M39.3,15.1c-1.4-1-2.9-1.3-4.5-1.4c-1.6-0.1-3.1,0.1-4.6,0.4c-0.3,0.1-0.4,0-0.4-0.3c0-0.7-0.1-1.4-0.3-2.1
			c-0.1-0.2-0.1-0.4,0.2-0.4c2.8-0.5,5.7-0.7,8.5,0.5c1.4,0.6,2.5,1.5,3.1,3.1c0.4,1,0.4,2,0.2,3c0,0.1,0,0.2-0.1,0.2
			c0,0-0.1-0.1-0.1-0.2c-0.2-0.2-0.2-0.5-0.4-0.7c-0.3-0.6-0.8-1.1-1.3-1.6C39.5,15.4,39.3,15.3,39.3,15.1z"/>
		<path class="st3" d="M19.6,19.8c-2.5,0-4.6-2.3-4.6-5.1c0-2.8,2.1-5.1,4.6-5.1c2.5,0,4.6,2.3,4.6,5.1
			C24.2,17.5,22.1,19.8,19.6,19.8z"/>
	</g>
	<g>
		<g>
			<g>
				<path class="st4" d="M54.1,22.9v-4.3c0.8,0.7,1.6,1.2,2.6,1.5c0.9,0.3,1.9,0.5,2.8,0.5c0.6,0,1,0,1.4-0.1c0.4-0.1,0.8-0.2,1-0.4
					c0.3-0.2,0.5-0.4,0.6-0.6c0.1-0.2,0.2-0.5,0.2-0.8c0-0.4-0.1-0.7-0.3-1c-0.2-0.3-0.5-0.6-0.9-0.8c-0.4-0.3-0.8-0.5-1.3-0.7
					c-0.5-0.2-1.1-0.5-1.7-0.7c-1.5-0.6-2.7-1.4-3.4-2.3c-0.7-0.9-1.1-2-1.1-3.3c0-1,0.2-1.9,0.6-2.6c0.4-0.7,1-1.3,1.7-1.8
					c0.7-0.5,1.5-0.8,2.4-1c0.9-0.2,1.9-0.3,2.9-0.3c1,0,1.9,0.1,2.7,0.2c0.8,0.1,1.5,0.3,2.2,0.6v4.1c-0.3-0.2-0.7-0.4-1.1-0.6
					c-0.4-0.2-0.8-0.3-1.2-0.4c-0.4-0.1-0.8-0.2-1.2-0.3c-0.4-0.1-0.8-0.1-1.1-0.1c-0.5,0-1,0-1.4,0.1c-0.4,0.1-0.8,0.2-1,0.4
					C59.3,8,59,8.2,58.9,8.4c-0.2,0.2-0.2,0.5-0.2,0.8c0,0.3,0.1,0.6,0.3,0.9c0.2,0.3,0.4,0.5,0.7,0.7c0.3,0.2,0.7,0.5,1.2,0.7
					c0.5,0.2,1,0.5,1.5,0.7c0.8,0.3,1.5,0.7,2.1,1c0.6,0.4,1.2,0.8,1.6,1.2c0.4,0.5,0.8,1,1,1.6c0.2,0.6,0.4,1.3,0.4,2.1
					c0,1.1-0.2,2-0.6,2.7c-0.4,0.7-1,1.3-1.7,1.8c-0.7,0.5-1.5,0.8-2.5,1c-0.9,0.2-1.9,0.3-3,0.3c-1.1,0-2.1-0.1-3-0.3
					C55.7,23.5,54.8,23.2,54.1,22.9z"/>
				<path class="st4" d="M82.3,23.6H70.6V4.1h11.2v3.6H75V12h6.4v3.6H75V20h7.3V23.6z"/>
				<path class="st4" d="M93.6,23.9c-2.8,0-5.1-0.9-6.8-2.7c-1.8-1.8-2.6-4.2-2.6-7.1c0-3.1,0.9-5.6,2.7-7.5C88.6,4.7,91,3.8,94,3.8
					c2.8,0,5,0.9,6.7,2.7c1.7,1.8,2.6,4.2,2.6,7.2c0,3.1-0.9,5.5-2.7,7.4C98.8,23,96.5,23.9,93.6,23.9z M93.8,7.6
					c-1.5,0-2.8,0.6-3.7,1.7c-0.9,1.2-1.4,2.7-1.4,4.6c0,1.9,0.5,3.5,1.4,4.6c0.9,1.1,2.1,1.7,3.6,1.7c1.5,0,2.7-0.5,3.6-1.6
					c0.9-1.1,1.3-2.6,1.3-4.5c0-2-0.4-3.6-1.3-4.7C96.5,8.1,95.3,7.6,93.8,7.6z"/>
			</g>
			<g>
				<path class="st4" d="M119.5,23.6h-11.7V4.1h11.2v3.6h-6.8V12h6.4v3.6h-6.4V20h7.3V23.6z"/>
				<path class="st4" d="M135.7,9.7l-4.6,6.7l4.6,7.2h-4.9l-2-3.7c-0.2-0.3-0.4-0.7-0.6-1.3H128c-0.1,0.4-0.3,0.8-0.6,1.2l-2,3.8
					h-4.9l4.7-6.9l-4.4-7h5l2,3.9c0.3,0.5,0.4,1,0.6,1.3h0.1c0.1-0.4,0.3-0.9,0.6-1.3l2-3.9H135.7z"/>
				<path class="st4" d="M141.9,22L141.9,22l-0.1,8h-4.3V9.7h4.3v2.1h0.1c1.1-1.6,2.5-2.4,4.5-2.4c1.8,0,3.2,0.6,4.2,1.9
					c1,1.2,1.5,2.9,1.5,5c0,2.3-0.6,4.2-1.7,5.6c-1.1,1.4-2.7,2.1-4.6,2.1C144.1,23.9,142.8,23.3,141.9,22z M141.8,16.3v1.1
					c0,1,0.3,1.7,0.8,2.4c0.5,0.6,1.2,0.9,2,0.9c1,0,1.7-0.4,2.3-1.1c0.5-0.8,0.8-1.8,0.8-3.2c0-2.4-1-3.7-2.9-3.7
					c-0.9,0-1.6,0.3-2.2,1C142.1,14.3,141.8,15.2,141.8,16.3z"/>
				<path class="st4" d="M166.1,23.6H162v-2h-0.1c-0.9,1.6-2.3,2.3-4.1,2.3c-1.3,0-2.4-0.4-3.2-1.1c-0.8-0.8-1.2-1.8-1.2-3.1
					c0-2.7,1.6-4.3,4.8-4.7l3.8-0.5c0-1.5-0.8-2.3-2.5-2.3c-1.7,0-3.2,0.5-4.7,1.5v-3.2c0.6-0.3,1.4-0.6,2.5-0.8
					c1-0.2,2-0.4,2.8-0.4c4,0,6,2,6,5.9V23.6z M162,18V17l-2.5,0.3c-1.4,0.2-2.1,0.8-2.1,1.9c0,0.5,0.2,0.9,0.5,1.2
					c0.3,0.3,0.8,0.5,1.4,0.5c0.8,0,1.5-0.3,2-0.8C161.8,19.5,162,18.8,162,18z"/>
				<path class="st4" d="M178.5,13.6c-0.5-0.3-1.1-0.4-1.8-0.4c-0.9,0-1.7,0.3-2.2,1c-0.5,0.7-0.8,1.6-0.8,2.8v6.6h-4.3V9.7h4.3v2.6
					h0.1c0.7-1.9,1.9-2.8,3.7-2.8c0.5,0,0.8,0.1,1.1,0.2V13.6z"/>
				<path class="st4" d="M189.7,23.4c-0.6,0.3-1.6,0.5-2.9,0.5c-3,0-4.5-1.6-4.5-4.7v-6.4h-2.3V9.7h2.3v-3l4.3-1.2v4.2h3.1v3.2h-3.1
					v5.6c0,1.4,0.6,2.2,1.7,2.2c0.5,0,0.9-0.1,1.4-0.4V23.4z"/>
				<path class="st4" d="M204.4,17.9h-9.1c0.1,2,1.4,3,3.8,3c1.5,0,2.9-0.4,4-1.1v3.1c-1.3,0.7-3,1-5,1c-2.2,0-4-0.6-5.2-1.9
					c-1.2-1.2-1.9-3-1.9-5.2c0-2.3,0.7-4.1,2-5.5c1.3-1.3,3-2,4.9-2c2,0,3.6,0.6,4.7,1.8c1.1,1.2,1.7,2.8,1.7,4.9V17.9z M200.5,15.2
					c0-2-0.8-3-2.4-3c-0.7,0-1.3,0.3-1.8,0.9c-0.5,0.6-0.8,1.3-0.9,2.1H200.5z"/>
			</g>
		</g>
		<g>
			<path class="st5" d="M62.2,38v0.6c0,0.8-0.3,1.4-0.8,1.9c-0.5,0.5-1.2,0.8-1.9,0.8h-4.2V30.6h4.2c0.8,0,1.4,0.3,1.9,0.8
				c0.5,0.5,0.8,1.2,0.8,1.9v0.6c0,0.8-0.3,1.5-0.9,2.1C61.9,36.6,62.2,37.2,62.2,38z M60.8,33.9v-0.6c0-0.4-0.1-0.7-0.4-1
				c-0.3-0.3-0.6-0.4-1-0.4h-2.8v3.3h2.8c0.4,0,0.7-0.1,1-0.4C60.7,34.6,60.8,34.3,60.8,33.9z M60.8,38.7v-0.6c0-0.4-0.1-0.7-0.4-1
				c-0.3-0.3-0.6-0.4-1-0.4h-2.8V40h2.8c0.4,0,0.7-0.1,1-0.4C60.7,39.3,60.8,39,60.8,38.7z"/>
			<path class="st5" d="M73,36.5h2.7c0.1,0,0.4,0,0.6,0.1l0-1c0-0.2-0.1-0.4-0.2-0.5c-0.1-0.1-0.3-0.2-0.5-0.2h-2.6
				c-0.2,0-0.3-0.1-0.5-0.2c-0.1-0.1-0.2-0.3-0.2-0.5c0-0.2,0.1-0.4,0.2-0.5c0.1-0.1,0.3-0.2,0.5-0.2h2.6c0.6,0,1,0.2,1.4,0.6
				c0.4,0.4,0.6,0.9,0.6,1.5l0.2,5.1c0,0.2-0.1,0.4-0.2,0.5c-0.1,0.1-0.3,0.2-0.5,0.2c-0.2,0-0.4-0.1-0.5-0.2
				c-0.1-0.1-0.2-0.3-0.2-0.5l-1.2,0.7H73c-0.6,0-1.1-0.2-1.5-0.6c-0.4-0.4-0.6-0.9-0.6-1.5v-0.8c0-0.6,0.2-1.1,0.6-1.5
				C72,36.7,72.5,36.5,73,36.5z M76.5,39.1l0-0.6c0-0.2-0.1-0.4-0.2-0.5c-0.1-0.1-0.3-0.2-0.5-0.2H73c-0.2,0-0.4,0.1-0.5,0.2
				c-0.1,0.1-0.2,0.3-0.2,0.5v0.8c0,0.2,0.1,0.3,0.2,0.5c0.1,0.1,0.3,0.2,0.5,0.2H75L76.5,39.1z"/>
			<path class="st5" d="M89.9,35.1L88,36.3v4.4c0,0.2-0.1,0.3-0.2,0.5c-0.1,0.1-0.3,0.2-0.5,0.2c-0.2,0-0.3-0.1-0.5-0.2
				c-0.1-0.1-0.2-0.3-0.2-0.5v-6.5c0-0.2,0.1-0.4,0.2-0.5c0.1-0.1,0.3-0.2,0.5-0.2c0.2,0,0.3,0.1,0.5,0.2C88,33.9,88,34,88,34.2v0.5
				l1.2-0.8c0.4-0.3,0.9-0.4,1.4-0.4h0.6c0.5,0,1,0.2,1.4,0.6c0.4,0.4,0.6,0.9,0.6,1.4l0.2,5.2c0,0.2-0.1,0.3-0.2,0.5
				c-0.1,0.1-0.3,0.2-0.5,0.2c-0.2,0-0.3-0.1-0.5-0.2c-0.1-0.1-0.2-0.3-0.2-0.5L92,35.6c0-0.5-0.3-0.7-0.8-0.7h-0.7
				C90.4,34.9,90.1,35,89.9,35.1z"/>
			<path class="st5" d="M106.6,44.3h-3c-0.2,0-0.4-0.1-0.5-0.2c-0.1-0.1-0.2-0.3-0.2-0.5c0-0.2,0.1-0.4,0.2-0.5
				c0.1-0.1,0.3-0.2,0.5-0.2h3c0.2,0,0.3-0.1,0.5-0.2l0.5-0.4c0.2-0.1,0.2-0.3,0.2-0.5v-2.1c-0.6,0.6-1.3,1-1.9,1h-1.1
				c-0.5,0-1-0.2-1.5-0.6l-0.5-0.5c-0.2-0.1-0.3-0.3-0.4-0.6c-0.1-0.3-0.2-0.5-0.2-0.8v-2.3c0-0.3,0.1-0.6,0.2-0.9
				c0.1-0.3,0.3-0.5,0.4-0.6l0.6-0.5c0.4-0.3,0.9-0.5,1.4-0.5h1c0.5,0,1,0.2,1.5,0.6l0.5,0.4l0-0.3c0-0.2,0.1-0.3,0.2-0.5
				c0.1-0.1,0.3-0.2,0.5-0.2c0.2,0,0.4,0.1,0.5,0.2c0.1,0.1,0.2,0.3,0.2,0.5v7.7c0,0.6-0.2,1.1-0.7,1.5l-0.6,0.5
				c-0.1,0.1-0.3,0.2-0.6,0.3C107.1,44.3,106.8,44.3,106.6,44.3z M105.8,34.9h-0.9c-0.2,0-0.4,0.1-0.6,0.2l-0.4,0.4
				c-0.2,0.1-0.2,0.3-0.2,0.6v2.3c0,0.2,0.1,0.4,0.3,0.5l0.4,0.4c0.1,0.1,0.3,0.2,0.4,0.2h1.1c0.2,0,0.3-0.1,0.5-0.2l1.1-0.9
				c0.2-0.1,0.3-0.3,0.3-0.5v-1c0-0.2-0.1-0.5-0.3-0.6l-1.1-1C106.3,35,106.1,34.9,105.8,34.9z"/>
			<path class="st5" d="M123.5,41.4h-4.1c-0.2,0-0.4-0.1-0.5-0.2c-0.1-0.1-0.2-0.3-0.2-0.5c0-0.2,0.1-0.3,0.2-0.5
				c0.1-0.1,0.3-0.2,0.5-0.2h1.4v-8.1h-1.4c-0.2,0-0.4-0.1-0.5-0.2c-0.1-0.1-0.2-0.3-0.2-0.5s0.1-0.4,0.2-0.5
				c0.1-0.1,0.3-0.2,0.5-0.2h2.1c0.2,0,0.3,0.1,0.5,0.2c0.1,0.1,0.2,0.3,0.2,0.5V40h1.4c0.2,0,0.3,0.1,0.5,0.2
				c0.1,0.1,0.2,0.3,0.2,0.5c0,0.2-0.1,0.4-0.2,0.5C123.9,41.3,123.7,41.4,123.5,41.4z"/>
			<path class="st5" d="M135.7,36.5h2.7c0.1,0,0.4,0,0.6,0.1l0-1c0-0.2-0.1-0.4-0.2-0.5c-0.1-0.1-0.3-0.2-0.5-0.2h-2.6
				c-0.2,0-0.3-0.1-0.5-0.2c-0.1-0.1-0.2-0.3-0.2-0.5c0-0.2,0.1-0.4,0.2-0.5c0.1-0.1,0.3-0.2,0.5-0.2h2.6c0.6,0,1,0.2,1.4,0.6
				c0.4,0.4,0.6,0.9,0.6,1.5l0.2,5.1c0,0.2-0.1,0.4-0.2,0.5c-0.1,0.1-0.3,0.2-0.5,0.2c-0.2,0-0.4-0.1-0.5-0.2
				c-0.1-0.1-0.2-0.3-0.2-0.5l-1.2,0.7h-2.3c-0.6,0-1.1-0.2-1.5-0.6c-0.4-0.4-0.6-0.9-0.6-1.5v-0.8c0-0.6,0.2-1.1,0.6-1.5
				C134.6,36.7,135.1,36.5,135.7,36.5z M139.1,39.1l0-0.6c0-0.2-0.1-0.4-0.2-0.5c-0.1-0.1-0.3-0.2-0.5-0.2h-2.7
				c-0.2,0-0.4,0.1-0.5,0.2c-0.1,0.1-0.2,0.3-0.2,0.5v0.8c0,0.2,0.1,0.3,0.2,0.5c0.1,0.1,0.3,0.2,0.5,0.2h1.9L139.1,39.1z"/>
			<path class="st5" d="M154.8,34.5v-3.2c0-0.2,0.1-0.4,0.2-0.5c0.1-0.1,0.3-0.2,0.5-0.2c0.2,0,0.4,0.1,0.5,0.2
				c0.1,0.1,0.2,0.3,0.2,0.5v9.5c0,0.2-0.1,0.4-0.2,0.5c-0.1,0.1-0.3,0.2-0.5,0.2c-0.2,0-0.4-0.1-0.5-0.2c-0.1-0.1-0.2-0.3-0.2-0.5
				v-0.3c-0.7,0.7-1.3,1-1.9,1h-1.2c-0.5,0-0.9-0.2-1.4-0.6l-0.6-0.5c-0.1-0.1-0.3-0.3-0.4-0.6c-0.1-0.3-0.2-0.6-0.2-0.8v-2.8
				c0-0.3,0.1-0.6,0.2-0.9c0.1-0.3,0.3-0.5,0.5-0.7l0.6-0.5c0.4-0.3,0.9-0.5,1.4-0.5h1c0.5,0,1,0.2,1.5,0.6L154.8,34.5z M152.8,34.9
				h-1c-0.2,0-0.4,0.1-0.5,0.2l-0.4,0.4c-0.2,0.1-0.2,0.3-0.2,0.5v2.9c0,0.2,0.1,0.4,0.3,0.5l0.4,0.4c0.1,0.1,0.3,0.2,0.4,0.2h1.1
				c0.1,0,0.3-0.1,0.5-0.3l1.1-0.9c0.2-0.2,0.3-0.4,0.3-0.6v-1.5c0-0.3-0.1-0.6-0.3-0.7l-1.1-1C153.3,35,153.1,34.9,152.8,34.9z"/>
			<path class="st5" d="M171.9,36.1v1.7c0,0.2-0.1,0.3-0.2,0.5c-0.1,0.1-0.3,0.2-0.5,0.2h-4.8v0.4c0,0.2,0.1,0.4,0.3,0.6l0.4,0.3
				c0.2,0.2,0.4,0.3,0.6,0.3h3.5c0.2,0,0.3,0.1,0.5,0.2c0.1,0.1,0.2,0.3,0.2,0.5c0,0.2-0.1,0.3-0.2,0.5c-0.1,0.1-0.3,0.2-0.5,0.2
				h-3.6c-0.2,0-0.5,0-0.8-0.2c-0.3-0.1-0.5-0.2-0.6-0.3l-0.6-0.5c-0.2-0.2-0.3-0.4-0.5-0.6c-0.1-0.3-0.2-0.5-0.2-0.7v-3.1
				c0-0.2,0.1-0.4,0.2-0.7c0.1-0.3,0.3-0.5,0.5-0.7l0.6-0.4c0.4-0.3,0.8-0.5,1.2-0.5h1.9c0.5,0,0.9,0.2,1.4,0.6l0.5,0.5
				C171.7,35,171.9,35.5,171.9,36.1z M166.3,36v1.1h4.2v-1c0-0.3-0.1-0.5-0.2-0.6l-0.4-0.4c-0.2-0.2-0.4-0.3-0.6-0.3h-1.7
				c-0.2,0-0.4,0.1-0.6,0.2l-0.4,0.3C166.4,35.6,166.3,35.8,166.3,36z"/>
			<path class="st5" d="M182.5,33.5h3.1c0.5,0,0.9,0.1,1.3,0.4c0.4,0.3,0.6,0.6,0.6,0.9c0,0.2-0.1,0.4-0.2,0.5
				c-0.1,0.1-0.3,0.2-0.5,0.2c-0.2,0-0.4-0.1-0.6-0.3c-0.2-0.2-0.4-0.3-0.6-0.3h-3.1c-0.3,0-0.5,0.1-0.5,0.4c0,0.2,0.1,0.3,0.3,0.4
				l3.6,1.6c0.4,0.2,0.7,0.4,0.9,0.8c0.2,0.4,0.4,0.8,0.4,1.2c0,0.6-0.2,1.1-0.6,1.5c-0.4,0.4-0.9,0.6-1.4,0.6h-2.8
				c-0.5,0-0.9-0.1-1.3-0.4c-0.4-0.3-0.6-0.6-0.6-0.8c0-0.2,0.1-0.3,0.2-0.5c0.1-0.1,0.3-0.2,0.5-0.2c0.2,0,0.4,0.1,0.6,0.3
				c0.2,0.2,0.5,0.3,0.9,0.3h2.6c0.2,0,0.4-0.1,0.5-0.2c0.1-0.2,0.2-0.3,0.2-0.5c0-0.3-0.2-0.5-0.5-0.7l-3.7-1.7
				c-0.4-0.2-0.6-0.4-0.8-0.7c-0.2-0.3-0.3-0.6-0.3-0.9c0-0.5,0.2-0.9,0.5-1.3C181.6,33.7,182,33.5,182.5,33.5z"/>
			<path class="st5" d="M196.3,40.7v-9.5c0-0.2,0.1-0.3,0.2-0.5c0.1-0.1,0.3-0.2,0.5-0.2s0.4,0.1,0.5,0.2c0.1,0.1,0.2,0.3,0.2,0.5
				v3.5l1.1-0.7c0.5-0.3,0.9-0.5,1.3-0.5h0.8c0.6,0,1,0.2,1.4,0.6c0.4,0.4,0.6,0.9,0.6,1.5l0.2,5.1c0,0.2-0.1,0.4-0.2,0.5
				c-0.1,0.1-0.3,0.2-0.5,0.2s-0.4-0.1-0.5-0.2c-0.1-0.1-0.2-0.3-0.2-0.5l-0.2-5.1c0-0.2-0.1-0.3-0.2-0.5c-0.1-0.1-0.3-0.2-0.5-0.2
				h-0.8c-0.2,0-0.4,0.1-0.6,0.2l-1.9,1.3v4.4c0,0.2-0.1,0.4-0.2,0.5c-0.1,0.1-0.3,0.2-0.5,0.2s-0.4-0.1-0.5-0.2
				C196.3,41.1,196.3,40.9,196.3,40.7z"/>
		</g>
	</g>
</g>
</svg>
