<svg id="Layer_1" data-name="Layer 1" xmlns="http://www.w3.org/2000/svg" viewBox="0 0 645 461"><defs><style>.cls-1,.cls-10,.cls-11,.cls-13{fill:#fff;}.cls-1,.cls-10,.cls-11,.cls-5,.cls-6,.cls-7,.cls-9{stroke:#263238;}.cls-1,.cls-10,.cls-11,.cls-2,.cls-3,.cls-5,.cls-6,.cls-7,.cls-9{stroke-linecap:round;stroke-linejoin:round;}.cls-2,.cls-5{fill:none;}.cls-2,.cls-3{stroke:gray;}.cls-18,.cls-3,.cls-6,.cls-9{fill:#263238;}.cls-4{fill:#e3e3e3;}.cls-7{fill:#ccc;}.cls-8{fill:#3ea7ff;}.cls-12,.cls-24{isolation:isolate;}.cls-12{opacity:0.2;}.cls-14{fill:#81bfe9;}.cls-15{fill:#221f1f;}.cls-16{fill:#fafafa;}.cls-17{fill:#ebebeb;}.cls-19{fill:#37474f;}.cls-20{fill:#455a64;}.cls-21{fill:#ba68c8;}.cls-22{fill:#e0e0e0;}.cls-23{opacity:0.21;}.cls-24{opacity:0.3;}.cls-25{fill:#407bff;}</style></defs><g id="freepik--Floor--inject-366"><polygon class="cls-1" points="406.58 367.06 250.09 367.06 260.19 342.31 396.48 342.31 406.58 367.06"/><polygon class="cls-1" points="268.42 347.81 262.48 347.81 263.7 344.63 269.52 344.63 268.42 347.81"/><polygon class="cls-1" points="276.8 347.81 270.87 347.81 271.93 344.63 277.76 344.63 276.8 347.81"/><polygon class="cls-1" points="285.19 347.81 279.25 347.81 280.15 344.63 285.98 344.63 285.19 347.81"/><polygon class="cls-1" points="293.57 347.81 287.63 347.81 288.39 344.63 294.22 344.63 293.57 347.81"/><polygon class="cls-1" points="301.96 347.81 296.02 347.81 296.61 344.63 302.44 344.63 301.96 347.81"/><polygon class="cls-1" points="310.34 347.81 304.4 347.81 304.85 344.63 310.68 344.63 310.34 347.81"/><polygon class="cls-1" points="318.72 347.81 312.79 347.81 313.07 344.63 318.9 344.63 318.72 347.81"/><polygon class="cls-1" points="327.11 347.81 321.17 347.81 321.31 344.63 327.13 344.63 327.11 347.81"/><polygon class="cls-1" points="335.5 347.81 329.56 347.81 329.53 344.63 335.36 344.63 335.5 347.81"/><polygon class="cls-1" points="343.88 347.81 337.93 347.81 337.76 344.63 343.59 344.63 343.88 347.81"/><polygon class="cls-1" points="352.26 347.81 346.32 347.81 345.99 344.63 351.82 344.63 352.26 347.81"/><polygon class="cls-1" points="360.64 347.81 354.71 347.81 354.22 344.63 360.05 344.63 360.64 347.81"/><polygon class="cls-1" points="369.03 347.81 363.09 347.81 362.45 344.63 368.28 344.63 369.03 347.81"/><polygon class="cls-1" points="377.41 347.81 371.48 347.81 370.67 344.63 376.5 344.63 377.41 347.81"/><polygon class="cls-1" points="385.8 347.81 379.86 347.81 378.91 344.63 384.74 344.63 385.8 347.81"/><polygon class="cls-1" points="394.18 347.81 388.24 347.81 387.14 344.63 392.97 344.63 394.18 347.81"/><polygon class="cls-1" points="265.94 354.95 259.76 354.95 261.07 351.5 267.14 351.5 265.94 354.95"/><polygon class="cls-1" points="274.67 354.95 268.49 354.95 269.64 351.5 275.7 351.5 274.67 354.95"/><polygon class="cls-1" points="283.4 354.95 277.22 354.95 278.2 351.5 284.27 351.5 283.4 354.95"/><polygon class="cls-1" points="292.14 354.95 285.95 354.95 286.77 351.5 292.83 351.5 292.14 354.95"/><polygon class="cls-1" points="300.86 354.95 294.68 354.95 295.33 351.5 301.4 351.5 300.86 354.95"/><polygon class="cls-1" points="309.6 354.95 303.41 354.95 303.89 351.5 309.95 351.5 309.6 354.95"/><polygon class="cls-1" points="318.33 354.95 312.14 354.95 312.46 351.5 318.52 351.5 318.33 354.95"/><polygon class="cls-1" points="327.06 354.95 320.88 354.95 321.01 351.5 327.09 351.5 327.06 354.95"/><polygon class="cls-1" points="335.79 354.95 329.6 354.95 329.58 351.5 335.64 351.5 335.79 354.95"/><polygon class="cls-1" points="344.52 354.95 338.34 354.95 338.14 351.5 344.21 351.5 344.52 354.95"/><polygon class="cls-1" points="353.25 354.95 347.07 354.95 346.71 351.5 352.77 351.5 353.25 354.95"/><polygon class="cls-1" points="361.98 354.95 355.79 354.95 355.27 351.5 361.34 351.5 361.98 354.95"/><polygon class="cls-1" points="370.71 354.95 364.53 354.95 363.83 351.5 369.9 351.5 370.71 354.95"/><polygon class="cls-1" points="379.44 354.95 373.26 354.95 372.4 351.5 378.46 351.5 379.44 354.95"/><polygon class="cls-1" points="388.18 354.95 381.99 354.95 380.95 351.5 387.03 351.5 388.18 354.95"/><polygon class="cls-1" points="396.9 354.95 390.72 354.95 389.52 351.5 395.58 351.5 396.9 354.95"/><polygon class="cls-1" points="263.25 362.7 256.8 362.7 258.23 358.95 264.55 358.95 263.25 362.7"/><polygon class="cls-1" points="272.36 362.7 265.91 362.7 267.15 358.95 273.48 358.95 272.36 362.7"/><polygon class="cls-1" points="281.47 362.7 275.01 362.7 276.08 358.95 282.4 358.95 281.47 362.7"/><polygon class="cls-1" points="345.22 362.7 284.12 362.7 285 358.95 344.88 358.95 345.22 362.7"/><polygon class="cls-1" points="354.33 362.7 347.88 362.7 347.49 358.95 353.81 358.95 354.33 362.7"/><polygon class="cls-1" points="363.44 362.7 356.98 362.7 356.41 358.95 362.73 358.95 363.44 362.7"/><polygon class="cls-1" points="372.54 362.7 366.09 362.7 365.34 358.95 371.65 358.95 372.54 362.7"/><polygon class="cls-1" points="381.65 362.7 375.2 362.7 374.26 358.95 380.58 358.95 381.65 362.7"/><polygon class="cls-1" points="390.76 362.7 384.31 362.7 383.18 358.95 389.5 358.95 390.76 362.7"/><polygon class="cls-1" points="399.87 362.7 393.42 362.7 392.11 358.95 398.43 358.95 399.87 362.7"/><rect class="cls-1" x="250.09" y="367.06" width="156.38" height="2.15"/></g><g id="freepik--Window--inject-366"><polygon class="cls-2" points="131.81 146.62 57.63 146.62 56.65 158.59 131.81 158.59 131.81 146.62"/><polygon class="cls-2" points="131.81 158.59 57.63 158.59 56.65 170.57 131.81 170.57 131.81 158.59"/><polygon class="cls-2" points="131.81 170.57 57.63 170.57 56.65 182.56 131.81 182.56 131.81 170.57"/><polygon class="cls-2" points="131.81 182.56 57.63 182.56 56.65 194.54 131.81 194.54 131.81 182.56"/><polygon class="cls-2" points="131.81 194.54 57.63 194.54 56.65 206.51 131.81 206.51 131.81 194.54"/><polygon class="cls-2" points="131.81 206.51 57.63 206.51 56.65 218.49 131.81 218.49 131.81 206.51"/><polygon class="cls-2" points="131.81 218.49 57.63 218.49 56.65 230.47 131.81 230.47 131.81 218.49"/><polygon class="cls-2" points="131.81 230.47 57.63 230.47 56.65 242.45 131.81 242.45 131.81 230.47"/><polygon class="cls-2" points="131.81 242.45 57.63 242.45 56.65 254.43 131.81 254.43 131.81 242.45"/><polygon class="cls-2" points="131.81 254.43 57.63 254.43 56.65 266.41 131.81 266.41 131.81 254.43"/><polygon class="cls-2" points="131.81 266.41 57.63 266.41 56.65 278.39 131.81 278.39 131.81 266.41"/><polygon class="cls-2" points="131.81 278.39 57.63 278.39 56.65 290.37 131.81 290.37 131.81 278.39"/><polygon class="cls-2" points="131.81 290.37 57.63 290.37 56.65 302.35 131.81 302.35 131.81 290.37"/><polygon class="cls-2" points="131.81 302.35 57.63 302.35 56.65 314.33 131.81 314.33 131.81 302.35"/><polygon class="cls-2" points="131.81 314.33 57.63 314.33 56.65 326.31 131.81 326.31 131.81 314.33"/><polygon class="cls-2" points="208.06 146.62 133.89 146.62 132.91 158.59 208.06 158.59 208.06 146.62"/><polygon class="cls-2" points="208.06 158.59 133.89 158.59 132.91 170.57 208.06 170.57 208.06 158.59"/><polygon class="cls-2" points="208.06 170.57 133.89 170.57 132.91 182.56 208.06 182.56 208.06 170.57"/><polygon class="cls-2" points="208.06 182.56 133.89 182.56 132.91 194.54 208.06 194.54 208.06 182.56"/><polygon class="cls-2" points="208.06 194.54 133.89 194.54 132.91 206.51 208.06 206.51 208.06 194.54"/><polygon class="cls-2" points="208.06 206.51 133.89 206.51 132.91 218.49 208.06 218.49 208.06 206.51"/><polygon class="cls-2" points="208.06 218.49 133.89 218.49 132.91 230.47 208.06 230.47 208.06 218.49"/><polygon class="cls-2" points="208.06 230.47 133.89 230.47 132.91 242.45 208.06 242.45 208.06 230.47"/><polygon class="cls-2" points="208.06 242.45 133.89 242.45 132.91 254.43 208.06 254.43 208.06 242.45"/><polygon class="cls-2" points="208.06 254.43 133.89 254.43 132.91 266.41 208.06 266.41 208.06 254.43"/><polygon class="cls-2" points="208.06 266.41 133.89 266.41 132.91 278.39 208.06 278.39 208.06 266.41"/><polygon class="cls-2" points="208.06 278.39 133.89 278.39 132.91 290.37 208.06 290.37 208.06 278.39"/><polygon class="cls-2" points="208.06 290.37 133.89 290.37 132.91 302.35 208.06 302.35 208.06 290.37"/><polygon class="cls-2" points="208.06 302.35 133.89 302.35 132.91 314.33 208.06 314.33 208.06 302.35"/><polygon class="cls-2" points="208.06 314.33 133.89 314.33 132.91 326.31 208.06 326.31 208.06 314.33"/><rect class="cls-2" x="54.92" y="137.34" width="156.86" height="9.03"/><line class="cls-2" x1="211.78" y1="146.38" x2="211.78" y2="305.53"/><line class="cls-2" x1="210.07" y1="146.63" x2="210.07" y2="255.83"/><rect class="cls-3" x="210.78" y="305.18" width="2.1" height="4.06"/><rect class="cls-3" x="208.88" y="254.96" width="2.1" height="4.06"/></g><g id="freepik--Picture--inject-366"><rect class="cls-2" x="490.28" y="146.39" width="95.53" height="113.34"/><rect class="cls-2" x="495.06" y="152.06" width="85.98" height="102.01"/><rect class="cls-2" x="518.26" y="179.58" width="39.58" height="46.96"/></g><g id="freepik--Table--inject-366"><polygon class="cls-4" points="119.44 455.24 119.44 384.69 553.81 384.69 554.38 459.27 541.97 456.79 542.09 403.84 132.45 403.84 132.47 454.62 119.44 455.24"/><polyline class="cls-5" points="119.49 459.95 119.49 377.93 554.24 377.93 554.24 461.96"/><rect class="cls-6" x="119.53" y="384.69" width="434.27" height="6.62"/><polyline class="cls-5" points="132.45 459.14 132.45 403.84 542.09 403.84 542.09 462.77"/><rect class="cls-7" x="104.39" y="374.15" width="456.26" height="10.61"/><polygon class="cls-1" points="560.66 374.11 104.39 374.11 138.62 326.59 526.44 326.59 560.66 374.11"/></g><g id="freepik--device-3--inject-366"><path class="cls-6" d="M509.17,322.88l7.14,8.85a4.68,4.68,0,0,1-.71,6.58l-.05,0-16.5,12.87-36.43-13,16-9.91a4.68,4.68,0,0,0,1.52-6.43l-.19-.27-4.36-6.06Z"/><polygon class="cls-1" points="431.45 193.02 580.82 217.23 580.82 340.69 576.36 341.91 427 307.57 427 194.23 431.45 193.02"/><polygon class="cls-6" points="427 307.57 576.36 341.91 576.36 218.44 427 194.23 427 307.57"/><polygon class="cls-8" points="431.04 305.09 572.32 337.91 572.32 220.92 431.04 198.23 431.04 305.09"/></g><g id="freepik--device-2--inject-366"><polygon class="cls-6" points="358.48 332.42 303.07 332.42 307.68 315.59 307.68 305.96 353.86 305.96 353.86 316.54 358.48 332.42"/><rect class="cls-6" x="246.19" y="194.16" width="167.99" height="113.34"/><rect class="cls-1" x="250.24" y="197.4" width="159.89" height="106.86"/></g><g id="freepik--device-1--inject-366"><path class="cls-6" d="M152.69,322.88l-7.14,8.85a4.68,4.68,0,0,0,.71,6.58l.05,0,16.5,12.87,36.43-13-16-9.91a4.66,4.66,0,0,1-1.51-6.43,2.11,2.11,0,0,1,.18-.27l4.35-6.06Z"/><polygon class="cls-1" points="230.41 193.02 81.04 217.23 81.04 340.69 85.49 341.91 234.86 307.57 234.86 194.23 230.41 193.02"/><polygon class="cls-6" points="234.86 307.57 85.49 341.91 85.49 218.44 234.86 194.23 234.86 307.57"/><polygon class="cls-8" points="230.81 305.09 89.54 337.91 89.54 220.92 230.81 198.23 230.81 305.09"/></g><g id="freepik--charts-3--inject-366"><ellipse class="cls-9" cx="475.3" cy="245.52" rx="20.16" ry="24.51" transform="translate(-41.72 382.91) rotate(-42.2)"/><path class="cls-1" d="M487.85,242.8l-8.52-1.69a32.29,32.29,0,0,0,1.1-5.77c.31-3.24-.81-3.93-3.3-4.44s0,2.21-1.27,4.64c-1,2-4.05,3.5-5.2,4.05v14.8l12.61,2.47c4.25.2,1.57-3.31,1.57-3.31,3.16,0,1.26-3.54,1.26-3.54,3.16.15.95-3.24.95-3.24C490.36,245.82,487.85,242.8,487.85,242.8Z"/><polygon class="cls-1" points="461.84 252.2 468.93 253.6 468.93 239.25 461.84 237.87 461.84 252.2"/><ellipse class="cls-10" cx="528.54" cy="255.94" rx="20.16" ry="24.51" transform="translate(-34.93 421.37) rotate(-42.2)"/><path class="cls-6" d="M516,258.63l8.51,1.67a31.61,31.61,0,0,0-1.11,5.77c-.31,3.24.81,3.94,3.31,4.43s0-2.2,1.27-4.64c1-1.94,4-3.49,5.19-4.05V247l-12.6-2.48c-4.26-.2-1.58,3.32-1.58,3.32-3.15,0-1.25,3.54-1.25,3.54-3.16-.15-1,3.28-1,3.28C513.47,255.62,516,258.63,516,258.63Z"/><polygon class="cls-6" points="541.99 249.23 534.9 247.84 534.9 262.18 541.99 263.57 541.99 249.23"/><polygon class="cls-1" points="444.49 297.18 463.27 285.57 474.54 294.85 494.93 276.27 502.44 297.76 511.56 291.95 518.53 299.5 538.92 289.05 550.19 321.57 444.49 297.18"/><polygon class="cls-6" points="444.49 297.18 459.52 291.37 475.08 300.08 492.78 289.05 502.98 302.99 511.56 298.34 518.53 302.99 536.24 296.59 550.19 321.57 444.49 297.18"/><line class="cls-5" x1="463.65" y1="214.71" x2="489.21" y2="218.78"/><line class="cls-5" x1="517.67" y1="222.84" x2="543.22" y2="226.9"/></g><g id="freepik--charts-2--inject-366"><rect class="cls-1" x="265.54" y="210.45" width="38.91" height="6.2"/><rect class="cls-1" x="265.54" y="221.74" width="19.74" height="3.38"/><rect class="cls-8" x="266.67" y="269.11" width="20.71" height="11.28"/><rect class="cls-8" x="297.74" y="260.53" width="20.71" height="19.85"/><rect class="cls-8" x="328.8" y="249.26" width="20.71" height="31.13"/><rect class="cls-8" x="359.87" y="230.76" width="20.71" height="49.63"/><circle class="cls-11" cx="393.66" cy="236.5" r="7.93" transform="translate(-51.93 347.63) rotate(-45)"/><path class="cls-1" d="M398.13,234.64h-3a13,13,0,0,0,.39-2.14c.11-1.18-.29-1.35-1.18-1.35s0,.81-.45,1.75a5.81,5.81,0,0,1-1.86,1.8V240h4.5c1.52-.22.57-1.29.57-1.29,1.12-.22.44-1.35.44-1.35,1.13-.17.34-1.24.34-1.24a.8.8,0,0,0,.28-1.46Z"/><rect class="cls-1" x="388.85" y="234.72" width="2.53" height="5.12"/><circle class="cls-11" cx="393.66" cy="271.27" r="7.93" transform="translate(-76.51 357.81) rotate(-45)"/><path class="cls-1" d="M389.18,273.12h3a11.93,11.93,0,0,0-.4,2.13c-.11,1.18.28,1.35,1.18,1.35s0-.8.46-1.74a5.61,5.61,0,0,1,1.85-1.81v-5.28h-4.5c-1.52.22-.56,1.29-.56,1.29-1.13.23-.45,1.35-.45,1.35-1.13.17-.34,1.24-.34,1.24a.81.81,0,0,0-.62,1A.82.82,0,0,0,389.18,273.12Z"/><rect class="cls-1" x="395.92" y="267.94" width="2.53" height="5.12"/></g><g id="freepik--charts-1--inject-366"><path class="cls-1" d="M191.82,242.17l-84,16.58c-2.23.43-4-.73-4-2.61v-15c0-1.88,1.81-3.74,4-4.15l84-15.38c2-.37,3.61.81,3.61,2.55v14.2A4.37,4.37,0,0,1,191.82,242.17Z"/><path class="cls-1" d="M124.51,244.46c0-3.76-3.59-6.15-8-5.31s-8.14,4.59-8.14,8.39,3.65,6.19,8.14,5.31S124.51,248.23,124.51,244.46Z"/><line class="cls-5" x1="132.48" y1="239.62" x2="167.35" y2="233.06"/><line class="cls-5" x1="132.48" y1="242.63" x2="167.35" y2="236"/><line class="cls-5" x1="132.48" y1="246.4" x2="184.41" y2="236.4"/><path class="cls-1" d="M191.82,303.33l-84,20c-2.23.54-4-.55-4-2.42V305.83c0-1.89,1.81-3.82,4-4.31l84-18.85c2-.45,3.61.63,3.61,2.43v14.19A4.62,4.62,0,0,1,191.82,303.33Z"/><path class="cls-1" d="M124.51,308.37c0-3.76-3.59-6-8-5s-8.14,4.92-8.14,8.72,3.65,6,8.14,5S124.51,312.15,124.51,308.37Z"/><line class="cls-5" x1="132.48" y1="303.2" x2="167.35" y2="295.22"/><line class="cls-5" x1="132.48" y1="306.21" x2="167.35" y2="298.16"/><line class="cls-5" x1="132.48" y1="309.98" x2="184.41" y2="297.86"/><path class="cls-8" d="M199.76,224.6c0-3.91-3.55-6.43-7.95-5.63s-8,4.66-8,8.61,3.61,6.47,8,5.61S199.76,228.5,199.76,224.6Z"/><path class="cls-1" d="M212.2,267.5l-81.67,17.73c-2.16.47-3.93-.65-3.93-2.5V267.87c0-1.85,1.77-3.72,3.93-4.15l81.67-16.61c1.93-.39,3.5.71,3.5,2.43v14A4.41,4.41,0,0,1,212.2,267.5Z"/><path class="cls-1" d="M146.74,270.87c0-3.7-3.49-6-7.82-5.11s-7.9,4.67-7.9,8.42,3.56,6,7.9,5.1S146.74,274.59,146.74,270.87Z"/><line class="cls-5" x1="154.49" y1="265.96" x2="188.39" y2="258.91"/><line class="cls-5" x1="154.49" y1="268.93" x2="188.39" y2="261.81"/><line class="cls-5" x1="154.49" y1="272.65" x2="204.98" y2="261.93"/><path class="cls-8" d="M219,250c0-3.85-3.46-6.28-7.74-5.42s-7.83,4.74-7.83,8.63,3.51,6.32,7.83,5.41S219,253.83,219,250Z"/><path class="cls-8" d="M200.45,283c0-3.9-3.54-6.28-7.94-5.31s-8,5-8,8.9,3.6,6.32,8,5.3S200.45,286.87,200.45,283Z"/></g><g id="freepik--Character--inject-366"><path class="cls-1" d="M307.12,311.11s-2.05-2.28-4.57-2.06-2.75,0-1.37,6.4,3.89,12.14,5.25,12.14a3.24,3.24,0,0,0,2.29-1.14l2,4.34h49.39s7.28-12.79,6.39-19-5.94-2.06-5.94-2.06Z"/><path class="cls-6" d="M315.8,323.69s-5.48-3.24-8-8.68a23.22,23.22,0,0,1-2.28-9.83s-5.72-7.28-1.14-18.73,7.53-14.17,9.36-13.71l1.83.46s5.95-13,15.09-13,21.47,6.62,27.64,13.48,9.37,17.81,8,20.11a7,7,0,0,1-3.42,3s-.46,12.14-4.35,17.37a102.36,102.36,0,0,1-8.68,10l-32.91,1.16Z"/><path class="cls-1" d="M239.31,350.67s1.62-5.67.81-9.72-4.45-10.93-2-16.19,5.12-4.57,3.64-1.22c-1,2.19-.4,5.67-.4,5.67s3.64-4.86,5.26-5.26a15.08,15.08,0,0,1,4.45,0s1.21-2,2.43-2h4s4.45-5.27,6.88-4.05,7.28,6.47,6.07,8.9-4.45-1.21-4.45-1.21l-1.62-2a33.49,33.49,0,0,0-2.43,7.7,14.62,14.62,0,0,0,0,4.85l1.62,1.22,7.28-2.43c2.43-.81,5.27,2,3.24,3.24s-6.88,4-7.69,5.26-4.86,2.43-4.86,2.43l-2.83.81-5.67,10.52S243.36,347.43,239.31,350.67Z"/><path class="cls-5" d="M257.53,321.93s-2,1.21-2.84,4.85"/><path class="cls-5" d="M251.05,324a16.06,16.06,0,0,0-3.24,3.64"/><path class="cls-8" d="M253.07,351.88s-4-5.26-8.9-5.67-7.29.81-8.1,2.43a11.38,11.38,0,0,1-3.24,3.24s-12.54,8.5-18.62,14.57-13,11.34-12.54,17,12.54,7.29,16.59,5.27,10.93-9.31,13.76-14.17S253.07,351.88,253.07,351.88Z"/><path class="cls-8" d="M370.87,335.28s-14.57-10.93-25.5-15-24.7-1.62-32.39,2.83-18.62,11.33-18.62,11.33Z"/><path class="cls-1" d="M434,364.43s-1.62-5.67-.81-9.72,4.45-10.93,2-16.19-5.34-4.46-3.64-1.21A7.56,7.56,0,0,1,432,343s-3.64-4.85-5.26-5.26a15.08,15.08,0,0,0-4.45,0s-1.22-2-2.43-2H415.8s-4.45-5.26-6.88-4.05-7.29,6.48-6.07,8.91,4.45-1.22,4.45-1.22l1.62-2a33.87,33.87,0,0,1,2.43,7.69,14.68,14.68,0,0,1,0,4.86l-1.62,1.21-7.29-2.43c-2.43-.81-5.26,2-3.24,3.24s6.88,4.05,7.69,5.26,4.86,2.43,4.86,2.43l2.84.81,5.66,10.52S430,361.19,434,364.43Z"/><path class="cls-1" d="M415.8,335.69s2,1.21,2.83,4.86"/><path class="cls-1" d="M422.28,337.71a15.63,15.63,0,0,1,3.23,3.65"/><path class="cls-8" d="M423.09,366.05s.81-2,4.45-3.65,8.09,0,8.09,0l2.43,5.27s-2.43,2,6.88,7.69,13,16.59,13,21.45-13.36-6.48-21.46-12.95S423.09,366.05,423.09,366.05Z"/><path class="cls-8" d="M373.3,335.69s-23.89-6.48-38.86-7.29-35.62,4.45-38.46,4.86-26.71,3.64-29.14,4.86-44.53,33.59-44.53,33.59-6.48,1.22-14.57,3.65-9.72,8.9-9.72,8.9,2.43,18.62,8.1,21.05,10.52,0,15.38-2,41.69-14.57,41.69-14.57l5.27,30.35H387.87l7.29-32s42.09,32.38,48.17,32.78,14.16-3.64,17.4-9.71-4.45-19.43-7.28-23.48-10.93-8.5-17-12.55S406.08,343,402.85,340.55,373.3,335.69,373.3,335.69Z"/><path class="cls-12" d="M396,360.83s12.52-16.09-3-16.2a41.76,41.76,0,0,0-25.69,8.6s-37.74-8.6-56.59-8.6,4.65,8.59,9.59,17.11-22.23-8.52-33.5-10.24c-8.19-1.26-11.5,3.24-12.44,13.09L259.75,355s-32.58,33.51-36.63,35.13-13-4.86-13,2.42,8.09,12.67,11.33,10.79S261.17,386,261.17,386l12.95,25.9,3.86,1.38c.12.68.19,1.05.19,1.05l3.09.12,4.2,1.5v-1.34l98.77,3.77L392.32,386s33.19,17.81,39.67,23.48,12.95,3.23,15.38-.81S396,360.83,396,360.83Z"/><path class="cls-5" d="M346.77,351.14c1.47.81,2.67,1.45,3.45,1.95"/><path class="cls-5" d="M317.84,337.31s16.65,7.57,26.45,12.55"/><path class="cls-5" d="M338.48,345s11.34,4.86,16.6,9.31"/><polyline class="cls-5" points="400.57 368.42 395.15 387.1 406.49 366.86"/><line class="cls-5" x1="403.25" y1="359.17" x2="401.91" y2="363.8"/><polyline class="cls-5" points="258.45 368.56 263.19 388.71 251.86 371.31"/><line class="cls-5" x1="256.72" y1="361.19" x2="257.62" y2="365.05"/><path class="cls-5" d="M209.15,378.48a34.62,34.62,0,0,1,13.16-6.77"/><path class="cls-5" d="M204.09,383.45a29,29,0,0,1,2.5-2.69"/><path class="cls-1" d="M268.65,460.77,259,412.27a4.47,4.47,0,0,1,3.5-5.25,4.38,4.38,0,0,1,.88-.09h132a4.46,4.46,0,0,1,4.47,4.46,4.38,4.38,0,0,1-.09.88l-9.66,48.5"/><polyline class="cls-6" points="273.81 460.77 264 406.93 394.75 406.93 384.95 460.77"/></g><rect class="cls-8" x="286.67" y="19.99" width="30.7" height="16.02" rx="3.28"/><path class="cls-8" d="M314.08,36.56H290a3.84,3.84,0,0,1-3.83-3.84V23.27A3.84,3.84,0,0,1,290,19.44h24.13a3.84,3.84,0,0,1,3.83,3.83v9.45A3.84,3.84,0,0,1,314.08,36.56ZM290,20.54a2.74,2.74,0,0,0-2.74,2.73v9.45A2.74,2.74,0,0,0,290,35.46h24.13a2.74,2.74,0,0,0,2.74-2.74V23.27a2.74,2.74,0,0,0-2.74-2.73Z"/><polygon class="cls-13" points="312.56 44.2 307.09 38.72 304.29 41.52 303.65 33.06 311.87 33.94 309.07 36.73 314.55 42.21 312.56 44.2"/><path class="cls-8" d="M312.57,44.74a.51.51,0,0,1-.39-.16l-5.09-5.09-2.41,2.41a.56.56,0,0,1-.58.13.54.54,0,0,1-.35-.47l-.65-8.45a.55.55,0,0,1,.61-.59l8.22.87a.57.57,0,0,1,.46.37.55.55,0,0,1-.13.57l-2.41,2.4,5.09,5.09a.56.56,0,0,1,0,.78l-2,2A.51.51,0,0,1,312.57,44.74Zm-5.48-6.57a.59.59,0,0,1,.39.16l5.09,5.09,1.21-1.21-5.09-5.09a.55.55,0,0,1-.16-.39.55.55,0,0,1,.16-.38l2-2-6.43-.68.51,6.61,1.95-2A.57.57,0,0,1,307.09,38.17Z"/><path class="cls-13" d="M292.75,24.49h2.33a4,4,0,0,1,2,.4,1.37,1.37,0,0,1,.66,1.26,1.59,1.59,0,0,1-.29,1,1.24,1.24,0,0,1-.76.51v.05a1.56,1.56,0,0,1,.9.55,1.64,1.64,0,0,1,.28,1,1.72,1.72,0,0,1-.68,1.43,3,3,0,0,1-1.87.52h-2.6Zm1.81,2.56h.54a1,1,0,0,0,.6-.16.54.54,0,0,0,.21-.47c0-.38-.28-.56-.85-.56h-.5Zm0,1.32v1.41h.63c.57,0,.85-.24.85-.71a.63.63,0,0,0-.23-.52,1,1,0,0,0-.65-.18Z"/><path class="cls-13" d="M304.74,24.49v4a2.67,2.67,0,0,1-.74,2,3.54,3.54,0,0,1-4.24,0,2.67,2.67,0,0,1-.74-2V24.49h1.82v3.92a1.65,1.65,0,0,0,.26,1,1.15,1.15,0,0,0,1.59,0,1.74,1.74,0,0,0,.25-1V24.49Z"/><path class="cls-13" d="M308.53,27l1.16-2.48h1.95l-2.2,4.07v2.61h-1.82V28.62l-2.19-4.13h2Z"/><circle class="cls-8" cx="289.88" cy="57.76" r="10.95"/><path class="cls-13" d="M289.88,69.51a11.75,11.75,0,1,1,11.75-11.75A11.76,11.76,0,0,1,289.88,69.51Zm0-21.9A10.15,10.15,0,1,0,300,57.76,10.16,10.16,0,0,0,289.88,47.61Z"/><path class="cls-8" d="M303.9,86.78h-28V82.65a14,14,0,0,1,14-14h0a14,14,0,0,1,14,14Z"/><path class="cls-13" d="M303.9,87.58h-28a.8.8,0,0,1-.8-.8V82.65a14.82,14.82,0,1,1,29.64,0v4.13A.8.8,0,0,1,303.9,87.58ZM276.66,86H303.1V82.65a13.22,13.22,0,0,0-26.44,0Z"/><path class="cls-13" d="M289.88,81.38a.78.78,0,0,1-.68-.38l-6.34-10.44a.8.8,0,0,1,1.37-.83L289.88,79l5.65-9.31a.8.8,0,1,1,1.37.83L290.56,81A.78.78,0,0,1,289.88,81.38Z"/><path class="cls-13" d="M289.88,87.58a.8.8,0,0,1-.8-.8v-6.2a.8.8,0,0,1,1.6,0v6.2A.8.8,0,0,1,289.88,87.58Z"/><path class="cls-8" d="M276.78,52h2.06a0,0,0,0,1,0,0V63.64a0,0,0,0,1,0,0h-2.06a4,4,0,0,1-4-4V56A4,4,0,0,1,276.78,52Z"/><path class="cls-13" d="M278.84,64.44h-2.06A4.82,4.82,0,0,1,272,59.63V56a4.82,4.82,0,0,1,4.81-4.81h2.06a.8.8,0,0,1,.8.8V63.64A.8.8,0,0,1,278.84,64.44Zm-2.06-11.66A3.21,3.21,0,0,0,273.57,56v3.64a3.21,3.21,0,0,0,3.21,3.21H278V52.78Z"/><path class="cls-8" d="M305,52H307a0,0,0,0,1,0,0V63.64a0,0,0,0,1,0,0H305a4,4,0,0,1-4-4V56A4,4,0,0,1,305,52Z" transform="translate(607.97 115.62) rotate(180)"/><path class="cls-13" d="M303,64.44H301a.8.8,0,0,1-.8-.8V52a.8.8,0,0,1,.8-.8H303A4.82,4.82,0,0,1,307.82,56v3.64A4.82,4.82,0,0,1,303,64.44Zm-1.26-1.6H303a3.21,3.21,0,0,0,3.21-3.21V56A3.21,3.21,0,0,0,303,52.78h-1.26Z"/><path class="cls-8" d="M300.83,52.78a.8.8,0,0,1-.8-.8,7.62,7.62,0,0,0-7.61-7.61h-5.17A7.62,7.62,0,0,0,279.64,52a.8.8,0,0,1-1.6,0,9.21,9.21,0,0,1,9.21-9.2h5.17a9.21,9.21,0,0,1,9.21,9.2A.8.8,0,0,1,300.83,52.78Z"/><path class="cls-13" d="M301,64.44H289.83a.8.8,0,0,1,0-1.6H301a.8.8,0,1,1,0,1.6Z"/><circle class="cls-8" cx="305.66" cy="114.92" r="21.4"/><path class="cls-13" d="M305.66,137a22.06,22.06,0,1,1,15.59-6.46A21.87,21.87,0,0,1,305.66,137Zm0-42.81a20.77,20.77,0,1,0,20.77,20.77A20.79,20.79,0,0,0,305.66,94.15Z"/><circle class="cls-14" cx="305.66" cy="114.92" r="15.8"/><path class="cls-13" d="M305.66,131.36a16.44,16.44,0,1,1,16.44-16.44A16.47,16.47,0,0,1,305.66,131.36Zm0-31.61a15.17,15.17,0,1,0,15.17,15.17A15.18,15.18,0,0,0,305.66,99.75Z"/><path class="cls-8" d="M312.5,118.85a.66.66,0,0,1-.27-.06l-6.84-3.3a.62.62,0,0,1-.37-.57V103.16a.64.64,0,0,1,.64-.64.64.64,0,0,1,.64.64v11.36l6.48,3.12a.64.64,0,0,1-.28,1.21Z"/><circle class="cls-13" cx="318.43" cy="100.39" r="8.08"/><path class="cls-8" d="M318.43,109.11a8.72,8.72,0,1,1,8.72-8.72A8.73,8.73,0,0,1,318.43,109.11Zm0-16.17a7.45,7.45,0,1,0,7.44,7.45A7.46,7.46,0,0,0,318.43,92.94Z"/><path class="cls-8" d="M318.06,103.7h-5.25v-1.29l1.77-1.79q.75-.8,1-1.08a2.38,2.38,0,0,0,.32-.5,1.07,1.07,0,0,0,.09-.43.58.58,0,0,0-.18-.45.75.75,0,0,0-.52-.16,1.44,1.44,0,0,0-.69.19,5.74,5.74,0,0,0-.79.58l-1.07-1.26a5.35,5.35,0,0,1,.94-.71,2.88,2.88,0,0,1,.83-.33,3.89,3.89,0,0,1,1-.12,3.1,3.1,0,0,1,1.25.25,2,2,0,0,1,.86.71,1.8,1.8,0,0,1,.3,1,2.8,2.8,0,0,1-.1.79,2.67,2.67,0,0,1-.33.71,5.77,5.77,0,0,1-.59.74c-.25.25-.77.74-1.58,1.46v0h2.74Z"/><path class="cls-8" d="M324.24,102.3h-.8v1.4h-1.93v-1.4h-2.89v-1.44l3-4.4h1.81v4.37h.8Zm-2.73-1.47V100c0-.16,0-.37,0-.64s0-.41,0-.42h-.05a5.33,5.33,0,0,1-.38.71l-.81,1.19Z"/><path class="cls-13" d="M318.29,87.61a6.89,6.89,0,0,1-2.4-.56V85.16a8.68,8.68,0,0,0,1.43.56,5,5,0,0,0,1.36.22,1.59,1.59,0,0,0,.71-.11.41.41,0,0,0,.23-.39.42.42,0,0,0-.16-.32,2.35,2.35,0,0,0-.55-.3c-.25-.11-.59-.24-1-.4a4,4,0,0,1-1.16-.6,2.13,2.13,0,0,1-.65-.74,2.42,2.42,0,0,1-.2-1,1.88,1.88,0,0,1,.6-1.47,3.2,3.2,0,0,1,1.81-.65v-.78h1.18v.77a6.68,6.68,0,0,1,2.28.56l-.68,1.62a5.22,5.22,0,0,0-2.14-.54,1.38,1.38,0,0,0-.64.11.39.39,0,0,0-.19.33.4.4,0,0,0,.14.31,1.9,1.9,0,0,0,.46.27,9.81,9.81,0,0,0,.92.35,4.34,4.34,0,0,1,1.7,1,1.9,1.9,0,0,1,.52,1.39,2.09,2.09,0,0,1-.6,1.55,3,3,0,0,1-1.77.74v1.1h-1.18Z"/><path class="cls-8" d="M336.42,107.79l1,3a.49.49,0,0,0,.46.33H341a.49.49,0,0,1,.28.88l-2.53,1.83a.49.49,0,0,0-.17.54l1,3a.48.48,0,0,1-.74.54L336.24,116a.48.48,0,0,0-.56,0l-2.53,1.83a.48.48,0,0,1-.74-.54l1-3a.47.47,0,0,0-.17-.54L330.67,112a.49.49,0,0,1,.29-.88h3.12a.48.48,0,0,0,.46-.33l1-3A.49.49,0,0,1,336.42,107.79Z"/><path class="cls-13" d="M332.87,118.58a1.15,1.15,0,0,1-.66-.21,1.12,1.12,0,0,1-.41-1.26l.93-2.86-2.43-1.76a1.12,1.12,0,0,1,.66-2h3l.93-2.86a1.12,1.12,0,0,1,2.14,0l.93,2.86h3a1.12,1.12,0,0,1,1.06.77,1.13,1.13,0,0,1-.4,1.26l-2.44,1.76.93,2.86a1.13,1.13,0,0,1-1.73,1.26L336,116.6l-2.43,1.77A1.15,1.15,0,0,1,332.87,118.58Zm3.09-3.29a1.15,1.15,0,0,1,.66.21l2.14,1.55-.82-2.51a1.11,1.11,0,0,1,.41-1.25l2.14-1.56h-2.65a1.12,1.12,0,0,1-1.06-.77l-.82-2.51-.82,2.51a1.12,1.12,0,0,1-1.06.77h-2.64l2.13,1.56a1.11,1.11,0,0,1,.41,1.25l-.82,2.51,2.14-1.55A1.15,1.15,0,0,1,336,115.29Z"/><rect class="cls-14" x="364.02" y="55.77" width="30.58" height="21.7" rx="3.64"/><path class="cls-13" d="M391,78h-23.3a4.15,4.15,0,0,1-4.15-4.15V59.41a4.16,4.16,0,0,1,4.15-4.15H391a4.16,4.16,0,0,1,4.15,4.15V73.83A4.15,4.15,0,0,1,391,78Zm-23.3-21.7a3.14,3.14,0,0,0-3.13,3.13V73.83A3.13,3.13,0,0,0,367.66,77H391a3.13,3.13,0,0,0,3.13-3.13V59.41A3.14,3.14,0,0,0,391,56.28Z"/><rect class="cls-13" x="370.38" y="55.77" width="1.02" height="13.51"/><polygon class="cls-13" points="389.84 77.47 388.82 77.47 388.82 65.86 367.74 65.86 367.74 64.84 389.84 64.84 389.84 77.47"/><path class="cls-8" d="M385.58,54.23a6.39,6.39,0,1,0-12.77,0s-.16,6.42,6.39,13C385.74,60.65,385.58,54.23,385.58,54.23Z"/><path class="cls-13" d="M379.2,67.71a.51.51,0,0,1-.36-.15,23,23,0,0,1-5.78-9.14,14.38,14.38,0,0,1-.76-4.2,6.9,6.9,0,0,1,13.79,0,13.62,13.62,0,0,1-.76,4.2,23,23,0,0,1-5.77,9.14A.51.51,0,0,1,379.2,67.71Zm0-19.36a5.89,5.89,0,0,0-5.88,5.88h0a13.4,13.4,0,0,0,.73,3.91,21.81,21.81,0,0,0,5.15,8.32,21.76,21.76,0,0,0,5.14-8.32,13,13,0,0,0,.73-3.91h0A5.88,5.88,0,0,0,379.2,48.35Z"/><path class="cls-15" d="M381.81,54.22a2.61,2.61,0,1,1-2.61-2.61A2.61,2.61,0,0,1,381.81,54.22Z"/><path class="cls-13" d="M379.2,57.34a3.12,3.12,0,1,1,3.12-3.12A3.12,3.12,0,0,1,379.2,57.34Zm0-5.22a2.1,2.1,0,1,0,2.1,2.1A2.1,2.1,0,0,0,379.2,52.12Z"/><rect class="cls-13" x="384.26" y="72.15" width="10.13" height="1.02"/><rect class="cls-13" x="388.82" y="55.77" width="1.02" height="3.5"/><path class="cls-14" d="M355.41,123a10,10,0,0,0-14.9,10.45l-3.93,4.91,6.67.39a10.39,10.39,0,0,0,2.12,1.63,10,10,0,1,0,10-17.38Z"/><path class="cls-13" d="M350.37,142.34a10.58,10.58,0,0,1-5.29-1.42,10.92,10.92,0,0,1-2.08-1.57l-7.56-.44,4.46-5.58a10.61,10.61,0,1,1,10.47,9Zm-12.65-4.45,5.79.34.15.16a9.92,9.92,0,0,0,2,1.53,9.37,9.37,0,0,0,4.71,1.27,9.45,9.45,0,1,0-9.3-7.8l.05.25Z"/><path class="cls-8" d="M358.71,118.33a10,10,0,0,1,7.52,16.57l.89,6.23-5.95-3.06a10,10,0,1,1-2.46-19.74Z"/><path class="cls-13" d="M367.12,141.71a.68.68,0,0,1-.27-.07l-5.75-3a10.61,10.61,0,1,1-2.49-20.93h.1a10.61,10.61,0,0,1,8.13,17.32l.85,6a.58.58,0,0,1-.24.55A.59.59,0,0,1,367.12,141.71Zm-5.95-4.21a.58.58,0,0,1,.26.06l5,2.55-.73-5.13a.6.6,0,0,1,.13-.45,9.55,9.55,0,0,0,2.29-6.08,9.47,9.47,0,0,0-9.38-9.55h0a9.46,9.46,0,1,0-.17,18.92,9.09,9.09,0,0,0,2.49-.31Z"/><path class="cls-13" d="M356.9,129.29v-.45a1.62,1.62,0,0,1,.22-.88,2.12,2.12,0,0,1,.75-.69,2.62,2.62,0,0,0,.61-.49.71.71,0,0,0,.19-.5.42.42,0,0,0-.2-.35,1,1,0,0,0-.52-.13,4.07,4.07,0,0,0-1.87.57l-.74-1.44a5.5,5.5,0,0,1,2.75-.75,2.91,2.91,0,0,1,1.85.52,1.67,1.67,0,0,1,.68,1.41,2,2,0,0,1-.3,1.11,3.08,3.08,0,0,1-1,.88,3.5,3.5,0,0,0-.69.53.55.55,0,0,0-.14.39v.27Zm-.22,1.85a1,1,0,0,1,.28-.75,1.21,1.21,0,0,1,.83-.26,1.1,1.1,0,0,1,.81.27,1.09,1.09,0,0,1,0,1.49,1.12,1.12,0,0,1-.8.26,1.17,1.17,0,0,1-.82-.26A1,1,0,0,1,356.68,131.14Z"/><rect class="cls-14" x="309.24" y="148.8" width="10.93" height="16.55"/><path class="cls-13" d="M320.63,165.81H308.78V148.34h11.85Zm-10.93-.92h10V149.26h-10Z"/><rect class="cls-8" x="313.42" y="147.13" width="6.76" height="19.82" rx="2.09"/><path class="cls-13" d="M318.08,167.41h-2.57a2.55,2.55,0,0,1-2.55-2.55V149.23a2.56,2.56,0,0,1,2.55-2.56h2.57a2.56,2.56,0,0,1,2.55,2.56v15.63A2.55,2.55,0,0,1,318.08,167.41Zm-2.57-19.82a1.65,1.65,0,0,0-1.64,1.64v15.63a1.64,1.64,0,0,0,1.64,1.63h2.57a1.63,1.63,0,0,0,1.63-1.63V149.23a1.64,1.64,0,0,0-1.63-1.64Z"/><path class="cls-14" d="M328.4,150.21s4.86-12.85-1.06-9.57c0,5.49-7.17,9.57-7.17,9.57v14.07H336.3a1.93,1.93,0,0,0,1.9-1.57l1.95-10.2a2,2,0,0,0-.41-1.59,1.94,1.94,0,0,0-1.49-.71Z"/><path class="cls-13" d="M336.3,164.74H319.71V150l.23-.13c.07,0,6.94-4,6.94-9.18v-.27l.24-.14c1.27-.7,2.25-.77,2.89-.22.91.79,1,2.75.18,6-.38,1.54-.86,3-1.13,3.77h9.19a2.39,2.39,0,0,1,2.35,2.84l-1.94,10.19A2.41,2.41,0,0,1,336.3,164.74Zm-15.67-.92H336.3a1.47,1.47,0,0,0,1.45-1.2l1.94-10.2a1.44,1.44,0,0,0-.31-1.21,1.46,1.46,0,0,0-1.13-.54H327.74l.24-.62c1.25-3.31,2.52-8.4,1.43-9.34-.35-.31-1-.08-1.61.21-.1,2.28-1.38,4.66-3.73,6.9a22,22,0,0,1-3.44,2.66Z"/><path class="cls-15" d="M318.3,162.78a1.51,1.51,0,1,1-1.51-1.51A1.51,1.51,0,0,1,318.3,162.78Z"/><path class="cls-13" d="M316.79,164.74a2,2,0,1,1,2-2A2,2,0,0,1,316.79,164.74Zm0-3a1,1,0,1,0,1,1.05A1,1,0,0,0,316.79,161.73Z"/><polygon class="cls-13" points="345.56 176.08 336.88 172.05 328.84 176.07 328.38 175.16 336.86 170.92 345.99 175.15 345.56 176.08"/><rect class="cls-8" x="323.06" y="175.62" width="27.61" height="14.58" rx="2.89"/><path class="cls-13" d="M347.78,190.71H326a3.41,3.41,0,0,1-3.41-3.41v-8.79a3.41,3.41,0,0,1,3.41-3.4h21.82a3.41,3.41,0,0,1,3.41,3.4v8.79A3.41,3.41,0,0,1,347.78,190.71ZM326,176.13a2.39,2.39,0,0,0-2.39,2.38v8.79a2.39,2.39,0,0,0,2.39,2.39h21.82a2.39,2.39,0,0,0,2.39-2.39v-8.79a2.39,2.39,0,0,0-2.39-2.38Z"/><rect class="cls-14" x="331.73" y="171.25" width="10.28" height="23.31" rx="0.74" transform="translate(519.78 -153.96) rotate(90)"/><path class="cls-13" d="M347.78,188.56H326a1.26,1.26,0,0,1-1.25-1.26v-8.79a1.25,1.25,0,0,1,1.25-1.25h21.82a1.26,1.26,0,0,1,1.26,1.25v8.79A1.27,1.27,0,0,1,347.78,188.56ZM326,178.28a.23.23,0,0,0-.23.23v8.79a.23.23,0,0,0,.23.24h21.82a.24.24,0,0,0,.24-.24v-8.79a.23.23,0,0,0-.24-.23Z"/><path class="cls-13" d="M332.74,182.91a2.44,2.44,0,0,1-.56,1.72,2.51,2.51,0,0,1-3.22,0,2.9,2.9,0,0,1,0-3.41,2.09,2.09,0,0,1,1.62-.59,2.13,2.13,0,0,1,1.62.58A2.44,2.44,0,0,1,332.74,182.91Zm-3.07,0c0,.87.3,1.3.9,1.3a.76.76,0,0,0,.67-.32,1.68,1.68,0,0,0,.23-1,1.71,1.71,0,0,0-.23-1,.75.75,0,0,0-.67-.32C330,181.61,329.67,182,329.67,182.91Z"/><path class="cls-13" d="M336.78,182.11a1.49,1.49,0,0,1-.44,1.15,1.79,1.79,0,0,1-1.25.41h-.34v1.48h-1.21v-4.46h1.55a1.84,1.84,0,0,1,1.26.37A1.28,1.28,0,0,1,336.78,182.11Zm-2,.58H335a.55.55,0,0,0,.59-.58c0-.3-.17-.45-.5-.45h-.31Z"/><path class="cls-13" d="M340.14,185.15h-2.65v-4.46h2.65v1h-1.45v.7H340v1h-1.34v.84h1.45Z"/><path class="cls-13" d="M345.17,185.15h-1.58L342,182h0c0,.49.06.87.06,1.13v2h-1.07v-4.46h1.57l1.63,3.1h0c0-.45-.05-.81-.05-1.08v-2h1.08Z"/><path class="cls-8" d="M369.52,85a10.41,10.41,0,1,0,14.68,1A10.41,10.41,0,0,0,369.52,85Zm2.19,2.53a7.06,7.06,0,1,1-.7,10A7.06,7.06,0,0,1,371.71,87.49Z"/><path class="cls-13" d="M376.36,103.75c-.26,0-.53,0-.79,0a10.81,10.81,0,1,1,.79,0ZM369.52,85l.33.39a9.9,9.9,0,1,0,14,1,9.83,9.83,0,0,0-14-1Zm6.83,15.43a7.56,7.56,0,0,1-5-13.28h0a7.57,7.57,0,1,1,5,13.28Zm-4.3-12.51a6.55,6.55,0,1,0,9.24.65,6.55,6.55,0,0,0-9.24-.65Z"/><rect class="cls-8" x="360.93" y="102.21" width="8.02" height="1.02" transform="translate(21.99 264.35) rotate(-40.95)"/><path class="cls-13" d="M354.17,112.16h0a1.88,1.88,0,0,0,2.64.19l6.89-6a1.87,1.87,0,0,0,.18-2.64h0a1.87,1.87,0,0,0-2.64-.19l-6.88,6A1.87,1.87,0,0,0,354.17,112.16Z"/><path class="cls-8" d="M355.59,113.31h-.17a2.41,2.41,0,0,1-1.64-.82h0a2.39,2.39,0,0,1,.24-3.36l6.88-6a2.39,2.39,0,1,1,3.13,3.61l-6.88,6A2.38,2.38,0,0,1,355.59,113.31Zm6.88-9.72a1.35,1.35,0,0,0-.9.34l-6.88,6a1.36,1.36,0,0,0-.14,1.92h0a1.36,1.36,0,0,0,.94.47,1.34,1.34,0,0,0,1-.33l6.88-6a1.36,1.36,0,0,0,.47-.94,1.39,1.39,0,0,0-.33-1A1.36,1.36,0,0,0,362.47,103.59Z"/><path class="cls-13" d="M373.69,114.66a3.26,3.26,0,0,0,.61-2.12,3.14,3.14,0,0,0-.64-2.08,2.13,2.13,0,0,0-1.73-.76,2.08,2.08,0,0,0-1.71.74,3.24,3.24,0,0,0-.61,2.1,3.2,3.2,0,0,0,.63,2.09,2.06,2.06,0,0,0,1.69.78A2.15,2.15,0,0,0,373.69,114.66Zm-1.38-1.06c-.08.21-.19.31-.35.31s-.28-.1-.36-.31a3.58,3.58,0,0,1-.11-1,3.25,3.25,0,0,1,.11-1c.08-.22.2-.32.36-.32s.27.1.35.31a3.28,3.28,0,0,1,.11,1A3.17,3.17,0,0,1,372.31,113.6Z"/><polygon class="cls-13" points="377.46 110.63 372.42 119.71 374.27 119.71 379.31 110.63 377.46 110.63"/><path class="cls-13" d="M381.69,115.83a2.13,2.13,0,0,0-1.73-.76,2.1,2.1,0,0,0-1.71.73,3.24,3.24,0,0,0-.61,2.11,3.19,3.19,0,0,0,.63,2.08,2,2,0,0,0,1.69.78,2.14,2.14,0,0,0,1.75-.75,3.24,3.24,0,0,0,.62-2.11A3.12,3.12,0,0,0,381.69,115.83Zm-1.34,3.09c-.06.24-.19.36-.36.36s-.28-.1-.36-.31a3.26,3.26,0,0,1-.12-1,3.16,3.16,0,0,1,.12-1q.11-.33.36-.33c.17,0,.3.13.36.37a4.47,4.47,0,0,1,0,2Z"/><path class="cls-14" d="M344.73,165.12s7.84,2.5,13.87-3.53A13.56,13.56,0,0,0,361.88,148l-5,5s2.37,2.37-1.21,5.95-5.94,1.2-5.94,1.2Z"/><path class="cls-13" d="M348.66,166.15a14.82,14.82,0,0,1-4.09-.54.51.51,0,0,1-.2-.85l5-5a.51.51,0,0,1,.72,0c.08.08,2.08,1.94,5.22-1.2,1.35-1.35,2-2.69,1.8-3.89a2.55,2.55,0,0,0-.59-1.34.51.51,0,0,1-.15-.36.48.48,0,0,1,.15-.36l5-5a.51.51,0,0,1,.84.19,13.92,13.92,0,0,1,.65,4.73,13.59,13.59,0,0,1-4,9.42,14.31,14.31,0,0,1-9.54,4.18Zm-2.93-1.31a15.71,15.71,0,0,0,3.69.27,13.07,13.07,0,0,0,8.82-3.88A12.38,12.38,0,0,0,362,152.5a14.22,14.22,0,0,0-.36-3.56L357.56,153a3.78,3.78,0,0,1,.56,1.52c.27,1.93-1,3.65-2.09,4.75s-2.81,2.36-4.74,2.09a3.86,3.86,0,0,1-1.52-.57Z"/><rect class="cls-8" x="343.94" y="157.69" width="3.53" height="7.07" transform="translate(215.26 -197.23) rotate(45)"/><path class="cls-13" d="M344.46,165.49a.49.49,0,0,1-.36-.15l-2.5-2.5a.51.51,0,0,1-.15-.36.48.48,0,0,1,.15-.36l5-5A.51.51,0,0,1,347,157a.51.51,0,0,1,.36.15l2.5,2.5a.53.53,0,0,1,0,.72l-5,5A.51.51,0,0,1,344.46,165.49Zm-1.78-3,1.78,1.78,4.27-4.28L347,158.2Z"/><rect class="cls-8" x="356.09" y="145.54" width="3.53" height="7.07" transform="translate(210.22 -209.38) rotate(45)"/><path class="cls-13" d="M356.61,153.34a.51.51,0,0,1-.36-.15l-2.5-2.5a.51.51,0,0,1-.15-.36.48.48,0,0,1,.15-.36l5-5a.48.48,0,0,1,.36-.15.51.51,0,0,1,.36.15l2.5,2.5a.51.51,0,0,1,.15.36.55.55,0,0,1-.15.36l-5,5A.51.51,0,0,1,356.61,153.34Zm-1.78-3,1.78,1.77,4.28-4.27-1.78-1.78Z"/><circle class="cls-8" cx="336.89" cy="221.65" r="2.56"/><path class="cls-13" d="M336.89,224.79a3.14,3.14,0,1,1,3.14-3.14A3.15,3.15,0,0,1,336.89,224.79Zm0-5.13a2,2,0,1,0,2,2A2,2,0,0,0,336.89,219.66Z"/><rect class="cls-8" x="336.38" y="196.75" width="1.02" height="22.33"/><g id="freepik--Device--inject-741"><path class="cls-8" d="M352.93,97.55l-20.28-.09A4.41,4.41,0,0,1,328.26,93l.21-50.83a4.42,4.42,0,0,1,4.44-4.39l20.27.09a4.43,4.43,0,0,1,4.4,4.43l-.22,50.83A4.41,4.41,0,0,1,352.93,97.55Z"/><path class="cls-16" d="M353.15,39.64l-3.93,0a1,1,0,0,0-1,1v.71a1,1,0,0,1-1,1h0l-7.66,0a1,1,0,0,1-.95-1v-.71a1,1,0,0,0-.95-1h-1.38l-3.44,0a3.09,3.09,0,0,0-3.11,3.08l-.21,49.61a3.09,3.09,0,0,0,3.08,3.11l20.24.09a3.09,3.09,0,0,0,3.1-3.08h0l.21-49.61a3.09,3.09,0,0,0-3.08-3.11Z"/><polygon class="cls-17" points="329.79 48.58 333.1 48.58 336.06 51.54 332.99 54.62 329.82 51.46 329.79 48.58"/><polygon class="cls-17" points="336.74 50.24 335.07 48.58 338.81 48.58 336.74 50.24"/><path class="cls-17" d="M338.19,51.6l2.91-2.91h10.18a11.59,11.59,0,0,1-4.58,11.42Z"/><polygon class="cls-17" points="336.94 52.53 333.83 55.65 342.45 64.27 345.56 61.05 336.94 52.53"/><polygon class="cls-17" points="329.75 57.41 331.7 55.39 329.79 53.47 329.75 57.41"/><polygon class="cls-17" points="332.87 56.58 329.87 59.58 329.87 63.75 336.06 70.08 341.31 65.2 332.87 56.58"/><path class="cls-17" d="M347.87,61s6.42-4.71,4.35-12.3h4l0,21.41Z"/><polygon class="cls-17" points="346.66 62.22 343.56 65.47 353.08 74.99 355.99 71.9 346.66 62.22"/><polygon class="cls-17" points="342.26 66.35 337.37 71.2 347.14 80.9 352.01 76.19 342.26 66.35"/><polygon class="cls-17" points="339.7 90.64 347.16 82.91 354.26 90.14 339.7 90.64"/><path class="cls-17" d="M348.33,81.91l7.78-7.71c0,.34-.07,16-.07,16Z"/><polygon class="cls-17" points="341.67 77.58 346.08 81.99 337.37 90.97 333.35 86.15 341.67 77.58"/><path class="cls-17" d="M329.76,86.77c.41,0,11.08-10,11.08-10L329.76,65.27Z"/><polyline class="cls-17" points="329.6 89.05 332.17 86.78 335.73 90.97 329.6 90.97 329.6 89.37"/><path class="cls-18" d="M332.92,45.56a6,6,0,0,1-.76-.66h0v-.06h0l0,0,0,0,.08-.07.14-.13.24-.21a.88.88,0,0,1,.24-.19.83.83,0,0,1-.2.22l-.22.23-.14.13-.07.07,0,0,0,0h0v-.06h0A6.88,6.88,0,0,1,332.92,45.56Z"/><path class="cls-18" d="M354,44.4a.16.16,0,0,1-.17.16.16.16,0,0,1-.16-.16.17.17,0,0,1,.16-.17h0A.18.18,0,0,1,354,44.4Z"/><path class="cls-18" d="M354,44.85a.16.16,0,1,1-.23,0h0A.17.17,0,0,1,354,44.85Z"/><path class="cls-18" d="M354,45.54a.17.17,0,0,1-.18.15.18.18,0,0,1-.15-.15.17.17,0,0,1,.15-.19.17.17,0,0,1,.18.15Z"/><rect class="cls-8" x="339.72" y="45.07" width="7.14" height="0.59"/><path class="cls-8" d="M346.08,55.75c0-2.78-2.92-4.54-5.89-3.15a3.31,3.31,0,0,0-1.57,1.5,5,5,0,0,0,.26,4.48l2.32,5.88a1,1,0,0,0,1.86,0l2.27-5.91A7.13,7.13,0,0,0,346.08,55.75Zm-2.79,2.42c-2,1.16-4-1-2.93-3.11a1.59,1.59,0,0,1,.64-.67c2-1.17,4,1,2.93,3.11A1.72,1.72,0,0,1,343.29,58.17Z"/></g><g id="freepik--Idea--inject-64"><g id="freepik--Light--inject-64"><path class="cls-19" d="M383.22,43.37a2.21,2.21,0,1,1,0-.07Z"/><path class="cls-20" d="M378.43,43.46c-1.44-.85-1.42-2.24,0-3a5.76,5.76,0,0,1,5.21,0c1.43.84,1.42,2.25,0,3A5.76,5.76,0,0,1,378.43,43.46Z"/><path class="cls-19" d="M378.36,42.68c-1.48-.88-1.47-2.25,0-3.1a5.93,5.93,0,0,1,5.38,0c1.48.86,1.47,2.24,0,3.1A6,6,0,0,1,378.36,42.68Z"/><path class="cls-20" d="M378.28,41.87c-1.51-.9-1.5-2.34,0-3.2a6.08,6.08,0,0,1,5.54,0c1.52.89,1.51,2.33,0,3.2A6.14,6.14,0,0,1,378.28,41.87Z"/><path class="cls-19" d="M378.2,41c-1.56-.93-1.55-2.41,0-3.3a6.33,6.33,0,0,1,5.72.06c1.57.93,1.55,2.4,0,3.3A6.3,6.3,0,0,1,378.2,41Z"/><path class="cls-20" d="M378.15,40.15c-1.61-.95-1.59-2.45,0-3.37a6.47,6.47,0,0,1,5.83,0c1.6,1,1.58,2.46,0,3.37A6.41,6.41,0,0,1,378.15,40.15Z"/><path class="cls-21" d="M381.34,14.86A10.35,10.35,0,0,0,370.87,25.1h0c-.09,8.23,6.74,9.67,6.65,13a1.77,1.77,0,0,0,1,1.47,5.63,5.63,0,0,0,5.06.06,1.79,1.79,0,0,0,1.06-1.45h0c0-3.31,6.84-4.62,6.92-12.84a10.35,10.35,0,0,0-10.24-10.46Z"/><path class="cls-14" d="M381.34,14.86A10.35,10.35,0,0,0,370.87,25.1h0c-.09,8.23,6.74,9.67,6.65,13a1.77,1.77,0,0,0,1,1.47,5.63,5.63,0,0,0,5.06.06,1.79,1.79,0,0,0,1.06-1.45h0c0-3.31,6.84-4.62,6.92-12.84a10.35,10.35,0,0,0-10.24-10.46Z"/><path class="cls-21" d="M379.18,39.1a1.12,1.12,0,0,1,0-2.19,4.24,4.24,0,0,1,3.8,0,1.13,1.13,0,0,1,0,2.25A4.18,4.18,0,0,1,379.18,39.1Z"/><path class="cls-13" d="M382.47,37.79a.35.35,0,0,1-.34-.35,25.63,25.63,0,0,1,.79-5.91,15.67,15.67,0,0,1,.53-1.64,5.31,5.31,0,0,1-.89-.45,6.4,6.4,0,0,1-1.37-1.12,6.22,6.22,0,0,1-1.38,1.12,4.14,4.14,0,0,1-.9.43,15.68,15.68,0,0,1,.5,1.65,25.73,25.73,0,0,1,.66,5.93.36.36,0,0,1-.71,0,23.61,23.61,0,0,0-.64-5.74,13.63,13.63,0,0,0-.5-1.65,2.19,2.19,0,0,1-2-.6,1.12,1.12,0,0,1-.13-1.45.93.93,0,0,1,1-.39,2.58,2.58,0,0,1,1.54,1.63,4.71,4.71,0,0,0,.82-.38,5.28,5.28,0,0,0,1.32-1.13,2.54,2.54,0,0,1-.49-2,.92.92,0,0,1,1-.69.93.93,0,0,1,.94.71,2.6,2.6,0,0,1-.54,2,5.63,5.63,0,0,0,1.31,1.12,4,4,0,0,0,.8.4c.48-.93,1-1.49,1.58-1.59a.92.92,0,0,1,.95.41,1.13,1.13,0,0,1-.17,1.44,2.23,2.23,0,0,1-2,.56,12,12,0,0,0-.54,1.63,24.7,24.7,0,0,0-.77,5.73.33.33,0,0,1-.33.36h0Zm-5.61-9.54a.28.28,0,0,0-.21.12.43.43,0,0,0,.09.56,1.4,1.4,0,0,0,1.13.4,2.52,2.52,0,0,0-1-1.13Zm7.58,1.12a1.36,1.36,0,0,0,1.12-.37.43.43,0,0,0,.11-.55.24.24,0,0,0-.25-.13,3.19,3.19,0,0,0-.95,1.08Zm-3.25-3.67a.24.24,0,0,0-.27.19,1.7,1.7,0,0,0,.25,1.12,1.58,1.58,0,0,0,.28-1.12c.07-.09,0-.16-.22-.17Z"/></g><path class="cls-22" d="M381.44,10.9h-.18a.67.67,0,0,1-.67-.67h0V6.7a.68.68,0,0,1,.67-.68h0a.69.69,0,0,1,.68.68h0v3.53A.68.68,0,0,1,381.44,10.9Z"/><path class="cls-22" d="M373.9,12.89a.66.66,0,0,1-.75-.32l-1.74-3.06a.68.68,0,1,1,1-.95.74.74,0,0,1,.16.27l1.75,3.07a.66.66,0,0,1-.22.91h0Z"/><path class="cls-22" d="M368.37,18.34a.65.65,0,0,1-.51-.07l-3.05-1.77a.69.69,0,0,1,0-1,.7.7,0,0,1,.69-.17l3.05,1.78a.68.68,0,0,1,.24.93A.67.67,0,0,1,368.37,18.34Z"/><path class="cls-22" d="M366.33,25.9h-3.71a.69.69,0,0,1,0-1.36h3.53a.69.69,0,0,1,.67.69A.67.67,0,0,1,366.33,25.9Z"/><path class="cls-22" d="M397.44,35.32a.68.68,0,0,1-.52-.07l-3-1.78a.67.67,0,0,1,0-.95.69.69,0,0,1,.71-.17l3,1.78a.69.69,0,0,1,.25.93A.65.65,0,0,1,397.44,35.32Z"/><path class="cls-22" d="M365.09,35.32a.68.68,0,0,0,.52-.07l3-1.78a.67.67,0,0,0,0-.95.69.69,0,0,0-.68-.17l-3.06,1.72a.69.69,0,0,0,.17,1.25Z"/><path class="cls-22" d="M400,26a.54.54,0,0,1-.18,0h-3.53a.68.68,0,0,1-.67-.68h0a.65.65,0,0,1,.65-.67h3.55a.65.65,0,0,1,.67.65v0A.68.68,0,0,1,400,26Z"/><path class="cls-22" d="M394.45,18.48a.67.67,0,0,1-.51-1.23L397,15.5a.68.68,0,1,1,.95,1,.74.74,0,0,1-.27.16l-3.07,1.75A.36.36,0,0,1,394.45,18.48Z"/><path class="cls-22" d="M389,13a.68.68,0,0,1-.52-.08.67.67,0,0,1-.26-.9l0,0L390,8.91a.67.67,0,0,1,1.12.68l-1.71,3.05A.74.74,0,0,1,389,13Z"/></g><path class="cls-8" d="M336.86,209.63a12,12,0,1,0,12,12A12,12,0,0,0,336.86,209.63Zm7.82,19.82a11.07,11.07,0,1,1,3.24-7.83A11,11,0,0,1,344.68,229.45Z"/><path class="cls-8" d="M353.83,222.12c0-.16,0-.32,0-.5a16.41,16.41,0,0,0-.3-3.15,16.67,16.67,0,0,0-.89-3.07l.89-.71,4.56-3.63-4.56-5.71v-.21l-.75-.95-5.17,4.16a16.36,16.36,0,0,0-6.1-3.08v-7h-9.25v7.22a16.64,16.64,0,0,0-5.88,2.88l-5.86-4.67-5.3,6.66,5.93,4.73a16.82,16.82,0,0,0-1.32,5.9L312,222.77l1.9,8.3,7.82-1.78a16.74,16.74,0,0,0,3.48,4.57l-3.61,7.49,7.68,3.7,3.45-7.18a16.66,16.66,0,0,0,3.83.46,15.33,15.33,0,0,0,2-.15l3.5,7.26h.61l7.67-3.69L347.12,235a16.6,16.6,0,0,0,4.29-4.7l2.14.49,5.13,1.17,1.9-8.3Zm4.16,8.73-4.44-1v0l-2.61-.6-.18.3a16,16,0,0,1-4.53,5l-.32.23,3.2,6.65-6,2.91-3.41-7.08-.34.05a15.7,15.7,0,0,1-2.28.18,15.91,15.91,0,0,1-4-.52l-.37-.1-3.41,7.07-6-2.91,3.53-7.33-.26-.23a16,16,0,0,1-3.72-4.88l-.16-.33L315,230l-1.5-6.54,7.71-1.76v-.51a16,16,0,0,1,1.34-6.22l.15-.33-5.59-4.6,4-5.22,5.52,4.55.28-.23a15.08,15.08,0,0,1,6-3l.34-.09v-6.8h7.4V206l.36.09a15.51,15.51,0,0,1,6.37,3.22l.28.25,5.05-4.06.89,1.13v.22l3.26,4.07-3.26,2.59-2,1.62.14.32a15.73,15.73,0,0,1,1.26,6.18c0,.26,0,.54-.05.84l0,.39.69.15,5.92,1.35Z"/><g class="cls-23"><path class="cls-8" d="M225.6,69.8a21.7,21.7,0,1,0,21.7,21.7A21.69,21.69,0,0,0,225.6,69.8Zm14.16,35.86a20,20,0,1,1,5.86-14.16A20,20,0,0,1,239.76,105.66Z"/><path class="cls-8" d="M256.32,92.4c0-.29,0-.59,0-.9a30.71,30.71,0,0,0-.54-5.71,30.23,30.23,0,0,0-1.63-5.54l1.63-1.3,8.23-6.57-8.23-10.33v-.39l-1.36-1.72-9.37,7.55a29.51,29.51,0,0,0-11-5.59V49.22H217.31V62.29a30.09,30.09,0,0,0-10.64,5.2L196.08,59l-9.61,12.05,10.74,8.57a30.15,30.15,0,0,0-2.38,10.67L180.6,93.58l3.43,15,14.16-3.23a30.4,30.4,0,0,0,6.29,8.28L198,127.21l13.89,6.69,6.26-13a29.73,29.73,0,0,0,6.92.83,28.33,28.33,0,0,0,3.72-.26l6.33,13.14h1.1l13.89-6.69-5.88-12.2a30.18,30.18,0,0,0,7.75-8.52l3.89.89,9.28,2.12,3.43-15Zm7.52,15.8-8-1.83v0l-4.74-1.08-.31.53a28.89,28.89,0,0,1-8.22,9l-.57.41,5.79,12-10.94,5.27-6.17-12.81-.61.09a28.24,28.24,0,0,1-4.11.33,28.76,28.76,0,0,1-7.22-1l-.67-.18-6.16,12.8L201,126.52l6.39-13.27-.48-.42a28.85,28.85,0,0,1-6.71-8.84l-.3-.6L186,106.57l-2.7-11.84,14-3.18v-.92a29.2,29.2,0,0,1,2.44-11.26l.26-.6-10.11-8.33L197.08,61l10,8.23.5-.42a27.31,27.31,0,0,1,10.79-5.46l.63-.15V50.89h13.39V63.21l.63.15a28.13,28.13,0,0,1,11.54,5.84l.52.44,9.13-7.35,1.62,2.06v.39l5.88,7.37-5.88,4.7-3.66,2.92.25.58a28.53,28.53,0,0,1,2.27,11.19c0,.47-.05,1-.08,1.51l0,.7,1.25.29,10.7,2.44Z"/></g><g class="cls-23"><path class="cls-8" d="M450.66,69.8a21.7,21.7,0,1,0,21.7,21.7A21.69,21.69,0,0,0,450.66,69.8Zm14.16,35.86a20,20,0,1,1,5.86-14.16A20,20,0,0,1,464.82,105.66Z"/><path class="cls-8" d="M481.38,92.4c0-.29,0-.59,0-.9a30.71,30.71,0,0,0-.54-5.71,30.23,30.23,0,0,0-1.63-5.54l1.63-1.3,8.24-6.57-8.24-10.33v-.39l-1.36-1.72-9.36,7.55a29.66,29.66,0,0,0-11-5.59V49.22H442.37V62.29a30.09,30.09,0,0,0-10.64,5.2L421.14,59l-9.61,12.05,10.75,8.57a29.94,29.94,0,0,0-2.39,10.67l-14.23,3.25,3.43,15,14.16-3.23a30.24,30.24,0,0,0,6.3,8.28L423,127.21l13.88,6.69,6.26-13a29.73,29.73,0,0,0,6.92.83,28.33,28.33,0,0,0,3.72-.26l6.33,13.14h1.1l13.89-6.69-5.88-12.2A30.18,30.18,0,0,0,477,107.2l3.89.89,9.28,2.12,3.43-15Zm7.52,15.8-8-1.83v0l-4.74-1.08-.31.53a28.86,28.86,0,0,1-8.21,9l-.58.41,5.79,12L461.9,132.5l-6.17-12.81-.61.09a28.37,28.37,0,0,1-4.12.33,28.76,28.76,0,0,1-7.22-1l-.67-.18L437,131.78,426,126.52l6.39-13.27-.47-.42a28.73,28.73,0,0,1-6.72-8.84l-.29-.6L411,106.57l-2.7-11.84,13.95-3.18v-.92a29.2,29.2,0,0,1,2.44-11.26l.26-.6-10.11-8.33L422.15,61l10,8.23.51-.42a27.18,27.18,0,0,1,10.79-5.46l.62-.15V50.89h13.39V63.21l.64.15a28.16,28.16,0,0,1,11.53,5.84l.52.44,9.13-7.35,1.62,2.06v.39l5.88,7.37-5.88,4.7-3.66,2.92.25.58a28.54,28.54,0,0,1,2.28,11.19c0,.47-.05,1-.08,1.51l0,.7,1.25.29,10.7,2.44Z"/></g><circle class="cls-1" cx="190.75" cy="226.82" r="8.79"/><path class="cls-8" d="M195.28,224.62a.78.78,0,0,0-.87-.87,13.67,13.67,0,0,0-1.81,0,2.27,2.27,0,0,1-2.39-1,.88.88,0,0,0-.83-.34h-2c-.7,0-1,.26-1,1v.36H188a.88.88,0,0,1,.83.35,2.28,2.28,0,0,0,2.39,1,13.51,13.51,0,0,1,1.8,0,.78.78,0,0,1,.88.87v3.83h.51a.79.79,0,0,0,.9-.89C195.29,227.48,195.29,226.05,195.28,224.62Z"/><path class="cls-8" d="M197,222.9a.78.78,0,0,0-.87-.88c-.61,0-1.21-.05-1.81,0a2.26,2.26,0,0,1-2.39-1,.88.88,0,0,0-.83-.34c-.68,0-1.36,0-2,0s-1,.27-1,1V222h1.6a.9.9,0,0,1,.83.35,2.25,2.25,0,0,0,2.39,1,13.51,13.51,0,0,1,1.8,0,.78.78,0,0,1,.88.87v3.83h.51a.79.79,0,0,0,.9-.89Z"/><path class="cls-8" d="M193.4,226.51a.78.78,0,0,0-.88-.87,13.51,13.51,0,0,0-1.8,0,2.27,2.27,0,0,1-2.39-1,.88.88,0,0,0-.83-.35h-2c-.7,0-1,.27-1,1,0,1.81,0,3.61,0,5.42,0,.69.28,1,1,1h7a.81.81,0,0,0,.91-.89v-4.28Z"/><circle class="cls-1" cx="208.6" cy="251.66" r="8.79"/><circle class="cls-8" cx="208.98" cy="248.92" r="3.27"/><path class="cls-18" d="M209,252.42a3.51,3.51,0,1,1,3.5-3.5A3.51,3.51,0,0,1,209,252.42Zm0-6.53a3,3,0,1,0,3,3A3,3,0,0,0,209,245.89Z"/><path class="cls-8" d="M213.16,257.57H204.8v-1.23a4.18,4.18,0,0,1,4.18-4.18h0a4.18,4.18,0,0,1,4.18,4.18Z"/><path class="cls-18" d="M213.16,257.81H204.8a.24.24,0,0,1-.24-.24v-1.23a4.42,4.42,0,1,1,8.83,0v1.23A.23.23,0,0,1,213.16,257.81Zm-8.13-.48h7.89v-1a3.95,3.95,0,0,0-7.89,0Z"/><path class="cls-18" d="M209,256a.24.24,0,0,1-.21-.11l-1.89-3.12a.23.23,0,0,1,.08-.32.23.23,0,0,1,.33.08l1.69,2.77,1.68-2.77a.23.23,0,0,1,.33-.08.23.23,0,0,1,.08.32l-1.89,3.12A.23.23,0,0,1,209,256Z"/><path class="cls-18" d="M209,257.81a.24.24,0,0,1-.24-.24v-1.85a.24.24,0,1,1,.47,0v1.85A.23.23,0,0,1,209,257.81Z"/><path class="cls-8" d="M205.07,247.19h.61a0,0,0,0,1,0,0v3.48a0,0,0,0,1,0,0h-.61a1.2,1.2,0,0,1-1.2-1.2v-1.09A1.2,1.2,0,0,1,205.07,247.19Z"/><path class="cls-18" d="M205.68,250.91h-.61a1.44,1.44,0,0,1-1.43-1.44v-1.08a1.44,1.44,0,0,1,1.43-1.44h.61a.24.24,0,0,1,.24.24v3.48A.24.24,0,0,1,205.68,250.91Zm-.61-3.48a1,1,0,0,0-1,1v1.08a1,1,0,0,0,1,1h.37v-3Z"/><path class="cls-8" d="M213.47,247.19h.61a0,0,0,0,1,0,0v3.48a0,0,0,0,1,0,0h-.61a1.2,1.2,0,0,1-1.2-1.2v-1.09A1.2,1.2,0,0,1,213.47,247.19Z" transform="translate(426.36 497.86) rotate(180)"/><path class="cls-18" d="M212.89,250.91h-.61a.24.24,0,0,1-.24-.24v-3.48a.24.24,0,0,1,.24-.24h.61a1.45,1.45,0,0,1,1.44,1.44v1.08A1.45,1.45,0,0,1,212.89,250.91Zm-.37-.48h.37a1,1,0,0,0,1-1v-1.08a1,1,0,0,0-1-1h-.37Z"/><path class="cls-18" d="M212.24,247.43a.24.24,0,0,1-.24-.24,2.27,2.27,0,0,0-2.27-2.27h-1.54a2.27,2.27,0,0,0-2.27,2.27.24.24,0,0,1-.24.24.24.24,0,0,1-.24-.24,2.75,2.75,0,0,1,2.75-2.74h1.54a2.75,2.75,0,0,1,2.75,2.74A.24.24,0,0,1,212.24,247.43Z"/><path class="cls-18" d="M212.28,250.91H209a.24.24,0,1,1,0-.48h3.32a.24.24,0,1,1,0,.48Z"/><circle class="cls-1" cx="189.94" cy="286.73" r="8.79"/><g id="freepik--Emails--inject-138"><path class="cls-8" d="M196.47,284v6.55a.73.73,0,0,1-.72.73H184.59a.73.73,0,0,1-.72-.73V284a.86.86,0,0,1,0-.27.73.73,0,0,1,.68-.46h11.15a.73.73,0,0,1,.68.46A.63.63,0,0,1,196.47,284Z"/><path class="cls-24" d="M196.42,283.69l-6,5a.48.48,0,0,1-.6,0l-6-5a.73.73,0,0,1,.68-.46h11.19A.74.74,0,0,1,196.42,283.69Z"/><path class="cls-13" d="M192,279.83h-5.95v5.83l3.71,3.07a.44.44,0,0,0,.59,0l3.71-3.07v-4.53Z"/><path class="cls-25" d="M190.17,288.88a.62.62,0,0,1-.37-.13l-3.68-3.09a.12.12,0,0,1,0-.08v-5.82a.1.1,0,0,1,.11-.1h6l2.05,1.3a.12.12,0,0,1,0,.09v4.53a.12.12,0,0,1,0,.08l-3.69,3.08A.59.59,0,0,1,190.17,288.88Zm-3.92-3.38,3.69,3a.34.34,0,0,0,.46,0l3.69-3v-4.43l-2-1.24h-5.84Z"/><polygon class="cls-17" points="194.16 281.08 192.09 279.78 192.76 281.5 194.16 281.08"/><path class="cls-25" d="M192.76,281.61a.11.11,0,0,1-.1-.07l-.67-1.72a.11.11,0,0,1,.06-.14.14.14,0,0,1,.09,0l2.07,1.3a.1.1,0,0,1,0,.19l-1.39.41ZM192.3,280l.52,1.35,1.09-.33Z"/><path class="cls-25" d="M191.83,285.28h.48a1.85,1.85,0,0,1-.76.73,2.8,2.8,0,0,1-1.34.3,3,3,0,0,1-1.28-.26,1.5,1.5,0,0,1-.76-.75,2.11,2.11,0,0,1-.18-1.08,2.56,2.56,0,0,1,.4-1.2,2.16,2.16,0,0,1,.89-.83,2.68,2.68,0,0,1,1.24-.28,2.15,2.15,0,0,1,1,.22,1.42,1.42,0,0,1,.64.64,1.76,1.76,0,0,1,.18.9,1.84,1.84,0,0,1-.45,1.06,1.52,1.52,0,0,1-1.2.6.55.55,0,0,1-.28-.07.31.31,0,0,1-.11-.19,1,1,0,0,1-.64.26.78.78,0,0,1-.61-.27.89.89,0,0,1-.2-.7,1.83,1.83,0,0,1,.38-1,1.18,1.18,0,0,1,1-.54.6.6,0,0,1,.58.31l.07-.26h.61l-.48,1.64a1.55,1.55,0,0,0,0,.21.08.08,0,0,0,0,.08.06.06,0,0,0,.06,0,.51.51,0,0,0,.29-.13,1.33,1.33,0,0,0,.41-.47,1.29,1.29,0,0,0,.19-.61,1.15,1.15,0,0,0-.33-.94,1.57,1.57,0,0,0-1.13-.37,2.11,2.11,0,0,0-1.07.25,1.81,1.81,0,0,0-.7.7,2.19,2.19,0,0,0-.29,1,1.58,1.58,0,0,0,.17.88,1.29,1.29,0,0,0,.64.58,3.05,3.05,0,0,0,1.95,0A1.74,1.74,0,0,0,191.83,285.28Zm-2.38-.89a.65.65,0,0,0,.08.41.35.35,0,0,0,.27.14.61.61,0,0,0,.24-.06.86.86,0,0,0,.18-.14,1.44,1.44,0,0,0,.23-.4,1.88,1.88,0,0,0,.12-.48.52.52,0,0,0-.09-.38.34.34,0,0,0-.28-.14.61.61,0,0,0-.36.15,1,1,0,0,0-.28.42A1.6,1.6,0,0,0,189.45,284.39Z"/><rect class="cls-25" x="183.19" y="292.09" width="4.43" height="0.17"/><rect class="cls-25" x="185.57" y="293.28" width="3.07" height="0.17"/></g></svg>