<svg id="Layer_1" data-name="Layer 1" xmlns="http://www.w3.org/2000/svg" viewBox="0 0 620.58 431.29"><defs><style>.cls-1,.cls-15,.cls-5{fill:#90caf9;}.cls-1,.cls-2,.cls-3{opacity:0.3;}.cls-2,.cls-4{fill:#0072a1;}.cls-6{fill:#3ea7ff;}.cls-12,.cls-17,.cls-7,.cls-9{fill:#fff;}.cls-7{stroke:#90caf9;stroke-width:5px;}.cls-10,.cls-16,.cls-17,.cls-18,.cls-21,.cls-7{stroke-miterlimit:10;}.cls-12,.cls-21,.cls-25,.cls-8{isolation:isolate;}.cls-10,.cls-20,.cls-23{fill:#263238;}.cls-10,.cls-13,.cls-14,.cls-16,.cls-17,.cls-18,.cls-19,.cls-21,.cls-22,.cls-23,.cls-24{stroke:#263238;}.cls-11,.cls-13,.cls-14,.cls-18,.cls-19,.cls-22{fill:none;}.cls-11{stroke:#fff;stroke-width:0.75px;}.cls-11,.cls-13,.cls-14,.cls-19,.cls-22{stroke-linecap:round;stroke-linejoin:round;}.cls-12{opacity:0.8;}.cls-13{stroke-dasharray:2;}.cls-14{stroke-dasharray:2 2;}.cls-15{fill-rule:evenodd;}.cls-16,.cls-21,.cls-24{fill:#92e3a9;}.cls-21{opacity:0.5;}.cls-22{stroke-width:0.5px;}.cls-23{stroke-miterlimit:10;}.cls-24{stroke-miterlimit:10;}.cls-25{opacity:0.3;}.cls-26{fill:#407bff;}.cls-27{fill:#ebebeb;}</style></defs><circle class="cls-1" cx="323.45" cy="252.22" r="136.65"/><path class="cls-2" d="M498.5,302.35c-.81,3.9-2,7.71-3,11.54l7.61,2.33c1.14-4,2.34-8,3.19-12.08Z" transform="translate(-8.21 -11.65)"/><path class="cls-2" d="M492.28,323.32a186.08,186.08,0,0,1-9.82,21.74l7,3.78a193.8,193.8,0,0,0,10.29-22.76Z" transform="translate(-8.21 -11.65)"/><path class="cls-2" d="M477.4,353.77a181.5,181.5,0,0,1-13.91,19.38l6.12,5.08A187.35,187.35,0,0,0,484.17,358Z" transform="translate(-8.21 -11.65)"/><polygon class="cls-2" points="448.69 368.95 444.57 373.28 440.25 377.4 445.68 383.22 450.2 378.9 454.51 374.38 448.69 368.95"/><path class="cls-2" d="M441,395.64a181.59,181.59,0,0,1-19.38,13.92l4.19,6.77a188.3,188.3,0,0,0,20.27-14.57Z" transform="translate(-8.21 -11.65)"/><path class="cls-2" d="M412.92,414.62a186.06,186.06,0,0,1-21.73,9.84l2.77,7.46a192,192,0,0,0,22.75-10.29Z" transform="translate(-8.21 -11.65)"/><path class="cls-2" d="M360.48,432.64l-2.94.52-3,.37c-2,.24-3.95.53-5.93.73-4,.27-7.93.71-11.92.72l.24,7.95c4.16,0,8.31-.46,12.46-.75,2.07-.2,4.13-.5,6.2-.75l3.1-.4,3.08-.54Z" transform="translate(-8.21 -11.65)"/><path class="cls-2" d="M326.66,435c-4,0-8-.44-11.92-.71-2-.19-3.95-.49-5.92-.73l-3-.37c-1-.15-2-.34-2.94-.51l-1.33,7.85c1,.17,2.05.38,3.08.53l3.09.4c2.07.24,4.13.55,6.21.75,4.15.29,8.29.73,12.46.75Z" transform="translate(-8.21 -11.65)"/><path class="cls-2" d="M293.16,430.71c-3.89-.82-7.71-2-11.53-3l-2.33,7.62c4,1.13,8,2.33,12.08,3.19Z" transform="translate(-8.21 -11.65)"/><path class="cls-2" d="M272.2,424.49a187.82,187.82,0,0,1-21.74-9.83l-3.78,7A194.33,194.33,0,0,0,269.43,432Z" transform="translate(-8.21 -11.65)"/><path class="cls-2" d="M241.75,409.6a181.5,181.5,0,0,1-19.38-13.91l-5.09,6.13a192.17,192.17,0,0,0,20.28,14.56Z" transform="translate(-8.21 -11.65)"/><path class="cls-2" d="M199.88,373.21A181.59,181.59,0,0,1,186,353.83L179.19,358a188.42,188.42,0,0,0,14.57,20.28Z" transform="translate(-8.21 -11.65)"/><path class="cls-2" d="M180.9,345.12a184.42,184.42,0,0,1-9.84-21.73l-7.47,2.77a193.72,193.72,0,0,0,10.3,22.75Z" transform="translate(-8.21 -11.65)"/><path class="cls-2" d="M167.88,314c-1.08-3.83-2.24-7.64-3-11.54l-7.76,1.79c.85,4.08,2.06,8.07,3.19,12.07Z" transform="translate(-8.21 -11.65)"/><g class="cls-3"><path class="cls-4" d="M162.88,292.68l-.52-2.94-.38-3c-.23-2-.52-3.95-.72-5.93-.27-4-.71-7.93-.72-11.91l-8,.23c0,4.16.47,8.31.75,12.46.21,2.07.51,4.14.76,6.2l.4,3.1L155,294Z" transform="translate(-8.21 -11.65)"/></g><g class="cls-3"><path class="cls-4" d="M160.54,258.86c0-4,.44-7.94.71-11.92.19-2,.49-3.94.72-5.92l.38-3c.15-1,.34-2,.51-2.94L155,233.79c-.18,1-.38,2.05-.53,3.08l-.4,3.1c-.25,2.06-.55,4.13-.75,6.2-.29,4.15-.74,8.3-.75,12.46Z" transform="translate(-8.21 -11.65)"/><path class="cls-4" d="M171,204.4a184.5,184.5,0,0,1,9.83-21.74l-7-3.78a195.45,195.45,0,0,0-10.29,22.76Z" transform="translate(-8.21 -11.65)"/></g><path class="cls-2" d="M185.92,174a181.5,181.5,0,0,1,13.91-19.38l-6.13-5.08a190.12,190.12,0,0,0-14.56,20.28Z" transform="translate(-8.21 -11.65)"/><polygon class="cls-2" points="198.22 135.48 202.34 131.15 206.66 127.03 201.22 121.21 196.7 125.53 192.39 130.05 198.22 135.48"/><path class="cls-2" d="M222.31,132.08a181.59,181.59,0,0,1,19.38-13.92l-4.19-6.77A188.42,188.42,0,0,0,217.22,126Z" transform="translate(-8.21 -11.65)"/><polygon class="cls-2" points="440.2 126.96 444.51 131.1 448.62 135.44 454.46 130.02 450.16 125.49 445.66 121.16 440.2 126.96"/><path class="cls-2" d="M463.39,154.55A180.19,180.19,0,0,1,477.24,174l6.79-4.16a187.44,187.44,0,0,0-14.5-20.33Z" transform="translate(-8.21 -11.65)"/><path class="cls-2" d="M482.42,182.6a186.06,186.06,0,0,1,9.84,21.73l7.46-2.77a195.31,195.31,0,0,0-10.29-22.75Z" transform="translate(-8.21 -11.65)"/><path class="cls-2" d="M495.44,213.75c1.08,3.83,2.24,7.64,3.05,11.54l7.76-1.79c-.86-4.08-2.06-8.06-3.2-12.07Z" transform="translate(-8.21 -11.65)"/><path class="cls-2" d="M500.44,235,501,238l.37,3c.24,2,.53,3.95.73,5.93.26,4,.71,7.93.71,11.91l8-.23c0-4.16-.46-8.31-.75-12.46-.21-2.07-.51-4.14-.76-6.2l-.39-3.1-.54-3.08Z" transform="translate(-8.21 -11.65)"/><path class="cls-5" d="M339.94,174.58c5.68-9.58,5.57-15.61.22-21.71-3.32-3.77-9.64-3.34-11.78-6.19s-1.26-8.62-4.42-12.24c-2.44-2.78-5.38-5-9.08-5.31-2.73-.24-3.05-1.3-3.11-3.75-.27-10.46-10.31-18.07-19.57-15.09-4.18,1.35-6.44,4.76-9,8.52-2.59-5-5.67-9.08-11.06-10.74-5.67-1.77-10.39-.2-14.56,4.18-3.34-4-6.52-8.09-9.9-12-1.24-1.42-.74-2.39,0-3.7q16.08-28.54,32.11-57.14c.7-1.24,1.23-2.53,3.07-1.3,3.77,2.52,7.66,4.8,12.26,5.56,4.42.74,8.84,1.56,13.93,2.46-3.4,5-6.76,9.73-9.89,14.68-2.59,4-5.62,7.89-6.28,12.92-1.1,8.36,2.72,12.38,11.19,11.73,12.24-.93,21.47-7.33,28.76-16.54a19.49,19.49,0,0,1,10.94-7.22,7.48,7.48,0,0,1,5.77.49c29.63,14.78,56.58,33.6,82.08,54.58,5.53,4.55,6.44,9.5,3.05,14.28-3.06,4.32-9.15,5.12-14.68,1.82q-19.1-11.37-38.16-22.81c-1.84-1.11-3.9-3-5.59-.15s1,3.79,2.78,4.86q17.25,10.41,34.49,20.73a8,8,0,0,1-.56,14.07c-3.93,2-8.13,2.71-12.47.11-10-6-20.21-11.78-30.33-17.63-1.9-1.1-4.07-2.66-5.6.15-1.38,2.52.95,3.53,2.7,4.54,9.3,5.4,18.63,10.77,27.89,16.24,2,1.15,5,1.51,4.05,5.22s-2.07,7.34-6.43,8.29a16.8,16.8,0,0,1-11.42-1.1c-7.68-3.79-15.44-7.46-23.15-11.2-2-1-4.26-2.41-5.59.42s1.4,3.62,3.29,4.54c7.16,3.47,14.3,7,21.52,10.31,2.36,1.07,2.66,2,.89,3.94-3.62,4-7.78,6.52-13.43,6.47C356.31,179.85,348.35,177.1,339.94,174.58Z" transform="translate(-8.21 -11.65)"/><path class="cls-5" d="M364.81,32.32c9.59-.56,21.11,2.41,32.66,5.12,6.5,1.53,12.95,2.32,19.35,0,2.47-.88,3.54-.1,4.74,2q15.38,27.59,30.95,55c1.26,2.21,1,3.39-.81,5.06-4.15,3.77-7.79,8.06-12.6,11.14-2.66,1.68-4.34,1.66-6.9-.43-24.76-20.2-50.89-38.21-79.5-52.54-6.58-3.3-17.49-.8-21.93,5.06-6.49,8.55-14.15,15.42-25.33,17-2.29.32-5.09,1.15-6.61-.89-1.69-2.28-.73-5.2.53-7.55,6.19-11.45,14.15-21.7,21.95-32,2.35-3.06,6.64-3.28,10.27-4C341.76,33.27,352.05,32.64,364.81,32.32Z" transform="translate(-8.21 -11.65)"/><path class="cls-6" d="M465.39,103.72c-1.55-.1-2-1.16-2.53-2.1Q442,64.48,421,27.43c-1.29-2.28-.88-3.63,1.36-4.93q8.28-4.84,16.39-10c2.24-1.44,3.48-1.14,4.8,1.21q20.7,36.94,41.55,73.8c1.22,2.14,1.26,3.6-1.1,5-5.66,3.31-11.2,6.79-16.8,10.2C466.63,103.11,465.9,103.45,465.39,103.72Z" transform="translate(-8.21 -11.65)"/><path class="cls-6" d="M236,103.72c-.71-.36-1.57-.73-2.36-1.21-5.3-3.24-10.61-6.63-16-9.73-2.73-1.56-2.74-3.09-1.3-5.63q20.66-36.44,41.08-73C259,11.49,260.32,11,263,12.7c5.09,3.31,10.32,6.44,15.58,9.48,2.52,1.47,3.09,2.9,1.56,5.62q-20.8,36.63-41.38,73.38C238.1,102.24,237.68,103.5,236,103.72Z" transform="translate(-8.21 -11.65)"/><path class="cls-5" d="M281.35,157.19a10.22,10.22,0,0,1-8.9-5.89,8.48,8.48,0,0,1,.71-9.66c5.58-7.51,11-15.12,16.62-22.63,3.32-4.47,7.3-5.12,11.76-2.14s6.38,8.73,3.68,12.62c-6,8.58-12.26,16.92-18.49,25.3A6.11,6.11,0,0,1,281.35,157.19Z" transform="translate(-8.21 -11.65)"/><path class="cls-5" d="M322.27,145.61c.07,1.16-.75,2.78-1.89,4.34-4.16,5.65-8.22,11.38-12.38,17-3.31,4.42-7.32,5.19-11.75,2.28s-6.46-8.62-3.8-12.56c4.69-7,9.72-13.75,14.92-20.34,2.21-2.82,5.63-2.54,8.61-1.12C319.93,137.1,322.22,140.25,322.27,145.61Z" transform="translate(-8.21 -11.65)"/><path class="cls-5" d="M338.88,163.63a8.36,8.36,0,0,1-1.94,5.14c-2.61,3.54-5.13,7.07-7.79,10.52-3.18,4.12-7.72,4.73-11.87,1.71-4.42-3.22-5.89-8.62-3.2-12.67,2.5-3.76,5.38-7.28,7.9-11,2.4-3.59,5.54-4.89,9.64-3.63A11,11,0,0,1,338.88,163.63Z" transform="translate(-8.21 -11.65)"/><path class="cls-5" d="M265,138.27a10.49,10.49,0,0,1-8.78-6.05,8.65,8.65,0,0,1,.77-9.66c1.51-2,2.93-4,4.42-6,3-3.88,6.49-4.72,10.61-2.65s7.08,7.35,5.6,11.22c-1.77,4.68-5.2,8.43-8.69,12A5,5,0,0,1,265,138.27Z" transform="translate(-8.21 -11.65)"/><path class="cls-6" d="M534.34,375c-2.18,1.56-4.32,3.16-6.58,4.57l-3.41,2.15-3.49,2,1.23,2.15,3.54-2.05,3.44-2.21c2.33-1.43,4.52-3.06,6.74-4.65Z" transform="translate(-8.21 -11.65)"/><polygon class="cls-6" points="530.6 359.85 532.14 361.78 529.58 363.81 528.07 361.85 530.6 359.85"/><path class="cls-6" d="M518.77,384.89l1.18,2.17c-1,.51-1.94,1-2.9,1.5l-1.13-2.2C516.87,385.87,517.83,385.39,518.77,384.89Z" transform="translate(-8.21 -11.65)"/><path class="cls-6" d="M508.57,389.9c-2.42,1.16-4.94,2.05-7.41,3.05-1.24.52-2.52.91-3.79,1.35l-3.85,1.27.72,2.36,3.89-1.3c1.29-.44,2.6-.82,3.86-1.36,2.53-1,5.11-1.93,7.57-3.11Z" transform="translate(-8.21 -11.65)"/><path class="cls-6" d="M513.68,387.51l1.09,2.21c-1,.52-2,1-3,1.41l-1-2.24C511.75,388.45,512.73,388,513.68,387.51Z" transform="translate(-8.21 -11.65)"/><polygon class="cls-7" points="415.37 349.96 415.37 287.5 442.13 256.26 468.9 287.5 468.9 349.96 415.37 349.96"/><g class="cls-8"><path class="cls-6" d="M430.43,338.28l3.35-10.53c2.44,1.56,8.37,5.05,13.53,5.05,3.35,0,5.37-1.07,5.37-3s-1.54-3.13-6.28-3.91c-10.39-1.71-14.93-7.12-14.93-15.73a16.62,16.62,0,0,1,14.72-16.59v-2.7h8.37v2.85c6.49,0,12.56,3.55,13.88,4.34l-3.35,11c-3-1.64-5.79-3.56-12.76-3.56-2.72,0-4,.93-4,2.78s1.61,3.2,6.14,3.91c10.88,1.64,15.76,8.61,15.76,15.73,0,8.68-5.64,15.3-15.69,16.65v4.35h-8.37v-4.2C439.15,344.19,433.5,340.63,430.43,338.28Z" transform="translate(-8.21 -11.65)"/></g><polygon class="cls-9" points="424.51 354.26 456.95 347.33 513.96 359.3 547.35 341.35 560.25 346.38 581.05 341.66 592.7 347.96 608.13 347.33 618.21 359.94 593.33 381.98 517.74 422.92 485.62 420.72 420.43 407.18 419.48 353 424.51 354.26"/><polygon class="cls-9" points="377.91 336.63 415.38 335.37 421.69 342.3 421.36 416 418.53 423.87 378.53 424.81 376.96 336.94 377.91 336.63"/><path class="cls-7" d="M555.54,329.21c-.92,53.66-80.74,53.65-81.65,0C474.81,275.55,554.63,275.56,555.54,329.21Z" transform="translate(-8.21 -11.65)"/><polygon class="cls-6" points="477.58 316.63 485.48 309.56 499.13 323.21 528.92 297.58 535.43 305.48 497.26 337.55 477.58 316.63"/><path class="cls-6" d="M628.56,367.47a29,29,0,0,0-2.75-5.89l-2.1-2.23a31.48,31.48,0,0,0-5.9-3.78,1.14,1.14,0,0,1-.92-.38l-.62-.11a.49.49,0,0,1-.64-.21l-2.81-.54a32.17,32.17,0,0,0-7.59.48,2.46,2.46,0,0,1-1.56.42c-.69.65-1.23.45-1.64-.31l-3.09-2.47a25.89,25.89,0,0,0-7.59-2.84c-3.91-.67-7.59.09-11.25,1.26l-6,3.09c-2.2,1.42-2.18,1.39-4.06-.17a20.42,20.42,0,0,0-13.43-4.44c-.58,0-1.15,0-1.73.07l-3.15.73a.55.55,0,0,1-.63.26,4.27,4.27,0,0,1-1.81.57,74.74,74.74,0,0,1-6.95,3.73,1.48,1.48,0,0,1-1,.51,27.76,27.76,0,0,1-5.31,2.93,8,8,0,0,1-2.32,1.27,1.1,1.1,0,0,1-.88.47,8.21,8.21,0,0,1-2.63,1.39,43.7,43.7,0,0,1-6.32,3.49,18.28,18.28,0,0,1-4,2.11.6.6,0,0,1-.85.11.57.57,0,0,1-.11-.11,7.83,7.83,0,0,1-3.15-.82,2,2,0,0,1-1.24-.29.54.54,0,0,1-.64-.19,8.41,8.41,0,0,1-3.18-.82,18.39,18.39,0,0,1-4-.93.68.68,0,0,1-.82-.25,65.05,65.05,0,0,1-8-2.1l-1.57-.34a1,1,0,0,1-1-.27l-.62-.09a.49.49,0,0,1-.64-.21l-.92-.2a61,61,0,0,1-8.23-2l-.92-.17a.48.48,0,0,1-.64-.18,3.46,3.46,0,0,1-1.58-.37.52.52,0,0,1-.65-.19l-.92-.17-10.4-2.17a1,1,0,0,1-.94-.22,4.33,4.33,0,0,1-1.89-.21,5.77,5.77,0,0,1-2.23-.05,4.85,4.85,0,0,1-1.89.23.48.48,0,0,1-.64.11,1.68,1.68,0,0,1-1.24.22.59.59,0,0,1-.64.13l-.63.16a.43.43,0,0,1-.59.14l0,0-1.27.19a.89.89,0,0,1-.95.23l-.94.12c-3,.82-6.06,1.48-9.14,2l-.93.17a1,1,0,0,1-.95.25l-.62.1a1.66,1.66,0,0,1-1.26.31l-1.27.27a.47.47,0,0,1-.63.18,1.14,1.14,0,0,1-.93.17.57.57,0,0,1-.64.2l-.62.13a1.12,1.12,0,0,1-.95.21,2.62,2.62,0,0,1-1.59.37,4.58,4.58,0,0,1-2.2.56l-.6.11c-.82-.07-.44-.72-.45-1.08v-6a12.47,12.47,0,0,0-1.44-5.54L429,345.73a16.39,16.39,0,0,0-8.75-2q-13.31.07-26.61,0a16.59,16.59,0,0,0-8.75,2L382.37,348a.81.81,0,0,1-.5.74h0a13.4,13.4,0,0,0-1.44,6.15,47,47,0,0,1,0,6.28,44.3,44.3,0,0,1,0,6.31,44,44,0,0,1,0,6.29,44.3,44.3,0,0,1,0,6.31,43.88,43.88,0,0,1,0,6.28,44.3,44.3,0,0,1,0,6.31,44,44,0,0,1,0,6.29,44.3,44.3,0,0,1,0,6.31,44,44,0,0,1,0,6.29,44.3,44.3,0,0,1,0,6.31,43.88,43.88,0,0,1,0,6.28v6.3l.89,3.48L383,436.4a2.13,2.13,0,0,1,1,1l.51.38a1,1,0,0,1,.78.53l1.72.82c3.4,1.15,7,.59,10.44.91a46.7,46.7,0,0,1,6.26,0,35.11,35.11,0,0,1,6.32,0,46.85,46.85,0,0,1,6.27,0c1.87,0,3.76,0,5.62-.14,1.2-.06,2.38-.26,3.57-.4l.6-.13a.57.57,0,0,1,.64-.26l1.7-.83a3.22,3.22,0,0,1,1.36-1l.27-.22a1,1,0,0,1,.67-.7l1.74-2.69a23.54,23.54,0,0,0,.68-8.06c-.05-1.28.43-1.65,1.57-1.24s2.29.2,3.29.82l.92.11a14.44,14.44,0,0,1,4.11.83l.63.07a1.58,1.58,0,0,1,1.26.28l.62.07a14,14,0,0,1,4.11.83l.92.11a.83.83,0,0,1,1,.23l.92.14a14.17,14.17,0,0,1,4.12.83l.61.07a9.36,9.36,0,0,1,3.1.63.14.14,0,0,1,.15,0,11.57,11.57,0,0,1,3.4.6l.58.11a7.44,7.44,0,0,1,2.79.57l.38.09a.47.47,0,0,1,.64.1l.61.09a1.39,1.39,0,0,1,1.27.29l.61.06a15.28,15.28,0,0,1,4.44.82l.93.1a23.2,23.2,0,0,1,4.74.83l.6.09a1.54,1.54,0,0,1,1.28.26l.61.07a15.28,15.28,0,0,1,4.44.82l.61.06a13.41,13.41,0,0,1,3.72.67l.69.12a4.7,4.7,0,0,1,2.53.44l.61.07a1.38,1.38,0,0,1,1.27.26l.93.14a6.2,6.2,0,0,1,2.55.46l.6.07a2.18,2.18,0,0,1,1.6.26l.92.08a27.77,27.77,0,0,1,5.37.82l.63.07a2.14,2.14,0,0,1,1.58.27l1.55.13,5.06.51.62,0,4.77-.58.6-.12a2.13,2.13,0,0,1,1.61-.51l3.43-1.1a27.68,27.68,0,0,1,5-2.15,4.9,4.9,0,0,1,1.85-.86,38.76,38.76,0,0,1,5.94-2.8.91.91,0,0,1,.77-.35,39.42,39.42,0,0,1,5.87-3.06.49.49,0,0,1,.52-.3.82.82,0,0,1,.82-.44l.41-.22a5,5,0,0,1,2.11-1.09,6.08,6.08,0,0,1,2.16-1.11,1.26,1.26,0,0,1,1-.54,38.23,38.23,0,0,1,5.55-3.11q6.25-3.82,12.72-7.28l.11-.08a.93.93,0,0,1,.82-.5.17.17,0,0,1,.16-.17.82.82,0,0,1,.83-.46l.82-.46a19.21,19.21,0,0,1,3.52-2.16l6-3.47a6.65,6.65,0,0,1,2.17-1.33,29.11,29.11,0,0,1,4.38-2.64c4.12-2.7,8.34-5.27,12.66-7.66a1.48,1.48,0,0,1,.93-.59,1.2,1.2,0,0,1,1-.62c0-.09.06-.12.14-.1a21.19,21.19,0,0,1,4.12-2.53l.06.08-.06-.09a.77.77,0,0,1,.75-.47.12.12,0,0,1,.14-.11h0a2.18,2.18,0,0,1,1.39-.87,23.16,23.16,0,0,1,3.75-2.28,4.22,4.22,0,0,1,1.92-1.18l4.12-2.83L626,380l1.65-3A18.69,18.69,0,0,0,628.56,367.47ZM425,428.94c0,1.05.19,2.25-1.16,2.76-1.27,1.1-2.82.77-4.29.79-1.09,0-2.18-.05-3.29-.09a34.56,34.56,0,0,1-6.27,0,44.58,44.58,0,0,1-6.33,0,34.56,34.56,0,0,1-6.27,0,41.4,41.4,0,0,1-6.3,0,2.59,2.59,0,0,1-2.47-3v-74.9c0-1.12,0-2.23,1.23-2.79a.29.29,0,0,1,.19-.15,2.3,2.3,0,0,1,2-.63h29.33c.31,0,.64,0,.88.22a1.11,1.11,0,0,1,.94.27,1.8,1.8,0,0,1,1.41,1.41c.5.45.39,1.06.39,1.64Q425,391.72,425,428.94ZM620.43,371.5a.73.73,0,0,1-.17,1l-.32,1.24a.82.82,0,0,1-.35.82l-.24.44a1.26,1.26,0,0,1-.77,1.11c-1.77,2.21-4.31,3.34-6.71,4.66a41.11,41.11,0,0,1-6.11,3.82,19.14,19.14,0,0,1-3.61,2.22,11.78,11.78,0,0,1-2.89,1.78A43.59,43.59,0,0,1,593,392.4a.9.9,0,0,1-.72.45,39.19,39.19,0,0,1-5.91,3.6,31.68,31.68,0,0,1-5.26,3.12,50.81,50.81,0,0,1-7.34,4.38,6.34,6.34,0,0,1-2.33,1.35,87.61,87.61,0,0,1-9.87,5.76,1.76,1.76,0,0,1-1.09.64,30.72,30.72,0,0,1-5.53,3.11,116.17,116.17,0,0,1-12.57,6.78,98,98,0,0,1-13,6.33,26.52,26.52,0,0,1-6,2.27.23.23,0,0,1-.29.14l-.08-.05a1,1,0,0,1-.89.38,3.17,3.17,0,0,1-1.57.38,10.52,10.52,0,0,1-5.34-.28,5.76,5.76,0,0,1-2.19-.14.84.84,0,0,1-1-.16,2,2,0,0,1-1.26-.24,51.1,51.1,0,0,1-7.58-1.1l-2.2-.34a1.55,1.55,0,0,1-1.27-.25,2.48,2.48,0,0,1-1.54-.24.5.5,0,0,1-.65-.12,2,2,0,0,1-1.27-.18.5.5,0,0,1-.63-.11,1.12,1.12,0,0,1-1-.2.56.56,0,0,1-.64-.08,1.67,1.67,0,0,1-1.25-.2,6.21,6.21,0,0,1-2.82-.49,4.51,4.51,0,0,1-1.89-.32,1.71,1.71,0,0,1-1.28-.25l-.92-.13a.93.93,0,0,1-1-.23,1.84,1.84,0,0,1-1.26-.19.47.47,0,0,1-.63-.14,1.16,1.16,0,0,1-.94-.17,3.67,3.67,0,0,1-2.23-.41l-.62-.05a36.7,36.7,0,0,1-6.58-1.23l-.92-.11a.82.82,0,0,1-1-.23l-1.24-.18a4.62,4.62,0,0,1-2.23-.41l-.62-.11a53,53,0,0,1-7-1.26l-2.47-.48a.69.69,0,0,1-.86-.19l-.75-.12a2.67,2.67,0,0,1-1.89-.38l-.62-.08a1.4,1.4,0,0,1-1.26-.28l-.94-.14a.82.82,0,0,1-.93-.21l-.95-.17h-.66a1.41,1.41,0,0,1-1.26-.3L446,419a.89.89,0,0,1-1-.23l-.9-.14a.49.49,0,0,1-.68-.13l-1.89-.35a1.37,1.37,0,0,1-1.26-.29l-.89-.12a1,1,0,0,1-1.16-.27l-1.71-.35c-3.29-.28-3.29-.28-3.29-3.48v-42.7c0-.59-.26-1.25.28-1.78a16.91,16.91,0,0,1,4.94-1.24l.62-.09a8.08,8.08,0,0,1,3.48-.82l.61-.1a17,17,0,0,1,4.75-1.17l.6-.1a.51.51,0,0,1,.66-.2l.6-.13a.56.56,0,0,1,.67-.13L451,365a.49.49,0,0,1,.67-.16l.6-.11a.9.9,0,0,1,.92-.31l.61-.08a59.15,59.15,0,0,1,8.84-1.78l.61-.1a.47.47,0,0,1,.64-.17h0a6,6,0,0,1,2.77-.09,14.53,14.53,0,0,1,4.43.83l.93.11a.94.94,0,0,1,1,.28l.6.07a9.85,9.85,0,0,1,3.5.83l.6.08a.82.82,0,0,1,1,.26l.61.12a8,8,0,0,1,3.17.82l.62.1a5.6,5.6,0,0,1,2.47.64h.13a37,37,0,0,1,6.87,1.72l.61.12a7.65,7.65,0,0,1,3.17.82l.61.1a17.05,17.05,0,0,1,4.43,1.17l.61.09a9,9,0,0,1,3.17.83l.6.1a.93.93,0,0,1,1,.27l.61.1a6.88,6.88,0,0,1,2.87.79l.6.11a15.8,15.8,0,0,1,4.11,1.15l.6.1a18.3,18.3,0,0,1,4.35,1.29l.62.13a7.31,7.31,0,0,1,2.86.78l.6.11a.52.52,0,0,1,.65.23l.6.13a6.42,6.42,0,0,1,2.87.78l.6.11a7.73,7.73,0,0,1,2.86.83l.62.12a.54.54,0,0,1,.63.22l.63.12a.49.49,0,0,1,.63.19l.62.17a2.39,2.39,0,0,1,1.6.44,4.54,4.54,0,0,1,2.18.79,2.3,2.3,0,0,1,1.53.57l.68.32a.75.75,0,0,1,.82.44,1.87,1.87,0,0,1,1.46,1c1.94.58,3,2.15,4,3.73a7.08,7.08,0,0,1,.42,7,9,9,0,0,1-4.56,5.48,1.36,1.36,0,0,1-1.12.55l-.1.13h-.15a4.87,4.87,0,0,1-2.28.73.44.44,0,0,1-.6.19l0,0a5,5,0,0,1-2.47.14,2.76,2.76,0,0,1-1.56-.09,2.93,2.93,0,0,1-1.89-.22A7.32,7.32,0,0,1,530,400a1.35,1.35,0,0,1-1.28-.09,20.61,20.61,0,0,1-5.36-.61,5.89,5.89,0,0,1-2.17-.19,1.31,1.31,0,0,1-1.28-.16l-1.87-.18a8.15,8.15,0,0,1-3.18-.4l-1.25-.1a2.88,2.88,0,0,1-1.89-.27l-.94-.05a3.51,3.51,0,0,1-2.21-.28l-.92-.12a11.2,11.2,0,0,1-4.11-.47l-1.25-.1a2,2,0,0,1-1.58-.24,4.61,4.61,0,0,1-1.88-.18,12.2,12.2,0,0,1-3.8-.42l-.62-.06a2.91,2.91,0,0,1-1.9-.25l-.61-.05c-2.08,0-4.23-.66-6.21.56l-.75.77a2.19,2.19,0,0,1-.62,1.26l-.1.31v.3l.07,1a2.39,2.39,0,0,1,.6,1.26l1.09,1,.54.27,2.84.63.93.07a36,36,0,0,1,6.95.82l1.11.05a27.46,27.46,0,0,1,5.19.62l.62.09a2.47,2.47,0,0,1,1.58.2l.62,0a3.81,3.81,0,0,1,2.21.28l1.56.11a77.21,77.21,0,0,1,9.47,1.14l.93.08a64.7,64.7,0,0,1,8.22.86l1,.07h.91a2.61,2.61,0,0,1,1.9.22l1.25.08a27.47,27.47,0,0,0,11.36-1.64l2.79-1.4a.7.7,0,0,1,.67-.51,24.91,24.91,0,0,0,5.6-5.9l0-.07,1.49-3.72a.59.59,0,0,1,.26-.79l.06,0,.17-1.13a2.7,2.7,0,0,1,.12-1.54,4.72,4.72,0,0,1,0-2l-.15-1.23a3,3,0,0,1-.24-1.65l-1.17-3a10.46,10.46,0,0,1-1.76-2.65,37.82,37.82,0,0,0-4.45-4l-4.93-2.71-.69-.28-7.57-2.47a15.84,15.84,0,0,1-3.77-1c-.27.05-.58.05-.65-.24s.23-.5.56-.54a18.68,18.68,0,0,1,4-2.12,4.17,4.17,0,0,1,2.06-1.16,2.12,2.12,0,0,1,1.21-.65,1.22,1.22,0,0,1,1-.57,8.25,8.25,0,0,1,2.41-1.29,103.59,103.59,0,0,1,9.37-5.12,1,1,0,0,1,.83-.46l.4-.21a.88.88,0,0,1,.82-.38l1.18-.34a3.88,3.88,0,0,1,2-.32,1.26,1.26,0,0,1,1.52,0,5.5,5.5,0,0,1,2.85.57h.16c1,.33,2.46.65,2.65,1.58s-1.42,1-2.19,1.56a8.23,8.23,0,0,1-1.25.56l-1.55.75A16.22,16.22,0,0,1,554.9,364a.1.1,0,0,1-.09.1h0a1.07,1.07,0,0,1-.82.45l-1.84,1.32-.52.83-.33.67c.27,3.4,1.84,4.6,5.54,4.25l4-1.92a18.29,18.29,0,0,1,3.94-2.07,1,1,0,0,1,.83-.48,2.43,2.43,0,0,1,1.21-.65.72.72,0,0,1,.67-.34,49.51,49.51,0,0,1,6.26-3.25,6.76,6.76,0,0,1,2.38-1.27,16,16,0,0,1,4-2.09.11.11,0,0,1,.11-.11l.06,0a1.32,1.32,0,0,1,1.07-.59l.75-.4a3.77,3.77,0,0,1,2.11-1l.61-.15c2.66-1.3,7.64-.53,9.87,1.48.53.48.46.76-.09,1a30.8,30.8,0,0,1-4.07,2.12h0a1.3,1.3,0,0,1-1,.55,13.26,13.26,0,0,1-3.14,1.65,41.62,41.62,0,0,1-6.23,3.29l-.48.26a28.32,28.32,0,0,1-5.9,3c-2,1.08-3.78,2.47-6,3.22a.63.63,0,0,1-.7.38c-1.46,1-3.34,1.65-3.9,3.63.27,3.29,1.64,4.44,5.21,4.26l.63-.14a4.32,4.32,0,0,1,1.88-.93,6.78,6.78,0,0,1,2.22-1.14,1.94,1.94,0,0,1,1.18-.65,38.11,38.11,0,0,1,5.63-2.94q6.19-3.63,12.69-6.69l.1-.07a.92.92,0,0,1,.82-.45.14.14,0,0,1,.17-.11l0,0a1.26,1.26,0,0,1,1-.58,2.6,2.6,0,0,1,1.41-.73,38.5,38.5,0,0,1,6.66-3.44,13.81,13.81,0,0,0,1.64-.9,6.81,6.81,0,0,1,3.83-1.46,2,2,0,0,1,1.26-.09,1.24,1.24,0,0,1,1.26,0h.64a1,1,0,0,1,.92.07.51.51,0,0,1,.64.22l.62.12a5.09,5.09,0,0,1,2.83,1.45,2.44,2.44,0,0,1,1.33,1.14,4.46,4.46,0,0,1,1.78,2.63c.46.37.42.93.57,1.41a.91.91,0,0,1,.21,1.17A2.1,2.1,0,0,1,620.43,371.5Z" transform="translate(-8.21 -11.65)"/><g id="freepik--Instagram--inject-1--inject-36"><path class="cls-10" d="M214.45,349.11h0a22.31,22.31,0,0,1-22.31-22.31h0a22.31,22.31,0,0,1,22.31-22.3h0a22.31,22.31,0,0,1,22.3,22.3h0A22.32,22.32,0,0,1,214.45,349.11Z" transform="translate(-8.21 -11.65)"/><path class="cls-11" d="M203.86,344.05a20,20,0,0,1-5.17-4.56" transform="translate(-8.21 -11.65)"/><path class="cls-11" d="M225.29,343.94a16.16,16.16,0,0,1-1.56.9h0a20.28,20.28,0,0,1-18.54,0" transform="translate(-8.21 -11.65)"/><path class="cls-11" d="M219.09,307.08a20.14,20.14,0,0,1,13.45,10.49h0a20.17,20.17,0,0,1-3.16,23" transform="translate(-8.21 -11.65)"/><path class="cls-11" d="M211.58,306.75a19.8,19.8,0,0,1,4.07-.18" transform="translate(-8.21 -11.65)"/><path class="cls-11" d="M198.69,339.49a21.29,21.29,0,0,1-2.23-3.44h0a20.25,20.25,0,0,1,8.73-27.26h0a20.52,20.52,0,0,1,4.92-1.77" transform="translate(-8.21 -11.65)"/><path class="cls-5" d="M214.45,316.78c3.26,0,3.65,0,4.94.07a6.76,6.76,0,0,1,2.27.42,4.13,4.13,0,0,1,2.32,2.32,6.51,6.51,0,0,1,.41,2.27c.06,1.27.08,1.68.08,4.94s0,3.65-.08,4.94A6.51,6.51,0,0,1,224,334a4,4,0,0,1-2.32,2.32,6.77,6.77,0,0,1-2.27.43c-1.27.05-1.68.07-4.94.07s-3.65,0-4.95-.07a6.82,6.82,0,0,1-2.27-.43A3.77,3.77,0,0,1,205,334a6.51,6.51,0,0,1-.41-2.27c-.07-1.26-.08-1.68-.08-4.94s0-3.65.08-4.94a6.75,6.75,0,0,1,.41-2.27,4.08,4.08,0,0,1,2.32-2.32,6.81,6.81,0,0,1,2.27-.42c1.27-.06,1.68-.07,5-.07m0-2.2c-3.32,0-3.74,0-5.05.06a9.16,9.16,0,0,0-3,.58,6.22,6.22,0,0,0-3.57,3.57,8.6,8.6,0,0,0-.56,3c-.07,1.3-.08,1.72-.08,5s0,3.74.08,5.05a8.64,8.64,0,0,0,.56,3,6.27,6.27,0,0,0,3.57,3.57,9.16,9.16,0,0,0,3,.58c1.31,0,1.73.06,5.05.06s3.73,0,5-.06a9,9,0,0,0,3-.58,6.29,6.29,0,0,0,3.58-3.57,8.85,8.85,0,0,0,.57-3c.06-1.3.08-1.68.08-5.05s0-3.74-.08-5a8.85,8.85,0,0,0-.57-3,6,6,0,0,0-1.41-2.17,5.88,5.88,0,0,0-2.17-1.4,9,9,0,0,0-3-.58c-1.31-.05-1.73-.06-5-.06" transform="translate(-8.21 -11.65)"/><path class="cls-5" d="M214.45,320.52a6.31,6.31,0,1,0,6.32,6.29,6.31,6.31,0,0,0-6.32-6.29m0,10.4a4.09,4.09,0,1,1,4.07-4.1h0a4.09,4.09,0,0,1-4.07,4.09h0" transform="translate(-8.21 -11.65)"/><path class="cls-5" d="M222.48,320.27a1.48,1.48,0,1,1-1.48-1.46h0a1.46,1.46,0,0,1,1.47,1.46h0" transform="translate(-8.21 -11.65)"/></g><g id="freepik--background-simple--inject-1--inject-36"><path class="cls-5" d="M87.33,227.81S70.88,219,57,232.86s3.8,23.4,8.86,41.75S32.93,282.87,19,296.76s-1.31,33.52,8.21,36.37,28.47-4.74,31,9.8c0,0,4.43,6.33-7.57,24.67S39.25,405.55,61.39,410,88.58,384.68,105,389.1s12,39.26,43.65,34.17,15.68-28.79,25.23-39.39,22.2,3.37,36.12-7.42-8.22-34.16-6.32-50,17.08-17.08,18.34-30.35S213.82,284.74,193,267s-10.75-30.36-25.3-38.59-27.83,16.45-46.81,11.39A214.43,214.43,0,0,1,87.33,227.81Z" transform="translate(-8.21 -11.65)"/><path class="cls-12" d="M87.33,227.81S70.88,219,57,232.86s3.8,23.4,8.86,41.75S32.93,282.87,19,296.76s-1.31,33.52,8.21,36.37,28.47-4.74,31,9.8c0,0,4.43,6.33-7.57,24.67S39.25,405.55,61.39,410,88.58,384.68,105,389.1s12,39.26,43.65,34.17,15.68-28.79,25.23-39.39,22.2,3.37,36.12-7.42-8.22-34.16-6.32-50,17.08-17.08,18.34-30.35S213.82,284.74,193,267s-10.75-30.36-25.3-38.59-27.83,16.45-46.81,11.39A214.43,214.43,0,0,1,87.33,227.81Z" transform="translate(-8.21 -11.65)"/></g><g id="freepik--Paths--inject-1--inject-36"><path class="cls-13" d="M106.8,372.76c22-7.2,36.16-12.62,52.29-12.85,0,0,22.93,3,32.41,0,27.76-8.65,30.16-40.16,15.18-63.42-15.5-24.1-43.42-17.23-43.42-17.23-33.41,6.14-55.7-.63-67.35-6.26a24.13,24.13,0,0,0-27.84,4.62,16.44,16.44,0,0,0-3.72,5.66c-10.25,28.08,1.55,55.51,5.77,72.28C71.67,361.76,84.76,380,106.8,372.76Z" transform="translate(-8.21 -11.65)"/><path class="cls-14" d="M117,256.6c-.89,10.52-1.83,21.18-1.59,31.68.55,25.46,3.1,50.83,4.73,76.22,1,15.14,4,31.11.9,46.18-2.85,14.09-14.07,25.73-28.78,26.77-16.19,1.16-27.88-13.95-26.12-29.15,1.33-11.39,8.16-21.87,8.57-33.38.54-15.45-17.51-13.46-29.25-23.41C31.67,339.82,18,324.28,14,306.17c-1.16-5.21-1.45-10.75.48-15.75,8.73-22.6,45.81-28.28,60.22-9.07,14.85,19.8,9,48.59,33.29,51.3s48.15-7.65,71.54-13.5S229,327.7,225,358.29s-41.82,29.7-59.37,8.55-9.44-64.35-5.82-81.45c2-9.38,7.07-17.81,11.52-26.18,3.51-6.61,7.94-13.5,6.81-21.3-3.37-23-41.76-29.49-53.42-9.65C124.65,228.26,118.72,236.42,117,256.6Z" transform="translate(-8.21 -11.65)"/></g><g id="freepik--Facebook--inject-1--inject-36"><path class="cls-10" d="M122.06,349.11h0A22.31,22.31,0,0,1,99.75,326.8h0a22.31,22.31,0,0,1,22.31-22.3h0a22.31,22.31,0,0,1,22.3,22.3h0A22.31,22.31,0,0,1,122.06,349.11Z" transform="translate(-8.21 -11.65)"/><path class="cls-5" d="M118.51,340.28H124V326.69h3.8l.39-4.55h-4.2v-2.61c0-1.07.22-1.5,1.27-1.5h2.93v-4.72h-3.76c-4,0-5.88,1.78-5.88,5.18v3.63h-2.83v4.61h2.9Z" transform="translate(-8.21 -11.65)"/><path class="cls-11" d="M130.79,308.52a20.16,20.16,0,0,1,5.64,4" transform="translate(-8.21 -11.65)"/><path class="cls-11" d="M109.5,310.9c.46-.37,1-.71,1.45-1h0a20.17,20.17,0,0,1,18.45-1.93" transform="translate(-8.21 -11.65)"/><path class="cls-11" d="M119.59,346.91a20.23,20.23,0,0,1-14.47-9h0a20.25,20.25,0,0,1,.7-23.22" transform="translate(-8.21 -11.65)"/><path class="cls-11" d="M127.08,346.43a18.39,18.39,0,0,1-4,.63" transform="translate(-8.21 -11.65)"/><path class="cls-11" d="M136.43,312.52a21.11,21.11,0,0,1,2.58,3.15h0a20.24,20.24,0,0,1-5.82,28h0a20,20,0,0,1-4.7,2.28" transform="translate(-8.21 -11.65)"/></g><path class="cls-10" d="M122.06,430.59h0a22.3,22.3,0,0,1-22.31-22.3h0A22.31,22.31,0,0,1,122.06,386h0a22.31,22.31,0,0,1,22.3,22.31h0A22.3,22.3,0,0,1,122.06,430.59Z" transform="translate(-8.21 -11.65)"/><path class="cls-11" d="M111.55,391a19.87,19.87,0,0,1,6.42-2.52" transform="translate(-8.21 -11.65)"/><path class="cls-11" d="M101.88,410.08c0-.56-.08-1.16-.08-1.79h0a20.21,20.21,0,0,1,8.48-16.49" transform="translate(-8.21 -11.65)"/><path class="cls-11" d="M137.51,421.37a20.19,20.19,0,0,1-15.45,7.17h0a20.28,20.28,0,0,1-19-13.28" transform="translate(-8.21 -11.65)"/><path class="cls-11" d="M141.23,414.85a21.23,21.23,0,0,1-1.68,3.7" transform="translate(-8.21 -11.65)"/><path class="cls-11" d="M118,388.47a20.71,20.71,0,0,1,4.09-.41h0A20.24,20.24,0,0,1,142.3,408.3h0a20.26,20.26,0,0,1-.68,5.19" transform="translate(-8.21 -11.65)"/><g id="freepik--Twitter--inject-1--inject-36"><path class="cls-10" d="M31,349.11h0A22.31,22.31,0,0,1,8.71,326.82h0A22.29,22.29,0,0,1,31,304.52h0a22.29,22.29,0,0,1,22.3,22.3h0A22.29,22.29,0,0,1,31,349.12Z" transform="translate(-8.21 -11.65)"/><path class="cls-11" d="M20.51,309.48A19.73,19.73,0,0,1,26.92,307" transform="translate(-8.21 -11.65)"/><path class="cls-11" d="M10.83,328.6c-.05-.56-.08-1.16-.08-1.8h0a20.23,20.23,0,0,1,8.49-16.49" transform="translate(-8.21 -11.65)"/><path class="cls-11" d="M46.48,339.9A20.26,20.26,0,0,1,31,347.06h0a20.24,20.24,0,0,1-19-13.28" transform="translate(-8.21 -11.65)"/><path class="cls-11" d="M50.18,333.33A19.64,19.64,0,0,1,48.5,337" transform="translate(-8.21 -11.65)"/><path class="cls-11" d="M26.91,307a20,20,0,0,1,4.08-.4h0a20.22,20.22,0,0,1,20.3,20.16v.07h0a19.69,19.69,0,0,1-.67,5.18" transform="translate(-8.21 -11.65)"/><path class="cls-5" d="M19.13,334.26A13.86,13.86,0,0,0,40.46,322a10.21,10.21,0,0,0,2.43-2.52,10,10,0,0,1-2.8.76,4.93,4.93,0,0,0,2.15-2.7,9.91,9.91,0,0,1-3.1,1.19,4.87,4.87,0,0,0-8.31,4.42A13.81,13.81,0,0,1,20.74,318a4.89,4.89,0,0,0,1.51,6.51A4.9,4.9,0,0,1,20,323.9,4.88,4.88,0,0,0,24,328.75a5,5,0,0,1-2.2.08,4.89,4.89,0,0,0,4.55,3.37A9.75,9.75,0,0,1,19.13,334.26Z" transform="translate(-8.21 -11.65)"/></g><g id="freepik--Whatsapp--inject-1--inject-36"><path class="cls-10" d="M122.06,262.44h0a22.3,22.3,0,0,1-22.31-22.3h0a22.3,22.3,0,0,1,22.31-22.3h0a22.3,22.3,0,0,1,22.3,22.3h0a22.3,22.3,0,0,1-22.3,22.3Z" transform="translate(-8.21 -11.65)"/><path class="cls-15" d="M134.91,239.59a12,12,0,0,0-24-.21v.52a11.91,11.91,0,0,0,1.68,6.16l-2.14,6.42,6.65-2.12a12,12,0,0,0,17.81-10.44A.88.88,0,0,0,134.91,239.59Zm-12,10.33a10,10,0,0,1-5.55-1.68l-3.89,1.27,1.26-3.73a9.93,9.93,0,0,1-1.89-5.88,6.24,6.24,0,0,1,.05-1,10.09,10.09,0,0,1,20.12.19v.78a10.1,10.1,0,0,1-10.09,10Z" transform="translate(-8.21 -11.65)"/><path class="cls-15" d="M128.4,242.31c-.29-.15-1.74-.84-2-.95s-.47-.14-.63.14a10.07,10.07,0,0,1-.93,1.14.46.46,0,0,1-.63.08,7.75,7.75,0,0,1-2.36-1.45,8.6,8.6,0,0,1-1.64-2c-.17-.29,0-.45.13-.6s.29-.34.44-.51l.11-.14c.06-.1.11-.21.18-.35a.52.52,0,0,0,0-.51c-.07-.14-.63-1.59-.91-2.17s-.49-.49-.63-.49H119a1.1,1.1,0,0,0-.79.37,3.31,3.31,0,0,0-1,2.43,3.37,3.37,0,0,0,.15,1,6.54,6.54,0,0,0,1,2,12.17,12.17,0,0,0,5,4.42c3,1.19,3,.78,3.54.73a3,3,0,0,0,2-1.39,2.46,2.46,0,0,0,.17-1.39A3.44,3.44,0,0,0,128.4,242.31Z" transform="translate(-8.21 -11.65)"/><path class="cls-11" d="M111.55,222.81a19.87,19.87,0,0,1,6.42-2.52" transform="translate(-8.21 -11.65)"/><path class="cls-11" d="M101.88,241.93c0-.59-.08-1.19-.08-1.79h0a20.25,20.25,0,0,1,8.48-16.49" transform="translate(-8.21 -11.65)"/><path class="cls-11" d="M137.51,253.24a20.18,20.18,0,0,1-15.45,7.16h0a20.27,20.27,0,0,1-19-13.29" transform="translate(-8.21 -11.65)"/><path class="cls-11" d="M141.23,246.71a20.29,20.29,0,0,1-1.68,3.71" transform="translate(-8.21 -11.65)"/><path class="cls-11" d="M118,220.29a20,20,0,0,1,4.09-.41h0a20.25,20.25,0,0,1,20.24,20.24h0a20.18,20.18,0,0,1-.68,5.18" transform="translate(-8.21 -11.65)"/></g><g id="freepik--character-4--inject-1--inject-36"><circle class="cls-16" cx="160.2" cy="354.08" r="26.52"/><circle class="cls-5" cx="160.2" cy="354.08" r="26.52"/><path class="cls-10" d="M168.41,339.22s-13.41-1.46-15.55,5.18,6.88,5.46,5.46,8.53-7.36,7.09-5,11.63,6.65,9.48,1.9,7.83-5.93-2.14-5,3.07,5.93,6.65,14,5.93,7.35,3.09,11.85,3.57,9-2.15,9-8.78-5.45-5.22-.48-8.54,4-11.86,2.62-14.46-4.27-1.42-4.27-4.75S176.14,338.75,168.41,339.22Z" transform="translate(-8.21 -11.65)"/><path class="cls-11" d="M161,342.3s-5-.67-4.8,2.48,8.78,9.25,16.9,9.44,8.93-4,7.78-4.8" transform="translate(-8.21 -11.65)"/><path class="cls-11" d="M166.16,344.93s-4,.49-3.47,3.16,3,4,6.79,5.47" transform="translate(-8.21 -11.65)"/><path class="cls-11" d="M186,361.15s-.33,4.15-5.46,6.8-9.76,6.61-5.33,8.61,7,4.29,5.3,4.8" transform="translate(-8.21 -11.65)"/><path class="cls-11" d="M160.7,373.4s-2,4.65-5,3.8-4-3.16-2-3.16,2.15,1,2.15,1" transform="translate(-8.21 -11.65)"/><path class="cls-11" d="M176.52,354.43s4.06-.07,3.36,3.91-4.46,4.31-5.46,7.28" transform="translate(-8.21 -11.65)"/><path class="cls-17" d="M168.41,392.27a26.35,26.35,0,0,0,16.41-5.7c-1.87-1.37-5.18-3.79-7.11-5-2.79-1.87-6.51-7.66-11.47-6.62-4,.84-14.65,5.42-18.71,7.21A26.46,26.46,0,0,0,168.41,392.27Z" transform="translate(-8.21 -11.65)"/><path class="cls-17" d="M165.42,374s-7.35,2.13-8.3,8.3,6,1.68,6,1.68,3.68,5.4,7,3.74,3.8-7.36,1.9-11.15S165.42,374,165.42,374Z" transform="translate(-8.21 -11.65)"/><path class="cls-9" d="M165.23,369.49a19.46,19.46,0,0,1-.84,6c-.93,2.86-4,6.82-1.27,8.58s6.16-3.86,7-8.59,1.55-10.39,1.55-10.39Z" transform="translate(-8.21 -11.65)"/><path class="cls-5" d="M164.6,374.83a11.85,11.85,0,0,0,2.69.64c.84.09,1.15-.08,1.27-.29a18.22,18.22,0,0,1-1.84,6.82c-.4.73-.74,1.35-1,1.89,2-1.34,3.87-5.1,4.5-8.41.9-4.73,1.52-10.36,1.52-10.36l-6.52,4.42A19.59,19.59,0,0,1,164.6,374.83Z" transform="translate(-8.21 -11.65)"/><path class="cls-18" d="M165.23,369.49a19.46,19.46,0,0,1-.84,6c-.93,2.86-4,6.82-1.27,8.58s6.16-3.86,7-8.59,1.55-10.39,1.55-10.39Z" transform="translate(-8.21 -11.65)"/><path class="cls-9" d="M161.25,351.15s-2.31,9.5-2.31,13,3.26,7.86,7.38,8.22c5.26.42,7.2-6.65,8.33-10.68,1-3.5,1.68-6.52,1.83-7.26C168.51,357.48,161.25,351.15,161.25,351.15Z" transform="translate(-8.21 -11.65)"/><path class="cls-5" d="M176.52,354.43a12.36,12.36,0,0,1-2.47.67c-.37,2.41-1.51,8.33-4.14,12a11.68,11.68,0,0,1-6,4.63,7.06,7.06,0,0,0,2.42.68c5.26.42,7.2-6.65,8.33-10.68" transform="translate(-8.21 -11.65)"/><path class="cls-18" d="M161.25,351.15s-2.31,9.5-2.31,13,3.26,7.86,7.38,8.22c5.26.42,7.2-6.65,8.33-10.68,1-3.5,1.68-6.52,1.83-7.26C168.51,357.48,161.25,351.15,161.25,351.15Z" transform="translate(-8.21 -11.65)"/><path class="cls-19" d="M165.59,357.87a10.07,10.07,0,0,1-1.34,2.9c-.84,1-2.58.1-2.07.72a3.4,3.4,0,0,0,2.37,1.27" transform="translate(-8.21 -11.65)"/><path class="cls-19" d="M161.62,364.72a3.94,3.94,0,0,0,4.75,1.13" transform="translate(-8.21 -11.65)"/><path class="cls-20" d="M164.09,357.14c-.1.56-.43,1-.73.92s-.49-.55-.4-1.11.42-1,.73-.92S164.18,356.58,164.09,357.14Z" transform="translate(-8.21 -11.65)"/><path class="cls-20" d="M169.3,358.63c-.14.55-.49.94-.8.84s-.44-.58-.31-1.14.49-.94.8-.84S169.43,358.07,169.3,358.63Z" transform="translate(-8.21 -11.65)"/><path class="cls-19" d="M162,354.36s.84-2,3.3-.85" transform="translate(-8.21 -11.65)"/><path class="cls-19" d="M168.19,355.2a2.23,2.23,0,0,1,2.85,1.35,1.8,1.8,0,0,1,.05.19" transform="translate(-8.21 -11.65)"/></g><g id="freepik--character-3--inject-1--inject-36"><circle class="cls-16" cx="67.88" cy="354.08" r="26.52"/><circle class="cls-5" cx="67.88" cy="354.08" r="26.52"/><path class="cls-17" d="M59.49,386.39a26.51,26.51,0,0,0,35.94-2.52c-3-3.85-9.1-10.44-15.91-10.44C72,373.45,63,382.47,59.49,386.39Z" transform="translate(-8.21 -11.65)"/><path class="cls-17" d="M73.16,371.49s-4.5.52-4.89,4,2.32,9.25,2.58,9.89,6-5.13,8.22-5.13,7.83,3.08,7.83,3.08-1.79-7.2-5-9.9S74,370.47,73.16,371.49Z" transform="translate(-8.21 -11.65)"/><path class="cls-21" d="M67.27,358.75s-1.93-1.93-3-.39-.13,3.36,1.26,4.5,3.6,1.26,3.6.38S67.27,358.75,67.27,358.75Z" transform="translate(-8.21 -11.65)"/><path class="cls-18" d="M67.27,358.75s-1.93-1.93-3-.39-.13,3.36,1.26,4.5,3.6,1.26,3.6.38S67.27,358.75,67.27,358.75Z" transform="translate(-8.21 -11.65)"/><path class="cls-17" d="M83.82,354.27s.9-2.31,2.18.13S84.85,359,84.85,359Z" transform="translate(-8.21 -11.65)"/><path class="cls-9" d="M69.17,363.27s2.57,9.25,3.21,12.46,3.6,7.85,5.78,6.33,2.06-4.37.78-6.81A30.16,30.16,0,0,1,76.88,370Z" transform="translate(-8.21 -11.65)"/><path class="cls-5" d="M78.94,375.22A30.37,30.37,0,0,1,76.88,370l-7.71-6.69s2.11,7.57,3,11.39a11.55,11.55,0,0,0,3.74,1.92,4.78,4.78,0,0,0,3.5-.39A10.63,10.63,0,0,0,78.94,375.22Z" transform="translate(-8.21 -11.65)"/><path class="cls-18" d="M69.17,363.27s2.57,9.25,3.21,12.46,3.6,7.85,5.78,6.33,2.06-4.37.78-6.81A30.16,30.16,0,0,1,76.88,370Z" transform="translate(-8.21 -11.65)"/><path class="cls-10" d="M64.56,353.62s6.08,14.55,8.6,17.87,9.49,3.6,12.47-1.26-.38-11.43-.9-14.39-1.9-7.84-1-8.74,4.5-1.54,3.08-3.86-3.46-1.15-3.72-2.83,1-5.78-3.73-6.42-13.11,5-16.45,9.37S58.49,351.7,64.56,353.62Z" transform="translate(-8.21 -11.65)"/><path class="cls-11" d="M66.43,349.26s-4-.3-2-4.11,15.26-8.93,15.43-6.12-2.81,3.64-2.81,3.64" transform="translate(-8.21 -11.65)"/><path class="cls-11" d="M71.78,345.65s-3-.66-2-2.82,8.27-3.16,7-1.81a11.46,11.46,0,0,1-2.65,2" transform="translate(-8.21 -11.65)"/><path class="cls-11" d="M81.38,362.37s-2.19,3.46-5.66,1.8" transform="translate(-8.21 -11.65)"/><path class="cls-9" d="M84.72,355.81c-.48-2.77-1.75-7.22-1.17-8.52-.39-.93-1.69-3.1-5.64-3.3-5-.26-10.41,2.57-11.44,5.27s1.42,1.26,2.31,3.21-1.41,4.21-.89,5.65,3,7,3,7C71.23,363.54,77,361,77,361a8.58,8.58,0,0,0,2.52.26c1.17-.13.52-1.16.52-1.16l5.93.35C85.51,358.56,84.93,356.93,84.72,355.81Z" transform="translate(-8.21 -11.65)"/><path class="cls-5" d="M71,350.28a3,3,0,0,0-3-3.06,5.27,5.27,0,0,0-1.61,2c-1,2.7,1.42,1.26,2.31,3.21s-1.42,4.21-.89,5.65,3,7,3,7a4,4,0,0,1,1.68-1.69c-1.26-1.8-2.81-4-3.68-5.26C67.16,355.7,71.4,354.21,71,350.28Z" transform="translate(-8.21 -11.65)"/><path class="cls-18" d="M84.72,355.81c-.48-2.77-1.75-7.22-1.17-8.52-.39-.93-1.69-3.1-5.64-3.3-5-.26-10.41,2.57-11.44,5.27s1.42,1.26,2.31,3.21-1.41,4.21-.89,5.65,3,7,3,7C71.23,363.54,77,361,77,361a8.58,8.58,0,0,0,2.52.26c1.17-.13.52-1.16.52-1.16l5.93.35C85.51,358.56,84.93,356.93,84.72,355.81Z" transform="translate(-8.21 -11.65)"/><path class="cls-20" d="M73.83,355.2c.16.71,0,1.37-.33,1.44s-.74-.44-.9-1.17,0-1.36.32-1.43S73.67,354.46,73.83,355.2Z" transform="translate(-8.21 -11.65)"/><path class="cls-20" d="M81.49,353.62c.16.72,0,1.36-.33,1.43s-.75-.43-.92-1.16,0-1.36.33-1.44S81.32,352.89,81.49,353.62Z" transform="translate(-8.21 -11.65)"/><path class="cls-19" d="M70.84,351.83s.51-2.82,3.47-1.68" transform="translate(-8.21 -11.65)"/><path class="cls-19" d="M82.27,348.87c-2.19-1.42-3,.63-3,.63a5,5,0,0,0-.84,4.33" transform="translate(-8.21 -11.65)"/><line class="cls-22" x1="63.02" y1="347.76" x2="66.74" y2="346.23"/><line class="cls-22" x1="72.02" y1="345.06" x2="75.1" y2="344.81"/></g><g id="freepik--character-2--inject-1--inject-36"><circle class="cls-16" cx="160.2" cy="271.49" r="26.52"/><circle class="cls-5" cx="160.2" cy="271.49" r="26.52"/><ellipse class="cls-23" cx="172.9" cy="271.12" rx="18.6" ry="19.37" transform="translate(-149.63 327.3) rotate(-69.65)"/><path class="cls-11" d="M190.9,267.43a16.73,16.73,0,0,1-.16,9.56" transform="translate(-8.21 -11.65)"/><path class="cls-11" d="M189.59,279.51s-1.18,1.51-1.85,2.35" transform="translate(-8.21 -11.65)"/><path class="cls-11" d="M162.08,259.38a7.07,7.07,0,0,0-1,7.05" transform="translate(-8.21 -11.65)"/><path class="cls-17" d="M168.41,309.66a26.36,26.36,0,0,0,13.85-3.9c-3.09-2.85-11.15-9.95-14.94-10.27-4-.31-15.57,3.37-19.28,4.63A26.45,26.45,0,0,0,168.41,309.66Z" transform="translate(-8.21 -11.65)"/><path class="cls-17" d="M172.33,298.85c.11-.31.2-.63.3-.89a13.42,13.42,0,0,0-5.31-2.46,20.34,20.34,0,0,0-4.91.57c-.69,1.9-.84,3.8-1.45,7-.77,4.37.39,5.65,3.6,4S171,302.69,172.33,298.85Z" transform="translate(-8.21 -11.65)"/><path class="cls-9" d="M164.62,290.74s.77,1.42-.13,4.75-3.16,8.86-2.11,9.91,7.38-3.73,7.64-7.33.25-10.79.25-10.79Z" transform="translate(-8.21 -11.65)"/><path class="cls-5" d="M164.91,292.9l4.06,3.17-.31,5a6.34,6.34,0,0,0,1.36-3.06c.25-3.6.25-10.8.25-10.8l-5.65,3.47A4.39,4.39,0,0,1,164.91,292.9Z" transform="translate(-8.21 -11.65)"/><path class="cls-18" d="M164.62,290.74s.77,1.42-.13,4.75-3.16,8.86-2.11,9.91,7.38-3.73,7.64-7.33.25-10.79.25-10.79Z" transform="translate(-8.21 -11.65)"/><path class="cls-17" d="M158.18,274.93s-.9-2.31-2.06-.63.25,3.73.89,3.73S158.18,274.93,158.18,274.93Z" transform="translate(-8.21 -11.65)"/><path class="cls-9" d="M161.14,267.47s-3.72,7.33-4.62,12.35,2.82,12.61,6.55,12.61,9.49-5.77,9.49-5.77,5.4.12,6.17-1.69-.13-3.21-1.55-3.21h-2.82s-.78.39-.39-3.21a12,12,0,0,1,1.55-5.27S165.76,274,161.14,267.47Z" transform="translate(-8.21 -11.65)"/><path class="cls-5" d="M171,284.31a12.29,12.29,0,0,1-9.49,7.64h-.08a3.37,3.37,0,0,0,1.6.46c3.73,0,9.5-5.79,9.5-5.79s5.39.13,6.16-1.68-.13-3.22-1.55-3.22h-2.82s-.78.39-.39-3.21a12.24,12.24,0,0,1,1.55-5.27s-.63,0-1.68,0h-.05" transform="translate(-8.21 -11.65)"/><path class="cls-18" d="M161.14,267.47s-3.72,7.33-4.62,12.35,2.82,12.61,6.55,12.61,9.49-5.77,9.49-5.77,5.4.12,6.17-1.69-.13-3.21-1.55-3.21h-2.82s-.78.39-.39-3.21a12,12,0,0,1,1.55-5.27S165.76,274,161.14,267.47Z" transform="translate(-8.21 -11.65)"/><path class="cls-20" d="M161.83,275.67c-.16.68-.47,1.17-.7,1.12s-.31-.63-.15-1.31.47-1.17.7-1.12S162,275,161.83,275.67Z" transform="translate(-8.21 -11.65)"/><path class="cls-20" d="M167.87,278.37c-.15.67-.47,1.17-.7,1.12s-.3-.64-.15-1.31.47-1.18.7-1.12S168,277.7,167.87,278.37Z" transform="translate(-8.21 -11.65)"/><path class="cls-19" d="M162.82,277.37s-2.84,2.06-2.45,2.57a7.13,7.13,0,0,0,3.73,1.69c1.16,0,.9-1.41.9-1.41" transform="translate(-8.21 -11.65)"/><path class="cls-19" d="M160.76,283.29a7.84,7.84,0,0,0,4.63.9,4.19,4.19,0,0,0,3.21-2.06" transform="translate(-8.21 -11.65)"/><path class="cls-19" d="M161,272.62s.77-1.68,2.31.26" transform="translate(-8.21 -11.65)"/><path class="cls-19" d="M167.57,274.93s2.57-.77,2.57,1.8" transform="translate(-8.21 -11.65)"/></g><g id="freepik--character-1--inject-1--inject-36"><circle class="cls-24" cx="67.88" cy="271.49" r="26.52"/><circle class="cls-5" cx="67.88" cy="271.49" r="26.52"/><path class="cls-10" d="M57.84,296.59c-.46,1.81-2.53,1.56-1.89,3.8a26.5,26.5,0,0,0,35,4.71c1.9-2.25,3-4.6,3.09-6.5.16-5.8-6-10.09-6.29-12.91s2.32-9.1,2.32-9.1,4.63-.67,6.29-4.79-4.65-13.46-10.27-16.24-15.06-.33-19.69,6.45,1,12.74-2,15.88-10.76,3.3-11.58,9.6S58.33,294.65,57.84,296.59Z" transform="translate(-8.21 -11.65)"/><path class="cls-11" d="M86.14,261.85s1.69,4.1-4.85,6.52-11.56,1.13-13.24,5.42-.37,7.27-.19,9.49-5,1.85-8.21,4.65,3.16,6.16,4.84,8,1.3,4.66-1.68,5.59" transform="translate(-8.21 -11.65)"/><path class="cls-11" d="M66.37,270.45s2.43-6,6.16-6.9,7.84,1.85,10.63-.75,2.24-4.48.18-6" transform="translate(-8.21 -11.65)"/><path class="cls-11" d="M88.94,264.29s6.53,4.29,4.29,7.65-3-.74-3-.74" transform="translate(-8.21 -11.65)"/><path class="cls-17" d="M61.71,305.42a26.49,26.49,0,0,0,32.43-2.86,56.93,56.93,0,0,0-6.2-5c-4.13-2.82-7.44-3.8-9.75-3.65a23.44,23.44,0,0,0-5.3,4.14C70.64,300.24,65.19,303.44,61.71,305.42Z" transform="translate(-8.21 -11.65)"/><path class="cls-17" d="M84.3,298.49a10.94,10.94,0,0,0-.47-3.26A12,12,0,0,0,78.21,294a18.52,18.52,0,0,0-4.21,3.2,11.12,11.12,0,0,0-.09,1.41c0,4.35,2.33,7.86,5.2,7.86S84.3,302.84,84.3,298.49Z" transform="translate(-8.21 -11.65)"/><path class="cls-9" d="M76.86,285.5s0,4.64-.5,8.94.17,8.93,3.32,9.25,2.64-7.11,2.31-10.09A27.78,27.78,0,0,1,82,288Z" transform="translate(-8.21 -11.65)"/><path class="cls-5" d="M76.27,295.49l5.59-5.42v-.49l-1.13-2.16-3.88-1.9s0,4.64-.49,8.94C76.33,294.77,76.3,295.11,76.27,295.49Z" transform="translate(-8.21 -11.65)"/><path class="cls-18" d="M76.86,285.5s0,4.64-.5,8.94.17,8.93,3.32,9.25,2.64-7.11,2.31-10.09A27.78,27.78,0,0,1,82,288Z" transform="translate(-8.21 -11.65)"/><path class="cls-9" d="M88.11,264.82s.33,2.16-5.3,4.81-8.41,4.79-8.93,7.27-.66,3.48-.66,3.48-1.15-2.32-3.31-1.17-.16,5.64,1.83,5.8,2.47-.5,2.47-.5S80.67,291,84.47,291s5.29-3.63,6.12-10.09C91.39,274.62,88.11,264.82,88.11,264.82Z" transform="translate(-8.21 -11.65)"/><path class="cls-5" d="M75.68,278.09a12,12,0,0,1,2.16-5.78c-2.36,1.55-3.65,3-4,4.59-.49,2.52-.66,3.48-.66,3.48s-1.15-2.32-3.3-1.17-.17,5.64,1.82,5.8,2.47-.5,2.47-.5S80.66,291,84.46,291a16,16,0,0,1-3.16-2C79.05,287.27,75.51,282.21,75.68,278.09Z" transform="translate(-8.21 -11.65)"/><path class="cls-18" d="M88.11,264.82s.33,2.16-5.3,4.81-8.41,4.79-8.93,7.27-.66,3.48-.66,3.48-1.15-2.32-3.31-1.17-.16,5.64,1.83,5.8,2.47-.5,2.47-.5S80.67,291,84.47,291s5.29-3.63,6.12-10.09C91.39,274.62,88.11,264.82,88.11,264.82Z" transform="translate(-8.21 -11.65)"/><path class="cls-19" d="M87,274.87a3.92,3.92,0,0,0,.21,3.16c.84,1.62,1.3,2.16,1,2.6a1.34,1.34,0,0,1-1.85.43h0" transform="translate(-8.21 -11.65)"/><path class="cls-19" d="M86.31,285s-3.16,1.19-4.2-1.1" transform="translate(-8.21 -11.65)"/><path class="cls-20" d="M83.17,277.3c0,.69-.2,1.27-.43,1.27s-.44-.56-.44-1.27.2-1.26.44-1.26S83.17,276.61,83.17,277.3Z" transform="translate(-8.21 -11.65)"/><ellipse class="cls-20" cx="80.28" cy="264.25" rx="0.44" ry="1.24"/><path class="cls-19" d="M80,273.67s.63-1.73,3.25-1.4" transform="translate(-8.21 -11.65)"/><path class="cls-19" d="M87.08,271.94s.76-1.84,2.38-.33" transform="translate(-8.21 -11.65)"/></g><g id="freepik--Emails--inject-138"><path class="cls-6" d="M134.84,403.46v12.9a1.43,1.43,0,0,1-1.43,1.43h-22a1.43,1.43,0,0,1-1.43-1.43v-12.9a1.61,1.61,0,0,1,.1-.53,1.43,1.43,0,0,1,1.34-.9h22a1.42,1.42,0,0,1,1.33.9A1.37,1.37,0,0,1,134.84,403.46Z" transform="translate(-8.21 -11.65)"/><path class="cls-25" d="M134.74,402.93,123,412.69a.92.92,0,0,1-1.17,0L110,402.93a1.43,1.43,0,0,1,1.34-.9h22A1.45,1.45,0,0,1,134.74,402.93Z" transform="translate(-8.21 -11.65)"/><path class="cls-9" d="M126.09,395.32H114.38V406.8l7.29,6.06a.93.93,0,0,0,1.18,0l7.29-6.06v-8.91Z" transform="translate(-8.21 -11.65)"/><path class="cls-26" d="M122.42,413.14a1.09,1.09,0,0,1-.71-.26l-7.26-6.07a.24.24,0,0,1-.07-.16V395.19a.2.2,0,0,1,.2-.2h11.65a.2.2,0,0,1,.11,0l4,2.55a.21.21,0,0,1,.09.18v8.92a.24.24,0,0,1-.07.16l-7.27,6.05A1.12,1.12,0,0,1,122.42,413.14Zm-7.7-6.66,7.26,6a.74.74,0,0,0,.91,0l7.25-6v-8.72l-3.94-2.44H114.72Z" transform="translate(-8.21 -11.65)"/><polygon class="cls-27" points="122.07 386.14 118 383.58 119.32 386.97 122.07 386.14"/><path class="cls-26" d="M127.52,398.82a.21.21,0,0,1-.19-.13L126,395.3a.2.2,0,0,1,.13-.26.17.17,0,0,1,.17,0l4.07,2.56a.21.21,0,0,1,.1.2.2.2,0,0,1-.15.17l-2.75.82Zm-.9-3.09,1,2.64,2.15-.65Z" transform="translate(-8.21 -11.65)"/><path class="cls-26" d="M125.69,406.05h1a3.69,3.69,0,0,1-1.49,1.44,5.56,5.56,0,0,1-2.65.59,5.78,5.78,0,0,1-2.53-.5,3.08,3.08,0,0,1-1.5-1.48,4.36,4.36,0,0,1-.34-2.14,5.16,5.16,0,0,1,.78-2.36,4.39,4.39,0,0,1,1.76-1.63,5.27,5.27,0,0,1,2.43-.55,4.1,4.1,0,0,1,2,.44,2.75,2.75,0,0,1,1.26,1.26,3.37,3.37,0,0,1,.34,1.77,3.55,3.55,0,0,1-.86,2.08,3,3,0,0,1-2.37,1.18,1,1,0,0,1-.55-.13.6.6,0,0,1-.22-.39,1.9,1.9,0,0,1-1.27.52,1.55,1.55,0,0,1-1.2-.52,1.79,1.79,0,0,1-.39-1.39,3.53,3.53,0,0,1,.75-1.93,2.34,2.34,0,0,1,1.93-1.06,1.17,1.17,0,0,1,1.13.61l.15-.5H125l-.93,3.23a2.74,2.74,0,0,0-.09.39.2.2,0,0,0,0,.17.14.14,0,0,0,.12.06,1.11,1.11,0,0,0,.57-.26,2.78,2.78,0,0,0,.82-.92,2.92,2.92,0,0,0,.38-1.19,2.29,2.29,0,0,0-.66-1.86,3.12,3.12,0,0,0-2.22-.74,4.21,4.21,0,0,0-2.11.5,3.57,3.57,0,0,0-1.39,1.39,4.53,4.53,0,0,0-.57,1.88,3.05,3.05,0,0,0,.34,1.73,2.5,2.5,0,0,0,1.26,1.14,5,5,0,0,0,2,.35,5.39,5.39,0,0,0,1.87-.3A3.2,3.2,0,0,0,125.69,406.05ZM121,404.31a1.21,1.21,0,0,0,.16.81.65.65,0,0,0,.54.26.94.94,0,0,0,.47-.12,1.3,1.3,0,0,0,.34-.28,2.3,2.3,0,0,0,.45-.77,2.84,2.84,0,0,0,.25-.95,1.05,1.05,0,0,0-.17-.75.65.65,0,0,0-.56-.27,1.1,1.1,0,0,0-.71.29,2,2,0,0,0-.55.83A3.76,3.76,0,0,0,121,404.31Z" transform="translate(-8.21 -11.65)"/><rect class="cls-26" x="100.47" y="407.82" width="8.72" height="0.34"/><rect class="cls-26" x="105.17" y="410.17" width="6.04" height="0.34"/></g></svg>