<svg id="Layer_1" data-name="Layer 1" xmlns="http://www.w3.org/2000/svg" viewBox="0 0 645 461"><defs><style>.cls-1{fill:#263238;}.cls-2{fill:#ebebeb;}.cls-3{fill:#c7c7c7;}.cls-4{fill:#90caf9;}.cls-23,.cls-5{fill:#fff;}.cls-6{fill:#37474f;}.cls-7{fill:#dbdbdb;}.cls-8{fill:#3ea7ff;}.cls-15,.cls-18,.cls-9{fill:#455a64;}.cls-10{fill:#a6a6a6;}.cls-11{fill:#284e6c;}.cls-12{fill:#f7a9a0;}.cls-13{isolation:isolate;opacity:0.1;}.cls-14{fill:#ff9abb;}.cls-15{font-size:9.69px;}.cls-15,.cls-18,.cls-23{font-family:Opificio-Bold, Opificio;font-weight:700;}.cls-16{letter-spacing:0em;}.cls-17{letter-spacing:-0.01em;}.cls-18,.cls-23{font-size:6.46px;}.cls-19{letter-spacing:0em;}.cls-20{letter-spacing:0.01em;}.cls-21{letter-spacing:0em;}.cls-22{letter-spacing:0.03em;}.cls-24{letter-spacing:-0.01em;}.cls-25{letter-spacing:-0.02em;}.cls-26{letter-spacing:-0.01em;}.cls-27{letter-spacing:0.01em;}.cls-28{letter-spacing:0em;}.cls-29{letter-spacing:0em;}</style></defs><path class="cls-1" d="M489,437.12c10.4-.39,52.41-1,62.73-.58.09,0,.09.06,0,.06-10.31.62-52.33.87-62.73.69C488.73,437.28,488.73,437.13,489,437.12Z"/><path class="cls-1" d="M539.84,440.76c10.36-1.13,52.23-4.7,62.49-5,.09,0,.09,0,0,.06-10.23,1.34-52.12,4.57-62.49,5.13C539.64,440.94,539.63,440.78,539.84,440.76Z"/><path class="cls-2" d="M155.64,144.89H8v-97H155.64ZM9.11,143.81H154.56V49H9.11Z"/><path class="cls-2" d="M155.64,63H8V49H155.64ZM9.11,61.93H154.56V50.08H9.11Z"/><path class="cls-3" d="M19.76,55.64a3.23,3.23,0,1,1-3.23-3.23A3.23,3.23,0,0,1,19.76,55.64Z"/><path class="cls-2" d="M32.79,55.64a3.23,3.23,0,1,1-3.23-3.23A3.23,3.23,0,0,1,32.79,55.64Z"/><path class="cls-4" d="M45.78,55.64a3.23,3.23,0,1,1-3.23-3.23A3.23,3.23,0,0,1,45.78,55.64Z"/><path class="cls-2" d="M27.14,236.64a2.34,2.34,0,0,1,2.42,0c.2.13.41.25.62.36a6.36,6.36,0,0,0,.64.32,2.33,2.33,0,0,1,1.36,2l.08,3L42,242l-.09-3a2.29,2.29,0,0,1,1.22-2.09c.42-.24.83-.49,1.23-.77a2.3,2.3,0,0,1,2.41-.15l2.63,1.41L54,228.81l-2.62-1.4a2.3,2.3,0,0,1-1.2-2.15,14,14,0,0,0-.06-1.45,2.31,2.31,0,0,1,1.08-2.15l2.53-1.58-5.1-8.22L46,213.45a2.32,2.32,0,0,1-2.41,0l-.63-.36-.63-.32a2.3,2.3,0,0,1-1.36-2l-.09-3-9.69.3.09,3a2.33,2.33,0,0,1-1.21,2.09,14.17,14.17,0,0,0-1.24.76,2.3,2.3,0,0,1-2.42.16l-2.61-1.41-4.6,8.62,2.61,1.4a2.29,2.29,0,0,1,1.24,2.11c0,.49,0,1,0,1.46A2.29,2.29,0,0,1,22,228.4L19.48,230l5.13,8.26Zm2.42-15.36a8,8,0,1,1,3.24,10.78h0A8,8,0,0,1,29.56,221.28Z"/><path class="cls-2" d="M52.4,199.6a1.61,1.61,0,0,1,1.5-.84h1a1.57,1.57,0,0,1,1.49.84l1.06,1.92,5.85-3.61L62.22,196a1.81,1.81,0,0,1,0-1.8c.18-.31.35-.62.5-.94a1.61,1.61,0,0,1,1.43-.95h2.06v-6.47h-2a1.61,1.61,0,0,1-1.46-.93,8.68,8.68,0,0,0-.51-1,1.83,1.83,0,0,1,0-1.81l1.07-1.93-5.85-3.62-1.06,1.94a1.59,1.59,0,0,1-1.48.84h-1a1.6,1.6,0,0,1-1.5-.85l-1.07-1.93-5.84,3.62,1.07,1.93a1.86,1.86,0,0,1-.06,1.8,8.68,8.68,0,0,0-.51.95,1.63,1.63,0,0,1-1.47.94h-2v6.47h2.06a1.59,1.59,0,0,1,1.43.95,8.54,8.54,0,0,0,.51.94,1.85,1.85,0,0,1,.06,1.81l-1.07,1.91,5.84,3.62Zm-4-10.44A5.58,5.58,0,1,1,54,194.74h0a5.59,5.59,0,0,1-5.58-5.58Z"/><path class="cls-2" d="M638.63,46.84a5.31,5.31,0,0,1-2.77-5V38.33a5.34,5.34,0,0,1,2.74-4.66l6.4-3.56L633,10.7l-6.37,3.54a6,6,0,0,1-5.95,0,33.63,33.63,0,0,0-3.24-1.76,5.29,5.29,0,0,1-3-4.78V.78H593V7.52a5.27,5.27,0,0,1-3,4.77,31.35,31.35,0,0,0-3.22,1.77,6,6,0,0,1-6,0l-6.39-3.54-12,19.42,6.45,3.55a5.32,5.32,0,0,1,2.74,4.65v3.41a6,6,0,0,1-3.1,5.25l-6.09,3.37,12,19.41L580.79,66a6,6,0,0,1,6,0c1.06.65,2.2,1.25,3.34,1.81A5.27,5.27,0,0,1,593,72.58v6.75h21.42V73.11a5.28,5.28,0,0,1,3-4.77,34.23,34.23,0,0,0,3.26-1.77,6,6,0,0,1,6,0L633,70.12,645,50.7ZM602.83,57.9a18.62,18.62,0,1,1,.1,0Z"/><polygon class="cls-2" points="622.16 268.79 621.08 268.79 621.08 267.71 622.16 267.71 622.16 267.71 622.16 267.71 622.16 268.79"/><path class="cls-2" d="M618.93,268.79h-2.16v-1.08h2.16Zm-3.23,0h-2.16v-1.08h2.16Zm-3.24,0h-2.15v-1.08h2.15Zm-3.23,0h-2.15v-1.08h2.15Zm-3.23,0h-2.16v-1.08H606Zm-4.31,0h-2.16v-1.08h2.16Zm-3.23,0H596.3v-1.08h2.16Zm-3.24,0h-2.15v-1.08h2.15Zm-3.23,0h-2.15v-1.08H592Zm-3.23,0h-2.15v-1.08h2.15Zm-4.31,0H582.3v-1.08h2.15Zm-3.23,0h-2.16v-1.08h2.16Zm-3.23,0h-2.16v-1.08H578Zm-3.24,0H572.6v-1.08h2.15Zm-3.23,0h-2.15v-1.08h2.15Zm-4.31,0h-2.15v-1.08h2.15Zm-3.21,0h-2.18v-1.08H564Z"/><polygon class="cls-2" points="560.75 268.79 559.67 268.79 559.67 267.71 560.75 267.71 560.75 267.71 560.75 267.71 560.75 268.79"/><path class="cls-2" d="M560.75,266.64h-1.08v-2.16h1.08Zm0-4.31h-1.08v-2.16h1.08Zm0-3.24h-1.08v-2.15h1.08Zm0-3.23h-1.08v-2.15h1.08Zm0-3.23h-1.08v-2.15h1.08Zm0-3.23h-1.08v-2.16h1.08Zm0-4.31h-1.08v-2.16h1.08Zm0-3.23h-1.08V239.7h1.08Zm0-3.24h-1.08v-2.15h1.08Zm0-3.23h-1.08v-2.15h1.08Zm0-3.23h-1.08V230h1.08Zm0-4.31h-1.08V225.7h1.08Zm0-3.23h-1.08v-2.16h1.08Zm0-3.23h-1.08v-2.16h1.08Zm0-3.24h-1.08V216h1.08Zm0-3.23h-1.08v-2.15h1.08Zm0-4.31h-1.08v-2.15h1.08Z"/><polygon class="cls-2" points="560.75 207.38 559.67 207.38 559.67 206.3 560.75 206.3 560.75 206.3 560.75 206.3 560.75 207.38"/><path class="cls-2" d="M618.93,207.38h-2.16V206.3h2.16Zm-3.23,0h-2.16V206.3h2.16Zm-3.24,0h-2.15V206.3h2.15Zm-3.23,0h-2.15V206.3h2.15Zm-3.23,0h-2.16V206.3H606Zm-4.31,0h-2.16V206.3h2.16Zm-3.23,0H596.3V206.3h2.16Zm-3.24,0h-2.15V206.3h2.15Zm-3.23,0h-2.15V206.3H592Zm-3.23,0h-2.15V206.3h2.15Zm-4.31,0H582.3V206.3h2.15Zm-3.23,0h-2.16V206.3h2.16Zm-3.23,0h-2.16V206.3H578Zm-3.24,0H572.6V206.3h2.15Zm-3.23,0h-2.15V206.3h2.15Zm-4.31,0h-2.15V206.3h2.15Zm-3.21,0h-2.18V206.3H564Z"/><polygon class="cls-2" points="622.16 206.3 621.08 206.3 621.08 207.38 622.16 207.38 622.16 206.3 622.16 206.3 622.16 206.3"/><path class="cls-2" d="M622.16,266.64h-1.08v-2.16h1.08Zm0-4.31h-1.08v-2.16h1.08Zm0-3.24h-1.08v-2.15h1.08Zm0-3.23h-1.08v-2.15h1.08Zm0-3.23h-1.08v-2.15h1.08Zm0-3.23h-1.08v-2.16h1.08Zm0-4.31h-1.08v-2.16h1.08Zm0-3.23h-1.08V239.7h1.08Zm0-3.24h-1.08v-2.15h1.08Zm0-3.23h-1.08v-2.15h1.08Zm0-3.23h-1.08V230h1.08Zm0-4.31h-1.08V225.7h1.08Zm0-3.23h-1.08v-2.16h1.08Zm0-3.23h-1.08v-2.16h1.08Zm0-3.24h-1.08V216h1.08Zm0-3.23h-1.08v-2.15h1.08Zm0-4.31h-1.08v-2.15h1.08Z"/><rect class="cls-5" x="556.44" y="264.48" width="7.54" height="7.54"/><path class="cls-2" d="M564,273.1h-8.62v-8.62H564ZM556.44,272h6.46v-6.46h-6.46Z"/><rect class="cls-5" x="556.44" y="234.31" width="7.54" height="7.54"/><path class="cls-2" d="M564,241.86h-8.62v-8.62H564Zm-7.54-1.08h6.46v-6.47h-6.46Z"/><rect class="cls-5" x="556.44" y="203.07" width="7.54" height="7.54"/><path class="cls-2" d="M564,210.61h-8.62V202H564Zm-7.54-1.08h6.46v-6.46h-6.46Z"/><rect class="cls-5" x="617.85" y="264.48" width="7.54" height="7.54"/><path class="cls-2" d="M626.47,273.1h-8.62v-8.62h8.62ZM618.93,272h6.46v-6.46h-6.46Z"/><rect class="cls-5" x="617.85" y="234.31" width="7.54" height="7.54"/><path class="cls-2" d="M626.47,241.86h-8.62v-8.62h8.62Zm-7.54-1.08h6.46v-6.47h-6.46Z"/><rect class="cls-5" x="617.85" y="203.07" width="7.54" height="7.54"/><path class="cls-2" d="M626.47,210.61h-8.62V202h8.62Zm-7.54-1.08h6.46v-6.46h-6.46Z"/><rect class="cls-5" x="586.61" y="203.07" width="7.54" height="7.54"/><path class="cls-2" d="M595.22,210.61h-8.61V202h8.61Zm-7.54-1.08h6.47v-6.46h-6.47Z"/><rect class="cls-5" x="586.61" y="264.48" width="7.54" height="7.54"/><path class="cls-2" d="M595.22,273.1h-8.61v-8.62h8.61ZM587.68,272h6.47v-6.46h-6.47Z"/><g id="freepik--Shadow--inject-22"><ellipse class="cls-2" cx="329.08" cy="438.65" rx="302.26" ry="18.94"/></g><g id="freepik--Floor--inject-22"><polygon class="cls-1" points="0 389.88 80.63 389.88 161.25 390.54 322.5 389.88 483.75 389.88 564.38 390.54 645 389.88 564.38 390.54 483.75 389.88 322.5 390.54 161.25 389.88 80.63 390.54 0 389.88"/></g><rect class="cls-6" x="72.68" y="13.44" width="502.08" height="341.54"/><rect class="cls-2" x="72.68" y="304.35" width="502.08" height="50.64"/><rect class="cls-7" x="225.67" y="416.4" width="196.09" height="16.16"/><polygon class="cls-2" points="398.12 416.4 249.37 416.4 253.15 388.08 253.33 386.74 253.69 384.08 253.86 382.75 254.22 380.1 254.28 379.68 254.4 378.75 254.76 376.1 254.93 374.77 257.57 354.99 389.91 354.99 392.41 373.64 392.53 374.54 392.94 377.64 393.05 378.53 393.21 379.68 393.47 381.62 393.59 382.52 394 385.63 394.13 386.52 398.12 416.4"/><path class="cls-6" d="M331.92,326.25a8.33,8.33,0,1,1-8.33-8.33,8.33,8.33,0,0,1,8.33,8.33Z"/><polygon class="cls-7" points="393.46 379.77 254.03 379.77 254.15 378.84 254.51 376.18 254.69 374.84 257.34 354.99 390.14 354.99 392.65 373.71 392.77 374.61 393.19 377.72 393.3 378.61 393.46 379.77"/><rect class="cls-5" x="96.38" y="34.99" width="455.75" height="245.65"/><rect class="cls-5" x="96.38" y="34.99" width="455.75" height="245.65"/><rect class="cls-4" x="96.38" y="42.53" width="455.75" height="25.86"/><rect class="cls-2" x="529.5" y="50.08" width="11.85" height="2.15"/><rect class="cls-2" x="529.5" y="58.7" width="11.85" height="2.15"/><rect class="cls-2" x="529.5" y="54.39" width="11.85" height="2.15"/><path class="cls-2" d="M519.14,59.82a5.72,5.72,0,0,1-1.55.65,5.39,5.39,0,1,1,1.55-.65Z"/><path class="cls-5" d="M518,54.65A1.64,1.64,0,1,1,516.31,53,1.64,1.64,0,0,1,518,54.65Z"/><path class="cls-5" d="M518.73,59.12v.65a5,5,0,0,1-1.47.61,5.13,5.13,0,0,1-3.92-.61v-.65a2.7,2.7,0,0,1,5.39,0Z"/><polygon class="cls-5" points="508.2 55.46 504.27 55.46 506.24 57.83 508.2 55.46"/><rect class="cls-5" x="182.57" y="50.08" width="77.57" height="10.77"/><rect class="cls-4" x="249.37" y="50.08" width="10.77" height="10.77"/><path class="cls-5" d="M258,58.21,257,59l-1.8-2.38-.65-.87a1.36,1.36,0,0,0,.37-.21,1.55,1.55,0,0,0,.51-.65l.7.93Z"/><path class="cls-5" d="M256.11,52.62a2.65,2.65,0,1,0-.87,4,2.45,2.45,0,0,0,.38-.24,2.65,2.65,0,0,0,.55-.56A2.69,2.69,0,0,0,256.11,52.62ZM255,55.49a1.36,1.36,0,0,1-.37.21,1.58,1.58,0,1,1,.88-.86A1.55,1.55,0,0,1,255,55.49Z"/><rect class="cls-6" x="184.73" y="52.23" width="1.08" height="6.46"/><rect class="cls-8" x="115.77" y="50.08" width="10.77" height="10.77"/><polygon class="cls-5" points="123.08 58.9 119.25 55.38 123.07 51.72 123.66 52.33 120.5 55.37 123.66 58.27 123.08 58.9"/><rect class="cls-8" x="128.7" y="50.08" width="10.77" height="10.77"/><polygon class="cls-5" points="132.31 51.71 136.15 55.23 132.32 58.89 131.73 58.28 134.89 55.24 131.73 52.34 132.31 51.71"/><rect class="cls-3" x="95.3" y="68.39" width="87.27" height="212.25"/><path class="cls-5" d="M152.18,148.07a24.53,24.53,0,1,1,8-8A24.54,24.54,0,0,1,152.18,148.07Z"/><path class="cls-8" d="M147,124.34a7.47,7.47,0,0,1-7.57,7.47,7.57,7.57,0,0,1-7.36-7.36,7.46,7.46,0,0,1,7.46-7.57h0a7.45,7.45,0,0,1,7.46,7.45Z"/><path class="cls-8" d="M152.41,145v3.09a24.58,24.58,0,0,1-25.86,0V145a13,13,0,0,1,25.86,0Z"/><circle class="cls-9" cx="156.89" cy="146.07" r="5.68"/><rect class="cls-5" x="152.99" y="145.16" width="5.32" height="0.32" transform="translate(-57.17 152.63) rotate(-45)"/><rect class="cls-5" x="153.59" y="145.54" width="5.32" height="0.79" transform="translate(-57.42 153.23) rotate(-45)"/><rect class="cls-5" x="154.37" y="146.32" width="5.32" height="0.79" transform="translate(-57.75 153.97) rotate(-44.99)"/><rect class="cls-5" x="154.96" y="147.13" width="5.32" height="0.32" transform="translate(-57.98 154.6) rotate(-45)"/><polygon class="cls-5" points="155.58 149.56 153.92 149.62 153.32 149.02 153.38 147.36 155.58 149.56"/><polygon class="cls-5" points="153.77 149.65 153.28 149.68 153.29 149.18 153.77 149.65"/><path class="cls-5" d="M157.77,143l2.15,2.15s1.18-1.3.14-2.34S157.77,143,157.77,143Z"/><rect class="cls-10" x="114.7" y="182.6" width="49.56" height="8.62"/><rect class="cls-9" x="114.7" y="182.6" width="1.08" height="8.62"/><rect class="cls-9" x="114.7" y="221.39" width="49.56" height="8.62"/><rect class="cls-8" x="114.7" y="235.39" width="49.56" height="8.62"/><rect class="cls-1" x="96.38" y="34.99" width="455.75" height="7.54"/><path class="cls-3" d="M101.32,38.93a1.77,1.77,0,1,1-1.75-1.78h0A1.76,1.76,0,0,1,101.32,38.93Z"/><path class="cls-5" d="M108.56,38.91a1.78,1.78,0,1,1-1.77-1.78h0A1.77,1.77,0,0,1,108.56,38.91Z"/><path class="cls-4" d="M115.75,38.91A1.78,1.78,0,1,1,114,37.13h0A1.78,1.78,0,0,1,115.75,38.91Z"/><rect class="cls-7" x="544.59" y="42.53" width="7.54" height="238.11"/><path class="cls-10" d="M547.81,135.19h0a2.09,2.09,0,0,1-2.15-2h0V45.62a2.1,2.1,0,0,1,2.15-2h0a2.08,2.08,0,0,1,2.16,2v87.57a2,2,0,0,1-2,2Z"/><g id="freepik--Plant--inject-22"><path class="cls-8" d="M77.9,331.08c-1.22,5.25-2.54,10.42-2.79,15.81.14.27.12,1.25,0,1,0,.87-1.35.71-1.35-.14v-1.67c-3.1-3.84-7.55-6.26-11.21-9.6a21.05,21.05,0,0,1-6.14-9.78c-3-10.36-.18-21.34-3.8-31.68-3.12-8.92-8.72-16.67-13.45-24.78-5-8.55-8.68-17.52-9-27.52-.29-7.67.61-17.87,6.46-23.62,6.19-6.08,13.86-1.53,18.59,3.91,13.74,15.76,20.09,35.68,22.63,56,1.41,11.27,2.88,22.63,2.54,34A90.39,90.39,0,0,1,77.9,331.08Z"/><path class="cls-1" d="M75.32,351a194.55,194.55,0,0,0-.38-31.93.24.24,0,0,0,0-.12c.17-8.62.86-17.24.53-25.86a154.44,154.44,0,0,0-3.81-27.74.09.09,0,0,0-.08-.09.09.09,0,0,0-.09.09,180.33,180.33,0,0,1,3,27.13q.25,7.32-.12,14.63c-.09,1.58-.23,3.18-.34,4.78h0a170.71,170.71,0,0,0-25.67-68c-.18-.28-.68,0-.51.31a177.58,177.58,0,0,1,20.9,50.38c-6.6-12.23-16.58-22.29-24-34,0-.07-.15,0-.12.06C51.32,273.77,62.3,284.09,69.3,297c1.22,5.25,2.21,10.56,3,15.89A181.43,181.43,0,0,1,73.85,335c-4-7.54-8.2-14.71-11.5-22.63-.08-.21-.38-.07-.31.14,2.79,8.27,6.56,17.16,11.85,24.2,0,5.23-.13,10.46-.44,15.68-.82,13.94-3.23,27.7-4.31,41.59a.32.32,0,0,0,.33.31.32.32,0,0,0,.31-.24A318.72,318.72,0,0,0,75.32,351Z"/><path class="cls-1" d="M60.52,243.53a.09.09,0,0,0-.16.06c2.54,7,4,14.18,5.83,21.4a.27.27,0,0,0,.3.22.27.27,0,0,0,.22-.3C66,257.58,63.35,250.27,60.52,243.53Z"/><path class="cls-8" d="M125.17,273a106.67,106.67,0,0,1-5.85,12c-4.59,8.33-9.38,16-10.24,25.66-.39,4.31-.53,8.67-1.84,12.84a38.65,38.65,0,0,1-5.12,10.06c-5,7.24-11.18,13.48-15.78,21a88.16,88.16,0,0,0-10.45,25.33c-.11.49-.89.36-.77-.13v-.11a.19.19,0,0,1-.05-.1c-.72-20.79.93-41.74,7.27-61.65A216.23,216.23,0,0,1,92.41,292.3c3.4-7.21,7.63-14.16,13.6-19.55,3.87-3.49,12.26-10.1,17.77-6.59C126.41,267.79,126.21,270.44,125.17,273Z"/><path class="cls-1" d="M104.28,320.17A171.73,171.73,0,0,1,92.2,337.52c-2,2.63-4,5.24-6.07,7.87-.95,1.25-2,2.48-2.87,3.81.55-2.15,1.07-4.37,1.63-6.55,2.69-10.5,5.26-21.11,9.26-31.24,3.9-9.87,9.09-19.14,14.44-28.3.14-.23-.25-.42-.4-.18-4.39,7.23-8.85,14.44-12.54,22.06a118.53,118.53,0,0,0-5.33,13.07,204.56,204.56,0,0,1,7.11-27.91c0-.08-.08-.14-.12,0A95.33,95.33,0,0,0,90,319.19h0c-.91,2.69-1.73,5.38-2.5,8.16q-4.84,17.44-8.82,35.18a126.24,126.24,0,0,1,2-23.12c0-.17-.24-.22-.28,0a73.53,73.53,0,0,0-2,24.37c-1,4.48-2,9-2.94,13.46-2,9.59-4.56,19.34-5.75,29.09a.19.19,0,0,0,.16.22.2.2,0,0,0,.23-.16c1.42-5.25,2.28-10.68,3.44-16s2.39-10.64,3.62-15.95c1.8-7.74,3.7-15.45,5.63-23.16,1.28-2.82,3.77-5.33,5.63-7.7,2-2.6,4.1-5.21,6.09-7.84a116.13,116.13,0,0,0,10-15.48A.1.1,0,1,0,104.28,320.17Z"/><path class="cls-1" d="M105.17,311.27a107.31,107.31,0,0,0-11.85,18.79c0,.08.1.17.15.08,4-6.22,7.89-12.52,11.85-18.76C105.42,311.28,105.25,311.17,105.17,311.27Z"/><path class="cls-8" d="M16.63,292.75c2.69,4.64,5.77,10.21,4.62,15.78-.74,3.52-3.32,6.39-3.78,10-1.08,7.94,6.86,13.18,12.59,16.93,14.27,9.37,33.85,17.72,36.44,36.84.1.68,1.27.51,1.19-.15V372a.18.18,0,0,0,.06-.12,72.93,72.93,0,0,0-.27-29.21C65.33,332.83,61,324,56,315.31c-8.62-14.66-17.68-29.66-30.68-40.89-3.6-3.1-11-8.69-13.82-1.67C8.72,279.56,13.4,287.09,16.63,292.75Z"/><path class="cls-1" d="M29.74,323.82c9.46,10.24,24.51,16,32.66,27.46-4.83-17.59-12.82-33.4-25.11-47.15a.37.37,0,0,1,.53-.51,93,93,0,0,1,20.47,29.7,131.72,131.72,0,0,0-8.82-22.62.24.24,0,0,1,.42-.24h0a86.14,86.14,0,0,1,9.51,25.38c10.78,26,11.73,56.46,9.48,83.85a.31.31,0,0,1-.61,0c.61-21.55.26-43.54-4.91-64.65l-.34-1.3c-8.83-12.31-23.77-18-33.46-29.76C29.48,323.92,29.63,323.7,29.74,323.82Z"/><path class="cls-1" d="M27.54,315c5,4.55,9.86,9.22,14.84,13.77a.06.06,0,0,1,0,.08,0,0,0,0,1-.06,0,72.85,72.85,0,0,1-15.08-13.56C27.08,315.1,27.4,314.83,27.54,315Z"/><path class="cls-1" d="M26.77,295.27a155.15,155.15,0,0,0,14.85,20.47c.08.08,0,.2-.11.12a71.59,71.59,0,0,1-15-20.41.17.17,0,0,1,0-.23A.17.17,0,0,1,26.77,295.27Z"/><polygon class="cls-9" points="49.27 439.02 92.5 439.02 86.68 380.84 55.93 380.84 49.27 439.02"/><polygon class="cls-1" points="54.44 390.54 88.04 390.54 87.06 380.84 55.55 380.84 54.44 390.54"/><rect class="cls-9" x="50.05" y="373.3" width="40.94" height="9.7"/></g><path class="cls-4" d="M569.1,198.76S557.66,303.2,556.17,311.18c-.35,1.81-.11,102-.11,102H516s-1.9-86.52,0-102.44,15.35-112,15.35-112Z"/><path class="cls-4" d="M489.51,439.22c2.09.69,62.14-.09,64.4-1.58.88-.54,1.27-9.3,1.45-19.9v-.65l1.08-6.91v-1c-.25-15.72-.5-31.6-.5-31.6H515.5l1.07,31.72v8.81s-22.85,10.58-25.14,12.47S487.39,438.55,489.51,439.22Z"/><path class="cls-2" d="M487.68,439.51c2.15.7,63.87-.09,66.19-1.62.91-.56,1.31-9.56,1.49-20.46v-.34l1.08-6.91v-1.32H515.5v9S492,428.72,489.66,430.66,485.5,438.82,487.68,439.51Z"/><path class="cls-4" d="M488.7,439.92c1.35.43,25.27.29,44-.24,11.7-.32,21.37-.8,22.26-1.39s1.29-9.31,1.48-20v-.8l-39.87.07v.69s-23.51,10.87-25.85,12.82S486.55,439.23,488.7,439.92Z"/><path class="cls-1" d="M511.74,417.33c4.09-.82,9.11-.25,12.28,2.63.13.1,0,.28-.18.24a58.46,58.46,0,0,0-12.07-2.36.26.26,0,0,1,0-.51Z"/><path class="cls-1" d="M508.81,419.15c4.09-.82,9.11-.25,12.28,2.63.11.1,0,.28-.18.24a57.78,57.78,0,0,0-12.07-2.35.26.26,0,0,1-.27-.25A.25.25,0,0,1,508.81,419.15Z"/><path class="cls-1" d="M505.87,421c4.1-.82,9.12-.25,12.28,2.63.12.11,0,.28-.17.25a57.13,57.13,0,0,0-12.08-2.36.26.26,0,0,1,0-.52Z"/><path class="cls-1" d="M508.21,414.28c2.93,2.21,6.71,3.08,10.12,4.31.34.13.62-.21.63-.52a.12.12,0,0,0,.1-.12v0a21.86,21.86,0,0,0-6.47-9.3c-1.72-1.41-4.73-2.37-6.31-.14S506.51,413,508.21,414.28ZM507.13,411c-.77-4.48,4.09-2.15,5.31-1.08a24.17,24.17,0,0,1,2.21,2.32,61.32,61.32,0,0,1,3.87,5.39c-1.63-.7-3.31-1.25-5-1.89-2-.81-6-2.26-6.43-4.74Z"/><path class="cls-1" d="M532.65,411.48c-1.08-2.54-4.17-2.3-6.18-1.32a22,22,0,0,0-8.4,7.54.11.11,0,0,0,0,.15l0,0a.52.52,0,0,0,.36.63.39.39,0,0,0,.15,0c3.59-.4,7.47-.37,10.83-1.85C531.42,415.83,533.62,413.89,532.65,411.48Zm-8.53,5.38c-1.76.24-3.53.39-5.27.69,1.59-1.52,3.26-2.95,5-4.31a22.77,22.77,0,0,1,2.68-1.74c1.44-.79,6.7-1.9,4.91,2.28-1,2.28-5.22,2.79-7.32,3.06Z"/><path class="cls-1" d="M532.28,439.28c11.7-.32,21.36-.79,22.26-1.38s1.29-9.31,1.48-20C551.22,422.16,539.3,432.8,532.28,439.28Z"/><path class="cls-4" d="M564.74,410.71l40.16-2s-10.08-90.61-10.78-96.43c-1.07-8.47-10.21-80.36-10.21-80.36,5.81-14.4-8-33.11-8-33.11H531.35s3.35,22.68,9.09,37.06a66.71,66.71,0,0,1,11.11,5.08s3.66,65.88,3.84,74C555.76,330.9,564.74,410.71,564.74,410.71Z"/><path class="cls-4" d="M539.35,443.21c2.21.54,63.76-4.64,66-6.32.85-.63.61-9.64-.41-20.52V416c.29-2.24.15-4.54,1.08-6.88v-1c-2.17-15.69-4.69-31.95-4.69-31.95l-40,3.34,3.5,31.57.12,1.25.73,6.54.06.67s-22.62,12.52-24.91,14.63S537.14,442.67,539.35,443.21Z"/><path class="cls-2" d="M539.35,443.21c2.21.54,63.76-4.64,66-6.32.85-.63.61-9.64-.41-20.52V416c.29-2.24.15-4.54,1.08-6.88v-1l-41.26,3,.13,1.25.72,6.54.07.66S543,432.16,540.75,434.27,537.14,442.67,539.35,443.21Z"/><path class="cls-4" d="M538.94,443.21c2.21.54,63.76-4.64,66-6.32.85-.63.62-9.64,0-20.52V416l-39.74,2.9.06.67s-22.63,12.52-24.91,14.63S536.73,442.67,538.94,443.21Z"/><path class="cls-1" d="M561.18,419.41c4-1.08,9.06-.9,12.43,1.74.13.11,0,.29-.15.26a57.85,57.85,0,0,0-12.22-1.49.26.26,0,0,1-.29-.22A.25.25,0,0,1,561.18,419.41Z"/><path class="cls-1" d="M558.37,421.43c4-1.08,9.08-.9,12.44,1.75.13.11,0,.29-.15.26A56.56,56.56,0,0,0,558.44,422a.27.27,0,0,1-.26-.28A.26.26,0,0,1,558.37,421.43Z"/><path class="cls-1" d="M555.58,423.46c4-1.08,9.07-.91,12.43,1.74.14.1,0,.28-.15.26a57.86,57.86,0,0,0-12.22-1.5.26.26,0,0,1-.24-.27A.26.26,0,0,1,555.58,423.46Z"/><path class="cls-1" d="M557.49,416.57c3.08,2,6.92,2.61,10.39,3.58.36.1.61-.26.6-.57a.12.12,0,0,0,.1-.12,0,0,0,0,1,0,0,22,22,0,0,0-7.08-8.83c-1.82-1.29-4.89-2-6.32.32S555.64,415.5,557.49,416.57Zm-1.31-3.23c-1.08-4.42,3.91-2.47,5.21-1.46a22.88,22.88,0,0,1,2.36,2.15q2.25,2.43,4.25,5.06c-1.67-.58-3.39-1-5.09-1.51-2.08-.55-6.18-1.73-6.79-4.17Z"/><path class="cls-1" d="M581.61,412.09c-1.19-2.47-4.31-2-6.26-.88a21.82,21.82,0,0,0-7.84,8.15c0,.08,0,.13.08.17,0,.3.17.67.54.61,3.55-.65,7.42-.91,10.66-2.62C580.69,416.57,582.76,414.42,581.61,412.09Zm-8.3,6c-1.74.36-3.48.62-5.21,1.08q2.22-2.44,4.68-4.67a25.09,25.09,0,0,1,2.55-1.93c1.39-.88,6.55-2.37,5.07,1.93C579.58,416.82,575.38,417.65,573.31,418.06Z"/><path class="cls-11" d="M596,325.09s-30.5,5.93-48.65,3.23c-20.78-3.1-32.72-9.79-32.72-9.79-1.87-8.73,16.77-119.77,16.77-119.77h45.53s12.71,16.16,8,33.59c0,0,8.69,68.21,9.4,74S596,325.09,596,325.09Z"/><path class="cls-5" d="M536.56,232.09a.65.65,0,1,0,.64.64.65.65,0,0,0-.64-.64Zm.64-14.45a.65.65,0,1,1-.64-.65.65.65,0,0,1,.64.65Zm0-15.08a.65.65,0,1,1-.64-.65h0a.65.65,0,0,1,.64.65ZM537,247.81a.65.65,0,1,1-.64-.65h0a.65.65,0,0,1,.64.65h0Zm-5.38-7.55a.65.65,0,1,1-.65-.64.65.65,0,0,1,.65.64v0Zm0,15.09a.65.65,0,0,1-1.3,0,.65.65,0,1,1,1.3,0h0Zm0,15.08a.65.65,0,1,1-.65-.64.65.65,0,0,1,.65.64h0ZM537,293.06a.65.65,0,0,1-1.29,0,.65.65,0,0,1,.65-.65h0a.65.65,0,0,1,.64.65h0Zm-5.38-67.88a.65.65,0,0,1-.65.65.65.65,0,0,1,0-1.3.65.65,0,0,1,.65.65h0ZM537,323.23a.65.65,0,1,1-.64-.65h0a.65.65,0,0,1,.64.65v0Zm.16-15.09a.65.65,0,1,1-.64-.64A.64.64,0,0,1,537.2,308.14ZM537,262.89a.65.65,0,1,1-.64-.65h0a.65.65,0,0,1,.64.65h0Zm-5.38,22.63c.48.35.19.64-.17.64s-.64-.27-.91-.62v0c.27-.36.56-.65.91-.65s.65.29.17.65h0Zm0,15.16a.65.65,0,0,1-1.3,0A.64.64,0,0,1,531,300h0a.65.65,0,0,1,.65.64v0Zm0-90.5a.65.65,0,1,1-.67-.65h0a.65.65,0,0,1,.65.65h0ZM537,278a.65.65,0,1,1-.64-.64h0a.64.64,0,0,1,.64.64v0Zm-5.38,37.71A.65.65,0,1,1,531,315a.65.65,0,0,1,.65.64v0Zm-14.72-7.54a.65.65,0,1,1-1.3,0,.65.65,0,0,1,1.3,0Zm5-22.76a.64.64,0,0,1-.62.65h0a.65.65,0,1,1,.65-.65h0Zm5.39-37.57a.65.65,0,1,1-.65-.65h0a.65.65,0,0,1,.65.65h0ZM522,315.68a.65.65,0,1,1-.65-.64.65.65,0,0,1,.65.64v0ZM527.35,278a.65.65,0,1,1-.65-.64h0a.65.65,0,0,1,.65.64v0Zm-10.46,14.87a.41.41,0,0,1,0,.22.62.62,0,0,1-.1.35Zm5.07,7.77a.65.65,0,1,1-.65-.65.65.65,0,0,1,.65.65v0Zm5.11-7.54a.65.65,0,1,1-.65-.65h0a.65.65,0,0,1,.65.65Zm.28-60.34a.65.65,0,0,1-.65.65.64.64,0,0,1-.57-.36,5.08,5.08,0,0,1,.12-.75.63.63,0,0,1,.45-.18.64.64,0,0,1,.65.62v0Zm0,75.42a.65.65,0,1,1-.65-.64.64.64,0,0,1,.65.62v0Zm-.28,15.59a.66.66,0,0,1-.62.65l-.44-.15a.65.65,0,0,1,.86-1,.69.69,0,0,1,.22.47ZM522,270.44a.65.65,0,1,1-.65-.64.65.65,0,0,1,.65.64Zm5.07-7.54a.65.65,0,1,1-.65-.65h0a.65.65,0,0,1,.65.65Zm15.36,52.79a.65.65,0,1,1-.65-.64h0a.65.65,0,0,1,.65.64v0Zm4.9-22.62a.65.65,0,1,1-.65-.65h0a.65.65,0,0,1,.65.65Zm-5.06-7.54a.65.65,0,1,1-.65-.65A.65.65,0,0,1,542.27,285.53Zm0-60.34a.65.65,0,0,1-1.3,0,.64.64,0,0,1,.65-.64h0a.64.64,0,0,1,.65.64Zm0,15.09a.65.65,0,1,1-.65-.65h0a.65.65,0,0,1,.65.65Zm0,15.08a.65.65,0,1,1-.65-.65h0a.65.65,0,0,1,.65.65Zm0,15.08a.65.65,0,1,1-.65-.64h0a.65.65,0,0,1,.65.64Zm5.06,37.71a.65.65,0,1,1-.65-.64A.65.65,0,0,1,547.33,308.15Zm.49,15.09a.65.65,0,0,1-.65.64.64.64,0,0,1-.64-.64.65.65,0,0,1,.64-.65h0a.65.65,0,0,1,.65.65h0Zm-5.55-113.13a.65.65,0,1,1-.65-.65.65.65,0,0,1,.65.65Zm0,90.5a.65.65,0,1,1-.65-.65.65.65,0,0,1,.65.65Zm5.06-67.88a.65.65,0,1,1-.65-.64A.65.65,0,0,1,547.33,232.73Zm0-15.08a.65.65,0,1,1-.65-.65A.65.65,0,0,1,547.33,217.65Zm0,60.33a.65.65,0,1,1-.65-.64h0a.65.65,0,0,1,.65.65h0Zm0-15.08a.65.65,0,1,1-.65-.65h0a.65.65,0,0,1,.65.65Zm0-15.08a.65.65,0,1,1-.65-.65h0a.65.65,0,0,1,.65.65Zm5.07,52.79a.65.65,0,1,1-.65-.65.65.65,0,0,1,.65.65Zm-4.58-98a.65.65,0,1,1-.65-.65h0a.65.65,0,0,1,.65.64Zm4.31,113.12a.65.65,0,0,1-.65.65.65.65,0,0,1,0-1.29h0a.65.65,0,0,1,.65.64v0Zm.27-105.58a.65.65,0,1,1-.65-.65.65.65,0,0,1,.65.65Zm0,75.42a.65.65,0,1,1-.65-.65A.65.65,0,0,1,552.4,285.53Zm5.06,22.62a.65.65,0,1,1-.65-.64A.65.65,0,0,1,557.46,308.15Zm-5.06-37.71a.65.65,0,1,1-.65-.64h0a.65.65,0,0,1,.65.64Zm5.06,52.8a.65.65,0,1,1-.65-.65h0a.65.65,0,0,1,.68.61v.05Zm-5.06-98.05a.65.65,0,0,1-1.3,0,.64.64,0,0,1,.65-.64h0a.64.64,0,0,1,.65.64Zm0,30.17a.65.65,0,1,1-.65-.65h0a.65.65,0,0,1,.65.65Zm5.06,38.21a.65.65,0,1,1-.65-.64h0a.64.64,0,0,1,.68.61v0Zm0-30.17a.65.65,0,1,1-.65-.64h0a.64.64,0,0,1,.68.61v0Zm0,15.09a.65.65,0,1,1-.65-.65h0a.65.65,0,0,1,.68.62v0Zm-5.06-38.21a.65.65,0,1,1-.65-.65h0a.65.65,0,0,1,.65.65Zm5.06,8a.65.65,0,1,1-.65-.65h0a.66.66,0,0,1,.68.62v0Zm5.06,52.29a.65.65,0,1,1-.64-.65.65.65,0,0,1,.64.65Zm-5.06-67.88a.65.65,0,1,1-.65-.64A.65.65,0,0,1,557.46,232.73Zm0-30.16a.65.65,0,1,1-.65-.65h0a.65.65,0,0,1,.68.61v0Zm0,15.08a.65.65,0,1,1-.65-.65A.65.65,0,0,1,557.46,217.65Zm5.44,98a.65.65,0,1,1-.64-.64h0a.64.64,0,0,1,.64.64v0Zm-.38-30.16a.65.65,0,1,1-.64-.65A.64.64,0,0,1,562.52,285.53Zm0-15.09a.65.65,0,1,1-.64-.64h0a.64.64,0,0,1,.64.64Zm0-30.16a.65.65,0,1,1-.64-.65h0a.65.65,0,0,1,.64.65Zm0,15.08a.65.65,0,1,1-.64-.65h0a.65.65,0,0,1,.64.65Zm0-45.25a.65.65,0,1,1-.64-.65.64.64,0,0,1,.64.65Zm0,15.08a.65.65,0,1,1-.64-.64h0a.64.64,0,0,1,.64.64Zm4.69,98.05a.65.65,0,1,1-.64-.65h0a.65.65,0,0,1,.64.65h0Zm.38-30.17a.65.65,0,1,1-.65-.65h0a.65.65,0,0,1,.65.65Zm0,15.08a.65.65,0,1,1-.65-.64A.65.65,0,0,1,567.59,308.15Zm0-60.33a.65.65,0,1,1-.65-.65h0a.65.65,0,0,1,.65.65Zm0-15.09a.65.65,0,1,1-.65-.64A.65.65,0,0,1,567.59,232.73Zm0,30.17a.65.65,0,1,1-.65-.65h0a.65.65,0,0,1,.65.65Zm0,15.08a.65.65,0,1,1-.65-.64h0a.65.65,0,0,1,.65.65Zm0-60.33a.65.65,0,1,1-.65-.65A.65.65,0,0,1,567.59,217.65Zm-.38-15.08a.65.65,0,1,1-.64-.65h0a.64.64,0,0,1,.64.64Zm5.44,52.79a.65.65,0,1,1-.65-.65.65.65,0,0,1,.65.65Zm0,45.25A.65.65,0,1,1,572,300a.65.65,0,0,1,.65.65v0Zm5.13-7.54a.65.65,0,1,1-.65-.65.65.65,0,0,1,.65.65Zm-5.13-83a.65.65,0,1,1-.65-.65.65.65,0,0,1,.65.65v0Zm0,75.27a.64.64,0,0,1-.62.65h0a.65.65,0,1,1,.65-.65Zm0-14.94a.65.65,0,1,1-.65-.64.65.65,0,0,1,.65.64Zm0,45.25a.65.65,0,1,1-.65-.64.65.65,0,0,1,.65.64v0Zm0-90.5a.65.65,0,1,1-1.29,0,.65.65,0,0,1,1.29,0Zm5.34,83a.65.65,0,0,1-1.3,0,.64.64,0,0,1,.63-.65h0a.65.65,0,0,1,.65.65h0Zm0,15a.65.65,0,1,1-.65-.65.65.65,0,0,1,.65.65h0Zm-5.34-83a.65.65,0,1,1-.65-.65.65.65,0,0,1,.65.65Zm5.08,22.62a.65.65,0,1,1-.65-.65.65.65,0,0,1,.65.65Zm.26-45.25c-.26.36-.55.65-.91.65s-.64-.28-.17-.63v0c-.48-.36-.19-.65.17-.65s.64.29.91.64Zm-.26,30.17a.65.65,0,1,1-.65-.65.65.65,0,0,1,.65.65Zm0,30.16a.65.65,0,1,1-.65-.64.65.65,0,0,1,.65.64Zm0-45.17a.65.65,0,1,1-.67-.65h0a.65.65,0,0,1,.65.65Zm9,15.48a.62.62,0,0,1-.22-.47.66.66,0,0,1,.11-.36c0,.27.07.55.11.83Zm-4,67.42a.65.65,0,1,1-.65-.65h0a.65.65,0,0,1,.65.65ZM587.68,278a.65.65,0,1,1-.64-.65h0a.64.64,0,0,1,.64.64Zm-5.38,7.54c.49.35.2.64-.16.64s-.64-.27-.92-.62v0c.28-.36.57-.65.92-.65s.64.28.16.64Zm5.38,7.54a.65.65,0,1,1-.64-.65h0a.64.64,0,0,1,.64.64Zm5.24,22.63a.65.65,0,1,1-.65-.65h0a.65.65,0,0,1,.65.65Zm-5.07,7.54a.65.65,0,1,1-.64-.65h0a.65.65,0,0,1,.64.65Zm-5.55-67.88a.65.65,0,1,1-.65-.65h0a.66.66,0,0,1,.65.64Zm0-15.08a.65.65,0,1,1-.65-.65h0a.65.65,0,0,1,.65.64ZM578,202.64a.65.65,0,0,1-1.3,0,.65.65,0,0,1,.65-.65h0a.66.66,0,0,1,.65.63Zm9.86,105.52a.65.65,0,1,1-.64-.64A.65.65,0,0,1,587.85,308.16Zm-5.06-7.48a.65.65,0,1,1-1.29,0,.62.62,0,0,1,.62-.64h0a.65.65,0,0,1,.65.64Zm-.49-30.23a.65.65,0,1,1-.65-.64h0a.65.65,0,0,1,.65.63Zm9.32,30.17a.65.65,0,0,1,1.3,0,.65.65,0,0,1-1.3,0ZM582.3,225.2a.65.65,0,1,1-.65-.64.65.65,0,0,1,.65.64Zm0-15a.65.65,0,1,1-.67-.65h0a.66.66,0,0,1,.65.64Zm5.38,52.73a.65.65,0,1,1-.64-.64h0a.64.64,0,0,1,.64.63Z"/><path class="cls-1" d="M529.3,150.85a.47.47,0,0,0,.34.51l1.81.16c1.79-4.53,3.68-8.1,3.17-6.7a24.9,24.9,0,0,0-1.38,6.84l3.59.25c1.69-8,3.71-13.88,3.53-12-.71,7.37-.37,9.75,0,12.29,8.62.59,20,1.2,28.25,1.46,1.08-4.41,2.1-9.18,2.23-8.85,1.08,2.52,1.22,6.15,1.16,9,2.61.06,4.7.06,6,0,0,0,.74-3.71.87-4.93a27.37,27.37,0,0,0-.6-9.33,46.86,46.86,0,0,0-3.51-8.7v-.07h0a27,27,0,0,1-2-5.81h0a27.47,27.47,0,0,1-.53-4.44c-.19-5.47-2.91-10.24-7.66-11.76-8.74-9.28-18-5.59-20.93,1.37-.29.68-.57,1.45-.85,2.3h0c-1.08,3.15-2,7.22-2.88,10.38h0a31.52,31.52,0,0,1-1.21,3.63C536.15,132,530.81,135.17,529.3,150.85Z"/><path class="cls-1" d="M567,110.13a10.13,10.13,0,0,1,5.28,8.41,28.46,28.46,0,0,0,1,6.8,24.23,24.23,0,0,0,3.43,6,17.92,17.92,0,0,1,3.78,9.86A31.94,31.94,0,0,1,579,153.59h0a34,34,0,0,0,.87-12.93c-.54-4.31-2.73-7.09-5-10.42a18.43,18.43,0,0,1-3.14-8.89,22.42,22.42,0,0,0-.75-5.88,11.13,11.13,0,0,0-4.22-5A.21.21,0,1,1,567,110.13Z"/><path class="cls-1" d="M533.53,132.38c2.33-3.06,4.73-5.65,6.16-9.47,1.32-3.49,2.16-7.17,3.45-10.64,0-.07.1,0,.08,0-2.08,6.18-2.66,12.43-6.59,17.59a42.32,42.32,0,0,0-5.72,8.78,32.75,32.75,0,0,0-2.51,11.21c0,.14-.17.13-.18,0A26.79,26.79,0,0,1,533.53,132.38Z"/><path class="cls-12" d="M552.27,157.06C538.36,171.37,521,180.76,513,179c-6.28-1.35-28.22-15.76-33.64-29.39-1.19-3,22.34-9.62,23.61-7.73,3.74,5.58,16.25,14.27,17.31,13.94,1.42-.43,17.24-6.59,29.62-11.71C564.84,137.92,559.87,149.22,552.27,157.06Z"/><path class="cls-12" d="M474.16,145.25c2.07,4.87,10.21,13.16,12.93,14.41s17.3-12.11,17-15.18-8.5-18.92-13.27-21.47S472,140.21,474.16,145.25Z"/><path class="cls-12" d="M503.2,141.53a44.17,44.17,0,0,1,1.58-12.63c1.53-4.87,4.31-11.85,1.78-12.83-5.3-1.9-12.35,15.68-12.35,15.68s-1.86,8.25,3.24,10.59A5.56,5.56,0,0,0,503.2,141.53Z"/><path class="cls-12" d="M497.39,128.41c-1.7,2.23-3.43.72-3.43.72s3.66,4,2.15,6.71-5.05,0-5.31-.19c.19.21,3.47,4,1.67,6.55s-5-.58-5.24-.79c.12.26,1.63,3.71-.18,5.39-3.11,2.8-7.21-5.92-10.44-6.93,0,0-2.35,5.29-2.45,5.39s-4.06-8.21-2.44-12.5a2.91,2.91,0,0,1,3.12-1.91s-1.6-2.51-.25-4.57c.71-1.07,3-.88,3-.88a3.68,3.68,0,0,1,.12-3.81c1.08-1.4,3.23-1,3.23-1s-9.93-9.48-7.8-11.86c3.66-4.13,21.73,16.62,24.17,16.47C498.49,125.11,498.14,127.44,497.39,128.41Z"/><path class="cls-1" d="M481,120.59v-.08a26,26,0,0,1,12.83,8.72c.11.13.15.91,0,.76A42.16,42.16,0,0,0,481,120.59Z"/><path class="cls-1" d="M477.79,125.33v-.09a24.33,24.33,0,0,1,13.4,10.38c.11.17,0,.44-.11.24C488.87,132.6,482.15,127.45,477.79,125.33Z"/><path class="cls-1" d="M487.32,141.83c-3.06-4.81-7.36-8.15-12.26-11-.07,0,0-.11.05-.1,2.77.72,5.71,2.83,7.87,4.66a15.06,15.06,0,0,1,4.51,6.29C487.52,141.83,487.38,141.94,487.32,141.83Z"/><path class="cls-1" d="M494.05,129.13c.12.16-.5.15-.38.31,1.24,1.8,3.31,5.13,2.07,6.47-1,1.07-3.12.49-3.85,0L490,134.53l1.25,1.94a9.17,9.17,0,0,1,1.25,2.78,3.33,3.33,0,0,1-.29,2.72,1.92,1.92,0,0,1-2.27.84,5.75,5.75,0,0,1-2.4-1.66l-1.86-2,1.08,2.49a8.58,8.58,0,0,1,.64,2.15,3.48,3.48,0,0,1-.2,2.09,1.71,1.71,0,0,1-1.52,1,4,4,0,0,1-2-.83,31.15,31.15,0,0,1-3.46-3.24c-.56-.56-1.07-1.07-1.71-1.67a5.68,5.68,0,0,0-2-1.32,6.09,6.09,0,0,1,1.83,1.48c.55.58,1.08,1.18,1.57,1.79a26.26,26.26,0,0,0,3.37,3.46,4.47,4.47,0,0,0,2.34,1.08,2.46,2.46,0,0,0,2.3-1.4,4.59,4.59,0,0,0,.31-2.59,10.28,10.28,0,0,0-.69-2.42l-.75.49a6.68,6.68,0,0,0,2.81,2,2.76,2.76,0,0,0,1.88,0,3.25,3.25,0,0,0,1.44-1.2,4.24,4.24,0,0,0,.36-3.46,10.14,10.14,0,0,0-1.41-3l-.59.56c1,.66,3.23,1.58,5,.1C498.39,134.34,494.77,129.89,494.05,129.13Z"/><path class="cls-8" d="M506.85,144.27l-21.28,18.47s20.87,19.4,32.24,17.85,33.59-19.26,40.38-29.72c5.88-9.06-1-10.77-8-7.37s-29.53,11.72-30.24,11.5S506.85,144.27,506.85,144.27Z"/><path class="cls-13" d="M515.59,180.62a10.4,10.4,0,0,0,2.16-.05c11.36-1.58,33.6-19.26,40.39-29.72,3.23-4.93,2.63-7.68.29-8.62Z"/><path class="cls-1" d="M490.59,166.42a27,27,0,0,1,2.25-2.16l2.42-2.31c1.56-1.47,3.23-2.86,4.84-4.26,3.3-2.83,6.61-5.73,10.14-8.31.06,0,.17,0,.1.11-3,3.08-6.28,5.91-9.5,8.75-1.62,1.41-3.23,2.85-4.88,4.19-.84.68-1.68,1.34-2.53,2a24.68,24.68,0,0,1-2.74,2.15S490.55,166.48,490.59,166.42Z"/><path class="cls-4" d="M530.75,183.76l-5.88,28.48s46.78,3.46,58.45,3.33c0,0-6.31-54.27-18-68.58-5.85-7.15-13.22-7.08-18.17-2.6-1.25,1.07-16.48,19-18.38,26C527.09,176.6,530.75,183.76,530.75,183.76Z"/><path class="cls-1" d="M532.3,178.92a17.64,17.64,0,0,1-.39-5.12,24,24,0,0,1,3.43-9.82c1-1.72,2.15-3.31,3.18-5,0,0,0-.08-.08,0a36.44,36.44,0,0,0-2.53,3.52v-.12c.27-.67.55-1.33.85-2,0-.06-.07-.13-.12-.06-.33.63-.65,1.28-1,1.93-.19.42-.34.84-.49,1.27a32.32,32.32,0,0,0-2.53,4.71,16.32,16.32,0,0,0-1.15,10.33,18.16,18.16,0,0,0,2.39,5.29.06.06,0,0,0,.08,0,.06.06,0,0,0,0-.09,26.55,26.55,0,0,1-1.76-4.8"/><polygon class="cls-10" points="535.71 231.58 499.02 237.85 483.21 187.12 519.9 180.84 535.71 231.58"/><polygon class="cls-3" points="533.91 231.89 497.22 238.16 481.42 187.42 518.1 181.16 533.91 231.89"/><path class="cls-5" d="M502.46,208.21a4,4,0,0,0,4.48,2.9,3.23,3.23,0,0,0,2.75-3.65,3.94,3.94,0,0,0-.1-.47,4,4,0,0,0-4.49-2.9,3.23,3.23,0,0,0-2.75,3.65A3.57,3.57,0,0,0,502.46,208.21Z"/><path class="cls-12" d="M569.27,147.09c11.11,14.43,36.41,52.56,29.67,60.34-11.09,12.83-38.15,24.06-46.64,26.61-3.65,1.07-16.76-25.51-13.31-27.69,4.14-2.63,31.46-11.5,31.32-14-.07-1.42-3.67-16.67-6.57-31.86C560.38,142.91,565.45,142.14,569.27,147.09Z"/><path class="cls-12" d="M552.32,204.52s-11.15-3.24-18.54-5.07c-4.13-1-11.36-2.09-14.72-1.44-5,1-25.48,8.26-23.82,13.25,1.5,4.53,18.31-4,18.31-4s-17.68,7.06-14.86,12.18,20.47-7,20.47-7-18,7.67-14.28,12.49c2.82,3.63,19.45-6.47,19.45-6.47s-15.43,6.7-12.69,10.57c3,4.31,19-4.06,19-4.06,8.62,8.62,17.74,10.77,22.71,8.73C554.5,233.26,552.32,204.52,552.32,204.52Z"/><path class="cls-1" d="M518.64,204.82c-13.41,4.21-18.7,10.39-18.53,10.25,4.1-3.23,11.32-6.68,13.36-7.61s3.23-1.62,5.21-2.57C518.7,204.87,518.7,204.81,518.64,204.82Z"/><path class="cls-1" d="M523,211.73a48,48,0,0,0-15.35,7.18c-.17.14-.07.17.12.08,2.55-1.28,12.67-6.06,15.27-7.19C523.07,211.78,523,211.72,523,211.73Z"/><path class="cls-1" d="M527.14,217.43a35.63,35.63,0,0,0-11.67,5.91c-.17.13,0,.18.17.08,3.87-2,6.88-3.66,11.61-5.83C527.32,217.54,527.23,217.41,527.14,217.43Z"/><path class="cls-8" d="M555.26,198.94l14,30.52S599,215.23,601.05,204.3s-24.78-49.49-29.9-55.78c-1.45-1.78-5.38-5.82-7.32-5.38-2.16.52-2,3.71-1.85,11.08.15,9.83,7.8,36.86,7.21,38S555.26,198.94,555.26,198.94Z"/><path class="cls-1" d="M572.48,223.41c-.65-1-1.08-2.08-1.67-3.1s-1.08-2.09-1.57-3.16c-1-2-1.94-4.08-2.89-6.14l-2.81-6.17c-1-2.16-2.06-4.25-2.86-6.47a.09.09,0,0,1,.08-.09.09.09,0,0,1,.07,0c1.19,2,2.16,4.19,3.16,6.29s2,4.15,3,6.22,2,4.16,3,6.26c.47,1.08.94,2.06,1.37,3.1s.95,2.08,1.29,3.17C572.65,223.46,572.58,223.48,572.48,223.41Z"/><path class="cls-1" d="M567.39,182.11q-1.08-4.7-2.25-9.37-1.32-5.33-2.9-10.57c0-.11-.18,0-.16,0q.78,3.39,1.57,6.8a11.11,11.11,0,0,0-.59-1.2c-.46-.82-1-1.59-1.42-2.41h0c.39.83.75,1.69,1.15,2.52.19.41.41.82.64,1.21l.5.79q1.17,5,2.3,10c.65,2.93,3,12.54,2.72,12.72-.48.34-10.6,5.29-13.77,6.64h0a4.41,4.41,0,0,0,.27.85s.17,0,.15-.07l-.21-.61c2.85-1.18,14-6.13,14.24-6.47S568.09,185.17,567.39,182.11Z"/><path class="cls-12" d="M562.09,143.84c-.35.88-5.61,6.18-9.75,5.36-1.35-.26-.21-7.72-.21-7.72v-.58l-.59-8,9.93-4.47,1.43-.57v8.93A51.68,51.68,0,0,1,562.09,143.84Z"/><path class="cls-1" d="M562.8,132.84a15.94,15.94,0,0,1-10.77,8l-.58-7.93,9.88-4.44,1.42-.58S562.8,130.12,562.8,132.84Z"/><path class="cls-12" d="M541.63,121.11c-1.36,13.89,6.81,16.28,9.81,16.57,2.72.26,12,.81,14.8-12.93s-3.23-18.7-9.43-19.63S543,107.21,541.63,121.11Z"/><path class="cls-1" d="M544.69,118.13c.32,0,.64,0,1-.1a1.59,1.59,0,0,0,1-.3.51.51,0,0,0,.11-.68,1.25,1.25,0,0,0-1.19-.4,1.78,1.78,0,0,0-1.19.52.53.53,0,0,0,.35,1Z"/><path class="cls-1" d="M553.85,119.1c-.32-.08-.61-.2-.93-.29a1.57,1.57,0,0,1-.87-.48.48.48,0,0,1,0-.6,1.26,1.26,0,0,1,1.24-.17,1.88,1.88,0,0,1,1.08.75.53.53,0,0,1-.2.72A.52.52,0,0,1,553.85,119.1Z"/><path class="cls-1" d="M551.4,122.44a.06.06,0,0,1,.06.08c-.14.94-.15,2,.67,2.46V125C551.08,124.75,551.12,123.29,551.4,122.44Z"/><path class="cls-1" d="M552.38,121.54c1.53.07,1.29,3.13-.14,3.06S551.1,121.48,552.38,121.54Z"/><path class="cls-1" d="M553,122.2c.25.19.49.53.8.58s.68-.23,1-.52h.06a1.11,1.11,0,0,1-.95,1.21c-.64,0-1-.53-1.08-1.08C552.76,122.27,552.87,122.12,553,122.2Z"/><path class="cls-1" d="M546.19,121.75s-.09,0-.09.07c0,1-.24,2-1.07,2.29h0C546,124.09,546.3,122.65,546.19,121.75Z"/><path class="cls-1" d="M545.41,120.69c-1.52-.23-1.86,2.82-.46,3S546.72,120.89,545.41,120.69Z"/><path class="cls-1" d="M544.76,120.82c-.26.13-.53.4-.82.39s-.55-.38-.72-.72h0c-.09.58,0,1.21.58,1.38s.93-.29,1.14-.86C544.92,120.94,544.86,120.77,544.76,120.82Z"/><path class="cls-1" d="M550.7,130c-.23.22-.47.51-.82.53a2.59,2.59,0,0,1-1-.28h0a1.33,1.33,0,0,0,1.19.56,1.07,1.07,0,0,0,.77-.82Z"/><path class="cls-1" d="M547.07,126.2s-.33,1.39-.4,2.06c0,.06.15.1.38.14h0a3.17,3.17,0,0,0,3.23-.89.07.07,0,0,0,0-.1h0a5,5,0,0,1-3,.56c0-.2.64-2.37.54-2.4a5.85,5.85,0,0,0-1.55.21c.6-2.93,1.67-5.73,2.22-8.62,0-.1-.13-.15-.16,0a46.83,46.83,0,0,0-2.79,9.21C545.37,126.65,546.79,126.28,547.07,126.2Z"/><path class="cls-1" d="M547.22,128.23a3.72,3.72,0,0,0,1.34,1.36,1.69,1.69,0,0,0,1,.2c.77-.1.87-.78.82-1.37a4.83,4.83,0,0,0-.21-.93A4.91,4.91,0,0,1,547.22,128.23Z"/><path class="cls-14" d="M548.56,129.59a1.69,1.69,0,0,0,1,.2c.77-.1.87-.78.82-1.37A1.74,1.74,0,0,0,548.56,129.59Z"/><path class="cls-1" d="M565.18,124.23c-2.54.44-3.47-5.39-3.47-5.39s-11-1.34-12.3-10.15a15,15,0,0,1-7.16,8.56s-.08-9.7,7.54-12c0,0,9.38-3.93,15.08,3.39S566.89,123.94,565.18,124.23Z"/><path class="cls-1" d="M549.35,108.07a9.47,9.47,0,0,0,.67,4,10.15,10.15,0,0,0,2.22,3.47,7.26,7.26,0,0,0,.77.7l.4.35.43.29c.29.18.57.39.87.56l.93.44.46.22.5.16,1,.32c.66.15,1.33.27,2,.38-.64-.24-1.28-.42-1.91-.66l-.92-.4-.46-.19-.44-.25c-.28-.17-.57-.33-.86-.48a9.08,9.08,0,0,1-.81-.57l-.4-.3-.36-.32a6.56,6.56,0,0,1-.72-.67,12.07,12.07,0,0,1-2.93-5.1A11,11,0,0,1,549.35,108.07Z"/><path class="cls-5" d="M543.29,126.48c-1.5-.22-2.44-2.24-2.15-4.5s1.83-3.94,3.33-3.71,2.44,2.25,2.15,4.51S544.79,126.75,543.29,126.48Zm1.14-7.66c-1.19-.17-2.4,1.27-2.7,3.23s.45,3.71,1.64,3.88,2.41-1.27,2.7-3.23S545.64,119,544.43,118.82Z"/><path class="cls-5" d="M552.49,127.83A4.17,4.17,0,1,1,557,124c0,.09,0,.19,0,.29A4,4,0,0,1,552.49,127.83Zm.72-7.68a3.62,3.62,0,1,0,2.7,4.33,2.56,2.56,0,0,0,.05-.27,3.46,3.46,0,0,0-2.75-4Z"/><path class="cls-5" d="M549.51,122.84c-2-1.08-3-.5-3-.49l-.27-.48s1.28-.71,3.53.47Z"/><path class="cls-5" d="M556.44,123.93v-.56c.36,0,9-.32,9.89-.23s3,1.68,3.23,1.85l-.33.44a10.83,10.83,0,0,0-2.93-1.73h0C565.56,123.62,559.53,123.82,556.44,123.93Z"/><path class="cls-12" d="M563.61,125.46s3.1-4.31,5.06-3.24-.39,7.4-2.72,8.25a2.36,2.36,0,0,1-3.11-1.22l0-.09Z"/><path class="cls-1" d="M568,124.09a6,6,0,0,0-3.12,3.69,1.3,1.3,0,0,1,1.8-.44.91.91,0,0,1,.16.11m0,.08a1.48,1.48,0,0,0-1.61.5,7.25,7.25,0,0,0-.77,1.28c-.08.14-.34.07-.28-.11h0c-.06-2.11,1.59-5,3.82-5.18Z"/><path class="cls-1" d="M563.78,108.55c-1.25-.45-2.49-7.42,2.08-10.77s10.46.4,8,6.13C572.36,107.53,566.43,109.51,563.78,108.55Z"/><path class="cls-1" d="M572.26,97.32a7.79,7.79,0,0,1,2.69,4.4,4.69,4.69,0,0,1-1.37,4.5,9.45,9.45,0,0,1-4.54,2.27,14.45,14.45,0,0,1-2.62.33,6.94,6.94,0,0,1-2.64-.27,6.56,6.56,0,0,0,2.63.77,12.23,12.23,0,0,0,2.77-.07,9.25,9.25,0,0,0,5.1-2.3,5.28,5.28,0,0,0,1.41-5.39A6.86,6.86,0,0,0,572.26,97.32Z"/><path class="cls-1" d="M564.61,144.72c-1.32,1.08-2.57,2.15-4,3.23a17.07,17.07,0,0,1-4.86,2.62,4.82,4.82,0,0,1-4.46-.53,3.75,3.75,0,0,1-1-2.7,7.7,7.7,0,0,1,.43-3.23c0-.1-.13-.14-.16,0-.53,1.73-1.18,4.3,0,6,.92,1.35,2.79,1.53,4.31,1.25a14,14,0,0,0,5.31-2.57,29.56,29.56,0,0,0,4.53-4S564.66,144.69,564.61,144.72Z"/><text class="cls-15" transform="translate(119.1 179.01)">HI<tspan class="cls-16" x="8.95" y="0">S</tspan><tspan x="14.57" y="0">T</tspan><tspan class="cls-17" x="19.27" y="0">O</tspan><tspan x="27.15" y="0">RY</tspan></text><text class="cls-18" transform="translate(120.14 189.61)">C<tspan class="cls-19" x="5.02" y="0">R</tspan><tspan class="cls-20" x="8.8" y="0">E</tspan><tspan x="12.77" y="0">ATE </tspan><tspan class="cls-21" x="25.28" y="0">N</tspan><tspan class="cls-22" x="29.47" y="0">E</tspan><tspan x="33.57" y="0">W</tspan></text><text class="cls-18" transform="translate(128.05 218.7)"><tspan class="cls-21">S</tspan><tspan x="3.74" y="0">TOCK</tspan></text><text class="cls-23" transform="translate(130.23 228.4)"><tspan class="cls-24">O</tspan><tspan class="cls-25" x="5.26" y="0">P</tspan><tspan class="cls-24" x="8.91" y="0">E</tspan><tspan x="12.75" y="0">N</tspan></text><text class="cls-23" transform="translate(378.03 57.81)">Pr<tspan class="cls-21" x="6.26" y="0">i</tspan><tspan x="7.93" y="0">ci</tspan><tspan class="cls-24" x="13.52" y="0">n</tspan><tspan x="17.27" y="0">g</tspan></text><text class="cls-23" transform="translate(421.93 57.81)"><tspan class="cls-26">M</tspan><tspan x="4.83" y="0">a</tspan><tspan class="cls-27" x="8.93" y="0">r</tspan><tspan class="cls-28" x="11.48" y="0">k</tspan><tspan class="cls-29" x="14.88" y="0">et </tspan></text><text class="cls-23" transform="translate(469.61 57.81)">L<tspan class="cls-28" x="3.65" y="0">o</tspan><tspan class="cls-19" x="7.72" y="0">g</tspan><tspan x="11.88" y="0">in</tspan></text><text class="cls-23" transform="translate(130.21 242.41)"><tspan class="cls-25">L</tspan><tspan class="cls-24" x="3.52" y="0">O</tspan><tspan x="8.78" y="0">AD</tspan></text><path class="cls-8" d="M410.44,221.37a11.35,11.35,0,0,1-10.67,8.28c-5.88.17-11.79,0-17.68,0a4.73,4.73,0,0,1-3-.79q-9.71-7.11-19.43-14.18a9.57,9.57,0,0,0-3-1.67c-.7-.2-.91-.56-.64-1.27a13.52,13.52,0,0,0,.73-5c0-3.8,0-7.6,0-11.4,0-1.59-.31-1.89-1.89-1.91-.95,0-1.9,0-2.85,0-1.35,0-1.67.34-1.68,1.72,0,3.84,0,7.69,0,11.53a14,14,0,0,1-.19,2.34,3.34,3.34,0,0,1-3.64,3,3.45,3.45,0,0,1-3.41-3,17.08,17.08,0,0,1-.19-3.71c0-3.34,0-6.69,0-10,0-1.53-.29-1.81-1.82-1.82-1.07,0-2.15,0-3.22,0a1.25,1.25,0,0,0-1.39,1.39c0,4.71-.16,9.43.1,14.13.28,5.07,3.45,7.87,8.82,8.23,1.13.08,1.44.33,1.06,1.47-.72,2.15-.15,4.34,0,6.51.1,1.1.25,2.21.41,3.31.12.86-.21,1.19-1.09,1.18-2.06,0-4.13,0-6.2,0-14.59,0-29.18,0-43.78,0a12.71,12.71,0,0,1-9.29-3.93c-4.29-4.57-2.65-10-2.7-15.62,0-3.63,0-7.27,0-10.9,0-1.9,0-3.81.06-5.71a25.27,25.27,0,0,1,.2-5.37c1.24-5.28,7.09-8.15,12.11-8.12,14.47.07,28.94,0,43.42,0H399.3a11.74,11.74,0,0,1,6.88,2,11.27,11.27,0,0,1,4.7,8.41c.32,5.17-.1,10.47-.1,15.65,0,4.21.12,8.44,0,12.65A10.93,10.93,0,0,1,410.44,221.37Zm-81.85-16.76c0-.1,0-.16.06-.17a5.69,5.69,0,0,1,.52-.33,5.21,5.21,0,0,0,2.7-5.42,4.86,4.86,0,0,0-3.48-4.38,10.05,10.05,0,0,0-2.53-.61c-3.33-.33-6.67-.23-10-.26-1.21,0-1.75.51-1.74,1.7q0,10.05,0,20.08c0,1.18.5,1.76,1.71,1.74,2.73,0,5.46,0,8.18,0a10.69,10.69,0,0,0,5.76-1.67c3.75-2.48,3.54-9.21-.79-10.4A1.57,1.57,0,0,1,328.59,204.61Zm44.72,7.32c-.54-2.88.48-5.32,1.92-7.74,1.67-2.81,3.16-5.71,4.71-8.59.77-1.44.38-2.11-1.22-2.14-1.08,0-2.15,0-3.23,0a1.81,1.81,0,0,0-1.91,1.23c-.92,2-1.88,4.05-2.84,6.07-.16.32-.21.82-.64.83s-.5-.5-.65-.82c-1-2-1.91-4-2.83-6.07a1.82,1.82,0,0,0-1.91-1.24c-1.16.05-2.32,0-3.48,0-1.48.05-1.8.68-1.1,2,2,3.79,4.06,7.58,6.12,11.36a4.86,4.86,0,0,1,.62,2.48c0,2,0,4,0,6,0,1.34.35,1.67,1.7,1.71,1,0,2.07,0,3.1,0s1.68-.51,1.65-1.67S373.31,213,373.31,211.93Z"/><path class="cls-8" d="M352,221.32a2.18,2.18,0,0,1,1.26-2.32,2.41,2.41,0,0,1,2.75.45q17.07,12.47,34.15,24.9c1.2.88,2.41,1.75,3.59,2.66a2.31,2.31,0,0,1,1,2.58,2.27,2.27,0,0,1-2.09,1.65q-5.19.85-10.37,1.75c-1.33.23-1.41.4-.73,1.58q4.29,7.47,8.61,14.93c1.22,2.13,1,3.14-1.14,4.36s-4.29,2.49-6.44,3.72-3.05.89-4.25-1.18q-4.32-7.45-8.62-14.92c-.79-1.36-.83-1.36-1.84-.15-2.21,2.68-4.45,5.33-6.63,8a2.32,2.32,0,0,1-2.74.87,2.46,2.46,0,0,1-1.58-2.31c-.68-6-1.16-12-1.94-18-.45-3.56-.69-7.14-1.07-10.71-.63-5.77-1.3-11.53-1.94-17.3A4.48,4.48,0,0,1,352,221.32Z"/><path class="cls-8" d="M321.23,238.53a2.23,2.23,0,0,1-.78,1.4q-4.36,4.38-8.75,8.74c-1,1-2.22,1.09-3.05.24s-.76-2,.28-3c2.9-2.93,5.83-5.83,8.74-8.75a2.1,2.1,0,0,1,2.47-.59A1.9,1.9,0,0,1,321.23,238.53Z"/><path class="cls-8" d="M346.21,249.47a2.25,2.25,0,0,1-1.91-.63c-3-3-6-6-9-9a2,2,0,1,1,2.77-2.79q4.53,4.47,9,9a2,2,0,0,1,.5,2.27A1.78,1.78,0,0,1,346.21,249.47Z"/><path class="cls-8" d="M329.9,248.41c0,2,0,4.05,0,6.07,0,1.54-.81,2.47-2,2.44s-1.91-.93-1.92-2.42q0-6.12,0-12.25c0-1.47.79-2.37,2-2.38s2,.89,2,2.35C329.92,244.29,329.9,246.35,329.9,248.41Z"/><path class="cls-8" d="M329.9,161.2c0,2.07,0,4.13,0,6.19,0,1.56-.79,2.48-2,2.46s-1.93-.92-1.94-2.4q0-6.37,0-12.75c0-1.48.78-2.38,1.95-2.4s2,.91,2,2.47C329.92,156.91,329.9,159.06,329.9,161.2Z"/><path class="cls-8" d="M321.23,171.33a1.91,1.91,0,0,1-2.91,1.77,6,6,0,0,1-1.12-1q-3.94-3.93-7.87-7.87a6.59,6.59,0,0,1-.68-.72,2,2,0,0,1,0-2.78,1.87,1.87,0,0,1,2.68,0c3.16,3.08,6.26,6.22,9.37,9.34A1.72,1.72,0,0,1,321.23,171.33Z"/><path class="cls-8" d="M347.74,162a2.32,2.32,0,0,1-.78,1.79c-2.91,2.92-5.82,5.85-8.75,8.74-1,1-2.25,1.09-3.07.27a2.09,2.09,0,0,1,.28-3.07q4.35-4.38,8.74-8.74a2,2,0,0,1,2.46-.59A1.81,1.81,0,0,1,347.74,162Z"/><path class="cls-8" d="M320.31,209.6c0-2.5,0-2.5,2-2.5,2.3,0,3.4.79,3.39,2.47s-1.08,2.48-3.76,2.48C320.32,212.06,320.31,212,320.31,209.6Z"/><path class="cls-8" d="M322.35,198.41c2.28,0,2.87.45,2.84,2a1.73,1.73,0,0,1-1.28,1.74,4.55,4.55,0,0,1-.83.19c-2.59.32-3.44-.7-2.71-3.24C320.72,197.94,321.75,198.61,322.35,198.41Z"/><path class="cls-8" d="M480.4,101.65a2.25,2.25,0,0,1-.5,2.78c-1.15,1-2.28.74-3.46-.14-3.62-2.72-7.29-5.37-10.93-8.05-1.43-1-2.85-2.11-4.26-3.17a2.23,2.23,0,0,1-.62-3.35,2.07,2.07,0,0,1,3.12-.6c5.41,3.93,10.77,7.93,16.14,11.91A3.1,3.1,0,0,1,480.4,101.65Z"/><path class="cls-8" d="M504.49,101c-1,.33-2,.44-2.74-.48-1-1.2-.77-2.36.07-3.51,2.52-3.42,5.06-6.83,7.59-10.25,1.23-1.67,2.45-3.35,3.72-5a2.23,2.23,0,0,1,3.38-.47,2.14,2.14,0,0,1,.43,3.18c-3.89,5.37-7.84,10.68-11.79,16A3.27,3.27,0,0,1,504.49,101Z"/><path class="cls-8" d="M530.38,110c-.62.1-1.59.29-2.56.44q-8.07,1.23-16.12,2.46c-1.64.26-3.11,0-3.44-1.83s.87-2.59,2.58-2.84c6.06-.89,12.12-1.84,18.17-2.78,1.43-.22,2.64.12,3.13,1.56S532,109.34,530.38,110Z"/><path class="cls-8" d="M489.33,75.55c.08.36.24.93.33,1.52.87,5.76,1.7,11.53,2.61,17.29.28,1.79.06,3.34-2,3.55-1.82.19-2.45-1.11-2.69-2.82-.85-6.07-1.81-12.12-2.75-18.18a2.37,2.37,0,0,1,1.79-3C487.9,73.58,488.7,74.26,489.33,75.55Z"/><path class="cls-8" d="M343.44,109.16a1.18,1.18,0,0,1-.4.54q-8.84,8.83-17.67,17.68c-.3.3-.46.37-.79,0q-8.9-8.93-17.8-17.81c-.1-.1-.18-.2-.29-.32.2-.2.43-.11.63-.11,2.43,0,4.87,0,7.3,0,.5,0,.63-.13.62-.62,0-6.38,0-12.76,0-19.14,0-.62.16-.76.76-.76q9.21,0,18.42,0c.55,0,.69.15.69.7,0,6.38,0,12.75,0,19.13,0,.55.14.7.68.69C338.16,109.15,340.77,109.16,343.44,109.16Z"/><path class="cls-8" d="M325.27,134.25H301.54c-.53,0-.76-.1-.7-.67a12.51,12.51,0,0,0,0-1.5c0-.29.07-.46.4-.42.11,0,.23,0,.35,0H349c.87,0,.78-.1.77.76,0,.59.26,1.38-.12,1.72s-1.1.1-1.67.1Z"/><path class="cls-8" d="M324.93,80.24c3.1,0,6.21,0,9.32,0,.48,0,.65.11.64.62,0,1.65,0,3.3,0,5,0,.42-.13.53-.54.53q-9.39,0-18.77,0c-.46,0-.56-.15-.56-.58,0-1.66,0-3.31,0-5,0-.46.14-.57.58-.57C318.71,80.25,321.82,80.24,324.93,80.24Z"/><path class="cls-8" d="M324.93,73.75c3.11,0,6.22,0,9.33,0,.5,0,.65.14.63.63,0,1,0,2,0,3,0,.45-.13.57-.57.57-3.61,0-7.22,0-10.83,0-2.63,0-5.26,0-7.89,0-.45,0-.59-.12-.58-.57,0-1,0-2.08,0-3.11,0-.45.14-.57.58-.57C318.71,73.76,321.82,73.75,324.93,73.75Z"/></svg>